<svg viewBox="0 0 65 61" xmlns="http://www.w3.org/2000/svg"><path d="M53.5 37.295c-.915 0-1.801.12-2.654.323l-.081-.128-10.606-16.744A11.57 11.57 0 0 0 44 12.126C44 5.734 38.851.55 32.5.55S21 5.732 21 12.127c0 3.428 1.489 6.5 3.841 8.619L14.235 37.49l-.08.128a11.422 11.422 0 0 0-2.655-.323C5.149 37.295 0 42.48 0 48.873c0 6.395 5.149 11.578 11.5 11.578S23 55.267 23 48.873c0-4.38-2.418-8.191-5.982-10.158l10.3-16.262a11.373 11.373 0 0 0 5.182 1.251c1.866 0 3.623-.457 5.182-1.251l10.3 16.262A11.585 11.585 0 0 0 42 48.873c0 6.394 5.149 11.578 11.5 11.578S65 55.267 65 48.873c0-6.394-5.149-11.578-11.5-11.578ZM11.47 54.341a5.36 5.36 0 1 1 0-10.72 5.36 5.36 0 0 1 0 10.72Z" fill="#2160FD"/></svg>
