<svg viewBox="0 0 29 28" fill="none" xmlns="http://www.w3.org/2000/svg"><path fill-rule="evenodd" clip-rule="evenodd" d="M14.354 0C6.426 0 0 6.426 0 14.354c0 6.341 4.112 11.723 9.817 13.622.718.13.977-.312.977-.692 0-.341-.012-1.245-.016-2.44-3.994.865-4.837-1.927-4.837-1.927-.65-1.657-1.593-2.1-1.593-2.1-1.303-.89.1-.87.1-.87 1.441.1 2.197 1.48 2.197 1.48 1.28 2.193 3.362 1.56 4.176 1.193.131-.929.505-1.562.914-1.92-3.186-.361-6.537-1.593-6.537-7.095 0-1.565.56-2.849 1.474-3.85-.145-.364-.642-1.825.143-3.8 0 0 1.204-.387 3.946 1.47a13.792 13.792 0 0 1 3.592-.484 13.75 13.75 0 0 1 3.592.484c2.743-1.858 3.946-1.47 3.946-1.47.785 1.975.293 3.436.143 3.8.92 1.001 1.474 2.284 1.474 3.85 0 5.516-3.354 6.728-6.552 7.083.511.444.972 1.319.972 2.657 0 1.92-.017 3.468-.017 3.939 0 .384.256.83.988.69 5.702-1.903 9.81-7.28 9.81-13.62C28.709 6.426 22.283 0 14.354 0Z" fill="#2160FD"/></svg>
