<svg viewBox="0 0 32 32" fill="none" xmlns="http://www.w3.org/2000/svg"><path d="M16 0c-2.092 0-3.692 1.6-3.692 3.692v7.385c0 2.092 1.6 3.692 3.692 3.692h7.385l4.923 4.923V14.77c2.092 0 3.692-1.6 3.692-3.692V3.692C32 1.6 30.4 0 28.308 0H16Zm5.154 3.692h2.115l2.078 7.385H23.5L23 9.23h-1.847l-.46 1.846h-1.616l2.077-7.385Zm1 1.231c-.123.492-.261 1.093-.385 1.462L21.424 8h1.46l-.346-1.616c-.245-.368-.384-.969-.384-1.46ZM3.692 12.308C1.6 12.308 0 13.908 0 16v7.385c0 2.092 1.6 3.692 3.692 3.692V32l4.923-4.923H16c2.092 0 3.692-1.6 3.692-3.692V16H16c-2.338 0-4.192-1.6-4.807-3.692h-7.5Zm5.654 3.576c2.093 0 3.077 1.723 3.077 3.693 0 1.723-.592 2.816-1.576 3.308.492.246 1.075.377 1.69.5l-.46 1.23c-.861-.246-1.755-.63-2.616-1-.123-.123-.339-.115-.462-.115-1.477-.123-2.845-1.346-2.845-3.808 0-2.092 1.223-3.808 3.192-3.808Zm0 1.347c-.984 0-1.462 1.107-1.462 2.461 0 1.477.478 2.462 1.462 2.462.985 0 1.5-1.108 1.5-2.462s-.515-2.461-1.5-2.461Z" fill="#2160FD"/></svg>
