<svg viewBox="0 0 48 48" fill="none" xmlns="http://www.w3.org/2000/svg">
<g clip-path="url(#clip0)">
<path d="M10.6688 0H37.2563C38.5501 0 39.8063 0.20625 41.0251 0.6375C42.7876 1.275 44.3813 2.4 45.5813 3.8625C46.8001 5.325 47.6063 7.125 47.8876 9C48.0001 9.69375 48.0188 10.3875 48.0188 11.0812V37.0125C48.0188 37.8375 47.9813 38.6813 47.8126 39.4875C47.4376 41.3438 46.5563 43.0875 45.2813 44.4938C44.0251 45.9 42.3751 46.95 40.5938 47.5125C39.5063 47.85 38.3813 48 37.2376 48C36.7313 48 10.5938 48 10.2001 47.9812C8.28758 47.8875 6.39383 47.2687 4.80008 46.2C3.24383 45.15 1.96883 43.6875 1.14383 42C0.431331 40.5563 0.0750805 38.9438 0.0750805 37.3313V10.6688C0.0375805 9.075 0.37508 7.5 1.06883 6.075C1.87508 4.3875 3.13133 2.90625 4.68758 1.85625C6.28133 0.76875 8.15633 0.13125 10.0688 0.0375C10.2563 0 10.4626 0 10.6688 0Z" fill="url(#paint0_linear)"/>
<path d="M40.5 39.2625C40.3312 39 40.1437 38.7375 39.9375 38.4938C39.4688 37.9313 38.925 37.4438 38.325 37.0313C37.575 36.525 36.6937 36.2063 35.7937 36.1688C35.1562 36.1313 34.5187 36.2438 33.9187 36.4688C33.3187 36.675 32.7375 36.975 32.175 37.275C31.5188 37.6125 30.8625 37.95 30.1687 38.2313C29.3437 38.5688 28.4812 38.8313 27.6 39.0188C26.4937 39.225 25.3687 39.3 24.2625 39.2813C22.2562 39.2438 20.25 38.9438 18.3375 38.3813C16.65 37.875 15.0375 37.1813 13.5187 36.3C12.1875 35.5313 10.95 34.65 9.7875 33.6563C8.83125 32.8313 7.95 31.95 7.125 31.0125C6.5625 30.3563 6.01875 29.6625 5.5125 28.95C5.30625 28.6688 5.11875 28.3688 4.95 28.0688L0 22.725V10.6313C0 4.7625 4.74375 0 10.6125 0H20.0812L27.0938 7.125C42.9188 17.8875 37.8 29.7563 37.8 29.7563C37.8 29.7563 42.3 34.8188 40.5 39.2625Z" fill="url(#paint1_linear)"/>
<path d="M27.1305 7.125C42.9555 17.8875 37.8367 29.7562 37.8367 29.7562C37.8367 29.7562 42.3367 34.8375 40.518 39.2812C40.518 39.2812 38.6617 36.1687 35.5492 36.1687C32.5492 36.1687 30.7867 39.2812 24.7492 39.2812C11.3055 39.2812 4.94922 28.05 4.94922 28.05C17.0617 36.0188 25.3305 30.375 25.3305 30.375C19.8742 27.2062 8.26797 12.0563 8.26797 12.0563C18.3742 20.6625 22.743 22.9313 22.743 22.9313C20.1367 20.775 12.8242 10.2375 12.8242 10.2375C18.6742 16.1625 30.2992 24.4313 30.2992 24.4313C33.5992 15.2813 27.1305 7.125 27.1305 7.125Z" fill="black" fill-opacity="0.87"/>
</g>
<defs>
<linearGradient id="paint0_linear" x1="28.5546" y1="-1.71281" x2="19.4858" y2="49.7186" gradientUnits="userSpaceOnUse">
<stop stop-color="#FAAE42"/>
<stop offset="1" stop-color="#EF3E31"/>
</linearGradient>
<linearGradient id="paint1_linear" x1="24.4898" y1="0.7755" x2="17.8524" y2="38.4174" gradientUnits="userSpaceOnUse">
<stop stop-color="#E39F3A"/>
<stop offset="1" stop-color="#D33929"/>
</linearGradient>
<clipPath id="clip0">
<rect width="48" height="48" fill="white"/>
</clipPath>
</defs>
</svg>
