<svg width="400" height="300" viewBox="0 0 400 300" fill="none" xmlns="http://www.w3.org/2000/svg">
<rect width="400" height="300" fill="#E0E9FF"/>
<rect x="41" y="140" width="318" height="38" rx="3" fill="#191919"/>
<rect x="54" y="155" width="145" height="7" rx="3.5" fill="#474747"/>
<line x1="202.5" y1="169" x2="202.5" y2="149" stroke="#999999"/>
<path d="M266.875 166.5C266.875 166.599 266.835 166.695 266.765 166.765C266.695 166.835 266.599 166.875 266.5 166.875H265C264.38 166.875 263.773 166.705 263.243 166.382C262.714 166.06 262.284 165.598 262 165.047C261.716 165.598 261.286 166.06 260.757 166.382C260.227 166.705 259.62 166.875 259 166.875H257.5C257.401 166.875 257.305 166.835 257.235 166.765C257.165 166.695 257.125 166.599 257.125 166.5C257.125 166.401 257.165 166.305 257.235 166.235C257.305 166.165 257.401 166.125 257.5 166.125H259C259.695 166.123 260.362 165.845 260.853 165.353C261.345 164.862 261.623 164.195 261.625 163.5V159.375H259.75C259.651 159.375 259.555 159.335 259.485 159.265C259.415 159.195 259.375 159.099 259.375 159C259.375 158.901 259.415 158.805 259.485 158.735C259.555 158.665 259.651 158.625 259.75 158.625H261.625V154.5C261.623 153.805 261.345 153.138 260.853 152.647C260.362 152.155 259.695 151.877 259 151.875H257.5C257.401 151.875 257.305 151.835 257.235 151.765C257.165 151.695 257.125 151.599 257.125 151.5C257.125 151.401 257.165 151.305 257.235 151.235C257.305 151.165 257.401 151.125 257.5 151.125H259C259.62 151.125 260.227 151.295 260.757 151.618C261.286 151.94 261.716 152.402 262 152.953C262.284 152.402 262.714 151.94 263.243 151.618C263.773 151.295 264.38 151.125 265 151.125H266.5C266.599 151.125 266.695 151.165 266.765 151.235C266.835 151.305 266.875 151.401 266.875 151.5C266.875 151.599 266.835 151.695 266.765 151.765C266.695 151.835 266.599 151.875 266.5 151.875H265C264.305 151.877 263.638 152.155 263.147 152.647C262.655 153.138 262.377 153.805 262.375 154.5V158.625H264.25C264.349 158.625 264.445 158.665 264.515 158.735C264.585 158.805 264.625 158.901 264.625 159C264.625 159.099 264.585 159.195 264.515 159.265C264.445 159.335 264.349 159.375 264.25 159.375H262.375V163.5C262.377 164.195 262.655 164.862 263.147 165.353C263.638 165.845 264.305 166.123 265 166.125H266.5C266.599 166.125 266.695 166.165 266.765 166.235C266.835 166.305 266.875 166.401 266.875 166.5Z" fill="#F5F5F7"/>
<rect x="41" y="140" width="318" height="38" rx="3" stroke="#2160FD" stroke-width="2"/>
<rect x="40" y="122" width="56" height="9" rx="4.5" fill="#474747"/>
</svg>
