<svg width="900" height="270" viewBox="0 0 900 270" fill="none" xmlns="http://www.w3.org/2000/svg">
<circle cx="106" cy="135.5" r="47" stroke="#C6D7FF" stroke-width="6"/>
<circle cx="106" cy="135.5" r="30" fill="#2160FD"/>
<circle cx="66" cy="165.5" r="10" fill="#2160FD"/>
<path d="M185 136.5H196.17L191.29 141.38C190.9 141.77 190.9 142.41 191.29 142.8C191.68 143.19 192.31 143.19 192.7 142.8L199.29 136.21C199.383 136.117 199.456 136.008 199.506 135.887C199.557 135.766 199.582 135.636 199.582 135.505C199.582 135.374 199.557 135.244 199.506 135.123C199.456 135.002 199.383 134.892 199.29 134.8L192.71 128.2C192.617 128.107 192.508 128.034 192.387 127.984C192.266 127.934 192.136 127.908 192.005 127.908C191.874 127.908 191.744 127.934 191.623 127.984C191.502 128.034 191.393 128.107 191.3 128.2C191.207 128.293 191.134 128.402 191.084 128.523C191.034 128.644 191.008 128.774 191.008 128.905C191.008 129.036 191.034 129.166 191.084 129.287C191.134 129.407 191.207 129.517 191.3 129.61L196.17 134.5H185C184.45 134.5 184 134.95 184 135.5C184 136.05 184.45 136.5 185 136.5Z" fill="#999999"/>
<circle cx="284" cy="111" r="25" stroke="#C6D7FF" stroke-width="6"/>
<circle cx="256" cy="160" r="25" stroke="#C6D7FF" stroke-width="6"/>
<circle cx="312" cy="160" r="25" stroke="#C6D7FF" stroke-width="6"/>
<circle cx="284" cy="111" r="15" fill="#2160FD"/>
<circle cx="256" cy="160" r="15" fill="#2160FD"/>
<circle cx="312" cy="160" r="15" fill="#2160FD"/>
<rect x="274" y="164" width="9" height="19" rx="4.5" transform="rotate(-90 274 164)" fill="#2160FD"/>
<rect x="294" y="127.5" width="9" height="19" rx="4.5" transform="rotate(-30 294 127.5)" fill="#2160FD"/>
<rect x="266.5" y="123" width="9" height="19" rx="4.5" transform="rotate(30 266.5 123)" fill="#2160FD"/>
<path d="M369 136.5H380.17L375.29 141.38C374.9 141.77 374.9 142.41 375.29 142.8C375.68 143.19 376.31 143.19 376.7 142.8L383.29 136.21C383.383 136.117 383.456 136.008 383.506 135.887C383.557 135.766 383.582 135.636 383.582 135.505C383.582 135.374 383.557 135.244 383.506 135.123C383.456 135.002 383.383 134.892 383.29 134.8L376.71 128.2C376.617 128.107 376.508 128.034 376.387 127.984C376.266 127.934 376.136 127.908 376.005 127.908C375.874 127.908 375.744 127.934 375.623 127.984C375.502 128.034 375.393 128.107 375.3 128.2C375.207 128.293 375.134 128.402 375.084 128.523C375.034 128.644 375.008 128.774 375.008 128.905C375.008 129.036 375.034 129.166 375.084 129.287C375.134 129.407 375.207 129.517 375.3 129.61L380.17 134.5H369C368.45 134.5 368 134.95 368 135.5C368 136.05 368.45 136.5 369 136.5Z" fill="#999999"/>
<circle cx="428" cy="103.5" r="13" stroke="#C6D7FF" stroke-width="6"/>
<circle cx="428" cy="135.5" r="13" stroke="#C6D7FF" stroke-width="6"/>
<circle cx="428" cy="167.5" r="13" stroke="#C6D7FF" stroke-width="6"/>
<circle cx="460" cy="103.5" r="13" stroke="#C6D7FF" stroke-width="6"/>
<circle cx="460" cy="135.5" r="13" stroke="#C6D7FF" stroke-width="6"/>
<circle cx="460" cy="167.5" r="13" stroke="#C6D7FF" stroke-width="6"/>
<circle cx="492" cy="103.5" r="13" stroke="#C6D7FF" stroke-width="6"/>
<circle cx="492" cy="135.5" r="13" stroke="#C6D7FF" stroke-width="6"/>
<circle cx="492" cy="167.5" r="13" stroke="#C6D7FF" stroke-width="6"/>
<circle cx="524" cy="103.5" r="13" stroke="#C6D7FF" stroke-width="6"/>
<circle cx="524" cy="135.5" r="13" stroke="#C6D7FF" stroke-width="6"/>
<circle cx="524" cy="167.5" r="13" stroke="#C6D7FF" stroke-width="6"/>
<circle cx="428" cy="103.5" r="7" fill="#2160FD"/>
<circle cx="460" cy="103.5" r="7" fill="#2160FD"/>
<circle cx="492" cy="103.5" r="7" fill="#2160FD"/>
<circle cx="524" cy="103.5" r="7" fill="#2160FD"/>
<circle cx="428" cy="135.5" r="7" fill="#2160FD"/>
<circle cx="460" cy="135.5" r="7" fill="#2160FD"/>
<circle cx="492" cy="135.5" r="7" fill="#2160FD"/>
<circle cx="524" cy="135.5" r="7" fill="#2160FD"/>
<circle cx="428" cy="167.5" r="7" fill="#2160FD"/>
<circle cx="460" cy="167.5" r="7" fill="#2160FD"/>
<circle cx="492" cy="167.5" r="7" fill="#2160FD"/>
<circle cx="524" cy="167.5" r="7" fill="#2160FD"/>
<rect x="438" y="106.5" width="6" height="12" rx="3" transform="rotate(-90 438 106.5)" fill="#2160FD"/>
<rect x="470" y="106.5" width="6" height="12" rx="3" transform="rotate(-90 470 106.5)" fill="#2160FD"/>
<rect x="438" y="138.5" width="6" height="12" rx="3" transform="rotate(-90 438 138.5)" fill="#2160FD"/>
<rect x="470" y="138.5" width="6" height="12" rx="3" transform="rotate(-90 470 138.5)" fill="#2160FD"/>
<rect x="502" y="106.5" width="6" height="12" rx="3" transform="rotate(-90 502 106.5)" fill="#2160FD"/>
<rect x="502" y="138.5" width="6" height="12" rx="3" transform="rotate(-90 502 138.5)" fill="#2160FD"/>
<rect x="438" y="170.5" width="6" height="12" rx="3" transform="rotate(-90 438 170.5)" fill="#2160FD"/>
<rect x="425" y="145.5" width="6" height="12" rx="3" fill="#2160FD"/>
<rect x="425" y="113.5" width="6" height="12" rx="3" fill="#2160FD"/>
<rect x="457" y="145.5" width="6" height="12" rx="3" fill="#2160FD"/>
<rect x="457" y="113.5" width="6" height="12" rx="3" fill="#2160FD"/>
<rect x="489" y="145.5" width="6" height="12" rx="3" fill="#2160FD"/>
<rect x="489" y="113.5" width="6" height="12" rx="3" fill="#2160FD"/>
<rect x="521" y="145.5" width="6" height="12" rx="3" fill="#2160FD"/>
<rect x="521" y="113.5" width="6" height="12" rx="3" fill="#2160FD"/>
<rect x="470" y="170.5" width="6" height="12" rx="3" transform="rotate(-90 470 170.5)" fill="#2160FD"/>
<rect x="502" y="170.5" width="6" height="12" rx="3" transform="rotate(-90 502 170.5)" fill="#2160FD"/>
<path d="M569 136.5H580.17L575.29 141.38C574.9 141.77 574.9 142.41 575.29 142.8C575.68 143.19 576.31 143.19 576.7 142.8L583.29 136.21C583.383 136.117 583.456 136.008 583.506 135.887C583.557 135.766 583.582 135.636 583.582 135.505C583.582 135.374 583.557 135.244 583.506 135.123C583.456 135.002 583.383 134.892 583.29 134.8L576.71 128.2C576.617 128.107 576.508 128.034 576.387 127.984C576.266 127.934 576.136 127.908 576.005 127.908C575.874 127.908 575.744 127.934 575.623 127.984C575.502 128.034 575.393 128.107 575.3 128.2C575.207 128.293 575.134 128.402 575.084 128.523C575.034 128.644 575.008 128.774 575.008 128.905C575.008 129.036 575.034 129.166 575.084 129.287C575.134 129.407 575.207 129.517 575.3 129.61L580.17 134.5H569C568.45 134.5 568 134.95 568 135.5C568 136.05 568.45 136.5 569 136.5Z" fill="#999999"/>
<circle cx="616" cy="90.5" r="4" fill="#2160FD"/>
<circle cx="616" cy="99.5" r="4" fill="#2160FD"/>
<circle cx="616" cy="108.5" r="4" fill="#2160FD"/>
<circle cx="616" cy="117.5" r="4" fill="#2160FD"/>
<circle cx="616" cy="126.5" r="4" fill="#2160FD"/>
<circle cx="616" cy="135.5" r="4" fill="#2160FD"/>
<circle cx="616" cy="144.5" r="4" fill="#2160FD"/>
<circle cx="616" cy="153.5" r="4" fill="#2160FD"/>
<circle cx="616" cy="162.5" r="4" fill="#2160FD"/>
<circle cx="616" cy="171.5" r="4" fill="#2160FD"/>
<circle cx="616" cy="180.5" r="4" fill="#2160FD"/>
<circle cx="688" cy="126.5" r="4" fill="#2160FD"/>
<circle cx="688" cy="135.5" r="4" fill="#2160FD"/>
<circle cx="688" cy="144.5" r="4" fill="#2160FD"/>
<circle cx="688" cy="153.5" r="4" fill="#2160FD"/>
<circle cx="688" cy="162.5" r="4" fill="#2160FD"/>
<circle cx="688" cy="171.5" r="4" fill="#2160FD"/>
<circle cx="688" cy="180.5" r="4" fill="#2160FD"/>
<circle cx="616" cy="90.5" r="4" transform="rotate(-90 616 90.5)" fill="#2160FD"/>
<circle cx="625" cy="90.5" r="4" transform="rotate(-90 625 90.5)" fill="#2160FD"/>
<circle cx="634" cy="90.5" r="4" transform="rotate(-90 634 90.5)" fill="#2160FD"/>
<circle cx="643" cy="90.5" r="4" transform="rotate(-90 643 90.5)" fill="#2160FD"/>
<circle cx="652" cy="90.5" r="4" transform="rotate(-90 652 90.5)" fill="#2160FD"/>
<circle cx="661" cy="90.5" r="4" fill="#C6D7FF"/>
<circle cx="661" cy="99.5" r="4" fill="#C6D7FF"/>
<circle cx="661" cy="108.5" r="4" fill="#C6D7FF"/>
<circle cx="661" cy="117.5" r="4" fill="#C6D7FF"/>
<circle cx="661" cy="117.5" r="4" transform="rotate(-90 661 117.5)" fill="#C6D7FF"/>
<circle cx="670" cy="117.5" r="4" transform="rotate(-90 670 117.5)" fill="#C6D7FF"/>
<circle cx="679" cy="117.5" r="4" transform="rotate(-90 679 117.5)" fill="#C6D7FF"/>
<circle cx="688" cy="117.5" r="4" transform="rotate(-90 688 117.5)" fill="#C6D7FF"/>
<circle cx="669.651" cy="95.1515" r="4" transform="rotate(-42.5 669.651 95.1515)" fill="#C6D7FF"/>
<circle cx="675.732" cy="101.787" r="4" transform="rotate(-42.5 675.732 101.787)" fill="#C6D7FF"/>
<circle cx="681.812" cy="108.423" r="4" transform="rotate(-42.5 681.812 108.423)" fill="#C6D7FF"/>
<circle cx="616" cy="180.5" r="4" transform="rotate(-90 616 180.5)" fill="#2160FD"/>
<circle cx="625" cy="180.5" r="4" transform="rotate(-90 625 180.5)" fill="#2160FD"/>
<circle cx="634" cy="180.5" r="4" transform="rotate(-90 634 180.5)" fill="#2160FD"/>
<circle cx="643" cy="180.5" r="4" transform="rotate(-90 643 180.5)" fill="#2160FD"/>
<circle cx="652" cy="180.5" r="4" transform="rotate(-90 652 180.5)" fill="#2160FD"/>
<circle cx="661" cy="180.5" r="4" transform="rotate(-90 661 180.5)" fill="#2160FD"/>
<circle cx="670" cy="180.5" r="4" transform="rotate(-90 670 180.5)" fill="#2160FD"/>
<circle cx="679" cy="180.5" r="4" transform="rotate(-90 679 180.5)" fill="#2160FD"/>
<path d="M721 136.5H732.17L727.29 141.38C726.9 141.77 726.9 142.41 727.29 142.8C727.68 143.19 728.31 143.19 728.7 142.8L735.29 136.21C735.383 136.117 735.456 136.008 735.506 135.887C735.557 135.766 735.582 135.636 735.582 135.505C735.582 135.374 735.557 135.244 735.506 135.123C735.456 135.002 735.383 134.892 735.29 134.8L728.71 128.2C728.617 128.107 728.508 128.034 728.387 127.984C728.266 127.934 728.136 127.908 728.005 127.908C727.874 127.908 727.744 127.934 727.623 127.984C727.502 128.034 727.393 128.107 727.3 128.2C727.207 128.293 727.134 128.402 727.084 128.523C727.034 128.644 727.008 128.774 727.008 128.905C727.008 129.036 727.034 129.166 727.084 129.287C727.134 129.407 727.207 129.517 727.3 129.61L732.17 134.5H721C720.45 134.5 720 134.95 720 135.5C720 136.05 720.45 136.5 721 136.5Z" fill="#999999"/>
<path d="M764 86.5H816L844 114V184.5H764V86.5Z" fill="#2160FD"/>
<path d="M816 86.5L844 114H816V86.5Z" fill="#C6D7FF"/>
<path d="M79.642 218H77.392L81.4886 206.364H84.0909L88.1932 218H85.9432L82.8352 208.75H82.7443L79.642 218ZM79.7159 213.438H85.8523V215.131H79.7159V213.438ZM87.8082 208.131V206.364H97.0923V208.131H93.4957V218H91.4048V208.131H87.8082ZM108.764 212.182C108.764 213.436 108.529 214.509 108.06 215.403C107.594 216.294 106.957 216.975 106.151 217.449C105.348 217.922 104.437 218.159 103.418 218.159C102.399 218.159 101.486 217.922 100.679 217.449C99.8759 216.972 99.2396 216.288 98.7699 215.398C98.304 214.504 98.071 213.432 98.071 212.182C98.071 210.928 98.304 209.856 98.7699 208.966C99.2396 208.072 99.8759 207.388 100.679 206.915C101.486 206.441 102.399 206.205 103.418 206.205C104.437 206.205 105.348 206.441 106.151 206.915C106.957 207.388 107.594 208.072 108.06 208.966C108.529 209.856 108.764 210.928 108.764 212.182ZM106.645 212.182C106.645 211.299 106.507 210.555 106.23 209.949C105.957 209.339 105.579 208.879 105.094 208.568C104.609 208.254 104.05 208.097 103.418 208.097C102.785 208.097 102.226 208.254 101.741 208.568C101.257 208.879 100.876 209.339 100.599 209.949C100.327 210.555 100.19 211.299 100.19 212.182C100.19 213.064 100.327 213.811 100.599 214.42C100.876 215.027 101.257 215.487 101.741 215.801C102.226 216.112 102.785 216.267 103.418 216.267C104.05 216.267 104.609 216.112 105.094 215.801C105.579 215.487 105.957 215.027 106.23 214.42C106.507 213.811 106.645 213.064 106.645 212.182ZM110.757 206.364H113.337L116.791 214.795H116.928L120.382 206.364H122.962V218H120.939V210.006H120.831L117.615 217.966H116.104L112.888 209.989H112.78V218H110.757V206.364ZM131.581 209.562C131.528 209.066 131.304 208.68 130.911 208.403C130.52 208.127 130.013 207.989 129.388 207.989C128.948 207.989 128.571 208.055 128.257 208.188C127.943 208.32 127.702 208.5 127.536 208.727C127.369 208.955 127.284 209.214 127.28 209.506C127.28 209.748 127.335 209.958 127.445 210.136C127.558 210.314 127.712 210.466 127.905 210.591C128.098 210.712 128.312 210.814 128.547 210.898C128.782 210.981 129.018 211.051 129.257 211.108L130.348 211.381C130.787 211.483 131.21 211.621 131.615 211.795C132.024 211.97 132.39 212.189 132.712 212.455C133.037 212.72 133.295 213.04 133.484 213.415C133.674 213.79 133.768 214.229 133.768 214.733C133.768 215.415 133.594 216.015 133.246 216.534C132.897 217.049 132.393 217.453 131.734 217.744C131.079 218.032 130.286 218.176 129.354 218.176C128.448 218.176 127.662 218.036 126.996 217.756C126.333 217.475 125.814 217.066 125.439 216.528C125.068 215.991 124.867 215.335 124.837 214.562H126.911C126.941 214.968 127.066 215.305 127.286 215.574C127.505 215.843 127.791 216.044 128.143 216.176C128.5 216.309 128.897 216.375 129.337 216.375C129.795 216.375 130.196 216.307 130.541 216.17C130.89 216.03 131.162 215.837 131.359 215.591C131.556 215.341 131.657 215.049 131.661 214.716C131.657 214.413 131.568 214.163 131.393 213.966C131.219 213.765 130.975 213.598 130.661 213.466C130.35 213.33 129.986 213.208 129.57 213.102L128.246 212.761C127.287 212.515 126.53 212.142 125.973 211.642C125.42 211.138 125.143 210.47 125.143 209.636C125.143 208.951 125.329 208.35 125.7 207.835C126.075 207.32 126.585 206.92 127.229 206.636C127.873 206.348 128.602 206.205 129.416 206.205C130.242 206.205 130.965 206.348 131.587 206.636C132.212 206.92 132.702 207.316 133.058 207.824C133.414 208.328 133.598 208.907 133.609 209.562H131.581Z" fill="#2160FD"/>
<path d="M236.413 206.364H238.993L242.447 214.795H242.584L246.038 206.364H248.618V218H246.595V210.006H246.487L243.271 217.966H241.76L238.544 209.989H238.436V218H236.413V206.364ZM261.311 212.182C261.311 213.436 261.076 214.509 260.607 215.403C260.141 216.294 259.504 216.975 258.697 217.449C257.894 217.922 256.983 218.159 255.964 218.159C254.946 218.159 254.033 217.922 253.226 217.449C252.423 216.972 251.786 216.288 251.317 215.398C250.851 214.504 250.618 213.432 250.618 212.182C250.618 210.928 250.851 209.856 251.317 208.966C251.786 208.072 252.423 207.388 253.226 206.915C254.033 206.441 254.946 206.205 255.964 206.205C256.983 206.205 257.894 206.441 258.697 206.915C259.504 207.388 260.141 208.072 260.607 208.966C261.076 209.856 261.311 210.928 261.311 212.182ZM259.192 212.182C259.192 211.299 259.054 210.555 258.777 209.949C258.504 209.339 258.125 208.879 257.641 208.568C257.156 208.254 256.597 208.097 255.964 208.097C255.332 208.097 254.773 208.254 254.288 208.568C253.804 208.879 253.423 209.339 253.146 209.949C252.874 210.555 252.737 211.299 252.737 212.182C252.737 213.064 252.874 213.811 253.146 214.42C253.423 215.027 253.804 215.487 254.288 215.801C254.773 216.112 255.332 216.267 255.964 216.267C256.597 216.267 257.156 216.112 257.641 215.801C258.125 215.487 258.504 215.027 258.777 214.42C259.054 213.811 259.192 213.064 259.192 212.182ZM263.304 218V206.364H265.412V216.233H270.537V218H263.304ZM272.366 218V206.364H279.935V208.131H274.474V211.29H279.543V213.057H274.474V216.233H279.98V218H272.366ZM292.045 210.29H289.92C289.86 209.941 289.748 209.633 289.585 209.364C289.422 209.091 289.22 208.86 288.977 208.67C288.735 208.481 288.458 208.339 288.148 208.244C287.841 208.146 287.509 208.097 287.153 208.097C286.521 208.097 285.96 208.256 285.472 208.574C284.983 208.888 284.6 209.35 284.324 209.96C284.047 210.566 283.909 211.307 283.909 212.182C283.909 213.072 284.047 213.822 284.324 214.432C284.604 215.038 284.987 215.496 285.472 215.807C285.96 216.114 286.519 216.267 287.148 216.267C287.496 216.267 287.822 216.222 288.125 216.131C288.432 216.036 288.706 215.898 288.949 215.716C289.195 215.534 289.402 215.311 289.568 215.045C289.739 214.78 289.856 214.477 289.92 214.136L292.045 214.148C291.966 214.701 291.794 215.22 291.528 215.705C291.267 216.189 290.924 216.617 290.5 216.989C290.076 217.356 289.58 217.644 289.011 217.852C288.443 218.057 287.813 218.159 287.119 218.159C286.097 218.159 285.184 217.922 284.381 217.449C283.578 216.975 282.945 216.292 282.483 215.398C282.021 214.504 281.79 213.432 281.79 212.182C281.79 210.928 282.023 209.856 282.489 208.966C282.955 208.072 283.589 207.388 284.392 206.915C285.195 206.441 286.104 206.205 287.119 206.205C287.767 206.205 288.369 206.295 288.926 206.477C289.483 206.659 289.979 206.926 290.415 207.278C290.85 207.627 291.208 208.055 291.489 208.562C291.773 209.066 291.958 209.642 292.045 210.29ZM301.311 206.364H303.419V213.966C303.419 214.799 303.222 215.532 302.828 216.165C302.438 216.797 301.889 217.292 301.18 217.648C300.472 218 299.644 218.176 298.697 218.176C297.747 218.176 296.917 218 296.209 217.648C295.5 217.292 294.951 216.797 294.561 216.165C294.171 215.532 293.976 214.799 293.976 213.966V206.364H296.084V213.79C296.084 214.275 296.19 214.706 296.402 215.085C296.618 215.464 296.921 215.761 297.311 215.977C297.701 216.189 298.163 216.295 298.697 216.295C299.232 216.295 299.694 216.189 300.084 215.977C300.478 215.761 300.781 215.464 300.993 215.085C301.205 214.706 301.311 214.275 301.311 213.79V206.364ZM305.71 218V206.364H307.818V216.233H312.943V218H305.71ZM314.773 218V206.364H322.341V208.131H316.881V211.29H321.949V213.057H316.881V216.233H322.386V218H314.773ZM330.815 209.562C330.762 209.066 330.539 208.68 330.145 208.403C329.755 208.127 329.247 207.989 328.622 207.989C328.183 207.989 327.806 208.055 327.491 208.188C327.177 208.32 326.937 208.5 326.77 208.727C326.603 208.955 326.518 209.214 326.514 209.506C326.514 209.748 326.569 209.958 326.679 210.136C326.793 210.314 326.946 210.466 327.139 210.591C327.332 210.712 327.546 210.814 327.781 210.898C328.016 210.981 328.253 211.051 328.491 211.108L329.582 211.381C330.022 211.483 330.444 211.621 330.849 211.795C331.259 211.97 331.624 212.189 331.946 212.455C332.272 212.72 332.529 213.04 332.719 213.415C332.908 213.79 333.003 214.229 333.003 214.733C333.003 215.415 332.829 216.015 332.48 216.534C332.132 217.049 331.628 217.453 330.969 217.744C330.313 218.032 329.52 218.176 328.588 218.176C327.683 218.176 326.897 218.036 326.23 217.756C325.567 217.475 325.048 217.066 324.673 216.528C324.302 215.991 324.101 215.335 324.071 214.562H326.145C326.175 214.968 326.3 215.305 326.52 215.574C326.74 215.843 327.026 216.044 327.378 216.176C327.734 216.309 328.132 216.375 328.571 216.375C329.029 216.375 329.431 216.307 329.776 216.17C330.124 216.03 330.397 215.837 330.594 215.591C330.791 215.341 330.891 215.049 330.895 214.716C330.891 214.413 330.802 214.163 330.628 213.966C330.454 213.765 330.209 213.598 329.895 213.466C329.584 213.33 329.221 213.208 328.804 213.102L327.48 212.761C326.522 212.515 325.764 212.142 325.207 211.642C324.654 211.138 324.378 210.47 324.378 209.636C324.378 208.951 324.563 208.35 324.935 207.835C325.31 207.32 325.819 206.92 326.463 206.636C327.107 206.348 327.836 206.205 328.651 206.205C329.476 206.205 330.2 206.348 330.821 206.636C331.446 206.92 331.937 207.316 332.293 207.824C332.649 208.328 332.832 208.907 332.844 209.562H330.815Z" fill="#2160FD"/>
<path d="M437.733 212.182C437.733 213.436 437.498 214.509 437.028 215.403C436.563 216.294 435.926 216.975 435.119 217.449C434.316 217.922 433.405 218.159 432.386 218.159C431.367 218.159 430.455 217.922 429.648 217.449C428.845 216.972 428.208 216.288 427.739 215.398C427.273 214.504 427.04 213.432 427.04 212.182C427.04 210.928 427.273 209.856 427.739 208.966C428.208 208.072 428.845 207.388 429.648 206.915C430.455 206.441 431.367 206.205 432.386 206.205C433.405 206.205 434.316 206.441 435.119 206.915C435.926 207.388 436.563 208.072 437.028 208.966C437.498 209.856 437.733 210.928 437.733 212.182ZM435.614 212.182C435.614 211.299 435.475 210.555 435.199 209.949C434.926 209.339 434.547 208.879 434.062 208.568C433.578 208.254 433.019 208.097 432.386 208.097C431.754 208.097 431.195 208.254 430.71 208.568C430.225 208.879 429.845 209.339 429.568 209.949C429.295 210.555 429.159 211.299 429.159 212.182C429.159 213.064 429.295 213.811 429.568 214.42C429.845 215.027 430.225 215.487 430.71 215.801C431.195 216.112 431.754 216.267 432.386 216.267C433.019 216.267 433.578 216.112 434.062 215.801C434.547 215.487 434.926 215.027 435.199 214.42C435.475 213.811 435.614 213.064 435.614 212.182ZM439.726 218V206.364H444.089C444.983 206.364 445.733 206.519 446.339 206.83C446.949 207.14 447.41 207.576 447.72 208.136C448.035 208.693 448.192 209.343 448.192 210.085C448.192 210.831 448.033 211.479 447.714 212.028C447.4 212.574 446.936 212.996 446.322 213.295C445.709 213.591 444.955 213.739 444.061 213.739H440.953V211.989H443.777C444.3 211.989 444.728 211.917 445.061 211.773C445.394 211.625 445.641 211.411 445.8 211.131C445.963 210.847 446.044 210.498 446.044 210.085C446.044 209.672 445.963 209.32 445.8 209.028C445.637 208.733 445.389 208.509 445.055 208.358C444.722 208.203 444.292 208.125 443.766 208.125H441.834V218H439.726ZM445.737 212.727L448.618 218H446.266L443.436 212.727H445.737ZM457.928 210.08C457.833 209.773 457.702 209.498 457.536 209.256C457.373 209.009 457.176 208.799 456.945 208.625C456.717 208.451 456.456 208.32 456.161 208.233C455.865 208.142 455.543 208.097 455.195 208.097C454.57 208.097 454.013 208.254 453.524 208.568C453.036 208.883 452.651 209.345 452.371 209.955C452.094 210.561 451.956 211.299 451.956 212.17C451.956 213.049 452.094 213.794 452.371 214.403C452.647 215.013 453.032 215.477 453.524 215.795C454.017 216.11 454.589 216.267 455.24 216.267C455.831 216.267 456.342 216.153 456.774 215.926C457.21 215.699 457.545 215.377 457.78 214.96C458.015 214.54 458.132 214.047 458.132 213.483L458.609 213.557H455.45V211.909H460.172V213.307C460.172 214.303 459.96 215.165 459.536 215.892C459.111 216.619 458.528 217.18 457.786 217.574C457.043 217.964 456.191 218.159 455.229 218.159C454.157 218.159 453.215 217.919 452.405 217.438C451.598 216.953 450.967 216.265 450.513 215.375C450.062 214.481 449.837 213.42 449.837 212.193C449.837 211.254 449.969 210.415 450.234 209.676C450.503 208.938 450.878 208.311 451.359 207.795C451.84 207.277 452.405 206.883 453.053 206.614C453.7 206.341 454.405 206.205 455.166 206.205C455.81 206.205 456.411 206.299 456.967 206.489C457.524 206.674 458.018 206.939 458.45 207.284C458.886 207.629 459.244 208.038 459.524 208.511C459.804 208.985 459.988 209.508 460.075 210.08H457.928ZM463.345 218H461.095L465.192 206.364H467.794L471.896 218H469.646L466.538 208.75H466.447L463.345 218ZM463.419 213.438H469.555V215.131H463.419V213.438ZM482.991 206.364V218H481.116L475.634 210.074H475.537V218H473.429V206.364H475.315L480.793 214.295H480.895V206.364H482.991ZM487.396 206.364V218H485.288V206.364H487.396ZM496.003 209.562C495.95 209.066 495.726 208.68 495.332 208.403C494.942 208.127 494.435 207.989 493.81 207.989C493.37 207.989 492.993 208.055 492.679 208.188C492.365 208.32 492.124 208.5 491.957 208.727C491.791 208.955 491.705 209.214 491.702 209.506C491.702 209.748 491.757 209.958 491.866 210.136C491.98 210.314 492.134 210.466 492.327 210.591C492.52 210.712 492.734 210.814 492.969 210.898C493.204 210.981 493.44 211.051 493.679 211.108L494.77 211.381C495.209 211.483 495.632 211.621 496.037 211.795C496.446 211.97 496.812 212.189 497.134 212.455C497.459 212.72 497.717 213.04 497.906 213.415C498.096 213.79 498.19 214.229 498.19 214.733C498.19 215.415 498.016 216.015 497.668 216.534C497.319 217.049 496.815 217.453 496.156 217.744C495.501 218.032 494.707 218.176 493.776 218.176C492.87 218.176 492.084 218.036 491.418 217.756C490.755 217.475 490.236 217.066 489.861 216.528C489.49 215.991 489.289 215.335 489.259 214.562H491.332C491.363 214.968 491.488 215.305 491.707 215.574C491.927 215.843 492.213 216.044 492.565 216.176C492.921 216.309 493.319 216.375 493.759 216.375C494.217 216.375 494.618 216.307 494.963 216.17C495.312 216.03 495.584 215.837 495.781 215.591C495.978 215.341 496.079 215.049 496.082 214.716C496.079 214.413 495.99 214.163 495.815 213.966C495.641 213.765 495.397 213.598 495.082 213.466C494.772 213.33 494.408 213.208 493.991 213.102L492.668 212.761C491.709 212.515 490.952 212.142 490.395 211.642C489.842 211.138 489.565 210.47 489.565 209.636C489.565 208.951 489.751 208.35 490.122 207.835C490.497 207.32 491.007 206.92 491.651 206.636C492.295 206.348 493.024 206.205 493.838 206.205C494.664 206.205 495.387 206.348 496.009 206.636C496.634 206.92 497.124 207.316 497.48 207.824C497.836 208.328 498.02 208.907 498.031 209.562H496.003ZM500.07 206.364H502.649L506.104 214.795H506.24L509.695 206.364H512.274V218H510.251V210.006H510.143L506.928 217.966H505.416L502.2 209.989H502.092V218H500.07V206.364ZM520.893 209.562C520.84 209.066 520.617 208.68 520.223 208.403C519.833 208.127 519.325 207.989 518.7 207.989C518.261 207.989 517.884 208.055 517.57 208.188C517.255 208.32 517.015 208.5 516.848 208.727C516.681 208.955 516.596 209.214 516.592 209.506C516.592 209.748 516.647 209.958 516.757 210.136C516.871 210.314 517.024 210.466 517.217 210.591C517.411 210.712 517.625 210.814 517.859 210.898C518.094 210.981 518.331 211.051 518.57 211.108L519.661 211.381C520.1 211.483 520.522 211.621 520.928 211.795C521.337 211.97 521.702 212.189 522.024 212.455C522.35 212.72 522.607 213.04 522.797 213.415C522.986 213.79 523.081 214.229 523.081 214.733C523.081 215.415 522.907 216.015 522.558 216.534C522.21 217.049 521.706 217.453 521.047 217.744C520.392 218.032 519.598 218.176 518.666 218.176C517.761 218.176 516.975 218.036 516.308 217.756C515.645 217.475 515.126 217.066 514.751 216.528C514.38 215.991 514.179 215.335 514.149 214.562H516.223C516.253 214.968 516.378 215.305 516.598 215.574C516.818 215.843 517.104 216.044 517.456 216.176C517.812 216.309 518.21 216.375 518.649 216.375C519.107 216.375 519.509 216.307 519.854 216.17C520.202 216.03 520.475 215.837 520.672 215.591C520.869 215.341 520.969 215.049 520.973 214.716C520.969 214.413 520.88 214.163 520.706 213.966C520.532 213.765 520.287 213.598 519.973 213.466C519.662 213.33 519.299 213.208 518.882 213.102L517.558 212.761C516.6 212.515 515.842 212.142 515.286 211.642C514.732 211.138 514.456 210.47 514.456 209.636C514.456 208.951 514.642 208.35 515.013 207.835C515.388 207.32 515.897 206.92 516.541 206.636C517.185 206.348 517.914 206.205 518.729 206.205C519.554 206.205 520.278 206.348 520.899 206.636C521.524 206.92 522.015 207.316 522.371 207.824C522.727 208.328 522.911 208.907 522.922 209.562H520.893Z" fill="#2160FD"/>
<path d="M604.925 208.131V206.364H614.21V208.131H610.613V218H608.522V208.131H604.925ZM615.999 218V206.364H623.567V208.131H618.107V211.29H623.175V213.057H618.107V216.233H623.613V218H615.999ZM625.718 206.364H628.298L631.752 214.795H631.888L635.343 206.364H637.923V218H635.9V210.006H635.792L632.576 217.966H631.065L627.849 209.989H627.741V218H625.718V206.364ZM640.218 218V206.364H644.582C645.476 206.364 646.226 206.53 646.832 206.864C647.442 207.197 647.902 207.655 648.212 208.239C648.527 208.818 648.684 209.477 648.684 210.216C648.684 210.962 648.527 211.625 648.212 212.205C647.898 212.784 647.434 213.241 646.82 213.574C646.207 213.903 645.451 214.068 644.553 214.068H641.661V212.335H644.269C644.792 212.335 645.22 212.244 645.553 212.062C645.887 211.881 646.133 211.631 646.292 211.312C646.455 210.994 646.536 210.629 646.536 210.216C646.536 209.803 646.455 209.439 646.292 209.125C646.133 208.811 645.885 208.566 645.548 208.392C645.214 208.214 644.784 208.125 644.258 208.125H642.326V218H640.218ZM650.515 218V206.364H652.623V216.233H657.748V218H650.515ZM661.509 218H659.259L663.356 206.364H665.958L670.06 218H667.81L664.702 208.75H664.612L661.509 218ZM661.583 213.438H667.719V215.131H661.583V213.438ZM669.675 208.131V206.364H678.96V208.131H675.363V218H673.272V208.131H669.675ZM680.749 218V206.364H688.317V208.131H682.857V211.29H687.925V213.057H682.857V216.233H688.363V218H680.749ZM696.792 209.562C696.739 209.066 696.515 208.68 696.121 208.403C695.731 208.127 695.224 207.989 694.599 207.989C694.159 207.989 693.782 208.055 693.468 208.188C693.154 208.32 692.913 208.5 692.746 208.727C692.58 208.955 692.495 209.214 692.491 209.506C692.491 209.748 692.546 209.958 692.656 210.136C692.769 210.314 692.923 210.466 693.116 210.591C693.309 210.712 693.523 210.814 693.758 210.898C693.993 210.981 694.229 211.051 694.468 211.108L695.559 211.381C695.998 211.483 696.421 211.621 696.826 211.795C697.235 211.97 697.601 212.189 697.923 212.455C698.248 212.72 698.506 213.04 698.695 213.415C698.885 213.79 698.979 214.229 698.979 214.733C698.979 215.415 698.805 216.015 698.457 216.534C698.108 217.049 697.604 217.453 696.945 217.744C696.29 218.032 695.496 218.176 694.565 218.176C693.659 218.176 692.873 218.036 692.207 217.756C691.544 217.475 691.025 217.066 690.65 216.528C690.279 215.991 690.078 215.335 690.048 214.562H692.121C692.152 214.968 692.277 215.305 692.496 215.574C692.716 215.843 693.002 216.044 693.354 216.176C693.71 216.309 694.108 216.375 694.548 216.375C695.006 216.375 695.407 216.307 695.752 216.17C696.101 216.03 696.373 215.837 696.57 215.591C696.767 215.341 696.868 215.049 696.871 214.716C696.868 214.413 696.779 214.163 696.604 213.966C696.43 213.765 696.186 213.598 695.871 213.466C695.561 213.33 695.197 213.208 694.781 213.102L693.457 212.761C692.498 212.515 691.741 212.142 691.184 211.642C690.631 211.138 690.354 210.47 690.354 209.636C690.354 208.951 690.54 208.35 690.911 207.835C691.286 207.32 691.796 206.92 692.44 206.636C693.084 206.348 693.813 206.205 694.627 206.205C695.453 206.205 696.176 206.348 696.798 206.636C697.423 206.92 697.913 207.316 698.269 207.824C698.625 208.328 698.809 208.907 698.82 209.562H696.792Z" fill="#2160FD"/>
<path d="M779.538 218V206.364H783.902C784.796 206.364 785.546 206.53 786.152 206.864C786.762 207.197 787.222 207.655 787.533 208.239C787.847 208.818 788.004 209.477 788.004 210.216C788.004 210.962 787.847 211.625 787.533 212.205C787.218 212.784 786.754 213.241 786.141 213.574C785.527 213.903 784.771 214.068 783.874 214.068H780.982V212.335H783.589C784.112 212.335 784.54 212.244 784.874 212.062C785.207 211.881 785.453 211.631 785.612 211.312C785.775 210.994 785.857 210.629 785.857 210.216C785.857 209.803 785.775 209.439 785.612 209.125C785.453 208.811 785.205 208.566 784.868 208.392C784.535 208.214 784.105 208.125 783.578 208.125H781.646V218H779.538ZM790.033 218H787.783L791.879 206.364H794.482L798.584 218H796.334L793.226 208.75H793.135L790.033 218ZM790.107 213.438H796.243V215.131H790.107V213.438ZM807.365 210.08C807.27 209.773 807.14 209.498 806.973 209.256C806.81 209.009 806.613 208.799 806.382 208.625C806.155 208.451 805.893 208.32 805.598 208.233C805.303 208.142 804.981 208.097 804.632 208.097C804.007 208.097 803.45 208.254 802.962 208.568C802.473 208.883 802.089 209.345 801.808 209.955C801.532 210.561 801.393 211.299 801.393 212.17C801.393 213.049 801.532 213.794 801.808 214.403C802.085 215.013 802.469 215.477 802.962 215.795C803.454 216.11 804.026 216.267 804.678 216.267C805.268 216.267 805.78 216.153 806.212 215.926C806.647 215.699 806.982 215.377 807.217 214.96C807.452 214.54 807.57 214.047 807.57 213.483L808.047 213.557H804.888V211.909H809.609V213.307C809.609 214.303 809.397 215.165 808.973 215.892C808.549 216.619 807.965 217.18 807.223 217.574C806.481 217.964 805.628 218.159 804.666 218.159C803.594 218.159 802.653 217.919 801.842 217.438C801.036 216.953 800.405 216.265 799.95 215.375C799.5 214.481 799.274 213.42 799.274 212.193C799.274 211.254 799.407 210.415 799.672 209.676C799.941 208.938 800.316 208.311 800.797 207.795C801.278 207.277 801.842 206.883 802.49 206.614C803.138 206.341 803.842 206.205 804.604 206.205C805.248 206.205 805.848 206.299 806.405 206.489C806.962 206.674 807.456 206.939 807.888 207.284C808.323 207.629 808.681 208.038 808.962 208.511C809.242 208.985 809.426 209.508 809.513 210.08H807.365ZM811.648 218V206.364H819.216V208.131H813.756V211.29H818.824V213.057H813.756V216.233H819.261V218H811.648ZM827.69 209.562C827.637 209.066 827.414 208.68 827.02 208.403C826.63 208.127 826.122 207.989 825.497 207.989C825.058 207.989 824.681 208.055 824.366 208.188C824.052 208.32 823.812 208.5 823.645 208.727C823.478 208.955 823.393 209.214 823.389 209.506C823.389 209.748 823.444 209.958 823.554 210.136C823.668 210.314 823.821 210.466 824.014 210.591C824.207 210.712 824.421 210.814 824.656 210.898C824.891 210.981 825.128 211.051 825.366 211.108L826.457 211.381C826.897 211.483 827.319 211.621 827.724 211.795C828.134 211.97 828.499 212.189 828.821 212.455C829.147 212.72 829.404 213.04 829.594 213.415C829.783 213.79 829.878 214.229 829.878 214.733C829.878 215.415 829.704 216.015 829.355 216.534C829.007 217.049 828.503 217.453 827.844 217.744C827.188 218.032 826.395 218.176 825.463 218.176C824.558 218.176 823.772 218.036 823.105 217.756C822.442 217.475 821.923 217.066 821.548 216.528C821.177 215.991 820.976 215.335 820.946 214.562H823.02C823.05 214.968 823.175 215.305 823.395 215.574C823.615 215.843 823.901 216.044 824.253 216.176C824.609 216.309 825.007 216.375 825.446 216.375C825.904 216.375 826.306 216.307 826.651 216.17C826.999 216.03 827.272 215.837 827.469 215.591C827.666 215.341 827.766 215.049 827.77 214.716C827.766 214.413 827.677 214.163 827.503 213.966C827.329 213.765 827.084 213.598 826.77 213.466C826.459 213.33 826.096 213.208 825.679 213.102L824.355 212.761C823.397 212.515 822.639 212.142 822.082 211.642C821.529 211.138 821.253 210.47 821.253 209.636C821.253 208.951 821.438 208.35 821.81 207.835C822.185 207.32 822.694 206.92 823.338 206.636C823.982 206.348 824.711 206.205 825.526 206.205C826.351 206.205 827.075 206.348 827.696 206.636C828.321 206.92 828.812 207.316 829.168 207.824C829.524 208.328 829.707 208.907 829.719 209.562H827.69Z" fill="#2160FD"/>
</svg>
