<svg width="400" height="300" viewBox="0 0 400 300" fill="none" xmlns="http://www.w3.org/2000/svg">
<g clip-path="url(#clip0_945_21082)">
<rect width="400" height="300" fill="#E0E9FF"/>
<rect x="19" y="31" width="362" height="239" rx="4" fill="#050505"/>
<g clip-path="url(#clip1_945_21082)">
<rect x="81" y="61" width="115.534" height="86.6504" rx="3.46602" fill="#1E1E1E"/>
<path d="M190.246 68.8663C189.768 68.8663 189.38 68.4784 189.38 67.9998C189.38 67.5212 189.768 67.1333 190.246 67.1333C190.725 67.1333 191.113 67.5212 191.113 67.9998C191.113 68.4784 190.725 68.8663 190.246 68.8663ZM190.246 72.3323C189.768 72.3323 189.38 71.9444 189.38 71.4658C189.38 70.9873 189.768 70.5993 190.246 70.5993C190.725 70.5993 191.113 70.9873 191.113 71.4658C191.113 71.9444 190.725 72.3323 190.246 72.3323ZM189.38 74.9318C189.38 75.4104 189.768 75.7983 190.246 75.7983C190.725 75.7983 191.113 75.4104 191.113 74.9318C191.113 74.4533 190.725 74.0653 190.246 74.0653C189.768 74.0653 189.38 74.4533 189.38 74.9318Z" fill="#999999"/>
<rect x="96.3086" y="138.889" width="26.9579" height="3.36973" rx="1.68486" fill="#474747"/>
</g>
<g clip-path="url(#clip2_945_21082)">
<rect x="203.467" y="61" width="115.534" height="86.6504" rx="3.46602" fill="#1E1E1E"/>
<path d="M312.713 68.8663C312.235 68.8663 311.847 68.4784 311.847 67.9998C311.847 67.5212 312.235 67.1333 312.713 67.1333C313.192 67.1333 313.58 67.5212 313.58 67.9998C313.58 68.4784 313.192 68.8663 312.713 68.8663ZM312.713 72.3323C312.235 72.3323 311.847 71.9444 311.847 71.4658C311.847 70.9873 312.235 70.5993 312.713 70.5993C313.192 70.5993 313.58 70.9873 313.58 71.4658C313.58 71.9444 313.192 72.3323 312.713 72.3323ZM311.847 74.9318C311.847 75.4104 312.235 75.7983 312.713 75.7983C313.192 75.7983 313.58 75.4104 313.58 74.9318C313.58 74.4533 313.192 74.0653 312.713 74.0653C312.235 74.0653 311.847 74.4533 311.847 74.9318Z" fill="#999999"/>
<rect x="218.775" y="138.889" width="26.9579" height="3.36973" rx="1.68486" fill="#474747"/>
</g>
<g clip-path="url(#clip3_945_21082)">
<rect x="81" y="154.583" width="115.534" height="86.6504" rx="3.46602" fill="#1E1E1E"/>
<path d="M190.246 162.449C189.768 162.449 189.38 162.061 189.38 161.582C189.38 161.104 189.768 160.716 190.246 160.716C190.725 160.716 191.113 161.104 191.113 161.582C191.113 162.061 190.725 162.449 190.246 162.449ZM190.246 165.915C189.768 165.915 189.38 165.527 189.38 165.048C189.38 164.57 189.768 164.182 190.246 164.182C190.725 164.182 191.113 164.57 191.113 165.048C191.113 165.527 190.725 165.915 190.246 165.915ZM189.38 168.514C189.38 168.993 189.768 169.381 190.246 169.381C190.725 169.381 191.113 168.993 191.113 168.514C191.113 168.036 190.725 167.648 190.246 167.648C189.768 167.648 189.38 168.036 189.38 168.514Z" fill="#999999"/>
<rect x="96.3086" y="232.472" width="26.9579" height="3.36973" rx="1.68486" fill="#474747"/>
</g>
<g clip-path="url(#clip4_945_21082)">
<rect x="203.467" y="154.583" width="115.534" height="86.6504" rx="3.46602" fill="#1E1E1E"/>
<path d="M312.713 162.449C312.235 162.449 311.847 162.061 311.847 161.582C311.847 161.104 312.235 160.716 312.713 160.716C313.192 160.716 313.58 161.104 313.58 161.582C313.58 162.061 313.192 162.449 312.713 162.449ZM312.713 165.915C312.235 165.915 311.847 165.527 311.847 165.048C311.847 164.57 312.235 164.182 312.713 164.182C313.192 164.182 313.58 164.57 313.58 165.048C313.58 165.527 313.192 165.915 312.713 165.915ZM311.847 168.514C311.847 168.993 312.235 169.381 312.713 169.381C313.192 169.381 313.58 168.993 313.58 168.514C313.58 168.036 313.192 167.648 312.713 167.648C312.235 167.648 311.847 168.036 311.847 168.514Z" fill="#999999"/>
<rect x="218.775" y="232.471" width="26.9579" height="3.36973" rx="1.68486" fill="#474747"/>
</g>
<path d="M26.6695 48.0784C26.5344 48.177 26.3791 48.2263 26.2038 48.2263C26.0322 48.2263 25.8952 48.1824 25.793 48.0948C25.6871 48.0035 25.6341 47.8994 25.6341 47.7825C25.6341 47.6657 25.6524 47.5798 25.6889 47.525C25.7948 47.5871 25.9244 47.6182 26.0778 47.6182C26.2349 47.6182 26.3518 47.5981 26.4284 47.5579C26.5088 47.5141 26.5855 47.4557 26.6585 47.3826L27.4364 45.0763L27.546 44.6983C27.5789 44.5851 27.5953 44.481 27.5953 44.386C27.5953 44.0537 27.4383 43.8418 27.1242 43.7505C27.4127 43.641 27.6154 43.5223 27.7323 43.3945C27.9149 43.1936 28.0591 42.9288 28.165 42.6001L28.7677 40.5786C28.6508 40.4216 28.512 40.3431 28.3513 40.3431C28.1906 40.3431 28.0409 40.3778 27.9021 40.4472C27.8656 40.3814 27.8473 40.3084 27.8473 40.228C27.8473 40.144 27.8637 40.0655 27.8966 39.9925C27.9331 39.9194 27.9824 39.8555 28.0445 39.8007C28.1833 39.6839 28.3805 39.6254 28.6362 39.6254C28.8918 39.6254 29.1091 39.7021 29.2881 39.8555C29.4707 39.7021 29.6971 39.6254 29.9674 39.6254C30.2413 39.6254 30.4586 39.6985 30.6193 39.8446C30.853 39.6985 31.0904 39.6254 31.3315 39.6254C31.5725 39.6254 31.7588 39.6711 31.8903 39.7624C32.0254 39.8537 32.093 39.9779 32.093 40.1349C32.093 40.2079 32.071 40.2719 32.0272 40.3266C31.9432 40.2645 31.8446 40.2335 31.7314 40.2335C31.4867 40.2335 31.3278 40.3997 31.2548 40.732L31.956 42.9726C32.0436 43.2538 32.2628 43.473 32.6134 43.63C32.712 43.6738 32.8124 43.714 32.9147 43.7505C32.5495 43.8711 32.3669 44.0518 32.3669 44.2929C32.3669 44.3842 32.3815 44.4645 32.4107 44.5339L33.457 47.3388C33.6177 47.5068 33.7803 47.5908 33.9446 47.5908C34.1089 47.5908 34.2368 47.5597 34.3281 47.4977C34.3682 47.5269 34.3883 47.5817 34.3883 47.662C34.3883 47.7424 34.3756 47.8172 34.35 47.8866C34.3244 47.9524 34.2842 48.0108 34.2295 48.0619C34.1126 48.1715 33.9409 48.2263 33.7145 48.2263C33.4881 48.2263 33.2909 48.1642 33.1229 48.04C32.9329 48.1642 32.7175 48.2263 32.4764 48.2263C32.239 48.2263 32.0345 48.166 31.8629 48.0455C31.6985 48.166 31.505 48.2263 31.2822 48.2263C31.0594 48.2263 30.875 48.1806 30.7289 48.0893C30.5828 47.9944 30.5061 47.861 30.4988 47.6894C30.4988 47.5871 30.5189 47.5232 30.559 47.4977C30.6577 47.5597 30.7581 47.5908 30.8603 47.5908C31.0758 47.5908 31.2274 47.547 31.315 47.4593L30.8987 46.0624H27.935L27.5734 47.273C27.7231 47.5031 27.9039 47.6182 28.1157 47.6182C28.3312 47.6182 28.4919 47.5871 28.5978 47.525C28.638 47.5908 28.6581 47.6821 28.6581 47.799C28.6581 47.9122 28.6015 48.0126 28.4883 48.1003C28.375 48.1843 28.229 48.2263 28.05 48.2263C27.8711 48.2263 27.7067 48.1806 27.557 48.0893C27.4255 48.1806 27.2739 48.2263 27.1023 48.2263C26.9343 48.2263 26.79 48.177 26.6695 48.0784ZM30.6741 45.3228L29.4031 41.0991L28.1541 45.3228H30.6741ZM31.7204 46.665C31.7862 46.665 31.819 46.5919 31.819 46.4458C31.819 46.1902 31.7807 45.9418 31.704 45.7008L31.4958 45.0598C31.3497 44.5778 31.2767 44.2746 31.2767 44.1505C31.273 43.9459 31.3625 43.8108 31.5451 43.7451C31.2931 43.6939 31.1397 43.6154 31.085 43.5095C31.0594 43.4657 31.0375 43.431 31.0192 43.4054C31.0046 43.3798 30.9882 43.3506 30.9699 43.3178C30.9553 43.2812 30.937 43.2356 30.9151 43.1808C30.8932 43.126 30.864 43.0475 30.8275 42.9452L30.4878 41.9208C30.4075 41.6652 30.2888 41.4716 30.1317 41.3401C30.0843 41.2999 30.0404 41.2762 30.0003 41.2689C30.245 42.1527 30.4057 42.7188 30.4823 42.9671C31.0119 44.596 31.3296 45.562 31.4356 45.8651L31.7204 46.665ZM33.3365 47.158L33.3475 47.1909L33.3365 47.158ZM39.2092 48.2263C38.9681 48.2263 38.7545 48.1678 38.5682 48.051C38.382 48.1678 38.2085 48.2263 38.0478 48.2263C37.8908 48.2263 37.7611 48.2117 37.6588 48.1824C37.5566 48.1569 37.4671 48.1204 37.3904 48.0729C37.2334 47.9779 37.1548 47.8592 37.1548 47.7168C37.1548 47.6437 37.1749 47.5798 37.2151 47.525C37.2955 47.5871 37.3977 47.6182 37.5219 47.6182C37.8469 47.6182 38.0715 47.4794 38.1957 47.2018V44.523C38.1957 44.355 38.161 44.2308 38.0916 44.1505C37.9821 44.0153 37.794 43.882 37.5274 43.7505C37.7757 43.6373 37.9364 43.5369 38.0095 43.4492C38.1336 43.3068 38.1957 43.1461 38.1957 42.9671V40.6553C38.0715 40.3741 37.8469 40.2335 37.5219 40.2335C37.3977 40.2335 37.2955 40.2645 37.2151 40.3266C37.1749 40.2719 37.1548 40.2098 37.1548 40.1404C37.1548 40.0673 37.1749 39.9998 37.2151 39.9377C37.2589 39.8756 37.3174 39.8226 37.3904 39.7788C37.5584 39.6766 37.7502 39.6254 37.9656 39.6254C38.1848 39.6254 38.3856 39.6857 38.5682 39.8062C38.7581 39.6857 38.97 39.6254 39.2037 39.6254C39.4375 39.6254 39.6493 39.6857 39.8392 39.8062C40.0437 39.6857 40.23 39.6254 40.398 39.6254C40.566 39.6254 40.7011 39.64 40.8034 39.6692C40.9056 39.6948 40.9951 39.7313 41.0718 39.7788C41.2288 39.8738 41.3074 39.9925 41.3074 40.1349C41.3074 40.2079 41.2873 40.2719 41.2471 40.3266C41.1667 40.2645 41.059 40.2335 40.9239 40.2335C40.7888 40.2335 40.6518 40.27 40.513 40.3431C40.3779 40.4125 40.2774 40.5184 40.2117 40.6608V42.9671C40.2117 43.1461 40.2501 43.2794 40.3268 43.3671C40.4473 43.5095 40.6317 43.6373 40.8801 43.7505C40.6134 43.882 40.4436 43.9898 40.3706 44.0738C40.2647 44.2052 40.2117 44.355 40.2117 44.523V46.917C40.4528 47.3004 40.7541 47.4922 41.1156 47.4922C42.0104 47.4922 42.5856 47.1124 42.8413 46.3527C42.9545 46.0167 43.0111 45.7099 43.0111 45.4324C43.0111 45.1511 42.9727 44.9631 42.896 44.8681C42.98 44.7987 43.0659 44.764 43.1535 44.764C43.2448 44.764 43.3288 44.7823 43.4055 44.8188C43.4822 44.8553 43.5516 44.9101 43.6137 44.9831C43.7415 45.1329 43.8054 45.31 43.8054 45.5145C43.8054 45.7191 43.789 45.8761 43.7561 45.9857C43.9241 46.1244 44.0081 46.3198 44.0081 46.5718C44.0081 46.8238 43.9369 47.0284 43.7945 47.1854C43.915 47.3388 43.9753 47.4776 43.9753 47.6017C43.9753 47.7259 43.957 47.8337 43.9205 47.925C43.8876 48.0126 43.8401 48.0911 43.778 48.1605C43.6393 48.303 43.4731 48.3742 43.2795 48.3742C43.1846 48.3742 43.0969 48.3541 43.0166 48.3139C43.0312 48.2336 43.0385 48.1532 43.0385 48.0729C43.0385 47.9049 42.9618 47.8209 42.8084 47.8209C42.6952 47.8209 42.5381 47.8665 42.3373 47.9578C41.9501 48.1368 41.5082 48.2263 41.0115 48.2263C40.5185 48.2263 40.1332 48.1624 39.8556 48.0345C39.6657 48.1624 39.4502 48.2263 39.2092 48.2263ZM38.7216 46.665C38.9042 46.5956 39.0047 46.3564 39.0229 45.9473C39.0448 45.5383 39.0558 44.9722 39.0558 44.2491C39.0558 43.5259 39.054 43.0457 39.0503 42.8083C39.0503 42.5672 39.0485 42.3737 39.0448 42.2276C39.0339 41.7966 38.9919 41.5373 38.9188 41.4497C38.8495 41.3584 38.7837 41.2981 38.7216 41.2689C38.7216 42.5398 38.6997 43.263 38.6559 43.4383C38.6048 43.5844 38.4806 43.6885 38.2834 43.7505C38.5025 43.8272 38.6267 43.9204 38.6559 44.0299C38.6997 44.2052 38.7216 44.8462 38.7216 45.9528V46.665ZM45.8926 47.5031C45.6626 47.2694 45.48 46.9918 45.3448 46.6704C45.2133 46.3491 45.133 46.0733 45.1038 45.8432C45.0746 45.6131 45.049 45.4652 45.0271 45.3995C45.0088 45.3338 44.976 45.2717 44.9285 45.2132C44.8335 45.0927 44.66 44.9704 44.408 44.8462C44.7258 44.7038 44.9285 44.4755 45.0161 44.1614C45.0417 44.0738 45.0618 43.9861 45.0764 43.8985C45.1713 43.2447 45.4873 42.6987 46.0241 42.2605C46.561 41.8185 47.1873 41.5976 47.9032 41.5976C48.6482 41.5976 49.2892 41.8204 49.826 42.2659C50.3483 42.7005 50.6569 43.2447 50.7519 43.8985C50.7847 44.1285 50.834 44.2965 50.8998 44.4024C51.0239 44.596 51.1974 44.7439 51.4202 44.8462C51.1718 44.9667 51.0112 45.0726 50.9381 45.1639C50.8395 45.2918 50.7774 45.4433 50.7519 45.6186C50.635 46.4805 50.3355 47.1361 49.8534 47.5853C49.3713 48.0309 48.7286 48.2537 47.9251 48.2537C47.0632 48.2537 46.3857 48.0035 45.8926 47.5031ZM48.8454 43.7396C48.8454 42.8265 48.535 42.37 47.9141 42.37C47.2933 42.37 46.9828 42.8265 46.9828 43.7396V46.1664C46.9828 47.043 47.2914 47.4812 47.9086 47.4812C48.5332 47.4812 48.8454 47.043 48.8454 46.1664V43.7396ZM49.3713 46.665C49.5539 46.5956 49.6544 46.3564 49.6726 45.9473C49.6945 45.5383 49.7055 45.2351 49.7055 45.0379C49.7055 44.8371 49.7037 44.6709 49.7 44.5394C49.7 44.4043 49.6982 44.2655 49.6945 44.1231C49.6799 43.5898 49.6379 43.2794 49.5685 43.1918C49.4992 43.1041 49.4334 43.0457 49.3713 43.0165V46.665ZM46.0899 46.665C46.141 46.6248 46.1666 46.5791 46.1666 46.528C46.1666 46.4477 46.1501 46.3454 46.1173 46.2212C45.9675 45.6478 45.8926 45.2498 45.8926 45.027C45.8926 44.8005 45.9 44.6252 45.9146 44.5011C45.9292 44.3732 45.9474 44.2454 45.9693 44.1176C46.0168 43.8692 46.0661 43.6501 46.1173 43.4602C46.1501 43.336 46.1666 43.252 46.1666 43.2082C46.1666 43.1205 46.141 43.0566 46.0899 43.0165C45.9365 43.1991 45.8196 43.4438 45.7393 43.7505C45.6589 44.0573 45.5932 44.3276 45.542 44.5613C45.5238 44.6599 45.416 44.7549 45.2188 44.8462C45.416 44.9375 45.5238 45.0288 45.542 45.1201C45.6772 45.7373 45.7886 46.1299 45.8762 46.2979C45.9639 46.4659 46.0351 46.5883 46.0899 46.665ZM52.8719 48.3304C52.609 48.0893 52.4775 47.7898 52.4775 47.4319C52.4775 46.8987 52.7934 46.4604 53.4252 46.1171C53.0125 45.8286 52.7112 45.3721 52.5213 44.7476C52.4592 44.554 52.3972 44.4225 52.3351 44.3531C52.2438 44.2436 52.0867 44.134 51.8639 44.0245C52.0465 43.9405 52.1853 43.8327 52.2803 43.7012C52.3789 43.5698 52.4629 43.3981 52.5323 43.1863C52.6053 42.9745 52.7058 42.7718 52.8336 42.5782C52.9651 42.3846 53.1331 42.2148 53.3376 42.0687C53.7868 41.7546 54.3657 41.5976 55.0742 41.5976C55.3006 41.5976 55.5362 41.6213 55.7809 41.6688C55.832 41.2707 56.0091 40.9329 56.3123 40.6553C56.6117 40.3741 56.9624 40.2335 57.3641 40.2335C57.8352 40.2335 58.2315 40.3559 58.5529 40.6005C58.7282 40.732 58.9035 40.7813 59.0788 40.7485C59.0934 41.0406 58.9802 41.2287 58.7391 41.3127C58.699 41.8058 58.4853 42.0523 58.0982 42.0523C57.9448 42.0523 57.8517 42.0413 57.8188 42.0194C57.8736 41.9719 57.901 41.9117 57.901 41.8386C57.901 41.7619 57.8699 41.6962 57.8078 41.6414C57.7311 41.7838 57.5595 41.8551 57.2929 41.8551C57.1468 41.8551 57.0317 41.7857 56.9477 41.6469C57.0865 41.6031 57.1961 41.5373 57.2764 41.4497C57.3568 41.3584 57.397 41.2744 57.397 41.1977C57.397 40.9968 57.291 40.8964 57.0792 40.8964C56.6702 40.8964 56.431 41.2141 56.3616 41.8496C57.0263 42.1345 57.4499 42.5818 57.6325 43.1918C57.753 43.6045 57.9758 43.882 58.3009 44.0245C58.016 44.1669 57.8279 44.3258 57.7366 44.5011C57.7001 44.5704 57.6672 44.6526 57.638 44.7476C57.4408 45.3684 57.1322 45.8268 56.7122 46.1226C56.2922 46.4148 55.7517 46.5609 55.0906 46.5609C54.6706 46.5609 54.3054 46.5097 53.995 46.4075C53.8745 46.4842 53.8142 46.57 53.8142 46.665C53.8142 46.7563 53.8325 46.8348 53.869 46.9005C53.9055 46.9626 53.9712 47.0192 54.0662 47.0704C54.2524 47.169 54.6067 47.2566 55.129 47.3333C55.3664 47.3808 55.6111 47.2274 55.8631 46.8731C55.8777 47.0594 55.9197 47.2 55.9891 47.295C56.0584 47.3863 56.1351 47.4374 56.2191 47.4484C57.2271 47.5981 57.879 47.9268 58.1749 48.4344C58.2771 48.6061 58.3283 48.8252 58.3283 49.0918C58.3283 49.3621 58.2424 49.6232 58.0708 49.8752C57.8991 50.1309 57.6672 50.3482 57.375 50.5271C56.7688 50.8923 56.0237 51.075 55.1399 51.075C54.1027 51.075 53.3102 50.9051 52.7624 50.5655C52.2912 50.2696 52.0557 49.8917 52.0557 49.4315C52.0557 49.1247 52.2109 48.8343 52.5213 48.5604C52.6236 48.4728 52.7405 48.3961 52.8719 48.3304ZM54.5592 45.5638C54.6396 45.6771 54.7199 45.7501 54.8003 45.783C54.8806 45.8122 54.9738 45.8268 55.0797 45.8268C55.1892 45.8268 55.2842 45.8122 55.3645 45.783C55.4449 45.7501 55.5124 45.6953 55.5672 45.6186C55.6731 45.4689 55.7261 45.2169 55.7261 44.8626V43.3451C55.7261 42.9909 55.6859 42.7572 55.6056 42.6439C55.5252 42.5307 55.4449 42.4595 55.3645 42.4303C55.2842 42.3974 55.1892 42.381 55.0797 42.381C54.9738 42.381 54.8806 42.3974 54.8003 42.4303C54.7199 42.4595 54.6542 42.5106 54.6031 42.5837C54.4935 42.7371 54.4387 42.9909 54.4387 43.3451V44.8626C54.4387 45.2169 54.4789 45.4506 54.5592 45.5638ZM56.2575 45.5255C56.4255 45.4671 56.5223 45.2863 56.5478 44.9831C56.5734 44.6983 56.5862 44.3787 56.5862 44.0245C56.5862 43.4766 56.5716 43.126 56.5424 42.9726C56.4985 42.7681 56.4036 42.6348 56.2575 42.5727V45.5255ZM53.4033 45.5255C53.4764 45.4707 53.5129 45.4068 53.5129 45.3338C53.5129 45.2388 53.5001 45.1475 53.4745 45.0598C53.3759 44.7238 53.3266 44.3787 53.3266 44.0245C53.3266 43.6738 53.3759 43.3305 53.4745 42.9945C53.5001 42.9069 53.5129 42.8375 53.5129 42.7864V42.6549C53.5129 42.622 53.4983 42.5946 53.4691 42.5727C53.3193 42.7553 53.2098 42.9635 53.1404 43.1972C53.0746 43.431 53.0217 43.6373 52.9815 43.8163C52.9669 43.8711 52.8646 43.9405 52.6747 44.0245C52.8683 44.1194 52.9705 44.1906 52.9815 44.2381L53.0911 44.6983C53.186 45.0854 53.2901 45.3611 53.4033 45.5255ZM53.1239 47.4757C53.0911 47.5086 53.0746 47.5561 53.0746 47.6182C53.0892 48.0126 53.6517 48.3103 54.7619 48.5111C54.8898 48.5404 54.9811 48.6791 55.0358 48.9275C55.0541 48.8471 55.1253 48.7796 55.2495 48.7248C55.3773 48.6737 55.4631 48.6499 55.507 48.6536C56.0584 48.7193 56.431 48.7814 56.6245 48.8398C56.9678 48.9457 57.218 49.1028 57.375 49.311C57.4189 49.2598 57.4408 49.1941 57.4408 49.1137C57.4408 49.0334 57.4006 48.9512 57.3203 48.8672C57.2399 48.7869 57.1084 48.7157 56.9258 48.6536C56.6117 48.5404 56.1863 48.4527 55.6494 48.3906C55.1125 48.3285 54.7345 48.2737 54.5154 48.2263C54.2999 48.1788 54.1009 48.1204 53.9183 48.051C53.5202 47.8939 53.2554 47.7022 53.1239 47.4757ZM53.4198 48.681C53.1605 48.7942 53.0308 49.006 53.0308 49.3164C53.0308 49.5648 53.2189 49.7894 53.5951 49.9903C54.0151 50.2167 54.5574 50.3299 55.2221 50.3299C56.0402 50.3299 56.5716 50.1893 56.8163 49.9081C56.8857 49.8314 56.9204 49.7492 56.9204 49.6616C56.9204 49.5776 56.8784 49.5027 56.7944 49.437C56.714 49.3712 56.6081 49.3183 56.4766 49.2781C56.2831 49.2123 55.9781 49.1557 55.5617 49.1083C55.3609 49.0863 55.1125 49.2343 54.8167 49.552C54.8167 49.3475 54.782 49.1996 54.7126 49.1083C54.6469 49.017 54.5811 48.9677 54.5154 48.9603C54.0918 48.9056 53.7265 48.8124 53.4198 48.681ZM60.147 47.5031C59.917 47.2694 59.7343 46.9918 59.5992 46.6704C59.4677 46.3491 59.3874 46.0733 59.3582 45.8432C59.329 45.6131 59.3034 45.4652 59.2815 45.3995C59.2632 45.3338 59.2303 45.2717 59.1829 45.2132C59.0879 45.0927 58.9144 44.9704 58.6624 44.8462C58.9802 44.7038 59.1829 44.4755 59.2705 44.1614C59.2961 44.0738 59.3162 43.9861 59.3308 43.8985C59.4257 43.2447 59.7416 42.6987 60.2785 42.2605C60.8154 41.8185 61.4417 41.5976 62.1576 41.5976C62.9026 41.5976 63.5435 41.8204 64.0804 42.2659C64.6027 42.7005 64.9113 43.2447 65.0062 43.8985C65.0391 44.1285 65.0884 44.2965 65.1542 44.4024C65.2783 44.596 65.4518 44.7439 65.6746 44.8462C65.4262 44.9667 65.2655 45.0726 65.1925 45.1639C65.0939 45.2918 65.0318 45.4433 65.0062 45.6186C64.8894 46.4805 64.5899 47.1361 64.1078 47.5853C63.6257 48.0309 62.9829 48.2537 62.1795 48.2537C61.3176 48.2537 60.6401 48.0035 60.147 47.5031ZM63.0998 43.7396C63.0998 42.8265 62.7894 42.37 62.1685 42.37C61.5476 42.37 61.2372 42.8265 61.2372 43.7396V46.1664C61.2372 47.043 61.5458 47.4812 62.163 47.4812C62.7876 47.4812 63.0998 47.043 63.0998 46.1664V43.7396ZM63.6257 46.665C63.8083 46.5956 63.9088 46.3564 63.927 45.9473C63.9489 45.5383 63.9599 45.2351 63.9599 45.0379C63.9599 44.8371 63.9581 44.6709 63.9544 44.5394C63.9544 44.4043 63.9526 44.2655 63.9489 44.1231C63.9343 43.5898 63.8923 43.2794 63.8229 43.1918C63.7535 43.1041 63.6878 43.0457 63.6257 43.0165V46.665ZM60.3443 46.665C60.3954 46.6248 60.421 46.5791 60.421 46.528C60.421 46.4477 60.4045 46.3454 60.3716 46.2212C60.2219 45.6478 60.147 45.2498 60.147 45.027C60.147 44.8005 60.1543 44.6252 60.169 44.5011C60.1836 44.3732 60.2018 44.2454 60.2237 44.1176C60.2712 43.8692 60.3205 43.6501 60.3716 43.4602C60.4045 43.336 60.421 43.252 60.421 43.2082C60.421 43.1205 60.3954 43.0566 60.3443 43.0165C60.1909 43.1991 60.074 43.4438 59.9936 43.7505C59.9133 44.0573 59.8476 44.3276 59.7964 44.5613C59.7782 44.6599 59.6704 44.7549 59.4732 44.8462C59.6704 44.9375 59.7782 45.0288 59.7964 45.1201C59.9316 45.7373 60.043 46.1299 60.1306 46.2979C60.2183 46.4659 60.2895 46.5883 60.3443 46.665Z" fill="#356EFD"/>
<path d="M76.0352 39.6096C76.0352 38.7244 76.7527 38.0068 77.6379 38.0068H97.272C98.1572 38.0068 98.8747 38.7244 98.8747 39.6096V47.6235C98.8747 48.5087 98.1572 49.2263 97.272 49.2263H77.6379C76.7527 49.2263 76.0352 48.5087 76.0352 47.6235V39.6096Z" fill="#F01523"/>
<path d="M81.6448 45.2192C82.53 45.2192 83.2475 44.5016 83.2475 43.6164C83.2475 42.7313 82.53 42.0137 81.6448 42.0137C80.7596 42.0137 80.042 42.7313 80.042 43.6164C80.042 44.5016 80.7596 45.2192 81.6448 45.2192Z" fill="#F5F5F7"/>
<path d="M85.9553 45.2124V41.7154H87.335C87.5991 41.7154 87.8245 41.7627 88.0111 41.8572C88.199 41.9505 88.3418 42.0831 88.4397 42.255C88.5388 42.4258 88.5883 42.6267 88.5883 42.8578C88.5883 43.09 88.5382 43.2898 88.438 43.4571C88.3378 43.6233 88.1927 43.7508 88.0026 43.8396C87.8136 43.9284 87.5848 43.9728 87.3162 43.9728H86.3924V43.3785H87.1967C87.3378 43.3785 87.4551 43.3592 87.5484 43.3205C87.6417 43.2818 87.7112 43.2237 87.7567 43.1463C87.8034 43.0689 87.8267 42.9727 87.8267 42.8578C87.8267 42.7416 87.8034 42.6437 87.7567 42.5641C87.7112 42.4844 87.6412 42.424 87.5467 42.3831C87.4534 42.3409 87.3355 42.3199 87.1932 42.3199H86.6947V45.2124H85.9553ZM87.8438 43.621L88.7129 45.2124H87.8967L87.0464 43.621H87.8438ZM89.1108 45.2124V41.7154H91.4671V42.325H89.8501V43.1583H91.3459V43.7679H89.8501V44.6028H91.474V45.2124H89.1108ZM95.1404 42.9397H94.3925C94.3789 42.843 94.351 42.757 94.3088 42.6819C94.2667 42.6056 94.2127 42.5407 94.1466 42.4872C94.0806 42.4337 94.0043 42.3927 93.9178 42.3643C93.8324 42.3358 93.7397 42.3216 93.6395 42.3216C93.4585 42.3216 93.3008 42.3666 93.1665 42.4565C93.0322 42.5453 92.928 42.6751 92.854 42.8458C92.7801 43.0154 92.7431 43.2215 92.7431 43.4639C92.7431 43.7132 92.7801 43.9227 92.854 44.0923C92.9292 44.2619 93.0339 44.39 93.1682 44.4765C93.3026 44.563 93.4579 44.6062 93.6344 44.6062C93.7334 44.6062 93.8251 44.5931 93.9093 44.567C93.9947 44.5408 94.0704 44.5026 94.1364 44.4526C94.2024 44.4013 94.257 44.3393 94.3003 44.2664C94.3447 44.1936 94.3754 44.1105 94.3925 44.0171L95.1404 44.0206C95.121 44.1811 95.0727 44.3359 94.9953 44.485C94.919 44.633 94.816 44.7656 94.6862 44.8829C94.5576 44.999 94.4039 45.0912 94.2252 45.1595C94.0476 45.2266 93.8467 45.2602 93.6224 45.2602C93.3105 45.2602 93.0316 45.1896 92.7857 45.0485C92.541 44.9073 92.3475 44.703 92.2052 44.4355C92.064 44.168 91.9935 43.8441 91.9935 43.4639C91.9935 43.0826 92.0652 42.7581 92.2086 42.4906C92.352 42.2231 92.5467 42.0194 92.7926 41.8794C93.0385 41.7382 93.3151 41.6676 93.6224 41.6676C93.8251 41.6676 94.0129 41.6961 94.1859 41.753C94.3601 41.8099 94.5143 41.893 94.6486 42.0023C94.783 42.1104 94.8922 42.2431 94.9765 42.4001C95.0619 42.5572 95.1165 42.7371 95.1404 42.9397Z" fill="#F5F5F7"/>
<rect x="346.14" y="35.6025" width="28.4493" height="16.0278" rx="1.60278" fill="#1E1E1E"/>
<rect x="349.746" y="41.2129" width="21.2368" height="4.40764" rx="2.20382" fill="#474747"/>
<rect x="309.275" y="35.6025" width="32.8569" height="16.0278" rx="1.60278" fill="#1E1E1E"/>
<rect x="315.286" y="41.4131" width="8.41458" height="4.40764" rx="2.20382" fill="#474747"/>
<path d="M333.01 43.0075C333.397 43.0075 333.711 43.3214 333.711 43.7087V45.6116C333.711 46.6077 332.904 47.4151 331.908 47.4151C330.911 47.4151 330.104 46.6077 330.104 45.6116V43.7087C330.104 43.3214 330.418 43.0075 330.805 43.0075H333.01ZM333.01 43.6085H330.805C330.75 43.6085 330.705 43.6534 330.705 43.7087V45.6116C330.705 46.2757 331.243 46.8141 331.908 46.8141C332.572 46.8141 333.11 46.2757 333.11 45.6116V43.7087C333.11 43.6534 333.065 43.6085 333.01 43.6085ZM328.601 43.0075L329.955 43.0071C329.818 43.1736 329.728 43.3811 329.708 43.6086L328.601 43.6085C328.545 43.6085 328.5 43.6534 328.5 43.7087V45.0105C328.5 45.564 328.949 46.0127 329.503 46.0127C329.583 46.0127 329.661 46.0033 329.735 45.9855C329.769 46.1875 329.831 46.38 329.917 46.5593C329.785 46.5949 329.646 46.6137 329.503 46.6137C328.617 46.6137 327.899 45.8959 327.899 45.0105V43.7087C327.899 43.3214 328.213 43.0075 328.601 43.0075ZM333.86 43.0071L335.212 43.0075C335.599 43.0075 335.913 43.3214 335.913 43.7087V45.011C335.913 45.8962 335.196 46.6137 334.311 46.6137C334.168 46.6137 334.029 46.5951 333.897 46.56C333.984 46.3804 334.046 46.1879 334.08 45.9859C334.154 46.0035 334.231 46.0127 334.311 46.0127C334.864 46.0127 335.312 45.5642 335.312 45.011V43.7087C335.312 43.6534 335.267 43.6085 335.212 43.6085L334.107 43.6086C334.087 43.3811 333.997 43.1736 333.86 43.0071ZM331.906 40.2026C332.57 40.2026 333.108 40.7408 333.108 41.4047C333.108 42.0686 332.57 42.6068 331.906 42.6068C331.242 42.6068 330.704 42.0686 330.704 41.4047C330.704 40.7408 331.242 40.2026 331.906 40.2026ZM334.511 40.6033C335.064 40.6033 335.513 41.0518 335.513 41.6051C335.513 42.1583 335.064 42.6068 334.511 42.6068C333.958 42.6068 333.509 42.1583 333.509 41.6051C333.509 41.0518 333.958 40.6033 334.511 40.6033ZM329.302 40.6033C329.855 40.6033 330.304 41.0518 330.304 41.6051C330.304 42.1583 329.855 42.6068 329.302 42.6068C328.749 42.6068 328.3 42.1583 328.3 41.6051C328.3 41.0518 328.749 40.6033 329.302 40.6033ZM331.906 40.8037C331.574 40.8037 331.305 41.0728 331.305 41.4047C331.305 41.7367 331.574 42.0058 331.906 42.0058C332.238 42.0058 332.507 41.7367 332.507 41.4047C332.507 41.0728 332.238 40.8037 331.906 40.8037ZM334.511 41.2044C334.29 41.2044 334.11 41.3838 334.11 41.6051C334.11 41.8264 334.29 42.0058 334.511 42.0058C334.732 42.0058 334.912 41.8264 334.912 41.6051C334.912 41.3838 334.732 41.2044 334.511 41.2044ZM329.302 41.2044C329.081 41.2044 328.901 41.3838 328.901 41.6051C328.901 41.8264 329.081 42.0058 329.302 42.0058C329.523 42.0058 329.703 41.8264 329.703 41.6051C329.703 41.3838 329.523 41.2044 329.302 41.2044Z" fill="#DDDDDD"/>
<rect x="124" y="246" width="28.0721" height="21.2252" rx="1.36937" fill="#080808"/>
<g clip-path="url(#clip5_945_21082)">
<path d="M138.244 250.145C137.393 250.145 136.703 250.834 136.703 251.685V254.424C136.703 255.275 137.393 255.964 138.244 255.964C139.094 255.964 139.784 255.275 139.784 254.424V251.685C139.784 250.834 139.094 250.145 138.244 250.145ZM137.217 251.685C137.217 251.118 137.676 250.658 138.244 250.658C138.811 250.658 139.271 251.118 139.271 251.685V254.424C139.271 254.991 138.811 255.451 138.244 255.451C137.676 255.451 137.217 254.991 137.217 254.424V251.685ZM136.018 254.167C136.018 254.025 135.903 253.91 135.762 253.91C135.62 253.91 135.505 254.026 135.505 254.167V254.424C135.505 255.85 136.595 257.021 137.987 257.151V258.104C137.987 258.246 138.102 258.361 138.244 258.361C138.385 258.361 138.5 258.246 138.5 258.104V257.151C139.893 257.021 140.982 255.85 140.982 254.424V254.167C140.982 254.025 140.867 253.91 140.726 253.91C140.584 253.91 140.469 254.026 140.469 254.167V254.424C140.469 255.653 139.473 256.649 138.244 256.649C137.015 256.649 136.018 255.653 136.018 254.424V254.167Z" fill="white" fill-opacity="0.88"/>
</g>
<rect x="127.081" y="261.577" width="21.9099" height="2.3964" rx="1.1982" fill="#474747"/>
<rect x="154.811" y="246" width="28.4144" height="21.2252" rx="1.36937" fill="#080808"/>
<g clip-path="url(#clip6_945_21082)">
<path d="M165.555 250.22C165.454 250.119 165.292 250.119 165.191 250.22C165.091 250.32 165.091 250.483 165.191 250.583L165.979 251.371C165.485 251.484 165.116 251.927 165.116 252.455V256.05C165.116 256.664 165.614 257.163 166.229 257.163H169.824C170.353 257.163 170.795 256.794 170.909 256.3L172.894 258.286C172.994 258.386 173.157 258.386 173.257 258.286C173.357 258.185 173.357 258.023 173.257 257.922L165.555 250.22ZM170.423 255.815V256.05C170.423 256.381 170.155 256.649 169.824 256.649H166.229C165.898 256.649 165.63 256.381 165.63 256.05V252.455C165.63 252.124 165.898 251.856 166.229 251.856H166.465L170.423 255.815ZM167.404 251.343L167.917 251.856H169.824C170.155 251.856 170.423 252.124 170.423 252.455V254.362L170.937 254.876V253.618L172.648 252.447V256.059L170.971 254.91L172.71 256.649C172.941 256.662 173.162 256.482 173.162 256.221V252.285C173.162 251.941 172.776 251.738 172.492 251.932L170.937 252.996V252.455C170.937 251.841 170.439 251.343 169.824 251.343H167.404Z" fill="#FF2D2D"/>
</g>
<rect x="158.062" y="261.577" width="21.9099" height="2.3964" rx="1.1982" fill="#474747"/>
<rect x="185.964" y="246" width="28.0721" height="21.2252" rx="1.36937" fill="#080808"/>
<g clip-path="url(#clip7_945_21082)">
<path d="M196.099 251.941C196.099 251.516 196.443 251.171 196.869 251.171H203.545C203.97 251.171 204.315 251.516 204.315 251.941V256.563C204.315 256.988 203.97 257.333 203.545 257.333H196.869C196.443 257.333 196.099 256.988 196.099 256.563V251.941ZM196.869 251.684C196.727 251.684 196.612 251.799 196.612 251.941V256.563C196.612 256.705 196.727 256.82 196.869 256.82H203.545C203.686 256.82 203.801 256.705 203.801 256.563V251.941C203.801 251.799 203.686 251.684 203.545 251.684H196.869ZM200.206 252.411C200.274 252.411 200.339 252.438 200.388 252.486L201.502 253.6C201.602 253.7 201.602 253.863 201.502 253.963C201.401 254.063 201.239 254.063 201.139 253.963L200.463 253.287V255.837C200.463 255.978 200.348 256.093 200.206 256.093C200.064 256.093 199.949 255.978 199.949 255.837V253.288L199.275 253.963C199.175 254.063 199.012 254.064 198.912 253.963C198.812 253.863 198.811 253.701 198.912 253.6L200.024 252.486C200.072 252.438 200.138 252.411 200.206 252.411Z" fill="white" fill-opacity="0.88"/>
</g>
<rect x="189.045" y="261.577" width="21.9099" height="2.3964" rx="1.1982" fill="#474747"/>
<rect x="216.774" y="246" width="28.4144" height="21.2252" rx="1.36937" fill="#080808"/>
<g clip-path="url(#clip8_945_21082)">
<path d="M228.687 256.108V256.979L228.3 257.365H227.43L228.687 256.108ZM235.26 255.079V255.951L233.846 257.365H233.614L233.614 256.726L235.26 255.079ZM229.817 254.901H232.485C232.862 254.901 233.171 255.191 233.201 255.561L233.203 255.62V257.365H232.587V255.62C232.587 255.571 232.554 255.53 232.508 255.52L232.485 255.517H229.817C229.768 255.517 229.727 255.551 229.717 255.596L229.714 255.62V257.365H229.098V255.62C229.098 255.242 229.388 254.933 229.758 254.903L229.817 254.901ZM229.517 253.428C229.542 253.666 229.617 253.889 229.732 254.085L227.044 256.774V255.902L229.517 253.428ZM235.26 253.23V254.102L233.614 255.749L233.614 255.62L233.612 255.551C233.601 255.364 233.544 255.19 233.453 255.038L235.26 253.23ZM231.175 250.793L227.044 254.925V254.054L230.304 250.793H231.175ZM235.26 251.381V252.253L232.932 254.582C232.823 254.535 232.704 254.504 232.579 254.494L232.485 254.49L232.239 254.49C232.379 254.366 232.498 254.219 232.59 254.054L235.26 251.381ZM231.152 252.025C231.832 252.025 232.384 252.577 232.384 253.258C232.384 253.938 231.832 254.49 231.152 254.49C230.471 254.49 229.919 253.938 229.919 253.258C229.919 252.577 230.471 252.025 231.152 252.025ZM231.152 252.642C230.812 252.642 230.536 252.917 230.536 253.258C230.536 253.598 230.812 253.874 231.152 253.874C231.492 253.874 231.768 253.598 231.768 253.258C231.768 252.917 231.492 252.642 231.152 252.642ZM229.327 250.793L227.044 253.077V252.205L228.456 250.793H229.327ZM234.872 250.793L232.758 252.908C232.71 252.687 232.617 252.482 232.49 252.304L234 250.793H234.872ZM233.024 250.793L231.979 251.838C231.783 251.723 231.56 251.648 231.323 251.623L232.153 250.793H233.024Z" fill="white" fill-opacity="0.88"/>
</g>
<rect x="220.026" y="261.577" width="21.9099" height="2.3964" rx="1.1982" fill="#474747"/>
<rect x="247.928" y="246" width="28.0721" height="21.2252" rx="1.36937" fill="#080808"/>
<g clip-path="url(#clip9_945_21082)">
<path d="M258.501 250.22C258.401 250.119 258.238 250.119 258.138 250.22C258.037 250.32 258.037 250.483 258.138 250.583L260.098 252.543H259.175C258.561 252.543 258.063 253.041 258.063 253.655V254.851C258.063 255.465 258.561 255.963 259.175 255.963H260.206C260.358 255.963 260.505 256.021 260.616 256.125L262.306 257.709C262.579 257.965 263.026 257.771 263.026 257.397V255.472L265.84 258.286C265.941 258.386 266.103 258.386 266.203 258.286C266.304 258.185 266.304 258.023 266.203 257.922L258.501 250.22ZM262.513 254.958V257.199L260.967 255.751C260.761 255.557 260.489 255.45 260.206 255.45H259.175C258.844 255.45 258.576 255.182 258.576 254.851V253.655C258.576 253.324 258.844 253.056 259.175 253.056H260.206C260.326 253.056 260.443 253.037 260.555 253L262.513 254.958ZM261.014 252.007L261.378 252.37L262.513 251.306V253.506L263.026 254.019V251.108C263.026 250.733 262.579 250.54 262.306 250.796L261.014 252.007ZM264.284 255.276L264.673 255.666C264.879 255.238 264.995 254.759 264.995 254.253C264.995 253.521 264.753 252.846 264.345 252.302C264.26 252.189 264.099 252.166 263.986 252.251C263.873 252.336 263.85 252.497 263.935 252.61C264.278 253.068 264.481 253.636 264.481 254.253C264.481 254.615 264.411 254.96 264.284 255.276ZM265.243 256.236L265.618 256.611C266.037 255.924 266.279 255.116 266.279 254.253C266.279 253.105 265.852 252.057 265.15 251.258C265.056 251.151 264.894 251.141 264.787 251.235C264.681 251.328 264.67 251.491 264.764 251.597C265.387 252.306 265.765 253.235 265.765 254.253C265.765 254.974 265.576 255.651 265.243 256.236Z" fill="white" fill-opacity="0.88"/>
</g>
<rect x="251.009" y="261.577" width="21.9099" height="2.3964" rx="1.1982" fill="#474747"/>
</g>
<defs>
<clipPath id="clip0_945_21082">
<rect width="400" height="300" fill="white"/>
</clipPath>
<clipPath id="clip1_945_21082">
<rect x="81" y="61" width="115.534" height="86.6504" rx="3.46602" fill="white"/>
</clipPath>
<clipPath id="clip2_945_21082">
<rect x="203.467" y="61" width="115.534" height="86.6504" rx="3.46602" fill="white"/>
</clipPath>
<clipPath id="clip3_945_21082">
<rect x="81" y="154.583" width="115.534" height="86.6504" rx="3.46602" fill="white"/>
</clipPath>
<clipPath id="clip4_945_21082">
<rect x="203.467" y="154.583" width="115.534" height="86.6504" rx="3.46602" fill="white"/>
</clipPath>
<clipPath id="clip5_945_21082">
<rect width="9.58559" height="9.58559" fill="white" transform="translate(133.243 249.252)"/>
</clipPath>
<clipPath id="clip6_945_21082">
<rect width="9.58559" height="9.58559" fill="white" transform="translate(164.225 249.252)"/>
</clipPath>
<clipPath id="clip7_945_21082">
<rect width="9.58559" height="9.58559" fill="white" transform="translate(195.207 249.252)"/>
</clipPath>
<clipPath id="clip8_945_21082">
<rect width="9.58559" height="9.58559" fill="white" transform="translate(226.188 249.252)"/>
</clipPath>
<clipPath id="clip9_945_21082">
<rect width="9.58559" height="9.58559" fill="white" transform="translate(257.171 249.252)"/>
</clipPath>
</defs>
</svg>
