<svg width="400" height="300" viewBox="0 0 400 300" fill="none" xmlns="http://www.w3.org/2000/svg">
<rect width="400" height="300" fill="#E0E9FF"/>
<rect x="19" y="31" width="362" height="239" rx="8" fill="#050505"/>
<path d="M34 88C34 85.7909 35.7909 84 38 84H218C220.209 84 222 85.7909 222 88V197.627C222 199.836 220.209 201.627 218 201.627H38C35.7909 201.627 34 199.836 34 197.627V88Z" fill="#262626"/>
<circle cx="125.1" cy="138.55" r="20.5503" fill="#B8B8B8"/>
<path d="M84 188.099C84 173.975 95.4498 162.525 109.574 162.525H140.628C154.752 162.525 166.201 173.975 166.201 188.099V191.981C166.201 197.277 161.908 201.571 156.611 201.571H93.5901C88.2936 201.571 84 197.277 84 191.981V188.099Z" fill="#B8B8B8"/>
<rect x="183.104" y="182.672" width="15.0358" height="15.0358" rx="1.25298" fill="#050505"/>
<g clip-path="url(#clip0_928_21161)">
<path d="M188.132 187.368C188.04 187.276 187.891 187.276 187.799 187.368C187.708 187.459 187.708 187.608 187.799 187.7L189.61 189.511V190.431C189.61 191.123 190.171 191.684 190.863 191.684C191.124 191.684 191.366 191.604 191.567 191.468L191.926 191.827C191.652 192.032 191.311 192.154 190.941 192.154H190.785L190.717 192.153C189.84 192.117 189.14 191.395 189.14 190.51V190.353L189.138 190.321C189.122 190.206 189.024 190.118 188.905 190.118C188.775 190.118 188.67 190.223 188.67 190.353V190.51L188.671 190.584C188.709 191.665 189.558 192.54 190.628 192.618L190.628 193.329L190.63 193.361C190.646 193.475 190.744 193.564 190.863 193.564C190.993 193.564 191.098 193.459 191.098 193.329L191.098 192.618C191.536 192.586 191.937 192.42 192.261 192.162L193.594 193.495C193.686 193.587 193.835 193.587 193.926 193.495C194.018 193.403 194.018 193.254 193.926 193.163L188.132 187.368ZM191.225 191.126C191.117 191.182 190.994 191.214 190.863 191.214C190.43 191.214 190.08 190.864 190.08 190.431V189.98L191.225 191.126ZM191.646 188.552V190.218L192.094 190.666C192.108 190.59 192.116 190.511 192.116 190.431V188.552C192.116 187.86 191.555 187.299 190.863 187.299C190.284 187.299 189.797 187.691 189.653 188.225L190.08 188.651V188.552C190.08 188.119 190.43 187.769 190.863 187.769C191.295 187.769 191.646 188.119 191.646 188.552ZM192.491 191.062L192.85 191.421C192.982 191.145 193.056 190.836 193.056 190.51V190.353L193.053 190.321C193.038 190.206 192.94 190.118 192.821 190.118C192.691 190.118 192.586 190.223 192.586 190.353V190.51L192.584 190.577C192.578 190.747 192.545 190.91 192.491 191.062Z" fill="#FF2D2D"/>
</g>
<rect x="203.152" y="182.672" width="15.0358" height="15.0358" rx="1.25298" fill="#050505"/>
<g clip-path="url(#clip1_928_21161)">
<path d="M211.459 188.082C212.021 188.082 212.477 188.538 212.477 189.1V189.154L213.687 188.428C213.844 188.334 214.043 188.447 214.043 188.63V192.233C214.043 192.415 213.844 192.528 213.687 192.434L212.477 191.708V191.763C212.477 192.325 212.021 192.781 211.459 192.781H208.796C208.234 192.781 207.778 192.325 207.778 191.763V189.1C207.778 188.538 208.234 188.082 208.796 188.082H211.459ZM211.459 188.552H208.796C208.494 188.552 208.248 188.797 208.248 189.1V191.763C208.248 192.065 208.494 192.311 208.796 192.311H211.459C211.762 192.311 212.007 192.065 212.007 191.763V189.1C212.007 188.797 211.762 188.552 211.459 188.552ZM213.573 189.045L212.477 189.703V191.16L213.573 191.818V189.045Z" fill="white"/>
</g>
<g filter="url(#filter0_dd_928_21161)">
<path d="M34 208.045C34 207.353 34.561 206.792 35.253 206.792H69.1563V218.069H35.253C34.561 218.069 34 217.508 34 216.816V208.045Z" fill="#1A1A1A"/>
<g clip-path="url(#clip2_928_21161)">
<path d="M39.506 213.238C40.0251 213.238 40.4458 212.817 40.4458 212.298V210.732C40.4458 210.213 40.0251 209.792 39.506 209.792C38.987 209.792 38.5663 210.213 38.5663 210.732V212.298C38.5663 212.817 38.987 213.238 39.506 213.238ZM39.506 212.924C39.16 212.924 38.8796 212.644 38.8796 212.298V210.732C38.8796 210.386 39.16 210.105 39.506 210.105C39.8521 210.105 40.1325 210.386 40.1325 210.732V212.298C40.1325 212.644 39.8521 212.924 39.506 212.924ZM37.9398 212.141C38.0263 212.141 38.0964 212.211 38.0964 212.298C38.0964 213.076 38.7275 213.708 39.506 213.708C40.2846 213.708 40.9157 213.076 40.9157 212.298C40.9157 212.211 40.9858 212.141 41.0723 212.141C41.1588 212.141 41.2289 212.211 41.2289 212.298C41.2289 213.197 40.5408 213.935 39.6627 214.014V214.647C39.6627 214.734 39.5925 214.804 39.506 214.804C39.4195 214.804 39.3494 214.734 39.3494 214.647V214.014C38.4713 213.935 37.7832 213.197 37.7832 212.298C37.7832 212.211 37.8533 212.141 37.9398 212.141Z" fill="white"/>
</g>
<path d="M45.2631 210.696H45.7637L46.634 212.821H46.666L47.5363 210.696H48.0369V213.43H47.6445V211.452H47.6191L46.8128 213.426H46.4871L45.6809 211.451H45.6555V213.43H45.2631V210.696ZM48.6046 213.43V211.38H49.0037V213.43H48.6046ZM48.8061 211.063C48.7367 211.063 48.6771 211.04 48.6272 210.994C48.5783 210.947 48.5538 210.891 48.5538 210.826C48.5538 210.76 48.5783 210.704 48.6272 210.658C48.6771 210.611 48.7367 210.587 48.8061 210.587C48.8755 210.587 48.9347 210.611 48.9836 210.658C49.0335 210.704 49.0584 210.76 49.0584 210.826C49.0584 210.891 49.0335 210.947 48.9836 210.994C48.9347 211.04 48.8755 211.063 48.8061 211.063ZM50.4043 213.472C50.2058 213.472 50.035 213.427 49.8917 213.337C49.7493 213.246 49.6398 213.121 49.5633 212.962C49.4868 212.802 49.4485 212.62 49.4485 212.414C49.4485 212.206 49.4877 212.022 49.566 211.863C49.6443 211.703 49.7546 211.578 49.897 211.488C50.0394 211.398 50.2071 211.353 50.4003 211.353C50.556 211.353 50.6948 211.382 50.8167 211.44C50.9386 211.497 51.037 211.577 51.1117 211.68C51.1874 211.783 51.2323 211.904 51.2466 212.042H50.8581C50.8368 211.946 50.7878 211.863 50.7113 211.794C50.6356 211.724 50.5342 211.69 50.4069 211.69C50.2957 211.69 50.1983 211.719 50.1146 211.778C50.0318 211.835 49.9673 211.918 49.921 212.026C49.8748 212.133 49.8516 212.259 49.8516 212.405C49.8516 212.555 49.8743 212.684 49.9197 212.792C49.9651 212.901 50.0292 212.985 50.1119 213.044C50.1956 213.104 50.2939 213.134 50.4069 213.134C50.4826 213.134 50.5511 213.12 50.6125 213.092C50.6748 213.064 50.7269 213.023 50.7687 212.971C50.8114 212.918 50.8412 212.855 50.8581 212.781H51.2466C51.2323 212.914 51.1892 213.032 51.1171 213.137C51.045 213.241 50.9484 213.322 50.8274 213.382C50.7073 213.442 50.5662 213.472 50.4043 213.472ZM51.6734 213.43V211.38H52.0591V211.706H52.0805C52.1179 211.595 52.1837 211.508 52.2781 211.445C52.3733 211.381 52.481 211.349 52.6011 211.349C52.626 211.349 52.6554 211.35 52.6892 211.352C52.7239 211.354 52.751 211.356 52.7706 211.358V211.74C52.7546 211.736 52.7261 211.731 52.6852 211.726C52.6443 211.719 52.6033 211.716 52.5624 211.716C52.4681 211.716 52.384 211.736 52.3101 211.776C52.2371 211.815 52.1793 211.87 52.1366 211.94C52.0938 212.01 52.0725 212.089 52.0725 212.178V213.43H51.6734ZM53.9062 213.472C53.714 213.472 53.5463 213.428 53.403 213.339C53.2597 213.251 53.1485 213.128 53.0693 212.97C52.9901 212.811 52.9505 212.626 52.9505 212.414C52.9505 212.202 52.9901 212.016 53.0693 211.856C53.1485 211.697 53.2597 211.573 53.403 211.485C53.5463 211.397 53.714 211.353 53.9062 211.353C54.0985 211.353 54.2662 211.397 54.4095 211.485C54.5528 211.573 54.664 211.697 54.7432 211.856C54.8224 212.016 54.862 212.202 54.862 212.414C54.862 212.626 54.8224 212.811 54.7432 212.97C54.664 213.128 54.5528 213.251 54.4095 213.339C54.2662 213.428 54.0985 213.472 53.9062 213.472ZM53.9076 213.137C54.0322 213.137 54.1354 213.104 54.2173 213.038C54.2991 212.972 54.3596 212.884 54.3988 212.775C54.4388 212.665 54.4589 212.545 54.4589 212.413C54.4589 212.282 54.4388 212.162 54.3988 212.053C54.3596 211.942 54.2991 211.854 54.2173 211.787C54.1354 211.72 54.0322 211.687 53.9076 211.687C53.7821 211.687 53.678 211.72 53.5952 211.787C53.5134 211.854 53.4524 211.942 53.4123 212.053C53.3732 212.162 53.3536 212.282 53.3536 212.413C53.3536 212.545 53.3732 212.665 53.4123 212.775C53.4524 212.884 53.5134 212.972 53.5952 213.038C53.678 213.104 53.7821 213.137 53.9076 213.137ZM55.3075 214.199V211.38H55.6973V211.712H55.7306C55.7538 211.67 55.7872 211.62 55.8308 211.564C55.8744 211.508 55.9349 211.459 56.0123 211.417C56.0897 211.375 56.1921 211.353 56.3193 211.353C56.4848 211.353 56.6326 211.395 56.7625 211.479C56.8924 211.562 56.9943 211.683 57.0682 211.84C57.1429 211.998 57.1803 212.187 57.1803 212.409C57.1803 212.631 57.1434 212.821 57.0695 212.979C56.9956 213.137 56.8942 213.258 56.7652 213.343C56.6361 213.428 56.4888 213.47 56.3233 213.47C56.1987 213.47 56.0968 213.449 56.0176 213.407C55.9393 213.366 55.8779 213.317 55.8334 213.261C55.7889 213.205 55.7547 213.155 55.7306 213.111H55.7066V214.199H55.3075ZM55.6986 212.405C55.6986 212.549 55.7195 212.676 55.7613 212.784C55.8032 212.893 55.8637 212.978 55.9429 213.039C56.0221 213.1 56.1191 213.13 56.2339 213.13C56.3531 213.13 56.4528 213.098 56.5329 213.035C56.613 212.971 56.6735 212.884 56.7144 212.775C56.7563 212.665 56.7772 212.542 56.7772 212.405C56.7772 212.27 56.7567 212.148 56.7158 212.041C56.6757 211.933 56.6152 211.848 56.5342 211.786C56.4541 211.723 56.354 211.692 56.2339 211.692C56.1182 211.692 56.0203 211.722 55.9402 211.782C55.861 211.841 55.801 211.924 55.76 212.031C55.7191 212.138 55.6986 212.263 55.6986 212.405ZM58.0266 212.213V213.43H57.6275V210.696H58.0213V211.714H58.0466C58.0947 211.603 58.1681 211.516 58.2669 211.451C58.3656 211.386 58.4947 211.353 58.654 211.353C58.7946 211.353 58.9174 211.382 59.0224 211.44C59.1283 211.498 59.2102 211.584 59.268 211.699C59.3267 211.813 59.3561 211.955 59.3561 212.126V213.43H58.957V212.174C58.957 212.024 58.9183 211.907 58.8408 211.824C58.7634 211.741 58.6558 211.699 58.5178 211.699C58.4235 211.699 58.3389 211.719 58.2642 211.759C58.1903 211.799 58.132 211.858 58.0893 211.935C58.0475 212.012 58.0266 212.104 58.0266 212.213ZM60.7524 213.472C60.5601 213.472 60.3924 213.428 60.2491 213.339C60.1058 213.251 59.9946 213.128 59.9154 212.97C59.8362 212.811 59.7966 212.626 59.7966 212.414C59.7966 212.202 59.8362 212.016 59.9154 211.856C59.9946 211.697 60.1058 211.573 60.2491 211.485C60.3924 211.397 60.5601 211.353 60.7524 211.353C60.9446 211.353 61.1123 211.397 61.2556 211.485C61.3989 211.573 61.5101 211.697 61.5893 211.856C61.6685 212.016 61.7081 212.202 61.7081 212.414C61.7081 212.626 61.6685 212.811 61.5893 212.97C61.5101 213.128 61.3989 213.251 61.2556 213.339C61.1123 213.428 60.9446 213.472 60.7524 213.472ZM60.7537 213.137C60.8783 213.137 60.9815 213.104 61.0634 213.038C61.1452 212.972 61.2058 212.884 61.2449 212.775C61.285 212.665 61.305 212.545 61.305 212.413C61.305 212.282 61.285 212.162 61.2449 212.053C61.2058 211.942 61.1452 211.854 61.0634 211.787C60.9815 211.72 60.8783 211.687 60.7537 211.687C60.6282 211.687 60.5241 211.72 60.4413 211.787C60.3595 211.854 60.2985 211.942 60.2585 212.053C60.2193 212.162 60.1997 212.282 60.1997 212.413C60.1997 212.545 60.2193 212.665 60.2585 212.775C60.2985 212.884 60.3595 212.972 60.4413 213.038C60.5241 213.104 60.6282 213.137 60.7537 213.137ZM62.5527 212.213V213.43H62.1536V211.38H62.5367V211.714H62.5621C62.6092 211.605 62.6831 211.518 62.7837 211.452C62.8851 211.386 63.0128 211.353 63.1668 211.353C63.3065 211.353 63.4288 211.383 63.5338 211.441C63.6389 211.499 63.7203 211.585 63.7781 211.7C63.836 211.815 63.8649 211.957 63.8649 212.126V213.43H63.4658V212.174C63.4658 212.025 63.4271 211.909 63.3496 211.826C63.2722 211.741 63.1659 211.699 63.0306 211.699C62.9381 211.699 62.8557 211.719 62.7837 211.759C62.7125 211.799 62.656 211.858 62.6141 211.935C62.5732 212.012 62.5527 212.104 62.5527 212.213ZM65.2838 213.472C65.0818 213.472 64.9079 213.428 64.7619 213.342C64.6169 213.255 64.5047 213.133 64.4255 212.975C64.3472 212.817 64.3081 212.631 64.3081 212.418C64.3081 212.208 64.3472 212.023 64.4255 211.863C64.5047 211.703 64.6151 211.578 64.7566 211.488C64.899 211.398 65.0654 211.353 65.2558 211.353C65.3715 211.353 65.4836 211.372 65.5922 211.411C65.7008 211.449 65.7982 211.509 65.8845 211.591C65.9708 211.673 66.0389 211.779 66.0888 211.91C66.1386 212.04 66.1635 212.198 66.1635 212.384V212.525H64.5337V212.226H65.7724C65.7724 212.121 65.751 212.028 65.7083 211.947C65.6656 211.865 65.6055 211.801 65.5281 211.754C65.4516 211.706 65.3617 211.683 65.2585 211.683C65.1463 211.683 65.0485 211.71 64.9648 211.766C64.882 211.82 64.818 211.891 64.7726 211.979C64.7281 212.066 64.7058 212.161 64.7058 212.264V212.497C64.7058 212.634 64.7299 212.751 64.7779 212.847C64.8269 212.943 64.895 213.016 64.9822 213.067C65.0694 213.117 65.1713 213.142 65.2878 213.142C65.3635 213.142 65.4325 213.131 65.4947 213.11C65.557 213.088 65.6109 213.055 65.6563 213.011C65.7016 212.967 65.7364 212.914 65.7604 212.85L66.1381 212.918C66.1079 213.029 66.0536 213.126 65.9753 213.21C65.8979 213.293 65.8004 213.357 65.683 213.403C65.5664 213.449 65.4333 213.472 65.2838 213.472Z" fill="white"/>
<path d="M69.1562 206.792H77.9271C78.6191 206.792 79.1801 207.353 79.1801 208.045V216.816C79.1801 217.508 78.6191 218.069 77.9271 218.069H69.1562V206.792Z" fill="#1A1A1A"/>
<path d="M76.0002 211.693C76.0615 211.754 76.0617 211.853 76.0006 211.914L74.2887 213.632C74.2214 213.7 74.112 213.7 74.0447 213.632L72.3328 211.914C72.2717 211.853 72.2719 211.754 72.3332 211.693C72.3945 211.632 72.4936 211.632 72.5547 211.693L74.1667 213.311L75.7787 211.693C75.8398 211.632 75.939 211.632 76.0002 211.693Z" fill="white"/>
<line x1="69.3129" y1="206.792" x2="69.3129" y2="218.069" stroke="#2C2C2C" stroke-width="0.313245"/>
</g>
<g filter="url(#filter1_dd_928_21161)">
<path d="M110.377 208.045C110.377 207.353 110.938 206.792 111.63 206.792H140.039V218.069H111.63C110.938 218.069 110.377 217.508 110.377 216.816V208.045Z" fill="#1A1A1A"/>
<g clip-path="url(#clip3_928_21161)">
<path d="M115.413 210.418C114.98 210.418 114.63 210.769 114.63 211.202V213.394C114.63 213.827 114.98 214.177 115.413 214.177H117.606C118.038 214.177 118.389 213.827 118.389 213.394V213.081L119.141 213.645C119.347 213.8 119.642 213.652 119.642 213.394V211.202C119.642 210.943 119.347 210.796 119.141 210.951L118.389 211.515V211.202C118.389 210.769 118.038 210.418 117.606 210.418H115.413ZM118.389 211.906L119.329 211.202V213.394L118.389 212.689V211.906ZM118.076 211.202V213.394C118.076 213.654 117.865 213.864 117.606 213.864H115.413C115.153 213.864 114.943 213.654 114.943 213.394V211.202C114.943 210.942 115.153 210.732 115.413 210.732H117.606C117.865 210.732 118.076 210.942 118.076 211.202Z" fill="white"/>
</g>
<path d="M124.853 211.585H124.436C124.42 211.496 124.39 211.418 124.347 211.35C124.303 211.283 124.25 211.225 124.187 211.178C124.123 211.131 124.053 211.096 123.974 211.071C123.897 211.047 123.815 211.035 123.727 211.035C123.57 211.035 123.429 211.075 123.304 211.154C123.181 211.233 123.083 211.35 123.011 211.503C122.939 211.656 122.904 211.843 122.904 212.063C122.904 212.286 122.939 212.474 123.011 212.627C123.083 212.78 123.181 212.895 123.306 212.974C123.43 213.052 123.57 213.091 123.726 213.091C123.812 213.091 123.894 213.08 123.972 213.056C124.05 213.032 124.121 212.997 124.184 212.951C124.247 212.905 124.301 212.848 124.344 212.781C124.389 212.714 124.419 212.636 124.436 212.549L124.853 212.551C124.83 212.685 124.787 212.809 124.723 212.922C124.66 213.034 124.579 213.131 124.479 213.213C124.38 213.294 124.267 213.356 124.14 213.401C124.013 213.445 123.874 213.468 123.723 213.468C123.487 213.468 123.276 213.411 123.091 213.299C122.906 213.186 122.76 213.025 122.653 212.815C122.547 212.605 122.494 212.354 122.494 212.063C122.494 211.771 122.547 211.521 122.654 211.312C122.761 211.102 122.907 210.941 123.092 210.829C123.277 210.716 123.488 210.659 123.723 210.659C123.869 210.659 124.004 210.68 124.129 210.722C124.256 210.763 124.369 210.823 124.47 210.903C124.57 210.983 124.653 211.08 124.719 211.194C124.785 211.308 124.83 211.439 124.853 211.585ZM125.911 213.476C125.781 213.476 125.664 213.452 125.559 213.403C125.454 213.355 125.37 213.284 125.309 213.191C125.248 213.099 125.218 212.985 125.218 212.851C125.218 212.735 125.24 212.64 125.285 212.565C125.329 212.49 125.389 212.431 125.465 212.388C125.541 212.344 125.625 212.311 125.719 212.289C125.812 212.267 125.907 212.25 126.004 212.238C126.127 212.224 126.227 212.212 126.303 212.203C126.38 212.194 126.436 212.178 126.47 212.157C126.505 212.135 126.522 212.101 126.522 212.053V212.043C126.522 211.927 126.489 211.836 126.424 211.772C126.359 211.708 126.262 211.676 126.133 211.676C125.998 211.676 125.892 211.706 125.815 211.766C125.738 211.824 125.685 211.89 125.656 211.962L125.281 211.876C125.325 211.752 125.39 211.651 125.476 211.575C125.562 211.497 125.661 211.441 125.773 211.407C125.886 211.371 126.003 211.353 126.127 211.353C126.209 211.353 126.296 211.363 126.387 211.383C126.48 211.401 126.566 211.436 126.646 211.487C126.727 211.537 126.794 211.61 126.845 211.704C126.897 211.798 126.923 211.919 126.923 212.069V213.43H126.533V213.15H126.517C126.491 213.201 126.452 213.252 126.401 213.302C126.349 213.352 126.283 213.393 126.202 213.426C126.121 213.459 126.024 213.476 125.911 213.476ZM125.998 213.155C126.108 213.155 126.202 213.133 126.281 213.09C126.36 213.046 126.42 212.989 126.461 212.919C126.503 212.848 126.524 212.772 126.524 212.691V212.426C126.509 212.441 126.482 212.454 126.441 212.466C126.401 212.478 126.355 212.488 126.303 212.497C126.252 212.505 126.201 212.513 126.153 212.52C126.104 212.526 126.063 212.531 126.03 212.536C125.952 212.546 125.882 212.562 125.818 212.585C125.754 212.608 125.704 212.642 125.665 212.685C125.628 212.728 125.609 212.785 125.609 212.856C125.609 212.955 125.646 213.03 125.719 213.08C125.792 213.13 125.885 213.155 125.998 213.155ZM127.454 213.43V211.38H127.837V211.714H127.863C127.906 211.601 127.975 211.512 128.072 211.449C128.169 211.385 128.286 211.353 128.421 211.353C128.558 211.353 128.673 211.385 128.765 211.449C128.859 211.513 128.928 211.601 128.972 211.714H128.993C129.042 211.604 129.12 211.517 129.227 211.452C129.334 211.386 129.461 211.353 129.609 211.353C129.795 211.353 129.947 211.411 130.064 211.528C130.182 211.645 130.242 211.82 130.242 212.055V213.43H129.842V212.093C129.842 211.954 129.805 211.853 129.729 211.791C129.653 211.729 129.563 211.698 129.458 211.698C129.328 211.698 129.227 211.738 129.155 211.818C129.083 211.897 129.047 211.999 129.047 212.123V213.43H128.649V212.067C128.649 211.956 128.614 211.867 128.545 211.799C128.476 211.731 128.385 211.698 128.274 211.698C128.198 211.698 128.128 211.718 128.064 211.758C128.001 211.797 127.95 211.851 127.911 211.922C127.873 211.992 127.853 212.074 127.853 212.166V213.43H127.454ZM131.66 213.472C131.458 213.472 131.284 213.428 131.138 213.342C130.993 213.255 130.881 213.133 130.802 212.975C130.724 212.817 130.684 212.631 130.684 212.418C130.684 212.208 130.724 212.023 130.802 211.863C130.881 211.703 130.991 211.578 131.133 211.488C131.275 211.398 131.442 211.353 131.632 211.353C131.748 211.353 131.86 211.372 131.968 211.411C132.077 211.449 132.175 211.509 132.261 211.591C132.347 211.673 132.415 211.779 132.465 211.91C132.515 212.04 132.54 212.198 132.54 212.384V212.525H130.91V212.226H132.149C132.149 212.121 132.127 212.028 132.085 211.947C132.042 211.865 131.982 211.801 131.904 211.754C131.828 211.706 131.738 211.683 131.635 211.683C131.523 211.683 131.425 211.71 131.341 211.766C131.258 211.82 131.194 211.891 131.149 211.979C131.104 212.066 131.082 212.161 131.082 212.264V212.497C131.082 212.634 131.106 212.751 131.154 212.847C131.203 212.943 131.271 213.016 131.358 213.067C131.446 213.117 131.548 213.142 131.664 213.142C131.74 213.142 131.809 213.131 131.871 213.11C131.933 213.088 131.987 213.055 132.033 213.011C132.078 212.967 132.113 212.914 132.137 212.85L132.514 212.918C132.484 213.029 132.43 213.126 132.352 213.21C132.274 213.293 132.177 213.357 132.059 213.403C131.943 213.449 131.81 213.472 131.66 213.472ZM132.983 213.43V211.38H133.368V211.706H133.39C133.427 211.595 133.493 211.508 133.587 211.445C133.683 211.381 133.79 211.349 133.91 211.349C133.935 211.349 133.965 211.35 133.998 211.352C134.033 211.354 134.06 211.356 134.08 211.358V211.74C134.064 211.736 134.035 211.731 133.994 211.726C133.954 211.719 133.913 211.716 133.872 211.716C133.777 211.716 133.693 211.736 133.619 211.776C133.546 211.815 133.489 211.87 133.446 211.94C133.403 212.01 133.382 212.089 133.382 212.178V213.43H132.983ZM135.004 213.476C134.874 213.476 134.756 213.452 134.651 213.403C134.546 213.355 134.463 213.284 134.402 213.191C134.341 213.099 134.311 212.985 134.311 212.851C134.311 212.735 134.333 212.64 134.378 212.565C134.422 212.49 134.482 212.431 134.558 212.388C134.633 212.344 134.718 212.311 134.811 212.289C134.905 212.267 135 212.25 135.097 212.238C135.22 212.224 135.32 212.212 135.396 212.203C135.473 212.194 135.528 212.178 135.563 212.157C135.598 212.135 135.615 212.101 135.615 212.053V212.043C135.615 211.927 135.582 211.836 135.516 211.772C135.451 211.708 135.354 211.676 135.225 211.676C135.091 211.676 134.985 211.706 134.908 211.766C134.831 211.824 134.778 211.89 134.749 211.962L134.374 211.876C134.418 211.752 134.483 211.651 134.568 211.575C134.655 211.497 134.754 211.441 134.866 211.407C134.978 211.371 135.096 211.353 135.22 211.353C135.302 211.353 135.388 211.363 135.48 211.383C135.573 211.401 135.659 211.436 135.739 211.487C135.82 211.537 135.886 211.61 135.938 211.704C135.99 211.798 136.015 211.919 136.015 212.069V213.43H135.626V213.15H135.61C135.584 213.201 135.545 213.252 135.494 213.302C135.442 213.352 135.376 213.393 135.295 213.426C135.214 213.459 135.117 213.476 135.004 213.476ZM135.09 213.155C135.201 213.155 135.295 213.133 135.373 213.09C135.453 213.046 135.513 212.989 135.554 212.919C135.595 212.848 135.616 212.772 135.616 212.691V212.426C135.602 212.441 135.574 212.454 135.534 212.466C135.494 212.478 135.448 212.488 135.396 212.497C135.344 212.505 135.294 212.513 135.245 212.52C135.196 212.526 135.155 212.531 135.122 212.536C135.045 212.546 134.974 212.562 134.91 212.585C134.847 212.608 134.796 212.642 134.758 212.685C134.721 212.728 134.702 212.785 134.702 212.856C134.702 212.955 134.738 213.03 134.811 213.08C134.884 213.13 134.977 213.155 135.09 213.155Z" fill="white"/>
<path d="M140.039 206.792H148.81C149.502 206.792 150.063 207.353 150.063 208.045V216.816C150.063 217.508 149.502 218.069 148.81 218.069H140.039V206.792Z" fill="#1A1A1A"/>
<path d="M146.885 211.693C146.946 211.754 146.946 211.853 146.885 211.914L145.174 213.632C145.106 213.7 144.997 213.7 144.929 213.632L143.218 211.914C143.156 211.853 143.157 211.754 143.218 211.693C143.279 211.632 143.378 211.632 143.439 211.693L145.051 213.311L146.663 211.693C146.725 211.632 146.824 211.632 146.885 211.693Z" fill="white"/>
<line x1="140.196" y1="206.792" x2="140.196" y2="218.069" stroke="#2C2C2C" stroke-width="0.313245"/>
</g>
<g filter="url(#filter2_dd_928_21161)">
<path d="M181.261 208.045C181.261 207.353 181.822 206.792 182.514 206.792H211.923V218.069H182.514C181.822 218.069 181.261 217.508 181.261 216.816V208.045Z" fill="#1A1A1A"/>
<g clip-path="url(#clip4_928_21161)">
<path d="M188.645 210.107C188.645 209.834 188.319 209.692 188.119 209.878L186.906 211.003C186.877 211.03 186.839 211.045 186.799 211.045H185.983C185.723 211.045 185.513 211.256 185.513 211.515V213.081C185.513 213.341 185.723 213.551 185.983 213.551H186.799C186.839 213.551 186.877 213.566 186.906 213.593L188.119 214.719C188.319 214.905 188.645 214.762 188.645 214.489V210.107ZM187.119 211.233L188.332 210.107V214.489L187.119 213.363C187.032 213.283 186.918 213.238 186.799 213.238H185.983C185.896 213.238 185.826 213.168 185.826 213.081V211.515C185.826 211.429 185.896 211.358 185.983 211.358H186.799C186.918 211.358 187.032 211.314 187.119 211.233ZM189.666 210.615C189.731 210.558 189.83 210.563 189.887 210.627C190.738 211.577 190.738 213.019 189.887 213.969C189.83 214.033 189.731 214.039 189.666 213.981C189.602 213.923 189.596 213.824 189.654 213.76C190.398 212.929 190.398 211.667 189.654 210.836C189.596 210.772 189.602 210.673 189.666 210.615ZM189.298 213.217C189.223 213.174 189.197 213.078 189.241 213.003C189.484 212.581 189.501 212.045 189.24 211.593C189.197 211.518 189.223 211.423 189.298 211.379C189.373 211.336 189.468 211.362 189.512 211.437C189.83 211.989 189.809 212.644 189.512 213.159C189.469 213.234 189.373 213.26 189.298 213.217Z" fill="white"/>
</g>
<path d="M195.084 211.415C195.07 211.288 195.011 211.19 194.908 211.121C194.805 211.051 194.675 211.015 194.518 211.015C194.406 211.015 194.309 211.033 194.227 211.069C194.146 211.104 194.082 211.152 194.037 211.213C193.992 211.274 193.97 211.342 193.97 211.42C193.97 211.485 193.985 211.541 194.015 211.588C194.046 211.635 194.087 211.675 194.137 211.707C194.187 211.738 194.242 211.764 194.299 211.786C194.357 211.806 194.413 211.823 194.466 211.836L194.733 211.906C194.821 211.927 194.91 211.956 195.002 211.993C195.093 212.029 195.178 212.077 195.257 212.137C195.335 212.196 195.398 212.27 195.446 212.358C195.495 212.446 195.52 212.552 195.52 212.675C195.52 212.829 195.48 212.967 195.399 213.087C195.32 213.207 195.205 213.302 195.054 213.371C194.903 213.441 194.721 213.476 194.508 213.476C194.303 213.476 194.126 213.443 193.976 213.378C193.827 213.313 193.71 213.221 193.625 213.102C193.541 212.982 193.494 212.839 193.485 212.675H193.899C193.907 212.773 193.939 212.856 193.995 212.922C194.052 212.987 194.125 213.035 194.213 213.067C194.302 213.098 194.399 213.114 194.505 213.114C194.622 213.114 194.725 213.096 194.816 213.059C194.908 213.022 194.98 212.97 195.032 212.904C195.085 212.838 195.111 212.76 195.111 212.671C195.111 212.59 195.088 212.523 195.042 212.472C194.996 212.42 194.934 212.377 194.856 212.344C194.779 212.31 194.691 212.28 194.593 212.254L194.27 212.166C194.051 212.106 193.878 212.019 193.75 211.903C193.622 211.787 193.559 211.634 193.559 211.444C193.559 211.286 193.601 211.149 193.687 211.031C193.772 210.914 193.888 210.823 194.034 210.758C194.18 210.692 194.344 210.659 194.528 210.659C194.713 210.659 194.876 210.692 195.018 210.756C195.16 210.821 195.272 210.911 195.354 211.025C195.436 211.138 195.479 211.268 195.482 211.415H195.084ZM195.98 214.199V211.38H196.37V211.712H196.404C196.427 211.67 196.46 211.62 196.504 211.564C196.547 211.508 196.608 211.459 196.685 211.417C196.763 211.375 196.865 211.353 196.992 211.353C197.158 211.353 197.305 211.395 197.435 211.479C197.565 211.562 197.667 211.683 197.741 211.84C197.816 211.998 197.853 212.187 197.853 212.409C197.853 212.631 197.816 212.821 197.742 212.979C197.669 213.137 197.567 213.258 197.438 213.343C197.309 213.428 197.162 213.47 196.996 213.47C196.872 213.47 196.77 213.449 196.691 213.407C196.612 213.366 196.551 213.317 196.506 213.261C196.462 213.205 196.428 213.155 196.404 213.111H196.38V214.199H195.98ZM196.372 212.405C196.372 212.549 196.392 212.676 196.434 212.784C196.476 212.893 196.537 212.978 196.616 213.039C196.695 213.1 196.792 213.13 196.907 213.13C197.026 213.13 197.126 213.098 197.206 213.035C197.286 212.971 197.346 212.884 197.387 212.775C197.429 212.665 197.45 212.542 197.45 212.405C197.45 212.27 197.43 212.148 197.389 212.041C197.349 211.933 197.288 211.848 197.207 211.786C197.127 211.723 197.027 211.692 196.907 211.692C196.791 211.692 196.693 211.722 196.613 211.782C196.534 211.841 196.474 211.924 196.433 212.031C196.392 212.138 196.372 212.263 196.372 212.405ZM199.184 213.472C198.982 213.472 198.808 213.428 198.662 213.342C198.517 213.255 198.405 213.133 198.326 212.975C198.247 212.817 198.208 212.631 198.208 212.418C198.208 212.208 198.247 212.023 198.326 211.863C198.405 211.703 198.515 211.578 198.657 211.488C198.799 211.398 198.966 211.353 199.156 211.353C199.272 211.353 199.384 211.372 199.492 211.411C199.601 211.449 199.698 211.509 199.785 211.591C199.871 211.673 199.939 211.779 199.989 211.91C200.039 212.04 200.064 212.198 200.064 212.384V212.525H198.434V212.226H199.673C199.673 212.121 199.651 212.028 199.609 211.947C199.566 211.865 199.506 211.801 199.428 211.754C199.352 211.706 199.262 211.683 199.159 211.683C199.047 211.683 198.949 211.71 198.865 211.766C198.782 211.82 198.718 211.891 198.673 211.979C198.628 212.066 198.606 212.161 198.606 212.264V212.497C198.606 212.634 198.63 212.751 198.678 212.847C198.727 212.943 198.795 213.016 198.882 213.067C198.97 213.117 199.071 213.142 199.188 213.142C199.264 213.142 199.333 213.131 199.395 213.11C199.457 213.088 199.511 213.055 199.556 213.011C199.602 212.967 199.637 212.914 199.661 212.85L200.038 212.918C200.008 213.029 199.954 213.126 199.875 213.21C199.798 213.293 199.701 213.357 199.583 213.403C199.467 213.449 199.334 213.472 199.184 213.472ZM201.103 213.476C200.973 213.476 200.856 213.452 200.751 213.403C200.646 213.355 200.563 213.284 200.501 213.191C200.441 213.099 200.41 212.985 200.41 212.851C200.41 212.735 200.433 212.64 200.477 212.565C200.522 212.49 200.582 212.431 200.657 212.388C200.733 212.344 200.818 212.311 200.911 212.289C201.004 212.267 201.1 212.25 201.197 212.238C201.319 212.224 201.419 212.212 201.496 212.203C201.572 212.194 201.628 212.178 201.663 212.157C201.697 212.135 201.715 212.101 201.715 212.053V212.043C201.715 211.927 201.682 211.836 201.616 211.772C201.551 211.708 201.454 211.676 201.325 211.676C201.19 211.676 201.085 211.706 201.007 211.766C200.931 211.824 200.878 211.89 200.848 211.962L200.473 211.876C200.518 211.752 200.583 211.651 200.668 211.575C200.754 211.497 200.854 211.441 200.966 211.407C201.078 211.371 201.196 211.353 201.319 211.353C201.401 211.353 201.488 211.363 201.58 211.383C201.672 211.401 201.759 211.436 201.839 211.487C201.92 211.537 201.986 211.61 202.038 211.704C202.089 211.798 202.115 211.919 202.115 212.069V213.43H201.725V213.15H201.709C201.683 213.201 201.645 213.252 201.593 213.302C201.542 213.352 201.475 213.393 201.394 213.426C201.313 213.459 201.216 213.476 201.103 213.476ZM201.19 213.155C201.3 213.155 201.395 213.133 201.473 213.09C201.552 213.046 201.612 212.989 201.653 212.919C201.695 212.848 201.716 212.772 201.716 212.691V212.426C201.702 212.441 201.674 212.454 201.633 212.466C201.593 212.478 201.547 212.488 201.496 212.497C201.444 212.505 201.394 212.513 201.345 212.52C201.296 212.526 201.255 212.531 201.222 212.536C201.145 212.546 201.074 212.562 201.01 212.585C200.947 212.608 200.896 212.642 200.858 212.685C200.82 212.728 200.802 212.785 200.802 212.856C200.802 212.955 200.838 213.03 200.911 213.08C200.984 213.13 201.077 213.155 201.19 213.155ZM203.014 212.735L203.011 212.247H203.08L203.897 211.38H204.375L203.444 212.368H203.381L203.014 212.735ZM202.647 213.43V210.696H203.046V213.43H202.647ZM203.941 213.43L203.207 212.456L203.482 212.177L204.431 213.43H203.941ZM205.538 213.472C205.336 213.472 205.162 213.428 205.016 213.342C204.871 213.255 204.759 213.133 204.68 212.975C204.602 212.817 204.562 212.631 204.562 212.418C204.562 212.208 204.602 212.023 204.68 211.863C204.759 211.703 204.87 211.578 205.011 211.488C205.153 211.398 205.32 211.353 205.51 211.353C205.626 211.353 205.738 211.372 205.847 211.411C205.955 211.449 206.053 211.509 206.139 211.591C206.225 211.673 206.293 211.779 206.343 211.91C206.393 212.04 206.418 212.198 206.418 212.384V212.525H204.788V212.226H206.027C206.027 212.121 206.005 212.028 205.963 211.947C205.92 211.865 205.86 211.801 205.783 211.754C205.706 211.706 205.616 211.683 205.513 211.683C205.401 211.683 205.303 211.71 205.219 211.766C205.136 211.82 205.072 211.891 205.027 211.979C204.983 212.066 204.96 212.161 204.96 212.264V212.497C204.96 212.634 204.984 212.751 205.032 212.847C205.081 212.943 205.149 213.016 205.237 213.067C205.324 213.117 205.426 213.142 205.542 213.142C205.618 213.142 205.687 213.131 205.749 213.11C205.811 213.088 205.865 213.055 205.911 213.011C205.956 212.967 205.991 212.914 206.015 212.85L206.393 212.918C206.362 213.029 206.308 213.126 206.23 213.21C206.152 213.293 206.055 213.357 205.937 213.403C205.821 213.449 205.688 213.472 205.538 213.472ZM206.861 213.43V211.38H207.247V211.706H207.268C207.305 211.595 207.371 211.508 207.465 211.445C207.561 211.381 207.668 211.349 207.788 211.349C207.813 211.349 207.843 211.35 207.877 211.352C207.911 211.354 207.938 211.356 207.958 211.358V211.74C207.942 211.736 207.914 211.731 207.873 211.726C207.832 211.719 207.791 211.716 207.75 211.716C207.655 211.716 207.571 211.736 207.497 211.776C207.425 211.815 207.367 211.87 207.324 211.94C207.281 212.01 207.26 212.089 207.26 212.178V213.43H206.861Z" fill="white"/>
<path d="M211.923 206.792H220.694C221.386 206.792 221.947 207.353 221.947 208.045V216.816C221.947 217.508 221.386 218.069 220.694 218.069H211.923V206.792Z" fill="#1A1A1A"/>
<path d="M218.769 211.693C218.83 211.754 218.83 211.853 218.769 211.914L217.057 213.632C216.99 213.7 216.881 213.7 216.813 213.632L215.101 211.914C215.04 211.853 215.04 211.754 215.102 211.693C215.163 211.632 215.262 211.632 215.323 211.693L216.935 213.311L218.547 211.693C218.608 211.632 218.708 211.632 218.769 211.693Z" fill="white"/>
<line x1="212.079" y1="206.792" x2="212.079" y2="218.069" stroke="#2C2C2C" stroke-width="0.313245"/>
</g>
<rect x="239" y="128.456" width="127" height="16.9333" rx="1.41111" fill="#2C2C2C"/>
<path d="M297.721 134.304V138.922H297.18L294.664 135.296H294.618V138.922H294.059V134.304H294.6L297.126 137.939H297.171V134.304H297.721ZM299.787 139.004C299.568 139.004 299.369 138.962 299.19 138.88C299.011 138.795 298.869 138.674 298.764 138.516C298.658 138.357 298.606 138.165 298.606 137.939C298.606 137.741 298.645 137.58 298.723 137.457C298.801 137.332 298.906 137.234 299.036 137.163C299.167 137.093 299.312 137.04 299.469 137.006C299.629 136.97 299.789 136.941 299.95 136.92C300.16 136.893 300.331 136.873 300.462 136.859C300.594 136.844 300.69 136.819 300.75 136.785C300.812 136.75 300.843 136.69 300.843 136.604V136.586C300.843 136.364 300.782 136.191 300.66 136.068C300.54 135.944 300.357 135.883 300.112 135.883C299.858 135.883 299.659 135.938 299.515 136.05C299.37 136.161 299.269 136.28 299.21 136.406L298.705 136.225C298.795 136.015 298.915 135.851 299.066 135.734C299.218 135.615 299.383 135.532 299.562 135.486C299.742 135.438 299.92 135.414 300.094 135.414C300.205 135.414 300.333 135.427 300.477 135.454C300.623 135.48 300.764 135.533 300.899 135.614C301.036 135.696 301.149 135.818 301.24 135.982C301.33 136.146 301.375 136.365 301.375 136.64V138.922H300.843V138.453H300.816C300.78 138.528 300.719 138.609 300.635 138.695C300.551 138.78 300.439 138.853 300.299 138.913C300.159 138.973 299.989 139.004 299.787 139.004ZM299.869 138.525C300.079 138.525 300.256 138.484 300.401 138.401C300.547 138.319 300.656 138.212 300.73 138.081C300.805 137.95 300.843 137.813 300.843 137.669V137.182C300.82 137.209 300.771 137.233 300.694 137.256C300.619 137.277 300.532 137.296 300.432 137.312C300.335 137.327 300.239 137.341 300.146 137.353C300.054 137.363 299.98 137.372 299.923 137.38C299.784 137.398 299.655 137.427 299.535 137.468C299.416 137.507 299.32 137.566 299.246 137.646C299.174 137.724 299.138 137.831 299.138 137.966C299.138 138.151 299.206 138.291 299.343 138.386C299.481 138.479 299.657 138.525 299.869 138.525ZM302.346 138.922V135.459H302.86V136H302.905C302.978 135.815 303.094 135.671 303.255 135.569C303.416 135.466 303.609 135.414 303.834 135.414C304.063 135.414 304.253 135.466 304.405 135.569C304.558 135.671 304.678 135.815 304.764 136H304.8C304.888 135.821 305.021 135.679 305.199 135.574C305.376 135.467 305.589 135.414 305.837 135.414C306.147 135.414 306.4 135.511 306.597 135.705C306.794 135.897 306.892 136.197 306.892 136.604V138.922H306.36V136.604C306.36 136.349 306.29 136.166 306.15 136.056C306.011 135.947 305.846 135.892 305.657 135.892C305.413 135.892 305.224 135.965 305.091 136.113C304.957 136.258 304.89 136.443 304.89 136.667V138.922H304.349V136.55C304.349 136.353 304.285 136.195 304.157 136.074C304.029 135.953 303.865 135.892 303.663 135.892C303.525 135.892 303.396 135.929 303.275 136.002C303.157 136.076 303.06 136.178 302.987 136.309C302.914 136.438 302.878 136.588 302.878 136.758V138.922H302.346ZM309.317 138.995C308.984 138.995 308.696 138.921 308.454 138.774C308.213 138.625 308.028 138.417 307.897 138.151C307.768 137.884 307.703 137.572 307.703 137.218C307.703 136.863 307.768 136.55 307.897 136.28C308.028 136.007 308.21 135.795 308.443 135.644C308.677 135.49 308.951 135.414 309.263 135.414C309.444 135.414 309.622 135.444 309.798 135.504C309.974 135.564 310.134 135.662 310.278 135.797C310.422 135.931 310.537 136.108 310.623 136.329C310.709 136.55 310.752 136.822 310.752 137.145V137.371H308.082V136.911H310.21C310.21 136.716 310.171 136.541 310.093 136.388C310.016 136.234 309.907 136.113 309.764 136.025C309.623 135.936 309.456 135.892 309.263 135.892C309.051 135.892 308.868 135.944 308.713 136.05C308.56 136.153 308.442 136.289 308.359 136.455C308.276 136.622 308.235 136.801 308.235 136.992V137.299C308.235 137.56 308.28 137.782 308.37 137.964C308.462 138.144 308.589 138.282 308.751 138.377C308.914 138.47 309.102 138.516 309.317 138.516C309.457 138.516 309.584 138.497 309.696 138.458C309.811 138.417 309.909 138.357 309.992 138.277C310.074 138.196 310.138 138.096 310.183 137.975L310.697 138.12C310.643 138.294 310.552 138.447 310.425 138.58C310.297 138.71 310.139 138.813 309.951 138.886C309.763 138.958 309.552 138.995 309.317 138.995Z" fill="white" fill-opacity="0.52"/>
<rect x="239" y="153.855" width="127" height="16.9333" rx="1.41111" fill="#2160FD"/>
<path d="M298.547 159.717H299.164V162.628C299.164 162.891 299.112 163.116 299.008 163.303C298.905 163.49 298.76 163.633 298.573 163.732C298.385 163.83 298.166 163.878 297.915 163.878C297.684 163.878 297.476 163.836 297.292 163.752C297.109 163.668 296.964 163.546 296.857 163.385C296.751 163.224 296.698 163.027 296.698 162.796H297.314C297.314 162.91 297.34 163.008 297.392 163.091C297.445 163.174 297.518 163.238 297.61 163.285C297.704 163.331 297.811 163.353 297.931 163.353C298.062 163.353 298.173 163.326 298.264 163.271C298.356 163.215 298.426 163.133 298.474 163.025C298.522 162.916 298.547 162.784 298.547 162.628V159.717ZM301.314 163.884C301.025 163.884 300.774 163.818 300.558 163.686C300.343 163.554 300.176 163.369 300.057 163.131C299.938 162.893 299.879 162.615 299.879 162.297C299.879 161.978 299.938 161.698 300.057 161.459C300.176 161.22 300.343 161.034 300.558 160.902C300.774 160.77 301.025 160.703 301.314 160.703C301.603 160.703 301.855 160.77 302.07 160.902C302.285 161.034 302.452 161.22 302.571 161.459C302.69 161.698 302.749 161.978 302.749 162.297C302.749 162.615 302.69 162.893 302.571 163.131C302.452 163.369 302.285 163.554 302.07 163.686C301.855 163.818 301.603 163.884 301.314 163.884ZM301.316 163.381C301.503 163.381 301.658 163.332 301.781 163.233C301.904 163.134 301.995 163.002 302.054 162.838C302.114 162.674 302.144 162.493 302.144 162.295C302.144 162.098 302.114 161.918 302.054 161.754C301.995 161.588 301.904 161.455 301.781 161.355C301.658 161.255 301.503 161.205 301.316 161.205C301.128 161.205 300.971 161.255 300.847 161.355C300.724 161.455 300.633 161.588 300.572 161.754C300.514 161.918 300.484 162.098 300.484 162.295C300.484 162.493 300.514 162.674 300.572 162.838C300.633 163.002 300.724 163.134 300.847 163.233C300.971 163.332 301.128 163.381 301.316 163.381ZM303.418 163.822V160.743H304.018V163.822H303.418ZM303.721 160.268C303.617 160.268 303.527 160.234 303.452 160.164C303.379 160.093 303.342 160.009 303.342 159.912C303.342 159.813 303.379 159.729 303.452 159.659C303.527 159.588 303.617 159.553 303.721 159.553C303.825 159.553 303.914 159.588 303.987 159.659C304.062 159.729 304.1 159.813 304.1 159.912C304.1 160.009 304.062 160.093 303.987 160.164C303.914 160.234 303.825 160.268 303.721 160.268ZM305.423 161.994V163.822H304.824V160.743H305.399V161.245H305.437C305.508 161.082 305.619 160.951 305.77 160.852C305.922 160.753 306.114 160.703 306.345 160.703C306.555 160.703 306.739 160.747 306.896 160.836C307.054 160.923 307.176 161.052 307.263 161.225C307.35 161.397 307.393 161.61 307.393 161.864V163.822H306.794V161.936C306.794 161.713 306.736 161.539 306.62 161.413C306.504 161.286 306.344 161.223 306.141 161.223C306.002 161.223 305.878 161.253 305.77 161.313C305.663 161.373 305.578 161.461 305.515 161.577C305.454 161.692 305.423 161.831 305.423 161.994Z" fill="white"/>
<path d="M291.847 114.829H292.465V117.739C292.465 118.002 292.413 118.227 292.308 118.414C292.205 118.602 292.06 118.745 291.873 118.843C291.686 118.941 291.467 118.99 291.216 118.99C290.985 118.99 290.777 118.948 290.593 118.863C290.409 118.779 290.264 118.657 290.158 118.497C290.052 118.335 289.999 118.139 289.999 117.907H290.615C290.615 118.021 290.641 118.119 290.693 118.202C290.746 118.285 290.819 118.35 290.911 118.396C291.005 118.442 291.112 118.465 291.232 118.465C291.363 118.465 291.474 118.437 291.565 118.382C291.657 118.326 291.727 118.244 291.775 118.136C291.823 118.028 291.847 117.895 291.847 117.739V114.829ZM294.615 118.996C294.326 118.996 294.074 118.93 293.859 118.797C293.644 118.665 293.477 118.48 293.358 118.242C293.239 118.004 293.18 117.726 293.18 117.408C293.18 117.089 293.239 116.81 293.358 116.57C293.477 116.331 293.644 116.145 293.859 116.013C294.074 115.881 294.326 115.815 294.615 115.815C294.904 115.815 295.155 115.881 295.371 116.013C295.586 116.145 295.753 116.331 295.872 116.57C295.991 116.81 296.05 117.089 296.05 117.408C296.05 117.726 295.991 118.004 295.872 118.242C295.753 118.48 295.586 118.665 295.371 118.797C295.155 118.93 294.904 118.996 294.615 118.996ZM294.617 118.493C294.804 118.493 294.959 118.443 295.082 118.344C295.205 118.245 295.296 118.114 295.355 117.949C295.415 117.785 295.445 117.604 295.445 117.406C295.445 117.21 295.415 117.029 295.355 116.865C295.296 116.699 295.205 116.566 295.082 116.466C294.959 116.366 294.804 116.316 294.617 116.316C294.428 116.316 294.272 116.366 294.148 116.466C294.025 116.566 293.933 116.699 293.873 116.865C293.814 117.029 293.785 117.21 293.785 117.406C293.785 117.604 293.814 117.785 293.873 117.949C293.933 118.114 294.025 118.245 294.148 118.344C294.272 118.443 294.428 118.493 294.617 118.493ZM296.719 118.934V115.855H297.318V118.934H296.719ZM297.022 115.38C296.917 115.38 296.828 115.345 296.753 115.276C296.68 115.205 296.643 115.121 296.643 115.023C296.643 114.924 296.68 114.84 296.753 114.77C296.828 114.7 296.917 114.664 297.022 114.664C297.126 114.664 297.215 114.7 297.288 114.77C297.363 114.84 297.401 114.924 297.401 115.023C297.401 115.121 297.363 115.205 297.288 115.276C297.215 115.345 297.126 115.38 297.022 115.38ZM298.724 117.106V118.934H298.125V115.855H298.7V116.356H298.738C298.809 116.193 298.92 116.062 299.071 115.963C299.223 115.864 299.415 115.815 299.646 115.815C299.856 115.815 300.039 115.859 300.197 115.947C300.355 116.034 300.477 116.163 300.564 116.336C300.651 116.508 300.694 116.721 300.694 116.975V118.934H300.095V117.047C300.095 116.824 300.037 116.65 299.921 116.524C299.804 116.397 299.645 116.334 299.442 116.334C299.303 116.334 299.179 116.364 299.071 116.424C298.964 116.484 298.879 116.572 298.816 116.689C298.755 116.804 298.724 116.943 298.724 117.106ZM302.992 118.934V115.855H303.591V118.934H302.992ZM303.294 115.38C303.19 115.38 303.101 115.345 303.026 115.276C302.952 115.205 302.916 115.121 302.916 115.023C302.916 114.924 302.952 114.84 303.026 114.77C303.101 114.7 303.19 114.664 303.294 114.664C303.399 114.664 303.488 114.7 303.561 114.77C303.636 114.84 303.673 114.924 303.673 115.023C303.673 115.121 303.636 115.205 303.561 115.276C303.488 115.345 303.399 115.38 303.294 115.38ZM304.997 117.106V118.934H304.397V115.855H304.973V116.356H305.011C305.082 116.193 305.192 116.062 305.343 115.963C305.496 115.864 305.688 115.815 305.919 115.815C306.129 115.815 306.312 115.859 306.47 115.947C306.628 116.034 306.75 116.163 306.837 116.336C306.924 116.508 306.967 116.721 306.967 116.975V118.934H306.368V117.047C306.368 116.824 306.31 116.65 306.193 116.524C306.077 116.397 305.917 116.334 305.714 116.334C305.575 116.334 305.452 116.364 305.343 116.424C305.237 116.484 305.152 116.572 305.089 116.689C305.027 116.804 304.997 116.943 304.997 117.106ZM310.161 119.002C309.965 119.002 309.789 118.966 309.631 118.894C309.474 118.82 309.349 118.714 309.257 118.575C309.166 118.436 309.12 118.265 309.12 118.064C309.12 117.89 309.154 117.747 309.221 117.635C309.287 117.522 309.378 117.434 309.491 117.368C309.605 117.303 309.732 117.253 309.872 117.22C310.012 117.186 310.155 117.161 310.301 117.144C310.485 117.122 310.635 117.105 310.75 117.092C310.865 117.077 310.948 117.053 311 117.021C311.053 116.989 311.079 116.937 311.079 116.865V116.851C311.079 116.676 311.029 116.54 310.93 116.444C310.833 116.348 310.687 116.3 310.493 116.3C310.292 116.3 310.133 116.345 310.016 116.434C309.901 116.522 309.822 116.621 309.778 116.729L309.215 116.6C309.281 116.413 309.379 116.262 309.507 116.147C309.637 116.031 309.786 115.947 309.954 115.895C310.123 115.841 310.3 115.815 310.485 115.815C310.608 115.815 310.739 115.829 310.876 115.859C311.015 115.887 311.145 115.939 311.265 116.015C311.387 116.091 311.486 116.2 311.564 116.342C311.641 116.482 311.68 116.665 311.68 116.889V118.934H311.095V118.513H311.071C311.032 118.59 310.974 118.666 310.896 118.741C310.819 118.816 310.719 118.878 310.598 118.928C310.476 118.977 310.33 119.002 310.161 119.002ZM310.291 118.521C310.457 118.521 310.598 118.488 310.716 118.422C310.835 118.357 310.925 118.271 310.986 118.166C311.049 118.059 311.081 117.945 311.081 117.823V117.426C311.059 117.448 311.018 117.468 310.956 117.486C310.896 117.504 310.827 117.519 310.75 117.533C310.672 117.545 310.597 117.556 310.523 117.567C310.45 117.576 310.388 117.584 310.339 117.591C310.223 117.605 310.116 117.63 310.02 117.665C309.925 117.7 309.849 117.75 309.792 117.815C309.736 117.879 309.708 117.965 309.708 118.072C309.708 118.22 309.762 118.332 309.872 118.408C309.982 118.483 310.121 118.521 310.291 118.521ZM314.785 116.606L314.242 116.703C314.219 116.633 314.183 116.567 314.134 116.504C314.086 116.441 314.02 116.39 313.937 116.35C313.855 116.31 313.751 116.29 313.627 116.29C313.457 116.29 313.315 116.328 313.202 116.404C313.088 116.479 313.031 116.576 313.031 116.695C313.031 116.798 313.069 116.88 313.146 116.943C313.222 117.006 313.345 117.057 313.514 117.098L314.004 117.21C314.287 117.275 314.498 117.376 314.637 117.512C314.776 117.649 314.845 117.826 314.845 118.044C314.845 118.228 314.792 118.392 314.685 118.537C314.579 118.68 314.432 118.792 314.242 118.873C314.054 118.955 313.835 118.996 313.587 118.996C313.242 118.996 312.961 118.922 312.743 118.775C312.525 118.627 312.391 118.416 312.342 118.144L312.921 118.056C312.957 118.207 313.031 118.321 313.144 118.398C313.256 118.475 313.402 118.513 313.583 118.513C313.779 118.513 313.936 118.472 314.054 118.39C314.171 118.308 314.23 118.207 314.23 118.088C314.23 117.992 314.194 117.911 314.122 117.845C314.051 117.78 313.942 117.73 313.795 117.697L313.274 117.583C312.987 117.517 312.774 117.413 312.637 117.27C312.5 117.127 312.432 116.946 312.432 116.727C312.432 116.545 312.483 116.386 312.584 116.25C312.686 116.113 312.826 116.007 313.005 115.931C313.184 115.853 313.39 115.815 313.621 115.815C313.953 115.815 314.215 115.887 314.406 116.031C314.598 116.174 314.724 116.366 314.785 116.606Z" fill="white"/>
<path d="M278.783 182.375V182.014L280.138 180.531C280.297 180.357 280.428 180.206 280.531 180.078C280.634 179.948 280.71 179.827 280.759 179.713C280.81 179.598 280.835 179.478 280.835 179.352C280.835 179.208 280.801 179.083 280.731 178.978C280.663 178.872 280.57 178.79 280.451 178.733C280.332 178.676 280.198 178.647 280.05 178.647C279.892 178.647 279.754 178.68 279.637 178.745C279.521 178.809 279.43 178.899 279.366 179.016C279.303 179.132 279.272 179.268 279.272 179.425H278.799C278.799 179.184 278.854 178.973 278.965 178.791C279.076 178.609 279.227 178.468 279.418 178.366C279.611 178.265 279.827 178.214 280.066 178.214C280.306 178.214 280.519 178.265 280.705 178.366C280.891 178.468 281.037 178.605 281.142 178.777C281.248 178.949 281.3 179.141 281.3 179.352C281.3 179.503 281.273 179.651 281.218 179.795C281.165 179.938 281.071 180.098 280.938 180.274C280.805 180.449 280.622 180.663 280.386 180.916L279.464 181.902V181.934H281.373V182.375H278.783ZM282.016 181.533V181.124L283.82 178.27H284.117V178.903H283.916L282.553 181.06V181.092H284.983V181.533H282.016ZM283.948 182.375V181.409V181.218V178.27H284.421V182.375H283.948ZM287.329 183.53V179.296H287.786V179.785H287.842C287.877 179.732 287.925 179.664 287.987 179.581C288.049 179.497 288.139 179.422 288.255 179.356C288.373 179.29 288.532 179.256 288.732 179.256C288.992 179.256 289.22 179.321 289.418 179.451C289.616 179.58 289.77 179.764 289.881 180.002C289.992 180.24 290.047 180.52 290.047 180.844C290.047 181.17 289.992 181.452 289.881 181.691C289.77 181.929 289.616 182.114 289.42 182.245C289.223 182.374 288.997 182.439 288.74 182.439C288.543 182.439 288.384 182.406 288.265 182.341C288.146 182.274 288.055 182.199 287.991 182.114C287.927 182.029 287.877 181.958 287.842 181.902H287.802V183.53H287.329ZM287.794 180.836C287.794 181.068 287.828 181.273 287.896 181.451C287.965 181.627 288.064 181.766 288.195 181.866C288.326 181.965 288.486 182.014 288.676 182.014C288.874 182.014 289.039 181.962 289.171 181.858C289.305 181.752 289.405 181.611 289.472 181.433C289.54 181.254 289.574 181.055 289.574 180.836C289.574 180.619 289.541 180.424 289.474 180.25C289.408 180.075 289.309 179.937 289.175 179.835C289.043 179.733 288.877 179.681 288.676 179.681C288.484 179.681 288.322 179.73 288.191 179.827C288.06 179.924 287.961 180.059 287.894 180.232C287.828 180.405 287.794 180.606 287.794 180.836ZM292.06 182.439C291.763 182.439 291.507 182.374 291.292 182.243C291.078 182.11 290.913 181.926 290.797 181.689C290.682 181.452 290.624 181.175 290.624 180.86C290.624 180.544 290.682 180.266 290.797 180.026C290.913 179.784 291.075 179.596 291.282 179.461C291.49 179.324 291.734 179.256 292.012 179.256C292.172 179.256 292.33 179.283 292.487 179.336C292.643 179.39 292.785 179.477 292.914 179.597C293.042 179.716 293.144 179.873 293.22 180.07C293.296 180.266 293.334 180.508 293.334 180.796V180.996H290.961V180.587H292.853C292.853 180.413 292.819 180.258 292.749 180.122C292.681 179.986 292.583 179.878 292.456 179.799C292.331 179.72 292.183 179.681 292.012 179.681C291.823 179.681 291.66 179.728 291.522 179.821C291.386 179.914 291.281 180.034 291.208 180.182C291.134 180.33 291.098 180.49 291.098 180.659V180.932C291.098 181.164 291.138 181.361 291.218 181.523C291.299 181.683 291.412 181.806 291.557 181.89C291.701 181.973 291.869 182.014 292.06 182.014C292.184 182.014 292.296 181.997 292.396 181.962C292.498 181.926 292.585 181.873 292.659 181.802C292.732 181.73 292.789 181.64 292.829 181.533L293.286 181.661C293.238 181.816 293.157 181.953 293.044 182.07C292.93 182.187 292.79 182.277 292.623 182.343C292.456 182.407 292.268 182.439 292.06 182.439ZM295.305 182.439C295.027 182.439 294.783 182.373 294.573 182.241C294.365 182.108 294.202 181.923 294.084 181.685C293.968 181.448 293.91 181.17 293.91 180.852C293.91 180.531 293.968 180.251 294.084 180.012C294.202 179.773 294.365 179.587 294.573 179.455C294.783 179.322 295.027 179.256 295.305 179.256C295.583 179.256 295.826 179.322 296.034 179.455C296.244 179.587 296.407 179.773 296.523 180.012C296.641 180.251 296.7 180.531 296.7 180.852C296.7 181.17 296.641 181.448 296.523 181.685C296.407 181.923 296.244 182.108 296.034 182.241C295.826 182.373 295.583 182.439 295.305 182.439ZM295.305 182.014C295.516 182.014 295.69 181.96 295.826 181.852C295.962 181.744 296.063 181.601 296.129 181.425C296.194 181.249 296.227 181.057 296.227 180.852C296.227 180.646 296.194 180.454 296.129 180.276C296.063 180.099 295.962 179.955 295.826 179.845C295.69 179.736 295.516 179.681 295.305 179.681C295.094 179.681 294.92 179.736 294.784 179.845C294.647 179.955 294.546 180.099 294.481 180.276C294.415 180.454 294.383 180.646 294.383 180.852C294.383 181.057 294.415 181.249 294.481 181.425C294.546 181.601 294.647 181.744 294.784 181.852C294.92 181.96 295.094 182.014 295.305 182.014ZM297.422 183.53V179.296H297.879V179.785H297.935C297.97 179.732 298.018 179.664 298.079 179.581C298.142 179.497 298.232 179.422 298.348 179.356C298.466 179.29 298.625 179.256 298.825 179.256C299.084 179.256 299.313 179.321 299.511 179.451C299.708 179.58 299.863 179.764 299.974 180.002C300.084 180.24 300.14 180.52 300.14 180.844C300.14 181.17 300.084 181.452 299.974 181.691C299.863 181.929 299.709 182.114 299.513 182.245C299.316 182.374 299.09 182.439 298.833 182.439C298.635 182.439 298.477 182.406 298.358 182.341C298.239 182.274 298.148 182.199 298.083 182.114C298.019 182.029 297.97 181.958 297.935 181.902H297.895V183.53H297.422ZM297.887 180.836C297.887 181.068 297.921 181.273 297.989 181.451C298.057 181.627 298.157 181.766 298.288 181.866C298.419 181.965 298.579 182.014 298.769 182.014C298.967 182.014 299.132 181.962 299.264 181.858C299.398 181.752 299.498 181.611 299.565 181.433C299.633 181.254 299.667 181.055 299.667 180.836C299.667 180.619 299.633 180.424 299.567 180.25C299.501 180.075 299.402 179.937 299.268 179.835C299.136 179.733 298.969 179.681 298.769 179.681C298.576 179.681 298.415 179.73 298.284 179.827C298.153 179.924 298.054 180.059 297.987 180.232C297.92 180.405 297.887 180.606 297.887 180.836ZM301.335 178.27V182.375H300.861V178.27H301.335ZM303.492 182.439C303.195 182.439 302.939 182.374 302.724 182.243C302.51 182.11 302.345 181.926 302.229 181.689C302.114 181.452 302.057 181.175 302.057 180.86C302.057 180.544 302.114 180.266 302.229 180.026C302.345 179.784 302.507 179.596 302.714 179.461C302.923 179.324 303.166 179.256 303.444 179.256C303.604 179.256 303.762 179.283 303.919 179.336C304.075 179.39 304.217 179.477 304.346 179.597C304.474 179.716 304.576 179.873 304.652 180.07C304.729 180.266 304.767 180.508 304.767 180.796V180.996H302.393V180.587H304.286C304.286 180.413 304.251 180.258 304.181 180.122C304.113 179.986 304.016 179.878 303.889 179.799C303.763 179.72 303.615 179.681 303.444 179.681C303.255 179.681 303.092 179.728 302.955 179.821C302.818 179.914 302.713 180.034 302.64 180.182C302.566 180.33 302.53 180.49 302.53 180.659V180.932C302.53 181.164 302.57 181.361 302.65 181.523C302.731 181.683 302.844 181.806 302.989 181.89C303.133 181.973 303.301 182.014 303.492 182.014C303.616 182.014 303.728 181.997 303.829 181.962C303.93 181.926 304.018 181.873 304.091 181.802C304.165 181.73 304.221 181.64 304.261 181.533L304.718 181.661C304.67 181.816 304.59 181.953 304.476 182.07C304.362 182.187 304.222 182.277 304.055 182.343C303.888 182.407 303.7 182.439 303.492 182.439ZM307.074 183.53V179.296H307.531V179.785H307.587C307.622 179.732 307.67 179.664 307.731 179.581C307.794 179.497 307.883 179.422 308 179.356C308.117 179.29 308.276 179.256 308.477 179.256C308.736 179.256 308.964 179.321 309.162 179.451C309.36 179.58 309.514 179.764 309.625 180.002C309.736 180.24 309.792 180.52 309.792 180.844C309.792 181.17 309.736 181.452 309.625 181.691C309.514 181.929 309.361 182.114 309.164 182.245C308.968 182.374 308.741 182.439 308.485 182.439C308.287 182.439 308.129 182.406 308.01 182.341C307.891 182.274 307.799 182.199 307.735 182.114C307.671 182.029 307.622 181.958 307.587 181.902H307.547V183.53H307.074ZM307.539 180.836C307.539 181.068 307.573 181.273 307.641 181.451C307.709 181.627 307.809 181.766 307.94 181.866C308.071 181.965 308.231 182.014 308.421 182.014C308.618 182.014 308.783 181.962 308.916 181.858C309.049 181.752 309.15 181.611 309.216 181.433C309.285 181.254 309.319 181.055 309.319 180.836C309.319 180.619 309.285 180.424 309.218 180.25C309.153 180.075 309.053 179.937 308.92 179.835C308.787 179.733 308.621 179.681 308.421 179.681C308.228 179.681 308.067 179.73 307.936 179.827C307.805 179.924 307.706 180.059 307.639 180.232C307.572 180.405 307.539 180.606 307.539 180.836ZM310.513 182.375V179.296H310.97V179.761H311.002C311.058 179.609 311.16 179.485 311.307 179.39C311.454 179.296 311.62 179.248 311.804 179.248C311.839 179.248 311.882 179.249 311.934 179.25C311.986 179.251 312.026 179.253 312.053 179.256V179.737C312.037 179.733 312 179.727 311.942 179.719C311.886 179.71 311.827 179.705 311.764 179.705C311.614 179.705 311.481 179.737 311.363 179.799C311.247 179.861 311.155 179.946 311.087 180.056C311.02 180.164 310.986 180.288 310.986 180.427V182.375H310.513ZM313.81 182.439C313.514 182.439 313.258 182.374 313.043 182.243C312.829 182.11 312.664 181.926 312.548 181.689C312.433 181.452 312.375 181.175 312.375 180.86C312.375 180.544 312.433 180.266 312.548 180.026C312.664 179.784 312.826 179.596 313.033 179.461C313.241 179.324 313.484 179.256 313.762 179.256C313.923 179.256 314.081 179.283 314.237 179.336C314.394 179.39 314.536 179.477 314.664 179.597C314.793 179.716 314.895 179.873 314.971 180.07C315.047 180.266 315.085 180.508 315.085 180.796V180.996H312.712V180.587H314.604C314.604 180.413 314.57 180.258 314.5 180.122C314.432 179.986 314.334 179.878 314.207 179.799C314.082 179.72 313.933 179.681 313.762 179.681C313.574 179.681 313.411 179.728 313.273 179.821C313.137 179.914 313.032 180.034 312.959 180.182C312.885 180.33 312.848 180.49 312.848 180.659V180.932C312.848 181.164 312.888 181.361 312.969 181.523C313.05 181.683 313.163 181.806 313.307 181.89C313.452 181.973 313.619 182.014 313.81 182.014C313.935 182.014 314.047 181.997 314.147 181.962C314.249 181.926 314.336 181.873 314.41 181.802C314.483 181.73 314.54 181.64 314.58 181.533L315.037 181.661C314.989 181.816 314.908 181.953 314.795 182.07C314.681 182.187 314.541 182.277 314.374 182.343C314.207 182.407 314.019 182.439 313.81 182.439ZM317.986 179.986L317.561 180.106C317.534 180.035 317.495 179.966 317.442 179.9C317.392 179.831 317.322 179.775 317.234 179.731C317.146 179.687 317.033 179.665 316.895 179.665C316.707 179.665 316.55 179.708 316.424 179.795C316.3 179.881 316.238 179.99 316.238 180.122C316.238 180.24 316.281 180.333 316.366 180.401C316.452 180.469 316.585 180.526 316.767 180.571L317.224 180.683C317.499 180.75 317.704 180.852 317.839 180.99C317.974 181.126 318.042 181.302 318.042 181.517C318.042 181.693 317.991 181.851 317.889 181.99C317.789 182.129 317.649 182.239 317.469 182.319C317.288 182.399 317.078 182.439 316.839 182.439C316.525 182.439 316.265 182.371 316.059 182.235C315.854 182.098 315.723 181.899 315.669 181.637L316.118 181.525C316.16 181.691 316.241 181.815 316.36 181.898C316.48 181.981 316.637 182.022 316.831 182.022C317.052 182.022 317.227 181.975 317.356 181.882C317.487 181.787 317.553 181.673 317.553 181.541C317.553 181.434 317.515 181.345 317.44 181.273C317.366 181.199 317.251 181.144 317.096 181.108L316.583 180.988C316.301 180.921 316.094 180.818 315.961 180.677C315.83 180.536 315.765 180.359 315.765 180.146C315.765 179.972 315.814 179.819 315.911 179.685C316.01 179.551 316.144 179.447 316.314 179.37C316.485 179.294 316.679 179.256 316.895 179.256C317.2 179.256 317.439 179.323 317.613 179.457C317.788 179.59 317.912 179.767 317.986 179.986ZM320.045 182.439C319.748 182.439 319.492 182.374 319.277 182.243C319.063 182.11 318.898 181.926 318.782 181.689C318.667 181.452 318.61 181.175 318.61 180.86C318.61 180.544 318.667 180.266 318.782 180.026C318.898 179.784 319.06 179.596 319.267 179.461C319.475 179.324 319.719 179.256 319.997 179.256C320.157 179.256 320.315 179.283 320.472 179.336C320.628 179.39 320.77 179.477 320.899 179.597C321.027 179.716 321.129 179.873 321.205 180.07C321.281 180.266 321.32 180.508 321.32 180.796V180.996H318.946V180.587H320.838C320.838 180.413 320.804 180.258 320.734 180.122C320.666 179.986 320.569 179.878 320.442 179.799C320.316 179.72 320.168 179.681 319.997 179.681C319.808 179.681 319.645 179.728 319.508 179.821C319.371 179.914 319.266 180.034 319.193 180.182C319.119 180.33 319.083 180.49 319.083 180.659V180.932C319.083 181.164 319.123 181.361 319.203 181.523C319.284 181.683 319.397 181.806 319.542 181.89C319.686 181.973 319.854 182.014 320.045 182.014C320.169 182.014 320.281 181.997 320.381 181.962C320.483 181.926 320.571 181.873 320.644 181.802C320.718 181.73 320.774 181.64 320.814 181.533L321.271 181.661C321.223 181.816 321.142 181.953 321.029 182.07C320.915 182.187 320.775 182.277 320.608 182.343C320.441 182.407 320.253 182.439 320.045 182.439ZM322.512 180.523V182.375H322.039V179.296H322.496V179.777H322.536C322.608 179.621 322.718 179.495 322.865 179.4C323.012 179.304 323.202 179.256 323.434 179.256C323.643 179.256 323.825 179.299 323.981 179.384C324.138 179.469 324.259 179.597 324.346 179.769C324.433 179.94 324.476 180.157 324.476 180.419V182.375H324.003V180.451C324.003 180.209 323.941 180.02 323.815 179.886C323.689 179.749 323.517 179.681 323.298 179.681C323.147 179.681 323.012 179.714 322.893 179.779C322.775 179.845 322.683 179.94 322.614 180.066C322.546 180.192 322.512 180.344 322.512 180.523ZM326.68 179.296V179.697H325.084V179.296H326.68ZM325.549 178.559H326.022V181.493C326.022 181.627 326.042 181.727 326.081 181.794C326.121 181.859 326.171 181.903 326.233 181.926C326.296 181.947 326.362 181.958 326.431 181.958C326.483 181.958 326.526 181.955 326.56 181.95C326.593 181.943 326.62 181.938 326.64 181.934L326.736 182.359C326.704 182.371 326.659 182.383 326.602 182.395C326.544 182.408 326.471 182.415 326.383 182.415C326.25 182.415 326.119 182.386 325.99 182.329C325.863 182.271 325.758 182.184 325.674 182.066C325.591 181.949 325.549 181.8 325.549 181.621V178.559Z" fill="white"/>
<defs>
<filter id="filter0_dd_928_21161" x="32.8723" y="206.166" width="47.4351" height="13.5322" filterUnits="userSpaceOnUse" color-interpolation-filters="sRGB">
<feFlood flood-opacity="0" result="BackgroundImageFix"/>
<feColorMatrix in="SourceAlpha" type="matrix" values="0 0 0 0 0 0 0 0 0 0 0 0 0 0 0 0 0 0 127 0" result="hardAlpha"/>
<feOffset dy="0.501192"/>
<feGaussianBlur stdDeviation="0.563841"/>
<feColorMatrix type="matrix" values="0 0 0 0 0 0 0 0 0 0 0 0 0 0 0 0 0 0 0.11 0"/>
<feBlend mode="normal" in2="BackgroundImageFix" result="effect1_dropShadow_928_21161"/>
<feColorMatrix in="SourceAlpha" type="matrix" values="0 0 0 0 0 0 0 0 0 0 0 0 0 0 0 0 0 0 127 0" result="hardAlpha"/>
<feOffset dy="0.0939735"/>
<feGaussianBlur stdDeviation="0.14096"/>
<feColorMatrix type="matrix" values="0 0 0 0 0 0 0 0 0 0 0 0 0 0 0 0 0 0 0.07 0"/>
<feBlend mode="normal" in2="effect1_dropShadow_928_21161" result="effect2_dropShadow_928_21161"/>
<feBlend mode="normal" in="SourceGraphic" in2="effect2_dropShadow_928_21161" result="shape"/>
</filter>
<filter id="filter1_dd_928_21161" x="109.249" y="206.166" width="41.9419" height="13.5322" filterUnits="userSpaceOnUse" color-interpolation-filters="sRGB">
<feFlood flood-opacity="0" result="BackgroundImageFix"/>
<feColorMatrix in="SourceAlpha" type="matrix" values="0 0 0 0 0 0 0 0 0 0 0 0 0 0 0 0 0 0 127 0" result="hardAlpha"/>
<feOffset dy="0.501192"/>
<feGaussianBlur stdDeviation="0.563841"/>
<feColorMatrix type="matrix" values="0 0 0 0 0 0 0 0 0 0 0 0 0 0 0 0 0 0 0.11 0"/>
<feBlend mode="normal" in2="BackgroundImageFix" result="effect1_dropShadow_928_21161"/>
<feColorMatrix in="SourceAlpha" type="matrix" values="0 0 0 0 0 0 0 0 0 0 0 0 0 0 0 0 0 0 127 0" result="hardAlpha"/>
<feOffset dy="0.0939735"/>
<feGaussianBlur stdDeviation="0.14096"/>
<feColorMatrix type="matrix" values="0 0 0 0 0 0 0 0 0 0 0 0 0 0 0 0 0 0 0.07 0"/>
<feBlend mode="normal" in2="effect1_dropShadow_928_21161" result="effect2_dropShadow_928_21161"/>
<feBlend mode="normal" in="SourceGraphic" in2="effect2_dropShadow_928_21161" result="shape"/>
</filter>
<filter id="filter2_dd_928_21161" x="180.133" y="206.166" width="42.9419" height="13.5322" filterUnits="userSpaceOnUse" color-interpolation-filters="sRGB">
<feFlood flood-opacity="0" result="BackgroundImageFix"/>
<feColorMatrix in="SourceAlpha" type="matrix" values="0 0 0 0 0 0 0 0 0 0 0 0 0 0 0 0 0 0 127 0" result="hardAlpha"/>
<feOffset dy="0.501192"/>
<feGaussianBlur stdDeviation="0.563841"/>
<feColorMatrix type="matrix" values="0 0 0 0 0 0 0 0 0 0 0 0 0 0 0 0 0 0 0.11 0"/>
<feBlend mode="normal" in2="BackgroundImageFix" result="effect1_dropShadow_928_21161"/>
<feColorMatrix in="SourceAlpha" type="matrix" values="0 0 0 0 0 0 0 0 0 0 0 0 0 0 0 0 0 0 127 0" result="hardAlpha"/>
<feOffset dy="0.0939735"/>
<feGaussianBlur stdDeviation="0.14096"/>
<feColorMatrix type="matrix" values="0 0 0 0 0 0 0 0 0 0 0 0 0 0 0 0 0 0 0.07 0"/>
<feBlend mode="normal" in2="effect1_dropShadow_928_21161" result="effect2_dropShadow_928_21161"/>
<feBlend mode="normal" in="SourceGraphic" in2="effect2_dropShadow_928_21161" result="shape"/>
</filter>
<clipPath id="clip0_928_21161">
<rect width="7.51788" height="7.51788" fill="white" transform="translate(186.863 186.431)"/>
</clipPath>
<clipPath id="clip1_928_21161">
<rect width="7.51788" height="7.51788" fill="white" transform="translate(206.911 186.431)"/>
</clipPath>
<clipPath id="clip2_928_21161">
<rect width="6.2649" height="6.2649" fill="white" transform="translate(36.5059 209.298)"/>
</clipPath>
<clipPath id="clip3_928_21161">
<rect width="6.2649" height="6.2649" fill="white" transform="translate(114.136 209.298)"/>
</clipPath>
<clipPath id="clip4_928_21161">
<rect width="6.2649" height="6.2649" fill="white" transform="translate(185.02 209.298)"/>
</clipPath>
</defs>
</svg>
