<svg width="400" height="300" viewBox="0 0 400 300" fill="none" xmlns="http://www.w3.org/2000/svg">
<g clip-path="url(#clip0_928_20809)">
<rect width="400" height="300" fill="#E0E9FF"/>
<g clip-path="url(#clip1_928_20809)">
<rect x="40" y="43" width="320" height="1024" rx="8" fill="#080808"/>
<rect width="320" height="48" transform="translate(40 43)" fill="#080808"/>
<path d="M63.2501 61.7584C62.9251 61.4334 62.4001 61.4334 62.0751 61.7584L58.0001 65.8251L53.9251 61.7501C53.6001 61.4251 53.0751 61.4251 52.7501 61.7501C52.4251 62.0751 52.4251 62.6001 52.7501 62.9251L56.8251 67.0001L52.7501 71.0751C52.4251 71.4001 52.4251 71.9251 52.7501 72.2501C53.0751 72.5751 53.6001 72.5751 53.9251 72.2501L58.0001 68.1751L62.0751 72.2501C62.4001 72.5751 62.9251 72.5751 63.2501 72.2501C63.5751 71.9251 63.5751 71.4001 63.2501 71.0751L59.1751 67.0001L63.2501 62.9251C63.5668 62.6084 63.5668 62.0751 63.2501 61.7584V61.7584Z" fill="white" fill-opacity="0.88"/>
<path d="M156.331 73V61.3636H160.263C161.176 61.3636 161.922 61.5284 162.501 61.858C163.085 62.1837 163.517 62.625 163.797 63.1818C164.077 63.7386 164.217 64.3598 164.217 65.0455C164.217 65.7311 164.077 66.3542 163.797 66.9148C163.52 67.4754 163.092 67.9223 162.513 68.2557C161.933 68.5852 161.191 68.75 160.286 68.75H157.467V67.5H160.24C160.865 67.5 161.367 67.392 161.746 67.1761C162.125 66.9602 162.399 66.6686 162.57 66.3011C162.744 65.9299 162.831 65.5114 162.831 65.0455C162.831 64.5795 162.744 64.1629 162.57 63.7955C162.399 63.428 162.123 63.1402 161.74 62.9318C161.357 62.7197 160.85 62.6136 160.217 62.6136H157.74V73H156.331ZM168.874 73.2045C168.321 73.2045 167.819 73.1004 167.368 72.892C166.917 72.6799 166.559 72.375 166.294 71.9773C166.029 71.5758 165.896 71.0909 165.896 70.5227C165.896 70.0227 165.995 69.6174 166.192 69.3068C166.389 68.9924 166.652 68.7462 166.982 68.5682C167.311 68.3902 167.675 68.2576 168.072 68.1705C168.474 68.0795 168.877 68.0076 169.283 67.9545C169.813 67.8864 170.243 67.8352 170.572 67.8011C170.906 67.7633 171.148 67.7008 171.3 67.6136C171.455 67.5265 171.533 67.375 171.533 67.1591V67.1136C171.533 66.553 171.379 66.1174 171.072 65.8068C170.769 65.4962 170.309 65.3409 169.692 65.3409C169.052 65.3409 168.55 65.4811 168.186 65.7614C167.822 66.0417 167.567 66.3409 167.419 66.6591L166.146 66.2045C166.374 65.6742 166.677 65.2614 167.055 64.9659C167.438 64.6667 167.855 64.4583 168.305 64.3409C168.76 64.2197 169.207 64.1591 169.646 64.1591C169.927 64.1591 170.249 64.1932 170.612 64.2614C170.98 64.3258 171.334 64.4602 171.675 64.6648C172.019 64.8693 172.305 65.178 172.533 65.5909C172.76 66.0038 172.874 66.5568 172.874 67.25V73H171.533V71.8182H171.464C171.374 72.0076 171.222 72.2102 171.01 72.4261C170.798 72.642 170.516 72.8258 170.163 72.9773C169.811 73.1288 169.381 73.2045 168.874 73.2045ZM169.078 72C169.608 72 170.055 71.8958 170.419 71.6875C170.786 71.4792 171.063 71.2102 171.249 70.8807C171.438 70.5511 171.533 70.2045 171.533 69.8409V68.6136C171.476 68.6818 171.351 68.7443 171.158 68.8011C170.968 68.8542 170.749 68.9015 170.499 68.9432C170.252 68.9811 170.012 69.0152 169.777 69.0455C169.546 69.072 169.358 69.0947 169.214 69.1136C168.866 69.1591 168.54 69.233 168.237 69.3352C167.938 69.4337 167.696 69.5833 167.51 69.7841C167.328 69.9811 167.237 70.25 167.237 70.5909C167.237 71.0568 167.41 71.4091 167.754 71.6477C168.103 71.8826 168.544 72 169.078 72ZM175.321 73V64.2727H176.616V65.5909H176.707C176.866 65.1591 177.154 64.8087 177.571 64.5398C177.988 64.2708 178.457 64.1364 178.98 64.1364C179.079 64.1364 179.202 64.1383 179.349 64.142C179.497 64.1458 179.609 64.1515 179.685 64.1591V65.5227C179.639 65.5114 179.535 65.4943 179.372 65.4716C179.213 65.4451 179.045 65.4318 178.866 65.4318C178.442 65.4318 178.063 65.5208 177.73 65.6989C177.401 65.8731 177.139 66.1155 176.946 66.4261C176.757 66.733 176.662 67.0833 176.662 67.4773V73H175.321ZM185.616 64.2727V65.4091H181.094V64.2727H185.616ZM182.412 62.1818H183.753V70.5C183.753 70.8788 183.808 71.1629 183.918 71.3523C184.031 71.5379 184.175 71.6629 184.349 71.7273C184.527 71.7879 184.715 71.8182 184.912 71.8182C185.06 71.8182 185.181 71.8106 185.276 71.7955C185.37 71.7765 185.446 71.7614 185.503 71.75L185.776 72.9545C185.685 72.9886 185.558 73.0227 185.395 73.0568C185.232 73.0947 185.026 73.1136 184.776 73.1136C184.397 73.1136 184.026 73.0322 183.662 72.8693C183.302 72.7064 183.003 72.4583 182.764 72.125C182.529 71.7917 182.412 71.3712 182.412 70.8636V62.1818ZM187.634 73V64.2727H188.974V73H187.634ZM188.315 62.8182C188.054 62.8182 187.829 62.7292 187.639 62.5511C187.454 62.3731 187.361 62.1591 187.361 61.9091C187.361 61.6591 187.454 61.4451 187.639 61.267C187.829 61.089 188.054 61 188.315 61C188.577 61 188.8 61.089 188.986 61.267C189.175 61.4451 189.27 61.6591 189.27 61.9091C189.27 62.1591 189.175 62.3731 188.986 62.5511C188.8 62.7292 188.577 62.8182 188.315 62.8182ZM194.976 73.1818C194.158 73.1818 193.453 72.9886 192.862 72.6023C192.271 72.2159 191.817 71.6837 191.499 71.0057C191.18 70.3277 191.021 69.553 191.021 68.6818C191.021 67.7955 191.184 67.0133 191.51 66.3352C191.839 65.6534 192.298 65.1212 192.885 64.7386C193.476 64.3523 194.165 64.1591 194.953 64.1591C195.567 64.1591 196.12 64.2727 196.612 64.5C197.105 64.7273 197.508 65.0455 197.822 65.4545C198.137 65.8636 198.332 66.3409 198.408 66.8864H197.067C196.964 66.4886 196.737 66.1364 196.385 65.8295C196.036 65.5189 195.567 65.3636 194.976 65.3636C194.453 65.3636 193.995 65.5 193.601 65.7727C193.211 66.0417 192.906 66.4223 192.686 66.9148C192.47 67.4034 192.362 67.9773 192.362 68.6364C192.362 69.3106 192.468 69.8977 192.68 70.3977C192.896 70.8977 193.199 71.286 193.589 71.5625C193.983 71.839 194.446 71.9773 194.976 71.9773C195.324 71.9773 195.641 71.9167 195.925 71.7955C196.209 71.6742 196.449 71.5 196.646 71.2727C196.843 71.0455 196.983 70.7727 197.067 70.4545H198.408C198.332 70.9697 198.144 71.4337 197.845 71.8466C197.55 72.2557 197.158 72.5814 196.669 72.8239C196.184 73.0625 195.62 73.1818 194.976 73.1818ZM200.368 73V64.2727H201.709V73H200.368ZM201.05 62.8182C200.788 62.8182 200.563 62.7292 200.374 62.5511C200.188 62.3731 200.095 62.1591 200.095 61.9091C200.095 61.6591 200.188 61.4451 200.374 61.267C200.563 61.089 200.788 61 201.05 61C201.311 61 201.535 61.089 201.72 61.267C201.91 61.4451 202.004 61.6591 202.004 61.9091C202.004 62.1591 201.91 62.3731 201.72 62.5511C201.535 62.7292 201.311 62.8182 201.05 62.8182ZM204.165 76.2727V64.2727H205.46V65.6591H205.619C205.718 65.5076 205.854 65.3144 206.028 65.0795C206.206 64.8409 206.46 64.6288 206.79 64.4432C207.123 64.2538 207.574 64.1591 208.142 64.1591C208.877 64.1591 209.525 64.3428 210.085 64.7102C210.646 65.0777 211.083 65.5985 211.398 66.2727C211.712 66.947 211.869 67.7424 211.869 68.6591C211.869 69.5833 211.712 70.3845 211.398 71.0625C211.083 71.7367 210.648 72.2595 210.091 72.6307C209.534 72.9981 208.892 73.1818 208.165 73.1818C207.604 73.1818 207.155 73.089 206.818 72.9034C206.481 72.714 206.222 72.5 206.04 72.2614C205.858 72.0189 205.718 71.8182 205.619 71.6591H205.506V76.2727H204.165ZM205.483 68.6364C205.483 69.2955 205.58 69.8769 205.773 70.3807C205.966 70.8807 206.248 71.2727 206.619 71.5568C206.991 71.8371 207.445 71.9773 207.983 71.9773C208.544 71.9773 209.011 71.8295 209.386 71.5341C209.765 71.2348 210.049 70.8333 210.239 70.3295C210.432 69.822 210.528 69.2576 210.528 68.6364C210.528 68.0227 210.434 67.4697 210.244 66.9773C210.059 66.4811 209.777 66.089 209.398 65.8011C209.023 65.5095 208.551 65.3636 207.983 65.3636C207.438 65.3636 206.979 65.5019 206.608 65.7784C206.237 66.0511 205.956 66.4337 205.767 66.9261C205.578 67.4148 205.483 67.9848 205.483 68.6364ZM216.483 73.2045C215.93 73.2045 215.428 73.1004 214.977 72.892C214.527 72.6799 214.169 72.375 213.903 71.9773C213.638 71.5758 213.506 71.0909 213.506 70.5227C213.506 70.0227 213.604 69.6174 213.801 69.3068C213.998 68.9924 214.261 68.7462 214.591 68.5682C214.92 68.3902 215.284 68.2576 215.682 68.1705C216.083 68.0795 216.487 68.0076 216.892 67.9545C217.422 67.8864 217.852 67.8352 218.182 67.8011C218.515 67.7633 218.758 67.7008 218.909 67.6136C219.064 67.5265 219.142 67.375 219.142 67.1591V67.1136C219.142 66.553 218.989 66.1174 218.682 65.8068C218.379 65.4962 217.919 65.3409 217.301 65.3409C216.661 65.3409 216.159 65.4811 215.795 65.7614C215.432 66.0417 215.176 66.3409 215.028 66.6591L213.756 66.2045C213.983 65.6742 214.286 65.2614 214.665 64.9659C215.047 64.6667 215.464 64.4583 215.915 64.3409C216.369 64.2197 216.816 64.1591 217.256 64.1591C217.536 64.1591 217.858 64.1932 218.222 64.2614C218.589 64.3258 218.943 64.4602 219.284 64.6648C219.629 64.8693 219.915 65.178 220.142 65.5909C220.369 66.0038 220.483 66.5568 220.483 67.25V73H219.142V71.8182H219.074C218.983 72.0076 218.831 72.2102 218.619 72.4261C218.407 72.642 218.125 72.8258 217.773 72.9773C217.42 73.1288 216.991 73.2045 216.483 73.2045ZM216.688 72C217.218 72 217.665 71.8958 218.028 71.6875C218.396 71.4792 218.672 71.2102 218.858 70.8807C219.047 70.5511 219.142 70.2045 219.142 69.8409V68.6136C219.085 68.6818 218.96 68.7443 218.767 68.8011C218.578 68.8542 218.358 68.9015 218.108 68.9432C217.862 68.9811 217.621 69.0152 217.386 69.0455C217.155 69.072 216.968 69.0947 216.824 69.1136C216.475 69.1591 216.15 69.233 215.847 69.3352C215.547 69.4337 215.305 69.5833 215.119 69.7841C214.938 69.9811 214.847 70.25 214.847 70.5909C214.847 71.0568 215.019 71.4091 215.364 71.6477C215.712 71.8826 216.153 72 216.688 72ZM224.271 67.75V73H222.93V64.2727H224.226V65.6364H224.339C224.544 65.1932 224.855 64.8371 225.271 64.5682C225.688 64.2955 226.226 64.1591 226.885 64.1591C227.476 64.1591 227.993 64.2803 228.436 64.5227C228.879 64.7614 229.224 65.125 229.47 65.6136C229.716 66.0985 229.839 66.7121 229.839 67.4545V73H228.499V67.5455C228.499 66.8598 228.321 66.3258 227.964 65.9432C227.608 65.5568 227.12 65.3636 226.499 65.3636C226.071 65.3636 225.688 65.4564 225.351 65.642C225.018 65.8277 224.754 66.0985 224.561 66.4545C224.368 66.8106 224.271 67.2424 224.271 67.75ZM236.085 64.2727V65.4091H231.562V64.2727H236.085ZM232.881 62.1818H234.222V70.5C234.222 70.8788 234.277 71.1629 234.386 71.3523C234.5 71.5379 234.644 71.6629 234.818 71.7273C234.996 71.7879 235.184 71.8182 235.381 71.8182C235.528 71.8182 235.65 71.8106 235.744 71.7955C235.839 71.7765 235.915 71.7614 235.972 71.75L236.244 72.9545C236.153 72.9886 236.027 73.0227 235.864 73.0568C235.701 73.0947 235.494 73.1136 235.244 73.1136C234.866 73.1136 234.494 73.0322 234.131 72.8693C233.771 72.7064 233.472 72.4583 233.233 72.125C232.998 71.7917 232.881 71.3712 232.881 70.8636V62.1818ZM244.128 66.2273L242.923 66.5682C242.848 66.3674 242.736 66.1723 242.588 65.983C242.444 65.7898 242.247 65.6307 241.997 65.5057C241.747 65.3807 241.427 65.3182 241.037 65.3182C240.503 65.3182 240.058 65.4413 239.702 65.6875C239.349 65.9299 239.173 66.2386 239.173 66.6136C239.173 66.947 239.295 67.2102 239.537 67.4034C239.779 67.5966 240.158 67.7576 240.673 67.8864L241.969 68.2045C242.749 68.3939 243.33 68.6837 243.713 69.0739C244.096 69.4602 244.287 69.9583 244.287 70.5682C244.287 71.0682 244.143 71.5152 243.855 71.9091C243.571 72.303 243.173 72.6136 242.662 72.8409C242.151 73.0682 241.556 73.1818 240.878 73.1818C239.988 73.1818 239.251 72.9886 238.668 72.6023C238.084 72.2159 237.715 71.6515 237.56 70.9091L238.832 70.5909C238.954 71.0606 239.183 71.4129 239.52 71.6477C239.861 71.8826 240.306 72 240.855 72C241.48 72 241.976 71.8674 242.344 71.6023C242.715 71.3333 242.901 71.0114 242.901 70.6364C242.901 70.3333 242.795 70.0795 242.582 69.875C242.37 69.6667 242.045 69.5114 241.605 69.4091L240.151 69.0682C239.351 68.8788 238.764 68.5852 238.389 68.1875C238.018 67.786 237.832 67.2841 237.832 66.6818C237.832 66.1894 237.971 65.7538 238.247 65.375C238.527 64.9962 238.908 64.6989 239.389 64.483C239.874 64.267 240.423 64.1591 241.037 64.1591C241.901 64.1591 242.579 64.3485 243.071 64.7273C243.567 65.1061 243.92 65.6061 244.128 66.2273Z" fill="white" fill-opacity="0.88"/>
<path d="M347.25 61.7584C346.925 61.4334 346.4 61.4334 346.075 61.7584L342 65.8251L337.925 61.7501C337.6 61.4251 337.075 61.4251 336.75 61.7501C336.425 62.0751 336.425 62.6001 336.75 62.9251L340.825 67.0001L336.75 71.0751C336.425 71.4001 336.425 71.9251 336.75 72.2501C337.075 72.5751 337.6 72.5751 337.925 72.2501L342 68.1751L346.075 72.2501C346.4 72.5751 346.925 72.5751 347.25 72.2501C347.575 71.9251 347.575 71.4001 347.25 71.0751L343.175 67.0001L347.25 62.9251C347.567 62.6084 347.567 62.0751 347.25 61.7584V61.7584Z" fill="#080808"/>
<line x1="40" y1="1067" x2="40" y2="42.9995" stroke="#393939"/>
<path d="M53 123C53 114.163 60.1634 107 69 107V107C77.8366 107 85 114.163 85 123V123C85 131.837 77.8366 139 69 139V139C60.1634 139 53 131.837 53 123V123Z" fill="white"/>
<rect x="98" y="116" width="96" height="14" rx="7" fill="#474747"/>
<path d="M53 171C53 162.163 60.1634 155 69 155V155C77.8366 155 85 162.163 85 171V171C85 179.837 77.8366 187 69 187V187C60.1634 187 53 179.837 53 171V171Z" fill="#ECA05D"/>
<rect x="98" y="164" width="54" height="14" rx="7" fill="#474747"/>
<path d="M53 219C53 210.163 60.1634 203 69 203V203C77.8366 203 85 210.163 85 219V219C85 227.837 77.8366 235 69 235V235C60.1634 235 53 227.837 53 219V219Z" fill="#FF5A65"/>
<rect x="98" y="212" width="148" height="14" rx="7" fill="#474747"/>
<path d="M53 267C53 258.163 60.1634 251 69 251V251C77.8366 251 85 258.163 85 267V267C85 275.837 77.8366 283 69 283V283C60.1634 283 53 275.837 53 267V267Z" fill="#6572D2"/>
<rect x="98" y="260" width="83" height="14" rx="7" fill="#474747"/>
<path d="M319 118V122.879L319.898 123.777C319.965 123.529 320 123.269 320 123V118C320 116.343 318.657 115 317 115C315.383 115 314.065 116.279 314.002 117.881L315 118.879V118C315 116.895 315.895 116 317 116C318.105 116 319 116.895 319 118ZM314 120.707L309.146 115.854C308.951 115.658 308.951 115.342 309.146 115.146C309.342 114.951 309.658 114.951 309.854 115.146L324.854 130.146C325.049 130.342 325.049 130.658 324.854 130.854C324.658 131.049 324.342 131.049 324.146 130.854L320.52 127.227C319.686 127.922 318.643 128.375 317.5 128.478V130.5C317.5 130.776 317.276 131 317 131C316.724 131 316.5 130.776 316.5 130.5V128.478C313.697 128.225 311.5 125.869 311.5 123C311.5 122.724 311.724 122.5 312 122.5C312.276 122.5 312.5 122.724 312.5 123C312.5 125.485 314.515 127.5 317 127.5C318.062 127.5 319.039 127.132 319.809 126.516L318.738 125.445C318.248 125.795 317.648 126 317 126C315.343 126 314 124.657 314 123V120.707ZM318.016 124.723L315 121.707V123C315 124.105 315.895 125 317 125C317.371 125 317.718 124.899 318.016 124.723ZM321.803 125.682L321.061 124.94C321.343 124.353 321.5 123.695 321.5 123C321.5 122.724 321.724 122.5 322 122.5C322.276 122.5 322.5 122.724 322.5 123C322.5 123.974 322.247 124.888 321.803 125.682Z" fill="white" fill-opacity="0.6"/>
<path d="M269 110C269 107.791 270.791 106 273 106H297C299.209 106 301 107.791 301 110V134C301 136.209 299.209 138 297 138H273C270.791 138 269 136.209 269 134V110Z" fill="#080808"/>
<path d="M277.854 114.146C277.658 113.951 277.342 113.951 277.146 114.146C276.951 114.342 276.951 114.658 277.146 114.854L278.501 116.208C277.617 116.593 277 117.475 277 118.5V125.5C277 126.881 278.119 128 279.5 128H286.5C287.525 128 288.407 127.383 288.792 126.499L292.146 129.854C292.342 130.049 292.658 130.049 292.854 129.854C293.049 129.658 293.049 129.342 292.854 129.146L277.854 114.146ZM287.987 125.695C287.892 126.431 287.262 127 286.5 127H279.5C278.672 127 278 126.328 278 125.5V118.5C278 117.737 278.569 117.108 279.305 117.012L287.987 125.695ZM288 122.879L291.469 126.348C292.123 126.762 293 126.296 293 125.5V118.5C293 117.676 292.059 117.206 291.4 117.7L289 119.5V118.5C289 117.119 287.881 116 286.5 116H281.121L282.121 117H286.5C287.328 117 288 117.671 288 118.5V122.879ZM289 120.75L292 118.5V125.5L289 123.25V120.75Z" fill="white" fill-opacity="0.6"/>
<path d="M343 119C344.1 119 345 118.1 345 117C345 115.9 344.1 115 343 115C341.9 115 341 115.9 341 117C341 118.1 341.9 119 343 119ZM343 121C341.9 121 341 121.9 341 123C341 124.1 341.9 125 343 125C344.1 125 345 124.1 345 123C345 121.9 344.1 121 343 121ZM343 127C341.9 127 341 127.9 341 129C341 130.1 341.9 131 343 131C344.1 131 345 130.1 345 129C345 127.9 344.1 127 343 127Z" fill="white" fill-opacity="0.76"/>
<path d="M319 166V170.879L319.898 171.777C319.965 171.529 320 171.269 320 171V166C320 164.343 318.657 163 317 163C315.383 163 314.065 164.279 314.002 165.881L315 166.879V166C315 164.895 315.895 164 317 164C318.105 164 319 164.895 319 166ZM314 168.707L309.146 163.854C308.951 163.658 308.951 163.342 309.146 163.146C309.342 162.951 309.658 162.951 309.854 163.146L324.854 178.146C325.049 178.342 325.049 178.658 324.854 178.854C324.658 179.049 324.342 179.049 324.146 178.854L320.52 175.227C319.686 175.922 318.643 176.375 317.5 176.478V178.5C317.5 178.776 317.276 179 317 179C316.724 179 316.5 178.776 316.5 178.5V176.478C313.697 176.225 311.5 173.869 311.5 171C311.5 170.724 311.724 170.5 312 170.5C312.276 170.5 312.5 170.724 312.5 171C312.5 173.485 314.515 175.5 317 175.5C318.062 175.5 319.039 175.132 319.809 174.516L318.738 173.445C318.248 173.795 317.648 174 317 174C315.343 174 314 172.657 314 171V168.707ZM318.016 172.723L315 169.707V171C315 172.105 315.895 173 317 173C317.371 173 317.718 172.899 318.016 172.723ZM321.803 173.682L321.061 172.94C321.343 172.353 321.5 171.695 321.5 171C321.5 170.724 321.724 170.5 322 170.5C322.276 170.5 322.5 170.724 322.5 171C322.5 171.974 322.247 172.888 321.803 173.682Z" fill="white" fill-opacity="0.6"/>
<path d="M269 158C269 155.791 270.791 154 273 154H297C299.209 154 301 155.791 301 158V182C301 184.209 299.209 186 297 186H273C270.791 186 269 184.209 269 182V158Z" fill="#080808"/>
<path d="M277.854 162.146C277.658 161.951 277.342 161.951 277.146 162.146C276.951 162.342 276.951 162.658 277.146 162.854L278.501 164.208C277.617 164.593 277 165.475 277 166.5V173.5C277 174.881 278.119 176 279.5 176H286.5C287.525 176 288.407 175.383 288.792 174.499L292.146 177.854C292.342 178.049 292.658 178.049 292.854 177.854C293.049 177.658 293.049 177.342 292.854 177.146L277.854 162.146ZM287.987 173.695C287.892 174.431 287.262 175 286.5 175H279.5C278.672 175 278 174.328 278 173.5V166.5C278 165.737 278.569 165.108 279.305 165.012L287.987 173.695ZM288 170.879L291.469 174.348C292.123 174.762 293 174.296 293 173.5V166.5C293 165.676 292.059 165.206 291.4 165.7L289 167.5V166.5C289 165.119 287.881 164 286.5 164H281.121L282.121 165H286.5C287.328 165 288 165.671 288 166.5V170.879ZM289 168.75L292 166.5V173.5L289 171.25V168.75Z" fill="white" fill-opacity="0.6"/>
<path d="M343 167C344.1 167 345 166.1 345 165C345 163.9 344.1 163 343 163C341.9 163 341 163.9 341 165C341 166.1 341.9 167 343 167ZM343 169C341.9 169 341 169.9 341 171C341 172.1 341.9 173 343 173C344.1 173 345 172.1 345 171C345 169.9 344.1 169 343 169ZM343 175C341.9 175 341 175.9 341 177C341 178.1 341.9 179 343 179C344.1 179 345 178.1 345 177C345 175.9 344.1 175 343 175Z" fill="white" fill-opacity="0.76"/>
<path d="M319 214V218.879L319.898 219.777C319.965 219.529 320 219.269 320 219V214C320 212.343 318.657 211 317 211C315.383 211 314.065 212.279 314.002 213.881L315 214.879V214C315 212.895 315.895 212 317 212C318.105 212 319 212.895 319 214ZM314 216.707L309.146 211.854C308.951 211.658 308.951 211.342 309.146 211.146C309.342 210.951 309.658 210.951 309.854 211.146L324.854 226.146C325.049 226.342 325.049 226.658 324.854 226.854C324.658 227.049 324.342 227.049 324.146 226.854L320.52 223.227C319.686 223.922 318.643 224.375 317.5 224.478V226.5C317.5 226.776 317.276 227 317 227C316.724 227 316.5 226.776 316.5 226.5V224.478C313.697 224.225 311.5 221.869 311.5 219C311.5 218.724 311.724 218.5 312 218.5C312.276 218.5 312.5 218.724 312.5 219C312.5 221.485 314.515 223.5 317 223.5C318.062 223.5 319.039 223.132 319.809 222.516L318.738 221.445C318.248 221.795 317.648 222 317 222C315.343 222 314 220.657 314 219V216.707ZM318.016 220.723L315 217.707V219C315 220.105 315.895 221 317 221C317.371 221 317.718 220.899 318.016 220.723ZM321.803 221.682L321.061 220.94C321.343 220.353 321.5 219.695 321.5 219C321.5 218.724 321.724 218.5 322 218.5C322.276 218.5 322.5 218.724 322.5 219C322.5 219.974 322.247 220.888 321.803 221.682Z" fill="white" fill-opacity="0.6"/>
<path d="M269 206C269 203.791 270.791 202 273 202H297C299.209 202 301 203.791 301 206V230C301 232.209 299.209 234 297 234H273C270.791 234 269 232.209 269 230V206Z" fill="#080808"/>
<path d="M277.854 210.146C277.658 209.951 277.342 209.951 277.146 210.146C276.951 210.342 276.951 210.658 277.146 210.854L278.501 212.208C277.617 212.593 277 213.475 277 214.5V221.5C277 222.881 278.119 224 279.5 224H286.5C287.525 224 288.407 223.383 288.792 222.499L292.146 225.854C292.342 226.049 292.658 226.049 292.854 225.854C293.049 225.658 293.049 225.342 292.854 225.146L277.854 210.146ZM287.987 221.695C287.892 222.431 287.262 223 286.5 223H279.5C278.672 223 278 222.328 278 221.5V214.5C278 213.737 278.569 213.108 279.305 213.012L287.987 221.695ZM288 218.879L291.469 222.348C292.123 222.762 293 222.296 293 221.5V214.5C293 213.676 292.059 213.206 291.4 213.7L289 215.5V214.5C289 213.119 287.881 212 286.5 212H281.121L282.121 213H286.5C287.328 213 288 213.671 288 214.5V218.879ZM289 216.75L292 214.5V221.5L289 219.25V216.75Z" fill="white" fill-opacity="0.6"/>
<path d="M343 215C344.1 215 345 214.1 345 213C345 211.9 344.1 211 343 211C341.9 211 341 211.9 341 213C341 214.1 341.9 215 343 215ZM343 217C341.9 217 341 217.9 341 219C341 220.1 341.9 221 343 221C344.1 221 345 220.1 345 219C345 217.9 344.1 217 343 217ZM343 223C341.9 223 341 223.9 341 225C341 226.1 341.9 227 343 227C344.1 227 345 226.1 345 225C345 223.9 344.1 223 343 223Z" fill="white" fill-opacity="0.76"/>
<path d="M319 262V266.879L319.898 267.777C319.965 267.529 320 267.269 320 267V262C320 260.343 318.657 259 317 259C315.383 259 314.065 260.279 314.002 261.881L315 262.879V262C315 260.895 315.895 260 317 260C318.105 260 319 260.895 319 262ZM314 264.707L309.146 259.854C308.951 259.658 308.951 259.342 309.146 259.146C309.342 258.951 309.658 258.951 309.854 259.146L324.854 274.146C325.049 274.342 325.049 274.658 324.854 274.854C324.658 275.049 324.342 275.049 324.146 274.854L320.52 271.227C319.686 271.922 318.643 272.375 317.5 272.478V274.5C317.5 274.776 317.276 275 317 275C316.724 275 316.5 274.776 316.5 274.5V272.478C313.697 272.225 311.5 269.869 311.5 267C311.5 266.724 311.724 266.5 312 266.5C312.276 266.5 312.5 266.724 312.5 267C312.5 269.485 314.515 271.5 317 271.5C318.062 271.5 319.039 271.132 319.809 270.516L318.738 269.445C318.248 269.795 317.648 270 317 270C315.343 270 314 268.657 314 267V264.707ZM318.016 268.723L315 265.707V267C315 268.105 315.895 269 317 269C317.371 269 317.718 268.899 318.016 268.723ZM321.803 269.682L321.061 268.94C321.343 268.353 321.5 267.695 321.5 267C321.5 266.724 321.724 266.5 322 266.5C322.276 266.5 322.5 266.724 322.5 267C322.5 267.974 322.247 268.888 321.803 269.682Z" fill="white" fill-opacity="0.6"/>
<path d="M269 254C269 251.791 270.791 250 273 250H297C299.209 250 301 251.791 301 254V278C301 280.209 299.209 282 297 282H273C270.791 282 269 280.209 269 278V254Z" fill="#080808"/>
<path d="M277.854 258.146C277.658 257.951 277.342 257.951 277.146 258.146C276.951 258.342 276.951 258.658 277.146 258.854L278.501 260.208C277.617 260.593 277 261.475 277 262.5V269.5C277 270.881 278.119 272 279.5 272H286.5C287.525 272 288.407 271.383 288.792 270.499L292.146 273.854C292.342 274.049 292.658 274.049 292.854 273.854C293.049 273.658 293.049 273.342 292.854 273.146L277.854 258.146ZM287.987 269.695C287.892 270.431 287.262 271 286.5 271H279.5C278.672 271 278 270.328 278 269.5V262.5C278 261.737 278.569 261.108 279.305 261.012L287.987 269.695ZM288 266.879L291.469 270.348C292.123 270.762 293 270.296 293 269.5V262.5C293 261.676 292.059 261.206 291.4 261.7L289 263.5V262.5C289 261.119 287.881 260 286.5 260H281.121L282.121 261H286.5C287.328 261 288 261.671 288 262.5V266.879ZM289 264.75L292 262.5V269.5L289 267.25V264.75Z" fill="white" fill-opacity="0.6"/>
<path d="M343 263C344.1 263 345 262.1 345 261C345 259.9 344.1 259 343 259C341.9 259 341 259.9 341 261C341 262.1 341.9 263 343 263ZM343 265C341.9 265 341 265.9 341 267C341 268.1 341.9 269 343 269C344.1 269 345 268.1 345 267C345 265.9 344.1 265 343 265ZM343 271C341.9 271 341 271.9 341 273C341 274.1 341.9 275 343 275C344.1 275 345 274.1 345 273C345 271.9 344.1 271 343 271Z" fill="white" fill-opacity="0.76"/>
</g>
</g>
<defs>
<clipPath id="clip0_928_20809">
<rect width="400" height="300" fill="white"/>
</clipPath>
<clipPath id="clip1_928_20809">
<rect x="40" y="43" width="320" height="1024" rx="8" fill="white"/>
</clipPath>
</defs>
</svg>
