<svg width="400" height="300" viewBox="0 0 400 300" fill="none" xmlns="http://www.w3.org/2000/svg">
<g clip-path="url(#clip0_928_20914)">
<rect width="400" height="300" fill="#E0E9FF"/>
<rect x="20" y="67" width="360.838" height="307.199" rx="5.63972" fill="#1E1E1E"/>
<rect x="246.914" y="78" width="86.0681" height="25.3787" rx="2.81986" fill="#2160FD"/>
<path d="M261.365 94.2145H267.71C268.002 94.2145 268.239 94.4512 268.239 94.7432C268.239 95.0109 268.04 95.2321 267.782 95.2671L267.71 95.2719H261.365C261.073 95.2719 260.836 95.0352 260.836 94.7432C260.836 94.4755 261.035 94.2543 261.293 94.2193L261.365 94.2145H267.71H261.365ZM264.466 85.7597L264.537 85.7549C264.805 85.7549 265.026 85.9538 265.061 86.2119L265.066 86.2836V91.7034L266.656 90.1145C266.844 89.9268 267.137 89.9097 267.344 90.0633L267.404 90.1145C267.591 90.3022 267.609 90.5959 267.455 90.8029L267.404 90.8622L264.911 93.3546C264.724 93.5423 264.43 93.5594 264.223 93.4058L264.164 93.3546L261.671 90.8622C261.465 90.6557 261.465 90.321 261.671 90.1145C261.859 89.9268 262.153 89.9097 262.36 90.0633L262.419 90.1145L264.009 91.7048V86.2836C264.009 86.0159 264.208 85.7947 264.466 85.7597L264.537 85.7549L264.466 85.7597Z" fill="white"/>
<path d="M276.814 94.6895H274.491V87.5116H276.888C277.591 87.5116 278.195 87.6553 278.7 87.9427C279.205 88.2278 279.591 88.6378 279.86 89.1729C280.131 89.7056 280.267 90.3447 280.267 91.09C280.267 91.8377 280.13 92.4803 279.857 93.0177C279.586 93.5551 279.193 93.9686 278.679 94.2584C278.165 94.5458 277.543 94.6895 276.814 94.6895ZM275.574 93.7432H276.755C277.302 93.7432 277.756 93.6404 278.118 93.4347C278.48 93.2268 278.751 92.9265 278.931 92.534C279.111 92.1391 279.201 91.6578 279.201 91.09C279.201 90.5269 279.111 90.0491 278.931 89.6566C278.754 89.264 278.489 88.9661 278.136 88.7628C277.783 88.5596 277.345 88.4579 276.821 88.4579H275.574V93.7432ZM283.797 94.7981C283.292 94.7981 282.852 94.6824 282.476 94.4511C282.099 94.2198 281.807 93.8962 281.599 93.4803C281.391 93.0644 281.287 92.5784 281.287 92.0223C281.287 91.4639 281.391 90.9755 281.599 90.5573C281.807 90.1391 282.099 89.8143 282.476 89.583C282.852 89.3517 283.292 89.236 283.797 89.236C284.302 89.236 284.742 89.3517 285.118 89.583C285.494 89.8143 285.786 90.1391 285.994 90.5573C286.202 90.9755 286.306 91.4639 286.306 92.0223C286.306 92.5784 286.202 93.0644 285.994 93.4803C285.786 93.8962 285.494 94.2198 285.118 94.4511C284.742 94.6824 284.302 94.7981 283.797 94.7981ZM283.8 93.9184C284.127 93.9184 284.398 93.8319 284.613 93.659C284.828 93.4861 284.987 93.256 285.09 92.9686C285.195 92.6812 285.248 92.3646 285.248 92.0188C285.248 91.6753 285.195 91.3599 285.09 91.0725C284.987 90.7828 284.828 90.5503 284.613 90.3751C284.398 90.1998 284.127 90.1122 283.8 90.1122C283.471 90.1122 283.198 90.1998 282.98 90.3751C282.765 90.5503 282.605 90.7828 282.5 91.0725C282.397 91.3599 282.346 91.6753 282.346 92.0188C282.346 92.3646 282.397 92.6812 282.5 92.9686C282.605 93.256 282.765 93.4861 282.98 93.659C283.198 93.8319 283.471 93.9184 283.8 93.9184ZM288.479 94.6895L286.895 89.3061H287.978L289.033 93.2595H289.086L290.144 89.3061H291.227L292.278 93.242H292.331L293.379 89.3061H294.462L292.881 94.6895H291.812L290.719 90.8026H290.638L289.545 94.6895H288.479ZM296.504 91.4931V94.6895H295.456V89.3061H296.462V90.1823H296.529C296.653 89.8972 296.847 89.6682 297.111 89.4953C297.377 89.3224 297.712 89.236 298.117 89.236C298.483 89.236 298.805 89.3131 299.08 89.4673C299.356 89.6192 299.57 89.8458 299.722 90.1472C299.874 90.4487 299.95 90.8213 299.95 91.2653V94.6895H298.902V91.3914C298.902 91.0012 298.8 90.6963 298.597 90.4767C298.393 90.2547 298.114 90.1437 297.759 90.1437C297.516 90.1437 297.3 90.1963 297.111 90.3014C296.924 90.4066 296.775 90.5608 296.666 90.7641C296.558 90.965 296.504 91.208 296.504 91.4931ZM302.403 87.5116V94.6895H301.355V87.5116H302.403ZM306.08 94.7981C305.576 94.7981 305.135 94.6824 304.759 94.4511C304.383 94.2198 304.091 93.8962 303.883 93.4803C303.675 93.0644 303.571 92.5784 303.571 92.0223C303.571 91.4639 303.675 90.9755 303.883 90.5573C304.091 90.1391 304.383 89.8143 304.759 89.583C305.135 89.3517 305.576 89.236 306.08 89.236C306.585 89.236 307.025 89.3517 307.402 89.583C307.778 89.8143 308.07 90.1391 308.278 90.5573C308.486 90.9755 308.59 91.4639 308.59 92.0223C308.59 92.5784 308.486 93.0644 308.278 93.4803C308.07 93.8962 307.778 94.2198 307.402 94.4511C307.025 94.6824 306.585 94.7981 306.08 94.7981ZM306.084 93.9184C306.411 93.9184 306.682 93.8319 306.897 93.659C307.112 93.4861 307.271 93.256 307.374 92.9686C307.479 92.6812 307.531 92.3646 307.531 92.0188C307.531 91.6753 307.479 91.3599 307.374 91.0725C307.271 90.7828 307.112 90.5503 306.897 90.3751C306.682 90.1998 306.411 90.1122 306.084 90.1122C305.754 90.1122 305.481 90.1998 305.264 90.3751C305.049 90.5503 304.889 90.7828 304.784 91.0725C304.681 91.3599 304.629 91.6753 304.629 92.0188C304.629 92.3646 304.681 92.6812 304.784 92.9686C304.889 93.256 305.049 93.4861 305.264 93.659C305.481 93.8319 305.754 93.9184 306.084 93.9184ZM311.326 94.8086C310.985 94.8086 310.677 94.7455 310.401 94.6194C310.125 94.4908 309.907 94.3051 309.745 94.0621C309.587 93.8191 309.507 93.5212 309.507 93.1684C309.507 92.8646 309.566 92.6146 309.682 92.4183C309.799 92.2221 309.957 92.0667 310.156 91.9522C310.354 91.8377 310.576 91.7513 310.821 91.6929C311.067 91.6344 311.317 91.59 311.571 91.5597C311.894 91.5223 312.156 91.4919 312.357 91.4685C312.557 91.4428 312.704 91.402 312.795 91.3459C312.886 91.2898 312.931 91.1987 312.931 91.0725V91.048C312.931 90.7419 312.845 90.5047 312.672 90.3365C312.501 90.1683 312.247 90.0842 311.908 90.0842C311.555 90.0842 311.277 90.1624 311.074 90.319C310.873 90.4732 310.734 90.6449 310.657 90.8342L309.672 90.6099C309.789 90.2828 309.959 90.0187 310.184 89.8178C310.41 89.6145 310.671 89.4673 310.965 89.3762C311.26 89.2827 311.569 89.236 311.894 89.236C312.109 89.236 312.337 89.2617 312.577 89.3131C312.82 89.3622 313.047 89.4533 313.257 89.5865C313.47 89.7197 313.644 89.9101 313.779 90.1578C313.915 90.4031 313.983 90.722 313.983 91.1146V94.6895H312.959V93.9534H312.917C312.85 94.089 312.748 94.2221 312.612 94.353C312.477 94.4838 312.303 94.5925 312.09 94.6789C311.878 94.7654 311.623 94.8086 311.326 94.8086ZM311.554 93.9675C311.844 93.9675 312.091 93.9102 312.297 93.7957C312.505 93.6812 312.663 93.5317 312.77 93.3471C312.88 93.1602 312.935 92.9604 312.935 92.7478V92.0538C312.897 92.0912 312.825 92.1263 312.718 92.159C312.612 92.1894 312.492 92.2162 312.357 92.2396C312.221 92.2606 312.089 92.2805 311.96 92.2992C311.832 92.3155 311.725 92.3296 311.638 92.3412C311.435 92.3669 311.249 92.4102 311.081 92.4709C310.915 92.5317 310.782 92.6193 310.681 92.7338C310.583 92.8459 310.534 92.9955 310.534 93.1824C310.534 93.4417 310.63 93.638 310.821 93.7712C311.013 93.902 311.257 93.9675 311.554 93.9675ZM317.394 94.7946C316.959 94.7946 316.571 94.6836 316.23 94.4616C315.891 94.2373 315.625 93.9184 315.431 93.5048C315.24 93.0889 315.144 92.5901 315.144 92.0083C315.144 91.4265 315.241 90.9288 315.435 90.5152C315.631 90.1017 315.9 89.7851 316.241 89.5654C316.582 89.3458 316.969 89.236 317.401 89.236C317.735 89.236 318.004 89.2921 318.207 89.4042C318.413 89.514 318.571 89.6425 318.684 89.7897C318.798 89.937 318.887 90.0666 318.95 90.1788H319.013V87.5116H320.061V94.6895H319.038V93.8518H318.95C318.887 93.9663 318.796 94.0971 318.677 94.2443C318.56 94.3915 318.399 94.5201 318.193 94.6299C317.987 94.7397 317.721 94.7946 317.394 94.7946ZM317.625 93.9009C317.927 93.9009 318.181 93.8214 318.389 93.6625C318.599 93.5013 318.758 93.2782 318.866 92.9931C318.976 92.7081 319.031 92.3763 319.031 91.9978C319.031 91.6239 318.977 91.2968 318.869 91.0164C318.762 90.736 318.604 90.5176 318.396 90.361C318.188 90.2045 317.931 90.1262 317.625 90.1262C317.31 90.1262 317.047 90.208 316.837 90.3715C316.626 90.5351 316.467 90.7582 316.36 91.041C316.255 91.3237 316.202 91.6426 316.202 91.9978C316.202 92.3576 316.256 92.6812 316.363 92.9686C316.471 93.256 316.63 93.4838 316.84 93.652C317.053 93.8179 317.314 93.9009 317.625 93.9009Z" fill="#F5F5F7"/>
<rect x="338.622" y="78" width="25.3787" height="25.3787" rx="2.81986" fill="#393939"/>
<path d="M346.855 91.3447H350.028C350.295 91.3447 350.516 91.5436 350.551 91.8016L350.556 91.8734V95.0457C350.556 95.3377 350.32 95.5744 350.028 95.5744C349.76 95.5744 349.539 95.3755 349.504 95.1175L349.499 95.0457V93.1494L346.348 96.3008C346.141 96.5073 345.807 96.5073 345.6 96.3008C345.412 96.1131 345.395 95.8193 345.549 95.6124L345.6 95.5531L348.75 92.4021H346.855C346.588 92.4021 346.366 92.2032 346.331 91.9451L346.327 91.8734C346.327 91.6057 346.525 91.3845 346.783 91.3495L346.855 91.3447H350.028H346.855ZM356.922 84.9786C357.11 85.1663 357.127 85.46 356.974 85.667L356.922 85.7263L353.418 89.2298H355.667C355.935 89.2298 356.156 89.4287 356.191 89.6867L356.196 89.7585C356.196 90.0262 355.997 90.2474 355.739 90.2824L355.667 90.2872H352.142C351.875 90.2872 351.654 90.0883 351.619 89.8302L351.614 89.7585V86.2337C351.614 85.9417 351.85 85.7049 352.142 85.7049C352.41 85.7049 352.631 85.9038 352.666 86.1619L352.671 86.2337V88.4811L356.175 84.9786C356.381 84.7721 356.716 84.7721 356.922 84.9786Z" fill="white"/>
<rect x="37" y="87" width="93" height="8" rx="4" fill="#666666"/>
<g clip-path="url(#clip1_928_20914)">
<path d="M364 114H38V367.015H364V114Z" fill="#262626"/>
<path opacity="0.675" d="M227.89 235.038L165.902 297.026L137.001 268.125L61.0977 344.029H118.899H212.905H336.88L227.89 235.038Z" fill="white"/>
<path opacity="0.675" d="M118.77 211.173C130.537 211.173 140.077 201.634 140.077 189.866C140.077 178.098 130.537 168.558 118.77 168.558C107.002 168.558 97.4619 178.098 97.4619 189.866C97.4619 201.634 107.002 211.173 118.77 211.173Z" fill="white"/>
</g>
</g>
<defs>
<clipPath id="clip0_928_20914">
<rect width="400" height="300" fill="white"/>
</clipPath>
<clipPath id="clip1_928_20914">
<rect x="38" y="114" width="326" height="253.015" rx="14.4793" fill="white"/>
</clipPath>
</defs>
</svg>
