<svg width="400" height="300" viewBox="0 0 400 300" fill="none" xmlns="http://www.w3.org/2000/svg">
<rect width="400" height="300" fill="#E0E9FF"/>
<rect x="133" y="119" width="133.714" height="62" rx="8.85714" fill="#F01523"/>
<path d="M168.714 159.143C173.606 159.143 177.571 155.177 177.571 150.286C177.571 145.394 173.606 141.429 168.714 141.429C163.822 141.429 159.857 145.394 159.857 150.286C159.857 155.177 163.822 159.143 168.714 159.143ZM168.714 134.786C160.153 134.786 153.214 141.725 153.214 150.286C153.214 158.846 160.153 165.786 168.714 165.786C177.274 165.786 184.214 158.846 184.214 150.286C184.214 141.725 177.274 134.786 168.714 134.786ZM155.428 150.286C155.428 142.948 161.376 137 168.714 137C176.051 137 182 142.948 182 150.286C182 157.623 176.051 163.571 168.714 163.571C161.376 163.571 155.428 157.623 155.428 150.286Z" fill="white"/>
<path d="M196.68 160V140.675H204.304C205.763 140.675 207.009 140.936 208.04 141.459C209.078 141.974 209.868 142.707 210.409 143.657C210.956 144.601 211.23 145.711 211.23 146.988C211.23 148.271 210.953 149.375 210.399 150.3C209.846 151.218 209.044 151.923 207.993 152.414C206.949 152.904 205.685 153.15 204.2 153.15H199.095V149.866H203.539C204.32 149.866 204.967 149.759 205.483 149.545C205.999 149.331 206.383 149.01 206.634 148.583C206.892 148.155 207.021 147.623 207.021 146.988C207.021 146.346 206.892 145.805 206.634 145.365C206.383 144.925 205.996 144.591 205.474 144.365C204.958 144.132 204.307 144.016 203.521 144.016H200.765V160H196.68ZM207.116 151.206L211.919 160H207.408L202.709 151.206H207.116ZM214.117 160V140.675H227.139V144.044H218.203V148.649H226.469V152.017H218.203V156.631H227.176V160H214.117ZM247.438 147.441H243.305C243.229 146.906 243.075 146.431 242.842 146.016C242.61 145.595 242.311 145.236 241.946 144.94C241.581 144.645 241.16 144.418 240.681 144.261C240.21 144.104 239.697 144.025 239.143 144.025C238.143 144.025 237.272 144.274 236.53 144.77C235.787 145.261 235.212 145.978 234.803 146.922C234.394 147.859 234.19 148.998 234.19 150.338C234.19 151.715 234.394 152.873 234.803 153.81C235.218 154.747 235.797 155.455 236.539 155.933C237.281 156.411 238.14 156.65 239.115 156.65C239.662 156.65 240.169 156.578 240.634 156.433C241.106 156.289 241.524 156.078 241.889 155.801C242.254 155.518 242.556 155.175 242.795 154.773C243.04 154.37 243.21 153.911 243.305 153.395L247.438 153.414C247.331 154.301 247.063 155.156 246.635 155.98C246.214 156.798 245.645 157.531 244.928 158.179C244.217 158.821 243.368 159.33 242.38 159.707C241.399 160.079 240.288 160.264 239.049 160.264C237.325 160.264 235.784 159.874 234.425 159.094C233.073 158.314 232.004 157.185 231.217 155.707C230.437 154.228 230.047 152.439 230.047 150.338C230.047 148.23 230.444 146.437 231.236 144.959C232.029 143.481 233.104 142.355 234.463 141.581C235.822 140.801 237.351 140.411 239.049 140.411C240.169 140.411 241.207 140.568 242.163 140.883C243.125 141.197 243.978 141.657 244.72 142.261C245.462 142.858 246.066 143.591 246.532 144.459C247.003 145.327 247.305 146.321 247.438 147.441Z" fill="white"/>
</svg>
