<svg width="400" height="300" viewBox="0 0 400 300" fill="none" xmlns="http://www.w3.org/2000/svg">
<rect width="400" height="300" fill="#E0E9FF"/>
<g filter="url(#filter0_dd_227_4268)">
<rect x="176" y="155" width="48" height="48" rx="4" fill="#2160FD"/>
<path d="M210.667 187C212.133 187 213.333 185.8 213.333 184.333V171C213.333 169.533 212.133 168.333 210.667 168.333H189.333C187.867 168.333 186.667 169.533 186.667 171V184.333C186.667 185.8 187.853 187 189.333 187H185.333C184.6 187 184 187.6 184 188.333C184 189.067 184.6 189.667 185.333 189.667H214.667C215.4 189.667 216 189.067 216 188.333C216 187.6 215.4 187 214.667 187H210.667ZM201.333 182.293V179.373C197.627 179.373 195.187 180.507 193.333 183C194.08 179.44 196.147 175.893 201.333 175.173V172.333L206.147 176.813C206.427 177.08 206.427 177.52 206.147 177.787L201.333 182.293Z" fill="white"/>
<g filter="url(#filter1_d_227_4268)">
<path fill-rule="evenodd" clip-rule="evenodd" d="M211.182 205.998C210.81 205.528 210.358 204.566 209.554 203.399C209.098 202.739 207.967 201.496 207.631 200.864C207.339 200.306 207.37 200.056 207.44 199.594C207.563 198.771 208.406 198.13 209.306 198.217C209.986 198.281 210.562 198.73 211.081 199.155C211.394 199.41 211.779 199.907 212.011 200.187C212.225 200.444 212.277 200.55 212.505 200.854C212.806 201.256 212.901 201.455 212.785 201.012C212.692 200.363 212.54 199.253 212.32 198.272C212.153 197.528 212.112 197.411 211.952 196.84C211.783 196.232 211.697 195.807 211.538 195.162C211.428 194.706 211.231 193.775 211.177 193.251C211.102 192.534 211.063 191.366 211.523 190.829C211.883 190.409 212.709 190.281 213.222 190.541C213.892 190.88 214.273 191.855 214.448 192.244C214.761 192.943 214.955 193.751 215.124 194.812C215.338 196.163 215.734 198.037 215.747 198.432C215.779 197.948 215.658 196.931 215.742 196.467C215.818 196.046 216.172 195.558 216.614 195.425C216.989 195.314 217.428 195.274 217.814 195.353C218.224 195.437 218.656 195.731 218.818 196.007C219.292 196.824 219.301 198.495 219.321 198.406C219.433 197.913 219.414 196.796 219.693 196.331C219.876 196.024 220.344 195.748 220.592 195.703C220.978 195.635 221.45 195.614 221.855 195.693C222.181 195.757 222.623 196.145 222.742 196.331C223.028 196.781 223.19 198.056 223.239 198.502C223.258 198.687 223.335 197.989 223.622 197.538C224.154 196.701 226.037 196.539 226.109 198.375C226.141 199.232 226.135 199.193 226.135 199.769C226.135 200.446 226.119 200.854 226.082 201.344C226.042 201.868 225.929 203.052 225.765 203.626C225.653 204.02 225.279 204.907 224.911 205.438C224.911 205.438 223.504 207.076 223.351 207.813C223.197 208.55 223.248 208.555 223.218 209.077C223.187 209.599 223.376 210.285 223.376 210.285C223.376 210.285 222.326 210.421 221.76 210.331C221.247 210.249 220.613 209.229 220.45 208.918C220.224 208.488 219.744 208.571 219.556 208.888C219.262 209.389 218.628 210.289 218.18 210.345C217.305 210.455 215.489 210.386 214.068 210.372C214.068 210.372 214.31 209.047 213.77 208.593C213.371 208.254 212.683 207.566 212.272 207.204L211.182 205.998Z" fill="white"/>
<path fill-rule="evenodd" clip-rule="evenodd" d="M211.182 205.998C210.81 205.528 210.358 204.566 209.554 203.399C209.098 202.739 207.967 201.496 207.631 200.864C207.339 200.306 207.37 200.056 207.44 199.594C207.563 198.771 208.406 198.13 209.306 198.217C209.986 198.281 210.562 198.73 211.081 199.155C211.394 199.41 211.779 199.907 212.011 200.187C212.225 200.444 212.277 200.55 212.505 200.854C212.806 201.256 212.901 201.455 212.785 201.012C212.692 200.363 212.54 199.253 212.32 198.272C212.153 197.528 212.112 197.411 211.952 196.84C211.783 196.232 211.697 195.807 211.538 195.162C211.428 194.706 211.231 193.775 211.177 193.251C211.102 192.534 211.063 191.366 211.523 190.829C211.883 190.409 212.709 190.281 213.222 190.541C213.892 190.88 214.273 191.855 214.448 192.244C214.761 192.943 214.955 193.751 215.124 194.812C215.338 196.163 215.734 198.037 215.747 198.432C215.779 197.948 215.658 196.931 215.742 196.467C215.818 196.046 216.172 195.558 216.614 195.425C216.989 195.314 217.428 195.274 217.814 195.353C218.224 195.437 218.656 195.731 218.818 196.007C219.292 196.824 219.301 198.495 219.321 198.406C219.433 197.913 219.414 196.796 219.693 196.331C219.876 196.024 220.344 195.748 220.592 195.703C220.978 195.635 221.45 195.614 221.855 195.693C222.181 195.757 222.623 196.145 222.742 196.331C223.028 196.781 223.19 198.056 223.239 198.502C223.258 198.687 223.335 197.989 223.622 197.538C224.154 196.701 226.037 196.539 226.109 198.375C226.141 199.232 226.135 199.193 226.135 199.769C226.135 200.446 226.119 200.854 226.082 201.344C226.042 201.868 225.929 203.052 225.765 203.626C225.653 204.02 225.279 204.907 224.911 205.438C224.911 205.438 223.504 207.076 223.351 207.813C223.197 208.55 223.248 208.555 223.218 209.077C223.187 209.599 223.376 210.285 223.376 210.285C223.376 210.285 222.326 210.421 221.76 210.331C221.247 210.249 220.613 209.229 220.45 208.918C220.224 208.488 219.744 208.571 219.556 208.888C219.262 209.389 218.628 210.289 218.18 210.345C217.305 210.455 215.489 210.386 214.068 210.372C214.068 210.372 214.31 209.047 213.77 208.593C213.371 208.254 212.683 207.566 212.272 207.204L211.182 205.998Z" stroke="black" stroke-width="0.75" stroke-linecap="round" stroke-linejoin="round"/>
<path d="M221.969 206.462V201.931" stroke="black" stroke-width="0.75" stroke-linecap="round"/>
<path d="M219.329 206.478L219.308 201.928" stroke="black" stroke-width="0.75" stroke-linecap="round"/>
<path d="M216.714 201.97L216.742 206.457" stroke="black" stroke-width="0.75" stroke-linecap="round"/>
</g>
</g>
<rect x="107" y="98" width="186" height="50" rx="4" fill="#191919"/>
<rect x="123" y="117" width="82" height="12" rx="6" fill="#474747"/>
<rect x="221" y="106" width="56" height="34" rx="2" fill="#474747"/>
<path d="M239.4 128.2C239.4 128.754 239.564 129.295 239.872 129.756C240.18 130.216 240.617 130.575 241.128 130.787C241.64 130.999 242.203 131.054 242.746 130.946C243.289 130.838 243.788 130.571 244.18 130.18C244.571 129.788 244.838 129.289 244.946 128.746C245.054 128.203 244.999 127.64 244.787 127.128C244.575 126.617 244.216 126.18 243.756 125.872C243.295 125.564 242.754 125.4 242.2 125.4H231.8C231.246 125.4 230.705 125.564 230.244 125.872C229.784 126.18 229.425 126.617 229.213 127.128C229.001 127.64 228.946 128.203 229.054 128.746C229.162 129.289 229.429 129.788 229.82 130.18C230.212 130.571 230.711 130.838 231.254 130.946C231.797 131.054 232.36 130.999 232.872 130.787C233.383 130.575 233.82 130.216 234.128 129.756C234.436 129.295 234.6 128.754 234.6 128.2V117.8C234.6 117.246 234.436 116.705 234.128 116.244C233.82 115.784 233.383 115.425 232.872 115.213C232.36 115.001 231.797 114.946 231.254 115.054C230.711 115.162 230.212 115.429 229.82 115.82C229.429 116.212 229.162 116.711 229.054 117.254C228.946 117.797 229.001 118.36 229.213 118.872C229.425 119.383 229.784 119.82 230.244 120.128C230.705 120.436 231.246 120.6 231.8 120.6H242.2C242.754 120.6 243.295 120.436 243.756 120.128C244.216 119.82 244.575 119.383 244.787 118.872C244.999 118.36 245.054 117.797 244.946 117.254C244.838 116.711 244.571 116.212 244.18 115.82C243.788 115.429 243.289 115.162 242.746 115.054C242.203 114.946 241.64 115.001 241.128 115.213C240.617 115.425 240.18 115.784 239.872 116.244C239.564 116.705 239.4 117.246 239.4 117.8V128.2Z" stroke="#999999" stroke-width="2"/>
<path d="M259.25 131.5H253.864V114.045H259.489C261.182 114.045 262.631 114.395 263.835 115.094C265.04 115.787 265.963 116.784 266.605 118.085C267.247 119.381 267.568 120.932 267.568 122.739C267.568 124.557 267.244 126.122 266.597 127.435C265.949 128.741 265.006 129.747 263.767 130.452C262.528 131.151 261.023 131.5 259.25 131.5ZM255.977 129.625H259.114C260.557 129.625 261.753 129.347 262.702 128.79C263.651 128.233 264.358 127.44 264.824 126.412C265.29 125.384 265.523 124.159 265.523 122.739C265.523 121.33 265.293 120.116 264.832 119.099C264.372 118.077 263.685 117.293 262.77 116.747C261.855 116.196 260.716 115.92 259.352 115.92H255.977V129.625Z" fill="#999999"/>
<defs>
<filter id="filter0_dd_227_4268" x="172.4" y="153" width="58.9061" height="64.2" filterUnits="userSpaceOnUse" color-interpolation-filters="sRGB">
<feFlood flood-opacity="0" result="BackgroundImageFix"/>
<feColorMatrix in="SourceAlpha" type="matrix" values="0 0 0 0 0 0 0 0 0 0 0 0 0 0 0 0 0 0 127 0" result="hardAlpha"/>
<feOffset dy="1.6"/>
<feGaussianBlur stdDeviation="1.8"/>
<feColorMatrix type="matrix" values="0 0 0 0 0 0 0 0 0 0 0 0 0 0 0 0 0 0 0.28 0"/>
<feBlend mode="normal" in2="BackgroundImageFix" result="effect1_dropShadow_227_4268"/>
<feColorMatrix in="SourceAlpha" type="matrix" values="0 0 0 0 0 0 0 0 0 0 0 0 0 0 0 0 0 0 127 0" result="hardAlpha"/>
<feOffset dy="0.3"/>
<feGaussianBlur stdDeviation="0.45"/>
<feColorMatrix type="matrix" values="0 0 0 0 0 0 0 0 0 0 0 0 0 0 0 0 0 0 0.32 0"/>
<feBlend mode="normal" in2="effect1_dropShadow_227_4268" result="effect2_dropShadow_227_4268"/>
<feBlend mode="normal" in="SourceGraphic" in2="effect2_dropShadow_227_4268" result="shape"/>
</filter>
<filter id="filter1_d_227_4268" x="204.4" y="188.4" width="25.9061" height="27.2" filterUnits="userSpaceOnUse" color-interpolation-filters="sRGB">
<feFlood flood-opacity="0" result="BackgroundImageFix"/>
<feColorMatrix in="SourceAlpha" type="matrix" values="0 0 0 0 0 0 0 0 0 0 0 0 0 0 0 0 0 0 127 0" result="hardAlpha"/>
<feOffset dy="1"/>
<feGaussianBlur stdDeviation="1.3"/>
<feColorMatrix type="matrix" values="0 0 0 0 0 0 0 0 0 0 0 0 0 0 0 0 0 0 0.32 0"/>
<feBlend mode="normal" in2="BackgroundImageFix" result="effect1_dropShadow_227_4268"/>
<feBlend mode="normal" in="SourceGraphic" in2="effect1_dropShadow_227_4268" result="shape"/>
</filter>
</defs>
</svg>
