<svg width="400" height="300" viewBox="0 0 400 300" fill="none" xmlns="http://www.w3.org/2000/svg">
<rect width="400" height="300" fill="#E0E9FF"/>
<rect x="111" y="118" width="178" height="64" rx="4" fill="#2160FD"/>
<rect x="143" y="140" width="114" height="18" rx="6" fill="#DDDDDD"/>
<g filter="url(#filter0_d_227_4191)">
<path fill-rule="evenodd" clip-rule="evenodd" d="M278.698 195.234C278.177 194.576 277.544 193.23 276.418 191.596C275.78 190.672 274.197 188.931 273.726 188.047C273.317 187.266 273.361 186.916 273.458 186.269C273.631 185.117 274.812 184.22 276.072 184.341C277.023 184.431 277.83 185.06 278.557 185.654C278.995 186.012 279.534 186.707 279.859 187.099C280.158 187.459 280.231 187.607 280.55 188.033C280.972 188.596 281.104 188.874 280.942 188.255C280.812 187.345 280.6 185.792 280.291 184.418C280.057 183.376 280 183.213 279.776 182.414C279.54 181.563 279.419 180.967 279.197 180.064C279.043 179.426 278.766 178.122 278.69 177.389C278.586 176.386 278.531 174.75 279.175 173.998C279.679 173.409 280.836 173.231 281.553 173.595C282.492 174.07 283.026 175.434 283.27 175.979C283.708 176.958 283.979 178.089 284.216 179.575C284.517 181.466 285.071 184.09 285.089 184.642C285.133 183.965 284.964 182.54 285.082 181.891C285.188 181.302 285.683 180.618 286.303 180.433C286.827 180.277 287.442 180.22 287.983 180.332C288.557 180.45 289.162 180.86 289.388 181.247C290.051 182.392 290.064 184.73 290.092 184.605C290.249 183.916 290.222 182.351 290.613 181.7C290.869 181.271 291.524 180.884 291.872 180.822C292.412 180.727 293.074 180.697 293.64 180.807C294.097 180.897 294.715 181.44 294.882 181.7C295.282 182.331 295.509 184.116 295.577 184.741C295.604 184.999 295.713 184.022 296.114 183.391C296.859 182.219 299.494 181.992 299.595 184.563C299.641 185.762 299.632 185.707 299.632 186.514C299.632 187.462 299.61 188.033 299.558 188.719C299.501 189.452 299.344 191.11 299.114 191.913C298.957 192.465 298.434 193.707 297.919 194.451C297.919 194.451 295.949 196.744 295.735 197.776C295.518 198.807 295.59 198.814 295.548 199.546C295.505 200.276 295.769 201.237 295.769 201.237C295.769 201.237 294.299 201.427 293.506 201.301C292.789 201.185 291.902 199.759 291.673 199.322C291.357 198.721 290.684 198.836 290.422 199.28C290.009 199.982 289.122 201.242 288.494 201.321C287.269 201.475 284.728 201.378 282.738 201.358C282.738 201.358 283.077 199.504 282.322 198.867C281.762 198.392 280.799 197.43 280.224 196.923L278.698 195.234Z" fill="white"/>
<path fill-rule="evenodd" clip-rule="evenodd" d="M278.698 195.234C278.177 194.576 277.544 193.23 276.418 191.596C275.78 190.672 274.197 188.931 273.726 188.047C273.317 187.266 273.361 186.916 273.458 186.269C273.631 185.117 274.812 184.22 276.072 184.341C277.023 184.431 277.83 185.06 278.557 185.654C278.995 186.012 279.534 186.707 279.859 187.099C280.158 187.459 280.231 187.607 280.55 188.033C280.972 188.596 281.104 188.874 280.942 188.255C280.812 187.345 280.6 185.792 280.291 184.418C280.057 183.376 280 183.213 279.776 182.414C279.54 181.563 279.419 180.967 279.197 180.064C279.043 179.426 278.766 178.122 278.69 177.389C278.586 176.386 278.531 174.75 279.175 173.998C279.679 173.409 280.836 173.231 281.553 173.595C282.492 174.07 283.026 175.434 283.27 175.979C283.708 176.958 283.979 178.089 284.216 179.575C284.517 181.466 285.071 184.09 285.089 184.642C285.133 183.965 284.964 182.54 285.082 181.891C285.188 181.302 285.683 180.618 286.303 180.433C286.827 180.277 287.442 180.22 287.983 180.332C288.557 180.45 289.162 180.86 289.388 181.247C290.051 182.392 290.064 184.73 290.092 184.605C290.249 183.916 290.222 182.351 290.613 181.7C290.869 181.271 291.524 180.884 291.872 180.822C292.412 180.727 293.074 180.697 293.64 180.807C294.097 180.897 294.715 181.44 294.882 181.7C295.282 182.331 295.509 184.116 295.577 184.741C295.604 184.999 295.713 184.022 296.114 183.391C296.859 182.219 299.494 181.992 299.595 184.563C299.641 185.762 299.632 185.707 299.632 186.514C299.632 187.462 299.61 188.033 299.558 188.719C299.501 189.452 299.344 191.11 299.114 191.913C298.957 192.465 298.434 193.707 297.919 194.451C297.919 194.451 295.949 196.744 295.735 197.776C295.518 198.807 295.59 198.814 295.548 199.546C295.505 200.276 295.769 201.237 295.769 201.237C295.769 201.237 294.299 201.427 293.506 201.301C292.789 201.185 291.902 199.759 291.673 199.322C291.357 198.721 290.684 198.836 290.422 199.28C290.009 199.982 289.122 201.242 288.494 201.321C287.269 201.475 284.728 201.378 282.738 201.358C282.738 201.358 283.077 199.504 282.322 198.867C281.762 198.392 280.799 197.43 280.224 196.923L278.698 195.234Z" stroke="black" stroke-width="0.75" stroke-linecap="round" stroke-linejoin="round"/>
<path d="M293.8 195.884V189.541" stroke="black" stroke-width="0.75" stroke-linecap="round"/>
<path d="M290.103 195.906L290.074 189.537" stroke="black" stroke-width="0.75" stroke-linecap="round"/>
<path d="M286.443 189.595L286.482 195.878" stroke="black" stroke-width="0.75" stroke-linecap="round"/>
</g>
<defs>
<filter id="filter0_d_227_4191" x="270.4" y="171.4" width="35.3177" height="37.2" filterUnits="userSpaceOnUse" color-interpolation-filters="sRGB">
<feFlood flood-opacity="0" result="BackgroundImageFix"/>
<feColorMatrix in="SourceAlpha" type="matrix" values="0 0 0 0 0 0 0 0 0 0 0 0 0 0 0 0 0 0 127 0" result="hardAlpha"/>
<feOffset dy="1"/>
<feGaussianBlur stdDeviation="1.3"/>
<feColorMatrix type="matrix" values="0 0 0 0 0 0 0 0 0 0 0 0 0 0 0 0 0 0 0.32 0"/>
<feBlend mode="normal" in2="BackgroundImageFix" result="effect1_dropShadow_227_4191"/>
<feBlend mode="normal" in="SourceGraphic" in2="effect1_dropShadow_227_4191" result="shape"/>
</filter>
</defs>
</svg>
