<svg width="400" height="300" viewBox="0 0 400 300" fill="none" xmlns="http://www.w3.org/2000/svg">
<rect width="400" height="300" fill="#E0E9FF"/>
<g clip-path="url(#clip0_238_5213)">
<path d="M290.119 80H110V219.794H290.119V80Z" fill="#262626"/>
<path opacity="0.675" d="M214.916 146.875L180.667 181.124L164.699 165.156L122.762 207.094H154.698H206.637H275.135L214.916 146.875Z" fill="white"/>
<path opacity="0.675" d="M154.626 133.689C161.128 133.689 166.399 128.419 166.399 121.917C166.399 115.415 161.128 110.144 154.626 110.144C148.124 110.144 142.854 115.415 142.854 121.917C142.854 128.419 148.124 133.689 154.626 133.689Z" fill="white"/>
<rect x="213.5" y="87.5" width="71" height="22" rx="11" fill="#2160FD" fill-opacity="0.5"/>
<path d="M225.256 94.7273H226.264L228.281 98.1222H228.366L230.384 94.7273H231.392L228.764 99.0028V102H227.884V99.0028L225.256 94.7273ZM233.862 102.114C233.369 102.114 232.937 101.996 232.566 101.762C232.196 101.528 231.908 101.2 231.699 100.778C231.493 100.357 231.39 99.8646 231.39 99.3011C231.39 98.733 231.493 98.237 231.699 97.8132C231.908 97.3894 232.196 97.0604 232.566 96.826C232.937 96.5916 233.369 96.4744 233.862 96.4744C234.354 96.4744 234.785 96.5916 235.154 96.826C235.526 97.0604 235.815 97.3894 236.021 97.8132C236.229 98.237 236.333 98.733 236.333 99.3011C236.333 99.8646 236.229 100.357 236.021 100.778C235.815 101.2 235.526 101.528 235.154 101.762C234.785 101.996 234.354 102.114 233.862 102.114ZM233.862 101.361C234.236 101.361 234.544 101.265 234.785 101.073C235.027 100.881 235.205 100.629 235.321 100.317C235.437 100.004 235.495 99.6657 235.495 99.3011C235.495 98.9366 235.437 98.5968 235.321 98.282C235.205 97.9671 235.027 97.7126 234.785 97.5185C234.544 97.3243 234.236 97.2273 233.862 97.2273C233.488 97.2273 233.18 97.3243 232.939 97.5185C232.697 97.7126 232.518 97.9671 232.402 98.282C232.286 98.5968 232.228 98.9366 232.228 99.3011C232.228 99.6657 232.286 100.004 232.402 100.317C232.518 100.629 232.697 100.881 232.939 101.073C233.18 101.265 233.488 101.361 233.862 101.361ZM241.05 99.7699V96.5455H241.888V102H241.05V101.077H240.993C240.866 101.354 240.667 101.589 240.397 101.783C240.127 101.975 239.786 102.071 239.374 102.071C239.033 102.071 238.73 101.996 238.465 101.847C238.2 101.696 237.992 101.469 237.84 101.165C237.689 100.86 237.613 100.475 237.613 100.011V96.5455H238.451V99.9545C238.451 100.352 238.562 100.67 238.785 100.906C239.01 101.143 239.296 101.261 239.644 101.261C239.852 101.261 240.064 101.208 240.28 101.102C240.497 100.995 240.68 100.832 240.827 100.612C240.976 100.391 241.05 100.111 241.05 99.7699ZM243.423 102V96.5455H244.233V97.3693H244.29C244.389 97.0994 244.569 96.8804 244.83 96.7124C245.09 96.5443 245.384 96.4602 245.71 96.4602C245.772 96.4602 245.849 96.4614 245.941 96.4638C246.033 96.4661 246.103 96.4697 246.151 96.4744V97.3267C246.122 97.3196 246.057 97.3089 245.955 97.2947C245.856 97.2782 245.75 97.2699 245.639 97.2699C245.374 97.2699 245.137 97.3255 244.929 97.4368C244.723 97.5457 244.56 97.6972 244.439 97.8913C244.321 98.0831 244.261 98.3021 244.261 98.5483V102H243.423ZM250.07 102V94.7273H250.951V101.219H254.331V102H250.07ZM257.797 102.114C257.305 102.114 256.873 101.996 256.501 101.762C256.132 101.528 255.843 101.2 255.635 100.778C255.429 100.357 255.326 99.8646 255.326 99.3011C255.326 98.733 255.429 98.237 255.635 97.8132C255.843 97.3894 256.132 97.0604 256.501 96.826C256.873 96.5916 257.305 96.4744 257.797 96.4744C258.29 96.4744 258.721 96.5916 259.09 96.826C259.462 97.0604 259.751 97.3894 259.956 97.8132C260.165 98.237 260.269 98.733 260.269 99.3011C260.269 99.8646 260.165 100.357 259.956 100.778C259.751 101.2 259.462 101.528 259.09 101.762C258.721 101.996 258.29 102.114 257.797 102.114ZM257.797 101.361C258.171 101.361 258.479 101.265 258.721 101.073C258.962 100.881 259.141 100.629 259.257 100.317C259.373 100.004 259.431 99.6657 259.431 99.3011C259.431 98.9366 259.373 98.5968 259.257 98.282C259.141 97.9671 258.962 97.7126 258.721 97.5185C258.479 97.3243 258.171 97.2273 257.797 97.2273C257.423 97.2273 257.116 97.3243 256.874 97.5185C256.633 97.7126 256.454 97.9671 256.338 98.282C256.222 98.5968 256.164 98.9366 256.164 99.3011C256.164 99.6657 256.222 100.004 256.338 100.317C256.454 100.629 256.633 100.881 256.874 101.073C257.116 101.265 257.423 101.361 257.797 101.361ZM263.75 104.159C263.345 104.159 262.997 104.107 262.706 104.003C262.415 103.901 262.172 103.766 261.978 103.598C261.786 103.432 261.634 103.255 261.52 103.065L262.188 102.597C262.263 102.696 262.359 102.81 262.475 102.938C262.591 103.068 262.75 103.18 262.951 103.275C263.155 103.372 263.421 103.42 263.75 103.42C264.19 103.42 264.554 103.314 264.84 103.101C265.127 102.888 265.27 102.554 265.27 102.099V100.991H265.199C265.137 101.091 265.05 101.214 264.936 101.361C264.825 101.505 264.664 101.634 264.453 101.748C264.245 101.859 263.963 101.915 263.608 101.915C263.168 101.915 262.772 101.811 262.422 101.602C262.074 101.394 261.798 101.091 261.594 100.693C261.393 100.295 261.293 99.8125 261.293 99.2443C261.293 98.6856 261.391 98.1991 261.587 97.7848C261.784 97.3681 262.057 97.0462 262.408 96.8189C262.758 96.5893 263.163 96.4744 263.622 96.4744C263.977 96.4744 264.259 96.5336 264.467 96.652C264.678 96.768 264.839 96.9006 264.95 97.0497C265.064 97.1965 265.152 97.3172 265.213 97.4119H265.298V96.5455H266.108V102.156C266.108 102.625 266.001 103.006 265.788 103.3C265.578 103.596 265.294 103.812 264.936 103.95C264.581 104.089 264.186 104.159 263.75 104.159ZM263.722 101.162C264.058 101.162 264.342 101.085 264.574 100.931C264.806 100.777 264.982 100.556 265.103 100.267C265.224 99.9782 265.284 99.6326 265.284 99.2301C265.284 98.8371 265.225 98.4903 265.107 98.1896C264.988 97.889 264.813 97.6534 264.581 97.483C264.349 97.3125 264.063 97.2273 263.722 97.2273C263.366 97.2273 263.071 97.3172 262.834 97.4972C262.599 97.6771 262.423 97.9186 262.305 98.2216C262.189 98.5246 262.131 98.8608 262.131 99.2301C262.131 99.6089 262.19 99.9439 262.308 100.235C262.429 100.524 262.607 100.751 262.841 100.917C263.078 101.08 263.371 101.162 263.722 101.162ZM269.858 102.114C269.366 102.114 268.933 101.996 268.562 101.762C268.192 101.528 267.904 101.2 267.695 100.778C267.489 100.357 267.386 99.8646 267.386 99.3011C267.386 98.733 267.489 98.237 267.695 97.8132C267.904 97.3894 268.192 97.0604 268.562 96.826C268.933 96.5916 269.366 96.4744 269.858 96.4744C270.35 96.4744 270.781 96.5916 271.151 96.826C271.522 97.0604 271.811 97.3894 272.017 97.8132C272.225 98.237 272.33 98.733 272.33 99.3011C272.33 99.8646 272.225 100.357 272.017 100.778C271.811 101.2 271.522 101.528 271.151 101.762C270.781 101.996 270.35 102.114 269.858 102.114ZM269.858 101.361C270.232 101.361 270.54 101.265 270.781 101.073C271.023 100.881 271.201 100.629 271.317 100.317C271.433 100.004 271.491 99.6657 271.491 99.3011C271.491 98.9366 271.433 98.5968 271.317 98.282C271.201 97.9671 271.023 97.7126 270.781 97.5185C270.54 97.3243 270.232 97.2273 269.858 97.2273C269.484 97.2273 269.176 97.3243 268.935 97.5185C268.693 97.7126 268.514 97.9671 268.398 98.282C268.282 98.5968 268.224 98.9366 268.224 99.3011C268.224 99.6657 268.282 100.004 268.398 100.317C268.514 100.629 268.693 100.881 268.935 101.073C269.176 101.265 269.484 101.361 269.858 101.361Z" fill="white"/>
<rect x="213.5" y="87.5" width="71" height="22" rx="11" stroke="#2160FD"/>
</g>
<defs>
<clipPath id="clip0_238_5213">
<rect x="110" y="80" width="180.119" height="139.794" rx="8" fill="white"/>
</clipPath>
</defs>
</svg>
