<svg width="400" height="300" viewBox="0 0 400 300" fill="none" xmlns="http://www.w3.org/2000/svg">
<rect width="400" height="300" fill="#E0E9FF"/>
<rect x="19" y="30" width="362" height="239" rx="8" fill="#050505"/>
<path d="M175.556 138.955H184.445V147.844H175.556V138.955Z" fill="#2160FD"/>
<path d="M180 125.659C179.633 125.634 179.263 125.622 178.889 125.622C169.685 125.622 162.223 133.084 162.223 142.289C162.223 142.662 162.235 143.032 162.259 143.399H173.334V136.732H180V125.659Z" fill="#2160FD"/>
<path d="M188.889 137.179C188.889 135.937 189.131 134.835 189.615 133.874C190.114 132.913 190.788 132.174 191.639 131.656C192.49 131.139 193.436 130.88 194.477 130.88C195.27 130.88 196.025 131.057 196.744 131.412C197.463 131.752 198.035 132.211 198.46 132.787V126.955H201.585V143.366H198.46V141.548C198.079 142.154 197.543 142.642 196.854 143.011C196.164 143.381 195.365 143.566 194.455 143.566C193.429 143.566 192.49 143.3 191.639 142.767C190.788 142.235 190.114 141.488 189.615 140.527C189.131 139.552 188.889 138.435 188.889 137.179ZM198.482 137.223C198.482 136.469 198.335 135.826 198.042 135.293C197.749 134.746 197.353 134.332 196.854 134.052C196.355 133.756 195.82 133.608 195.248 133.608C194.676 133.608 194.147 133.748 193.663 134.029C193.179 134.31 192.783 134.724 192.475 135.271C192.182 135.804 192.035 136.439 192.035 137.179C192.035 137.918 192.182 138.568 192.475 139.13C192.783 139.677 193.179 140.099 193.663 140.394C194.162 140.69 194.69 140.838 195.248 140.838C195.82 140.838 196.355 140.697 196.854 140.417C197.353 140.121 197.749 139.707 198.042 139.175C198.335 138.628 198.482 137.977 198.482 137.223Z" fill="white"/>
<path d="M216.255 131.08L208.708 149.177H205.429L208.07 143.056L203.185 131.08H206.639L209.786 139.663L212.976 131.08H216.255Z" fill="white"/>
<path d="M221.502 133.63V139.574C221.502 139.988 221.597 140.291 221.788 140.483C221.993 140.661 222.331 140.749 222.8 140.749H224.23V143.366H222.294C219.698 143.366 218.399 142.095 218.399 139.552V133.63H216.947V131.08H218.399V128.041H221.502V131.08H224.23V133.63H221.502Z" fill="white"/>
<path d="M237.778 136.957C237.778 137.4 237.748 137.8 237.69 138.154H228.778C228.852 139.042 229.16 139.736 229.702 140.239C230.245 140.742 230.913 140.993 231.705 140.993C232.849 140.993 233.663 140.498 234.147 139.507H237.47C237.117 140.69 236.443 141.666 235.445 142.435C234.448 143.189 233.223 143.566 231.771 143.566C230.597 143.566 229.541 143.307 228.602 142.79C227.678 142.257 226.952 141.511 226.424 140.55C225.91 139.589 225.654 138.48 225.654 137.223C225.654 135.951 225.91 134.835 226.424 133.874C226.937 132.913 227.656 132.174 228.58 131.656C229.504 131.139 230.568 130.88 231.771 130.88C232.93 130.88 233.964 131.131 234.873 131.634C235.797 132.137 236.509 132.854 237.007 133.785C237.521 134.702 237.778 135.759 237.778 136.957ZM234.587 136.07C234.572 135.271 234.286 134.636 233.729 134.162C233.172 133.674 232.489 133.431 231.683 133.431C230.92 133.431 230.274 133.667 229.746 134.14C229.233 134.599 228.918 135.242 228.8 136.07H234.587Z" fill="white"/>
<path fill-rule="evenodd" clip-rule="evenodd" d="M200 177.062C203.9 177.062 207.062 173.9 207.062 170C207.062 166.1 203.9 162.938 200 162.938C196.1 162.938 192.938 166.1 192.938 170C192.938 173.9 196.1 177.062 200 177.062ZM200 179C204.97 179 209 174.97 209 170C209 165.03 204.97 161 200 161C195.029 161 191 165.03 191 170C191 174.97 195.029 179 200 179Z" fill="#333333"/>
<path fill-rule="evenodd" clip-rule="evenodd" d="M200 162.936C201.561 162.936 203.078 163.453 204.314 164.406C205.55 165.359 206.436 166.695 206.833 168.205C207.229 169.714 207.115 171.313 206.507 172.751C205.899 174.189 204.832 175.385 203.473 176.152C202.113 176.919 200.538 177.215 198.993 176.992C197.448 176.77 196.02 176.042 194.932 174.922C193.845 173.802 193.159 172.354 192.981 170.803C192.804 169.252 193.145 167.686 193.952 166.35L192.295 165.349C191.956 165.911 191.681 166.504 191.474 167.118C191.052 168.366 190.907 169.698 191.058 171.023C191.284 172.999 192.158 174.844 193.544 176.27C194.929 177.697 196.749 178.624 198.717 178.908C200.685 179.192 202.692 178.815 204.424 177.837C206.156 176.86 207.515 175.336 208.29 173.505C209.064 171.673 209.21 169.636 208.705 167.713C208.199 165.789 207.071 164.088 205.496 162.873C204.441 162.059 203.225 161.495 201.938 161.211C201.306 161.072 200.656 161 200 161V162.936Z" fill="#2160FD"/>
</svg>
