<svg width="400" height="300" viewBox="0 0 400 300" fill="none" xmlns="http://www.w3.org/2000/svg">
<rect width="400" height="300" fill="#E0E9FF"/>
<rect x="19" y="31" width="362" height="239" rx="8" fill="#050505"/>
<g clip-path="url(#clip0_928_21372)">
<rect x="279" y="37" width="96.3333" height="72.25" rx="2.89" fill="#1E1E1E"/>
<path d="M370.255 43.7228C369.856 43.7228 369.532 43.3994 369.532 43.0003C369.532 42.6013 369.856 42.2778 370.255 42.2778C370.654 42.2778 370.977 42.6013 370.977 43.0003C370.977 43.3994 370.654 43.7228 370.255 43.7228ZM370.255 46.6128C369.856 46.6128 369.532 46.2894 369.532 45.8903C369.532 45.4913 369.856 45.1678 370.255 45.1678C370.654 45.1678 370.977 45.4913 370.977 45.8903C370.977 46.2894 370.654 46.6128 370.255 46.6128ZM369.532 48.7803C369.532 49.1794 369.856 49.5028 370.255 49.5028C370.654 49.5028 370.977 49.1794 370.977 48.7803C370.977 48.3813 370.654 48.0578 370.255 48.0578C369.856 48.0578 369.532 48.3813 369.532 48.7803Z" fill="#999999"/>
<rect x="291.765" y="101.945" width="22.4778" height="2.80971" rx="1.40486" fill="#474747"/>
</g>
<g clip-path="url(#clip1_928_21372)">
<rect x="279" y="115.03" width="96.3333" height="72.25" rx="2.89" fill="#1E1E1E"/>
<path d="M370.255 121.753C369.856 121.753 369.532 121.429 369.532 121.03C369.532 120.631 369.856 120.308 370.255 120.308C370.654 120.308 370.977 120.631 370.977 121.03C370.977 121.429 370.654 121.753 370.255 121.753ZM370.255 124.643C369.856 124.643 369.532 124.319 369.532 123.92C369.532 123.521 369.856 123.198 370.255 123.198C370.654 123.198 370.977 123.521 370.977 123.92C370.977 124.319 370.654 124.643 370.255 124.643ZM369.532 126.81C369.532 127.209 369.856 127.533 370.255 127.533C370.654 127.533 370.977 127.209 370.977 126.81C370.977 126.411 370.654 126.088 370.255 126.088C369.856 126.088 369.532 126.411 369.532 126.81Z" fill="#999999"/>
<rect x="291.765" y="179.975" width="22.4778" height="2.80971" rx="1.40486" fill="#474747"/>
</g>
<g clip-path="url(#clip2_928_21372)">
<rect x="279" y="193.06" width="96.3333" height="72.25" rx="2.89" fill="#1E1E1E"/>
<path d="M370.255 199.783C369.856 199.783 369.532 199.459 369.532 199.06C369.532 198.661 369.856 198.338 370.255 198.338C370.654 198.338 370.977 198.661 370.977 199.06C370.977 199.459 370.654 199.783 370.255 199.783ZM370.255 202.673C369.856 202.673 369.532 202.349 369.532 201.95C369.532 201.551 369.856 201.228 370.255 201.228C370.654 201.228 370.977 201.551 370.977 201.95C370.977 202.349 370.654 202.673 370.255 202.673ZM369.532 204.84C369.532 205.239 369.856 205.563 370.255 205.563C370.654 205.563 370.977 205.239 370.977 204.84C370.977 204.441 370.654 204.118 370.255 204.118C369.856 204.118 369.532 204.441 369.532 204.84Z" fill="#999999"/>
<rect x="291.765" y="258.005" width="22.4778" height="2.80971" rx="1.40486" fill="#474747"/>
</g>
<g clip-path="url(#clip3_928_21372)">
<rect x="25" y="58" width="246.667" height="185" rx="7.4" fill="#1E1E1E"/>
<path d="M266 65.8327C265.601 65.8327 265.277 65.5092 265.277 65.1102C265.277 64.7112 265.601 64.3877 266 64.3877C266.399 64.3877 266.722 64.7112 266.722 65.1102C266.722 65.5092 266.399 65.8327 266 65.8327ZM266 68.7227C265.601 68.7227 265.277 68.3992 265.277 68.0002C265.277 67.6012 265.601 67.2777 266 67.2777C266.399 67.2777 266.722 67.6012 266.722 68.0002C266.722 68.3992 266.399 68.7227 266 68.7227ZM265.277 70.8902C265.277 71.2892 265.601 71.6127 266 71.6127C266.399 71.6127 266.722 71.2892 266.722 70.8902C266.722 70.4912 266.399 70.1677 266 70.1677C265.601 70.1677 265.277 70.4912 265.277 70.8902Z" fill="#999999"/>
<rect x="32.7852" y="235" width="22.4778" height="2.80971" rx="1.40486" fill="#474747"/>
</g>
<defs>
<clipPath id="clip0_928_21372">
<rect x="279" y="37" width="96.3333" height="72.25" rx="2.89" fill="white"/>
</clipPath>
<clipPath id="clip1_928_21372">
<rect x="279" y="115.03" width="96.3333" height="72.25" rx="2.89" fill="white"/>
</clipPath>
<clipPath id="clip2_928_21372">
<rect x="279" y="193.06" width="96.3333" height="72.25" rx="2.89" fill="white"/>
</clipPath>
<clipPath id="clip3_928_21372">
<rect x="25" y="58" width="246.667" height="185" rx="7.4" fill="white"/>
</clipPath>
</defs>
</svg>
