<svg width="400" height="300" viewBox="0 0 400 300" fill="none" xmlns="http://www.w3.org/2000/svg">
<rect width="400" height="300" fill="#E0E9FF"/>
<path d="M53 0H400V247H65C58.3726 247 53 241.627 53 235V0Z" fill="#262626"/>
<g filter="url(#filter0_i_231_4970)">
<path d="M87 168.894C87 166.191 89.239 164 92 164H361C363.761 164 366 166.191 366 168.894V205.106C366 207.809 363.761 210 361 210H92C89.239 210 87 207.809 87 205.106V168.894Z" fill="#474747"/>
</g>
<path fill-rule="evenodd" clip-rule="evenodd" d="M102 187.001C102 184.516 104.015 182.501 106.5 182.501H227.5C229.985 182.501 232 184.516 232 187.001C232 189.486 229.985 191.501 227.5 191.501H106.5C104.015 191.501 102 189.486 102 187.001Z" fill="#999999"/>
<path d="M335.291 193.294C335.104 193.481 334.998 193.736 334.999 194.001C334.999 194.266 335.104 194.52 335.292 194.708C335.479 194.895 335.734 195.001 335.999 195.001C336.264 195.001 336.518 194.895 336.706 194.708L342.881 188.534C342.896 188.518 342.914 188.506 342.935 188.497C342.955 188.489 342.977 188.485 342.999 188.485C343.021 188.485 343.042 188.489 343.062 188.497C343.083 188.506 343.101 188.518 343.117 188.534L349.291 194.709C349.384 194.802 349.494 194.875 349.616 194.926C349.737 194.976 349.867 195.002 349.998 195.002C350.13 195.002 350.26 194.976 350.381 194.926C350.502 194.876 350.613 194.802 350.706 194.709C350.799 194.616 350.872 194.506 350.922 194.385C350.973 194.263 350.999 194.133 350.999 194.002C350.999 193.871 350.973 193.741 350.923 193.619C350.872 193.498 350.799 193.388 350.706 193.295L344.532 187.118C344.516 187.103 344.504 187.084 344.496 187.064C344.487 187.044 344.483 187.022 344.483 187C344.483 186.978 344.487 186.957 344.496 186.936C344.504 186.916 344.516 186.898 344.532 186.882L350.707 180.708C350.895 180.52 351 180.265 351 180C351 179.734 350.894 179.48 350.706 179.293C350.519 179.105 350.264 179 349.999 179C349.733 179 349.479 179.106 349.291 179.294L343.117 185.467C343.101 185.482 343.083 185.495 343.062 185.503C343.042 185.512 343.021 185.516 342.999 185.516C342.977 185.516 342.955 185.512 342.935 185.503C342.914 185.495 342.896 185.482 342.881 185.467L336.706 179.294C336.613 179.201 336.503 179.127 336.382 179.077C336.26 179.026 336.13 179.001 335.999 179C335.734 179 335.479 179.106 335.292 179.293C335.104 179.481 334.999 179.735 334.999 180C334.998 180.266 335.104 180.52 335.291 180.708L341.465 186.882C341.481 186.898 341.493 186.916 341.502 186.936C341.51 186.957 341.514 186.978 341.514 187C341.514 187.022 341.51 187.044 341.502 187.064C341.493 187.084 341.481 187.103 341.465 187.118L335.291 193.294Z" fill="#F7FAFC"/>
<defs>
<filter id="filter0_i_231_4970" x="87" y="164" width="279" height="50" filterUnits="userSpaceOnUse" color-interpolation-filters="sRGB">
<feFlood flood-opacity="0" result="BackgroundImageFix"/>
<feBlend mode="normal" in="SourceGraphic" in2="BackgroundImageFix" result="shape"/>
<feColorMatrix in="SourceAlpha" type="matrix" values="0 0 0 0 0 0 0 0 0 0 0 0 0 0 0 0 0 0 127 0" result="hardAlpha"/>
<feOffset dy="4"/>
<feGaussianBlur stdDeviation="4.5"/>
<feComposite in2="hardAlpha" operator="arithmetic" k2="-1" k3="1"/>
<feColorMatrix type="matrix" values="0 0 0 0 0 0 0 0 0 0 0 0 0 0 0 0 0 0 0.13 0"/>
<feBlend mode="normal" in2="shape" result="effect1_innerShadow_231_4970"/>
</filter>
</defs>
</svg>
