<svg width="400" height="300" viewBox="0 0 400 300" fill="none" xmlns="http://www.w3.org/2000/svg">
<rect width="400" height="300" fill="#E0E9FF"/>
<rect x="40" y="70" width="320" height="161" rx="7.27272" fill="#1A1A1A"/>
<path d="M63.1975 108.818V92.9506H73.8896V95.7166H66.5523V99.4976H73.3395V102.264H66.5523V106.052H73.9206V108.818H63.1975ZM79.2531 96.9175L81.438 101.078L83.6772 96.9175H87.063L83.6152 102.868L87.156 108.818H83.7857L81.438 104.704L79.1292 108.818H75.7201L79.2531 102.868L75.844 96.9175H79.2531ZM89.0233 108.818V96.9175H92.3239V108.818H89.0233ZM90.6813 95.3835C90.1906 95.3835 89.7697 95.2207 89.4184 94.8953C89.0723 94.5648 88.8993 94.1696 88.8993 93.7099C88.8993 93.2554 89.0723 92.8654 89.4184 92.54C89.7697 92.2094 90.1906 92.0441 90.6813 92.0441C91.172 92.0441 91.5904 92.2094 91.9365 92.54C92.2877 92.8654 92.4634 93.2554 92.4634 93.7099C92.4634 94.1696 92.2877 94.5648 91.9365 94.8953C91.5904 95.2207 91.172 95.3835 90.6813 95.3835ZM101.298 96.9175V99.3969H94.1311V96.9175H101.298ZM95.7582 94.0663H99.0588V105.161C99.0588 105.466 99.1053 105.704 99.1982 105.874C99.2912 106.039 99.4203 106.156 99.5856 106.223C99.7561 106.29 99.9524 106.324 100.174 106.324C100.329 106.324 100.484 106.311 100.639 106.285C100.794 106.254 100.913 106.231 100.996 106.215L101.515 108.671C101.35 108.723 101.117 108.782 100.818 108.849C100.518 108.922 100.154 108.966 99.7251 108.981C98.9296 109.012 98.2323 108.906 97.6332 108.663C97.0391 108.421 96.5769 108.044 96.2463 107.532C95.9157 107.021 95.753 106.375 95.7582 105.595V94.0663ZM108.56 92.9506H112.697L117.067 103.612H117.253L121.623 92.9506H125.76V108.818H122.506V98.4904H122.374L118.268 108.741H116.052L111.946 98.4516H111.814V108.818H108.56V92.9506ZM133.886 109.051C132.662 109.051 131.608 108.803 130.725 108.307C129.846 107.806 129.17 107.098 128.695 106.184C128.219 105.265 127.982 104.177 127.982 102.922C127.982 101.698 128.219 100.624 128.695 99.699C129.17 98.7745 129.839 98.0539 130.701 97.5374C131.569 97.0208 132.587 96.7626 133.754 96.7626C134.539 96.7626 135.27 96.8891 135.947 97.1422C136.628 97.3902 137.222 97.7646 137.729 98.2657C138.24 98.7667 138.638 99.3969 138.922 100.156C139.206 100.91 139.348 101.794 139.348 102.806V103.712H129.299V101.667H136.241C136.241 101.192 136.138 100.771 135.931 100.404C135.725 100.037 135.438 99.7507 135.071 99.5441C134.71 99.3323 134.289 99.2264 133.808 99.2264C133.307 99.2264 132.863 99.3426 132.476 99.5751C132.093 99.8024 131.794 100.11 131.577 100.497C131.36 100.879 131.249 101.305 131.244 101.775V103.72C131.244 104.309 131.352 104.818 131.569 105.247C131.791 105.675 132.104 106.006 132.507 106.238C132.909 106.471 133.387 106.587 133.94 106.587C134.307 106.587 134.642 106.535 134.947 106.432C135.252 106.329 135.513 106.174 135.73 105.967C135.947 105.761 136.112 105.507 136.226 105.208L139.278 105.409C139.123 106.143 138.806 106.783 138.325 107.331C137.85 107.873 137.235 108.297 136.481 108.601C135.732 108.901 134.867 109.051 133.886 109.051ZM146.925 109.051C145.701 109.051 144.648 108.803 143.764 108.307C142.886 107.806 142.21 107.098 141.734 106.184C141.259 105.265 141.022 104.177 141.022 102.922C141.022 101.698 141.259 100.624 141.734 99.699C142.21 98.7745 142.878 98.0539 143.741 97.5374C144.609 97.0208 145.626 96.7626 146.794 96.7626C147.579 96.7626 148.31 96.8891 148.986 97.1422C149.668 97.3902 150.262 97.7646 150.768 98.2657C151.28 98.7667 151.678 99.3969 151.962 100.156C152.246 100.91 152.388 101.794 152.388 102.806V103.712H142.339V101.667H149.281C149.281 101.192 149.178 100.771 148.971 100.404C148.764 100.037 148.478 99.7507 148.111 99.5441C147.749 99.3323 147.328 99.2264 146.848 99.2264C146.347 99.2264 145.903 99.3426 145.515 99.5751C145.133 99.8024 144.834 100.11 144.617 100.497C144.4 100.879 144.289 101.305 144.283 101.775V103.72C144.283 104.309 144.392 104.818 144.609 105.247C144.831 105.675 145.143 106.006 145.546 106.238C145.949 106.471 146.427 106.587 146.98 106.587C147.346 106.587 147.682 106.535 147.987 106.432C148.292 106.329 148.553 106.174 148.769 105.967C148.986 105.761 149.152 105.507 149.265 105.208L152.318 105.409C152.163 106.143 151.845 106.783 151.365 107.331C150.89 107.873 150.275 108.297 149.521 108.601C148.772 108.901 147.907 109.051 146.925 109.051ZM160.872 96.9175V99.3969H153.705V96.9175H160.872ZM155.332 94.0663H158.633V105.161C158.633 105.466 158.679 105.704 158.772 105.874C158.865 106.039 158.994 106.156 159.159 106.223C159.33 106.29 159.526 106.324 159.748 106.324C159.903 106.324 160.058 106.311 160.213 106.285C160.368 106.254 160.487 106.231 160.57 106.215L161.089 108.671C160.923 108.723 160.691 108.782 160.391 108.849C160.092 108.922 159.728 108.966 159.299 108.981C158.503 109.012 157.806 108.906 157.207 108.663C156.613 108.421 156.151 108.044 155.82 107.532C155.49 107.021 155.327 106.375 155.332 105.595V94.0663ZM163.022 108.818V96.9175H166.322V108.818H163.022ZM164.68 95.3835C164.189 95.3835 163.768 95.2207 163.417 94.8953C163.071 94.5648 162.898 94.1696 162.898 93.7099C162.898 93.2554 163.071 92.8654 163.417 92.54C163.768 92.2094 164.189 92.0441 164.68 92.0441C165.171 92.0441 165.589 92.2094 165.935 92.54C166.286 92.8654 166.462 93.2554 166.462 93.7099C166.462 94.1696 166.286 94.5648 165.935 94.8953C165.589 95.2207 165.171 95.3835 164.68 95.3835ZM172.267 101.938V108.818H168.966V96.9175H172.112V99.0172H172.252C172.515 98.3251 172.957 97.7776 173.576 97.3747C174.196 96.9666 174.948 96.7626 175.831 96.7626C176.658 96.7626 177.378 96.9434 177.993 97.3049C178.607 97.6665 179.085 98.183 179.426 98.8545C179.767 99.5208 179.937 100.316 179.937 101.241V108.818H176.637V101.83C176.642 101.101 176.456 100.533 176.079 100.125C175.702 99.712 175.183 99.5054 174.522 99.5054C174.077 99.5054 173.685 99.6009 173.344 99.792C173.008 99.9831 172.745 100.262 172.554 100.629C172.368 100.99 172.272 101.427 172.267 101.938ZM187.9 113.529C186.831 113.529 185.914 113.382 185.15 113.087C184.391 112.798 183.786 112.403 183.337 111.902C182.887 111.401 182.596 110.838 182.461 110.213L185.514 109.802C185.607 110.04 185.754 110.262 185.956 110.469C186.157 110.675 186.423 110.841 186.754 110.965C187.089 111.094 187.498 111.158 187.978 111.158C188.696 111.158 189.287 110.983 189.752 110.631C190.222 110.285 190.457 109.704 190.457 108.888V106.711H190.318C190.173 107.042 189.956 107.354 189.667 107.648C189.378 107.943 189.006 108.183 188.551 108.369C188.097 108.555 187.554 108.648 186.924 108.648C186.031 108.648 185.217 108.441 184.484 108.028C183.755 107.61 183.174 106.972 182.74 106.114C182.312 105.252 182.097 104.162 182.097 102.845C182.097 101.497 182.317 100.371 182.756 99.4666C183.195 98.5627 183.778 97.886 184.507 97.4367C185.24 96.9873 186.043 96.7626 186.916 96.7626C187.583 96.7626 188.141 96.8762 188.59 97.1035C189.039 97.3256 189.401 97.6045 189.675 97.9403C189.954 98.2708 190.168 98.5963 190.318 98.9165H190.442V96.9175H193.719V108.935C193.719 109.947 193.471 110.794 192.975 111.476C192.479 112.158 191.792 112.669 190.914 113.01C190.041 113.356 189.037 113.529 187.9 113.529ZM187.97 106.169C188.502 106.169 188.952 106.037 189.318 105.773C189.69 105.505 189.974 105.123 190.171 104.627C190.372 104.126 190.473 103.527 190.473 102.829C190.473 102.132 190.375 101.528 190.178 101.016C189.982 100.5 189.698 100.099 189.326 99.8153C188.954 99.5312 188.502 99.3891 187.97 99.3891C187.428 99.3891 186.971 99.5363 186.599 99.8308C186.227 100.12 185.945 100.523 185.754 101.039C185.563 101.556 185.468 102.153 185.468 102.829C185.468 103.516 185.563 104.11 185.754 104.611C185.95 105.107 186.232 105.492 186.599 105.766C186.971 106.034 187.428 106.169 187.97 106.169Z" fill="white"/>
<path d="M63.5332 148.637H62.1903L66.0746 138.058H67.3969L71.2812 148.637H69.9382L66.777 139.732H66.6944L63.5332 148.637ZM64.0291 144.504H69.4423V145.641H64.0291V144.504ZM72.7636 148.637V140.703H73.9413V141.901H74.0239C74.1686 141.509 74.4303 141.19 74.8091 140.946C75.1878 140.701 75.6148 140.579 76.09 140.579C76.1796 140.579 76.2915 140.581 76.4258 140.584C76.5601 140.587 76.6617 140.593 76.7305 140.6V141.839C76.6892 141.829 76.5945 141.813 76.4464 141.793C76.3018 141.769 76.1486 141.757 75.9867 141.757C75.6011 141.757 75.2567 141.837 74.9537 141.999C74.6541 142.158 74.4165 142.378 74.2409 142.66C74.0687 142.939 73.9826 143.258 73.9826 143.616V148.637H72.7636ZM81.2605 148.802C80.496 148.802 79.8366 148.633 79.2822 148.296C78.7312 147.955 78.306 147.48 78.0064 146.87C77.7102 146.257 77.5622 145.544 77.5622 144.732C77.5622 143.919 77.7102 143.203 78.0064 142.583C78.306 141.96 78.7226 141.474 79.2564 141.126C79.7936 140.775 80.4203 140.6 81.1365 140.6C81.5498 140.6 81.9578 140.668 82.3607 140.806C82.7636 140.944 83.1303 141.168 83.4609 141.478C83.7915 141.784 84.0549 142.19 84.2512 142.697C84.4475 143.203 84.5456 143.826 84.5456 144.566V145.083H78.4299V144.029H83.3059C83.3059 143.582 83.2164 143.182 83.0374 142.831C82.8617 142.48 82.6104 142.202 82.2832 141.999C81.9595 141.796 81.5773 141.695 81.1365 141.695C80.651 141.695 80.2309 141.815 79.8762 142.056C79.525 142.294 79.2546 142.604 79.0652 142.986C78.8759 143.368 78.7812 143.778 78.7812 144.215V144.918C78.7812 145.517 78.8845 146.025 79.0911 146.441C79.3011 146.855 79.5921 147.17 79.964 147.387C80.3359 147.6 80.7681 147.707 81.2605 147.707C81.5807 147.707 81.87 147.662 82.1283 147.573C82.39 147.48 82.6155 147.342 82.8049 147.159C82.9943 146.973 83.1407 146.743 83.244 146.467L84.4216 146.798C84.2977 147.197 84.0893 147.549 83.7966 147.852C83.504 148.151 83.1424 148.385 82.7119 148.554C82.2815 148.719 81.7977 148.802 81.2605 148.802ZM91.276 151.612C91.0694 151.612 90.8851 151.595 90.7233 151.56C90.5615 151.529 90.4495 151.498 90.3876 151.467L90.6975 150.393C90.9936 150.469 91.2553 150.496 91.4826 150.476C91.7099 150.455 91.9113 150.353 92.0869 150.171C92.266 149.992 92.4296 149.701 92.5776 149.298L92.8049 148.678L89.871 140.703H91.1933L93.3834 147.025H93.4661L95.6561 140.703H96.9785L93.6107 149.794C93.4592 150.204 93.2715 150.543 93.0477 150.811C92.8238 151.083 92.5639 151.285 92.2677 151.416C91.975 151.546 91.6444 151.612 91.276 151.612ZM101.526 148.802C100.81 148.802 100.182 148.632 99.6412 148.291C99.104 147.95 98.6839 147.473 98.3808 146.86C98.0812 146.247 97.9315 145.531 97.9315 144.711C97.9315 143.885 98.0812 143.163 98.3808 142.547C98.6839 141.93 99.104 141.452 99.6412 141.111C100.182 140.77 100.81 140.6 101.526 140.6C102.243 140.6 102.869 140.77 103.407 141.111C103.947 141.452 104.367 141.93 104.667 142.547C104.97 143.163 105.122 143.885 105.122 144.711C105.122 145.531 104.97 146.247 104.667 146.86C104.367 147.473 103.947 147.95 103.407 148.291C102.869 148.632 102.243 148.802 101.526 148.802ZM101.526 147.707C102.071 147.707 102.518 147.568 102.869 147.289C103.221 147.01 103.481 146.643 103.649 146.188C103.818 145.734 103.903 145.241 103.903 144.711C103.903 144.181 103.818 143.687 103.649 143.229C103.481 142.771 103.221 142.4 102.869 142.118C102.518 141.836 102.071 141.695 101.526 141.695C100.982 141.695 100.535 141.836 100.184 142.118C99.8323 142.4 99.5723 142.771 99.4036 143.229C99.2348 143.687 99.1505 144.181 99.1505 144.711C99.1505 145.241 99.2348 145.734 99.4036 146.188C99.5723 146.643 99.8323 147.01 100.184 147.289C100.535 147.568 100.982 147.707 101.526 147.707ZM111.982 145.393V140.703H113.201V148.637H111.982V147.294H111.9C111.714 147.697 111.424 148.039 111.032 148.322C110.639 148.601 110.143 148.74 109.544 148.74C109.048 148.74 108.608 148.632 108.222 148.415C107.836 148.194 107.533 147.864 107.313 147.423C107.093 146.979 106.982 146.419 106.982 145.744V140.703H108.201V145.662C108.201 146.24 108.363 146.701 108.687 147.046C109.014 147.39 109.431 147.562 109.937 147.562C110.24 147.562 110.548 147.485 110.861 147.33C111.178 147.175 111.443 146.937 111.657 146.617C111.874 146.297 111.982 145.889 111.982 145.393ZM125.145 142.48L124.05 142.79C123.981 142.607 123.879 142.43 123.745 142.258C123.614 142.082 123.435 141.937 123.208 141.824C122.981 141.71 122.69 141.653 122.335 141.653C121.849 141.653 121.445 141.765 121.121 141.989C120.801 142.209 120.641 142.49 120.641 142.831C120.641 143.134 120.751 143.373 120.971 143.549C121.192 143.725 121.536 143.871 122.004 143.988L123.182 144.277C123.891 144.449 124.42 144.713 124.768 145.068C125.115 145.419 125.289 145.872 125.289 146.426C125.289 146.881 125.159 147.287 124.897 147.645C124.639 148.003 124.277 148.285 123.812 148.492C123.347 148.699 122.807 148.802 122.19 148.802C121.381 148.802 120.711 148.626 120.181 148.275C119.651 147.924 119.315 147.411 119.174 146.736L120.331 146.447C120.441 146.874 120.649 147.194 120.956 147.407C121.266 147.621 121.67 147.728 122.17 147.728C122.738 147.728 123.189 147.607 123.523 147.366C123.86 147.122 124.029 146.829 124.029 146.488C124.029 146.212 123.933 145.982 123.74 145.796C123.547 145.606 123.251 145.465 122.851 145.372L121.529 145.062C120.802 144.89 120.269 144.623 119.928 144.262C119.59 143.897 119.422 143.44 119.422 142.893C119.422 142.445 119.547 142.049 119.799 141.705C120.054 141.361 120.4 141.09 120.837 140.894C121.278 140.698 121.777 140.6 122.335 140.6C123.12 140.6 123.736 140.772 124.184 141.116C124.635 141.46 124.955 141.915 125.145 142.48ZM132.124 145.393V140.703H133.343V148.637H132.124V147.294H132.042C131.856 147.697 131.566 148.039 131.174 148.322C130.781 148.601 130.286 148.74 129.686 148.74C129.19 148.74 128.75 148.632 128.364 148.415C127.978 148.194 127.675 147.864 127.455 147.423C127.235 146.979 127.124 146.419 127.124 145.744V140.703H128.343V145.662C128.343 146.24 128.505 146.701 128.829 147.046C129.156 147.39 129.573 147.562 130.079 147.562C130.382 147.562 130.69 147.485 131.003 147.33C131.32 147.175 131.585 146.937 131.799 146.617C132.016 146.297 132.124 145.889 132.124 145.393ZM135.576 148.637V140.703H136.754V141.901H136.836C136.981 141.509 137.243 141.19 137.622 140.946C138 140.701 138.427 140.579 138.903 140.579C138.992 140.579 139.104 140.581 139.238 140.584C139.373 140.587 139.474 140.593 139.543 140.6V141.839C139.502 141.829 139.407 141.813 139.259 141.793C139.114 141.769 138.961 141.757 138.799 141.757C138.414 141.757 138.069 141.837 137.766 141.999C137.467 142.158 137.229 142.378 137.053 142.66C136.881 142.939 136.795 143.258 136.795 143.616V148.637H135.576ZM144.073 148.802C143.308 148.802 142.649 148.633 142.095 148.296C141.544 147.955 141.118 147.48 140.819 146.87C140.523 146.257 140.375 145.544 140.375 144.732C140.375 143.919 140.523 143.203 140.819 142.583C141.118 141.96 141.535 141.474 142.069 141.126C142.606 140.775 143.233 140.6 143.949 140.6C144.362 140.6 144.77 140.668 145.173 140.806C145.576 140.944 145.943 141.168 146.273 141.478C146.604 141.784 146.867 142.19 147.064 142.697C147.26 143.203 147.358 143.826 147.358 144.566V145.083H141.242V144.029H146.118C146.118 143.582 146.029 143.182 145.85 142.831C145.674 142.48 145.423 142.202 145.096 141.999C144.772 141.796 144.39 141.695 143.949 141.695C143.463 141.695 143.043 141.815 142.689 142.056C142.337 142.294 142.067 142.604 141.878 142.986C141.688 143.368 141.594 143.778 141.594 144.215V144.918C141.594 145.517 141.697 146.025 141.904 146.441C142.114 146.855 142.405 147.17 142.776 147.387C143.148 147.6 143.581 147.707 144.073 147.707C144.393 147.707 144.682 147.662 144.941 147.573C145.202 147.48 145.428 147.342 145.617 147.159C145.807 146.973 145.953 146.743 146.056 146.467L147.234 146.798C147.11 147.197 146.902 147.549 146.609 147.852C146.316 148.151 145.955 148.385 145.524 148.554C145.094 148.719 144.61 148.802 144.073 148.802ZM154.088 151.612C153.882 151.612 153.698 151.595 153.536 151.56C153.374 151.529 153.262 151.498 153.2 151.467L153.51 150.393C153.806 150.469 154.068 150.496 154.295 150.476C154.522 150.455 154.724 150.353 154.899 150.171C155.078 149.992 155.242 149.701 155.39 149.298L155.617 148.678L152.683 140.703H154.006L156.196 147.025H156.279L158.469 140.703H159.791L156.423 149.794C156.272 150.204 156.084 150.543 155.86 150.811C155.636 151.083 155.376 151.285 155.08 151.416C154.787 151.546 154.457 151.612 154.088 151.612ZM164.339 148.802C163.623 148.802 162.994 148.632 162.454 148.291C161.916 147.95 161.496 147.473 161.193 146.86C160.894 146.247 160.744 145.531 160.744 144.711C160.744 143.885 160.894 143.163 161.193 142.547C161.496 141.93 161.916 141.452 162.454 141.111C162.994 140.77 163.623 140.6 164.339 140.6C165.055 140.6 165.682 140.77 166.219 141.111C166.76 141.452 167.18 141.93 167.479 142.547C167.782 143.163 167.934 143.885 167.934 144.711C167.934 145.531 167.782 146.247 167.479 146.86C167.18 147.473 166.76 147.95 166.219 148.291C165.682 148.632 165.055 148.802 164.339 148.802ZM164.339 147.707C164.883 147.707 165.331 147.568 165.682 147.289C166.033 147.01 166.293 146.643 166.462 146.188C166.631 145.734 166.715 145.241 166.715 144.711C166.715 144.181 166.631 143.687 166.462 143.229C166.293 142.771 166.033 142.4 165.682 142.118C165.331 141.836 164.883 141.695 164.339 141.695C163.795 141.695 163.347 141.836 162.996 142.118C162.645 142.4 162.385 142.771 162.216 143.229C162.047 143.687 161.963 144.181 161.963 144.711C161.963 145.241 162.047 145.734 162.216 146.188C162.385 146.643 162.645 147.01 162.996 147.289C163.347 147.568 163.795 147.707 164.339 147.707ZM174.795 145.393V140.703H176.014V148.637H174.795V147.294H174.712C174.526 147.697 174.237 148.039 173.844 148.322C173.452 148.601 172.956 148.74 172.357 148.74C171.861 148.74 171.42 148.632 171.034 148.415C170.649 148.194 170.346 147.864 170.125 147.423C169.905 146.979 169.795 146.419 169.795 145.744V140.703H171.014V145.662C171.014 146.24 171.176 146.701 171.499 147.046C171.826 147.39 172.243 147.562 172.749 147.562C173.052 147.562 173.361 147.485 173.674 147.33C173.991 147.175 174.256 146.937 174.469 146.617C174.686 146.297 174.795 145.889 174.795 145.393ZM184.135 148.637L181.718 140.703H182.999L184.713 146.777H184.796L186.49 140.703H187.792L189.465 146.757H189.548L191.263 140.703H192.544L190.127 148.637H188.928L187.193 142.542H187.069L185.333 148.637H184.135ZM196.49 148.823C195.988 148.823 195.531 148.728 195.121 148.539C194.712 148.346 194.386 148.069 194.145 147.707C193.904 147.342 193.784 146.901 193.784 146.385C193.784 145.93 193.873 145.562 194.052 145.279C194.231 144.993 194.471 144.77 194.77 144.608C195.07 144.446 195.4 144.325 195.762 144.246C196.127 144.164 196.494 144.098 196.862 144.05C197.344 143.988 197.735 143.941 198.035 143.91C198.338 143.876 198.558 143.819 198.696 143.74C198.837 143.661 198.908 143.523 198.908 143.327V143.285C198.908 142.776 198.768 142.38 198.489 142.097C198.214 141.815 197.795 141.674 197.234 141.674C196.652 141.674 196.196 141.801 195.865 142.056C195.535 142.311 195.302 142.583 195.168 142.872L194.011 142.459C194.218 141.977 194.493 141.602 194.837 141.333C195.185 141.061 195.564 140.872 195.974 140.765C196.387 140.655 196.793 140.6 197.193 140.6C197.448 140.6 197.74 140.631 198.071 140.693C198.405 140.751 198.727 140.873 199.037 141.059C199.35 141.245 199.61 141.526 199.817 141.901C200.023 142.277 200.127 142.779 200.127 143.409V148.637H198.908V147.562H198.846C198.763 147.735 198.625 147.919 198.432 148.115C198.24 148.311 197.983 148.478 197.663 148.616C197.343 148.754 196.952 148.823 196.49 148.823ZM196.676 147.728C197.158 147.728 197.565 147.633 197.895 147.444C198.229 147.254 198.481 147.01 198.649 146.71C198.822 146.41 198.908 146.095 198.908 145.765V144.649C198.856 144.711 198.742 144.768 198.567 144.82C198.395 144.868 198.195 144.911 197.968 144.949C197.744 144.983 197.525 145.014 197.312 145.042C197.101 145.066 196.931 145.086 196.8 145.104C196.483 145.145 196.187 145.212 195.912 145.305C195.64 145.395 195.419 145.531 195.251 145.713C195.085 145.892 195.003 146.137 195.003 146.447C195.003 146.87 195.159 147.19 195.473 147.407C195.79 147.621 196.191 147.728 196.676 147.728ZM203.571 143.864V148.637H202.352V140.703H203.529V141.943H203.633C203.819 141.54 204.101 141.216 204.48 140.971C204.858 140.724 205.347 140.6 205.947 140.6C206.484 140.6 206.954 140.71 207.357 140.93C207.76 141.147 208.073 141.478 208.297 141.922C208.521 142.363 208.633 142.92 208.633 143.595V148.637H207.414V143.678C207.414 143.055 207.252 142.569 206.928 142.221C206.604 141.87 206.16 141.695 205.595 141.695C205.206 141.695 204.858 141.779 204.552 141.948C204.249 142.116 204.01 142.363 203.834 142.686C203.658 143.01 203.571 143.403 203.571 143.864ZM214.311 140.703V141.736H210.199V140.703H214.311ZM211.397 138.802H212.616V146.364C212.616 146.708 212.666 146.967 212.766 147.139C212.869 147.308 213 147.421 213.159 147.48C213.32 147.535 213.491 147.562 213.67 147.562C213.804 147.562 213.915 147.555 214.001 147.542C214.087 147.524 214.156 147.511 214.207 147.5L214.455 148.595C214.372 148.626 214.257 148.657 214.109 148.688C213.961 148.723 213.773 148.74 213.546 148.74C213.202 148.74 212.864 148.666 212.534 148.518C212.207 148.37 211.934 148.144 211.718 147.841C211.504 147.538 211.397 147.156 211.397 146.695V138.802ZM223.685 140.703V141.736H219.574V140.703H223.685ZM220.772 138.802H221.991V146.364C221.991 146.708 222.041 146.967 222.141 147.139C222.244 147.308 222.375 147.421 222.534 147.48C222.695 147.535 222.866 147.562 223.045 147.562C223.179 147.562 223.289 147.555 223.376 147.542C223.462 147.524 223.531 147.511 223.582 147.5L223.83 148.595C223.747 148.626 223.632 148.657 223.484 148.688C223.336 148.723 223.148 148.74 222.921 148.74C222.577 148.74 222.239 148.666 221.909 148.518C221.582 148.37 221.309 148.144 221.093 147.841C220.879 147.538 220.772 147.156 220.772 146.695V138.802ZM228.657 148.802C227.941 148.802 227.312 148.632 226.772 148.291C226.235 147.95 225.814 147.473 225.511 146.86C225.212 146.247 225.062 145.531 225.062 144.711C225.062 143.885 225.212 143.163 225.511 142.547C225.814 141.93 226.235 141.452 226.772 141.111C227.312 140.77 227.941 140.6 228.657 140.6C229.373 140.6 230 140.77 230.537 141.111C231.078 141.452 231.498 141.93 231.798 142.547C232.101 143.163 232.252 143.885 232.252 144.711C232.252 145.531 232.101 146.247 231.798 146.86C231.498 147.473 231.078 147.95 230.537 148.291C230 148.632 229.373 148.802 228.657 148.802ZM228.657 147.707C229.201 147.707 229.649 147.568 230 147.289C230.351 147.01 230.611 146.643 230.78 146.188C230.949 145.734 231.033 145.241 231.033 144.711C231.033 144.181 230.949 143.687 230.78 143.229C230.611 142.771 230.351 142.4 230 142.118C229.649 141.836 229.201 141.695 228.657 141.695C228.113 141.695 227.665 141.836 227.314 142.118C226.963 142.4 226.703 142.771 226.534 143.229C226.365 143.687 226.281 144.181 226.281 144.711C226.281 145.241 226.365 145.734 226.534 146.188C226.703 146.643 226.963 147.01 227.314 147.289C227.665 147.568 228.113 147.707 228.657 147.707ZM239.423 138.058V148.637H238.204V138.058H239.423ZM244.982 148.802C244.218 148.802 243.558 148.633 243.004 148.296C242.453 147.955 242.027 147.48 241.728 146.87C241.432 146.257 241.284 145.544 241.284 144.732C241.284 143.919 241.432 143.203 241.728 142.583C242.027 141.96 242.444 141.474 242.978 141.126C243.515 140.775 244.142 140.6 244.858 140.6C245.271 140.6 245.679 140.668 246.082 140.806C246.485 140.944 246.852 141.168 247.182 141.478C247.513 141.784 247.776 142.19 247.973 142.697C248.169 143.203 248.267 143.826 248.267 144.566V145.083H242.151V144.029H247.027C247.027 143.582 246.938 143.182 246.759 142.831C246.583 142.48 246.332 142.202 246.005 141.999C245.681 141.796 245.299 141.695 244.858 141.695C244.372 141.695 243.952 141.815 243.598 142.056C243.246 142.294 242.976 142.604 242.787 142.986C242.597 143.368 242.503 143.778 242.503 144.215V144.918C242.503 145.517 242.606 146.025 242.813 146.441C243.023 146.855 243.314 147.17 243.685 147.387C244.057 147.6 244.49 147.707 244.982 147.707C245.302 147.707 245.591 147.662 245.85 147.573C246.111 147.48 246.337 147.342 246.526 147.159C246.716 146.973 246.862 146.743 246.965 146.467L248.143 146.798C248.019 147.197 247.811 147.549 247.518 147.852C247.225 148.151 246.864 148.385 246.433 148.554C246.003 148.719 245.519 148.802 244.982 148.802ZM252.456 148.823C251.953 148.823 251.497 148.728 251.087 148.539C250.678 148.346 250.352 148.069 250.111 147.707C249.87 147.342 249.75 146.901 249.75 146.385C249.75 145.93 249.839 145.562 250.018 145.279C250.197 144.993 250.437 144.77 250.736 144.608C251.036 144.446 251.366 144.325 251.728 144.246C252.093 144.164 252.46 144.098 252.828 144.05C253.31 143.988 253.701 143.941 254.001 143.91C254.304 143.876 254.524 143.819 254.662 143.74C254.803 143.661 254.873 143.523 254.873 143.327V143.285C254.873 142.776 254.734 142.38 254.455 142.097C254.18 141.815 253.761 141.674 253.2 141.674C252.618 141.674 252.162 141.801 251.831 142.056C251.501 142.311 251.268 142.583 251.134 142.872L249.977 142.459C250.183 141.977 250.459 141.602 250.803 141.333C251.151 141.061 251.53 140.872 251.94 140.765C252.353 140.655 252.759 140.6 253.159 140.6C253.413 140.6 253.706 140.631 254.037 140.693C254.371 140.751 254.693 140.873 255.003 141.059C255.316 141.245 255.576 141.526 255.783 141.901C255.989 142.277 256.092 142.779 256.092 143.409V148.637H254.873V147.562H254.812C254.729 147.735 254.591 147.919 254.398 148.115C254.205 148.311 253.949 148.478 253.629 148.616C253.308 148.754 252.918 148.823 252.456 148.823ZM252.642 147.728C253.124 147.728 253.531 147.633 253.861 147.444C254.195 147.254 254.446 147.01 254.615 146.71C254.787 146.41 254.873 146.095 254.873 145.765V144.649C254.822 144.711 254.708 144.768 254.533 144.82C254.36 144.868 254.161 144.911 253.933 144.949C253.71 144.983 253.491 145.014 253.277 145.042C253.067 145.066 252.897 145.086 252.766 145.104C252.449 145.145 252.153 145.212 251.878 145.305C251.606 145.395 251.385 145.531 251.216 145.713C251.051 145.892 250.969 146.137 250.969 146.447C250.969 146.87 251.125 147.19 251.439 147.407C251.755 147.621 252.157 147.728 252.642 147.728ZM264.521 140.703L261.587 148.637H260.347L257.414 140.703H258.736L260.926 147.025H261.009L263.199 140.703H264.521ZM269.172 148.802C268.408 148.802 267.748 148.633 267.194 148.296C266.643 147.955 266.218 147.48 265.918 146.87C265.622 146.257 265.474 145.544 265.474 144.732C265.474 143.919 265.622 143.203 265.918 142.583C266.218 141.96 266.634 141.474 267.168 141.126C267.705 140.775 268.332 140.6 269.048 140.6C269.462 140.6 269.87 140.668 270.272 140.806C270.675 140.944 271.042 141.168 271.373 141.478C271.703 141.784 271.967 142.19 272.163 142.697C272.359 143.203 272.457 143.826 272.457 144.566V145.083H266.342V144.029H271.218C271.218 143.582 271.128 143.182 270.949 142.831C270.774 142.48 270.522 142.202 270.195 141.999C269.871 141.796 269.489 141.695 269.048 141.695C268.563 141.695 268.143 141.815 267.788 142.056C267.437 142.294 267.166 142.604 266.977 142.986C266.788 143.368 266.693 143.778 266.693 144.215V144.918C266.693 145.517 266.796 146.025 267.003 146.441C267.213 146.855 267.504 147.17 267.876 147.387C268.248 147.6 268.68 147.707 269.172 147.707C269.493 147.707 269.782 147.662 270.04 147.573C270.302 147.48 270.527 147.342 270.717 147.159C270.906 146.973 271.052 146.743 271.156 146.467L272.333 146.798C272.209 147.197 272.001 147.549 271.708 147.852C271.416 148.151 271.054 148.385 270.624 148.554C270.193 148.719 269.709 148.802 269.172 148.802ZM281.853 140.703V141.736H277.742V140.703H281.853ZM278.94 138.802H280.159V146.364C280.159 146.708 280.209 146.967 280.309 147.139C280.412 147.308 280.543 147.421 280.701 147.48C280.863 147.535 281.034 147.562 281.213 147.562C281.347 147.562 281.457 147.555 281.543 147.542C281.629 147.524 281.698 147.511 281.75 147.5L281.998 148.595C281.915 148.626 281.8 148.657 281.652 148.688C281.504 148.723 281.316 148.74 281.089 148.74C280.744 148.74 280.407 148.666 280.076 148.518C279.749 148.37 279.477 148.144 279.26 147.841C279.047 147.538 278.94 147.156 278.94 146.695V138.802ZM285.076 143.864V148.637H283.857V138.058H285.076V141.943H285.18C285.365 141.533 285.644 141.207 286.016 140.966C286.392 140.722 286.891 140.6 287.514 140.6C288.055 140.6 288.528 140.708 288.935 140.925C289.341 141.138 289.656 141.467 289.88 141.912C290.107 142.352 290.221 142.914 290.221 143.595V148.637H289.002V143.678C289.002 143.048 288.838 142.561 288.511 142.216C288.187 141.868 287.738 141.695 287.163 141.695C286.764 141.695 286.405 141.779 286.089 141.948C285.775 142.116 285.527 142.363 285.345 142.686C285.166 143.01 285.076 143.403 285.076 143.864ZM295.777 148.802C295.013 148.802 294.353 148.633 293.799 148.296C293.248 147.955 292.823 147.48 292.523 146.87C292.227 146.257 292.079 145.544 292.079 144.732C292.079 143.919 292.227 143.203 292.523 142.583C292.823 141.96 293.24 141.474 293.773 141.126C294.31 140.775 294.937 140.6 295.653 140.6C296.067 140.6 296.475 140.668 296.878 140.806C297.28 140.944 297.647 141.168 297.978 141.478C298.308 141.784 298.572 142.19 298.768 142.697C298.964 143.203 299.063 143.826 299.063 144.566V145.083H292.947V144.029H297.823C297.823 143.582 297.733 143.182 297.554 142.831C297.379 142.48 297.127 142.202 296.8 141.999C296.476 141.796 296.094 141.695 295.653 141.695C295.168 141.695 294.748 141.815 294.393 142.056C294.042 142.294 293.772 142.604 293.582 142.986C293.393 143.368 293.298 143.778 293.298 144.215V144.918C293.298 145.517 293.401 146.025 293.608 146.441C293.818 146.855 294.109 147.17 294.481 147.387C294.853 147.6 295.285 147.707 295.777 147.707C296.098 147.707 296.387 147.662 296.645 147.573C296.907 147.48 297.132 147.342 297.322 147.159C297.511 146.973 297.658 146.743 297.761 146.467L298.939 146.798C298.815 147.197 298.606 147.549 298.314 147.852C298.021 148.151 297.659 148.385 297.229 148.554C296.798 148.719 296.315 148.802 295.777 148.802ZM308.231 148.802C307.487 148.802 306.847 148.626 306.309 148.275C305.772 147.924 305.359 147.44 305.07 146.824C304.78 146.207 304.636 145.503 304.636 144.711C304.636 143.905 304.784 143.194 305.08 142.578C305.38 141.958 305.796 141.474 306.33 141.126C306.867 140.775 307.494 140.6 308.21 140.6C308.768 140.6 309.271 140.703 309.719 140.909C310.166 141.116 310.533 141.405 310.819 141.777C311.105 142.149 311.282 142.583 311.351 143.079H310.132C310.039 142.717 309.832 142.397 309.512 142.118C309.195 141.836 308.768 141.695 308.231 141.695C307.756 141.695 307.339 141.819 306.981 142.066C306.626 142.311 306.349 142.657 306.149 143.105C305.953 143.549 305.855 144.071 305.855 144.67C305.855 145.283 305.951 145.816 306.144 146.271C306.34 146.726 306.616 147.079 306.971 147.33C307.329 147.581 307.749 147.707 308.231 147.707C308.548 147.707 308.835 147.652 309.094 147.542C309.352 147.431 309.57 147.273 309.749 147.066C309.929 146.86 310.056 146.612 310.132 146.323H311.351C311.282 146.791 311.111 147.213 310.839 147.588C310.571 147.96 310.214 148.256 309.77 148.477C309.329 148.694 308.816 148.802 308.231 148.802ZM315.467 148.823C314.965 148.823 314.508 148.728 314.099 148.539C313.689 148.346 313.363 148.069 313.122 147.707C312.881 147.342 312.761 146.901 312.761 146.385C312.761 145.93 312.85 145.562 313.029 145.279C313.209 144.993 313.448 144.77 313.747 144.608C314.047 144.446 314.378 144.325 314.739 144.246C315.104 144.164 315.471 144.098 315.839 144.05C316.321 143.988 316.712 143.941 317.012 143.91C317.315 143.876 317.535 143.819 317.673 143.74C317.814 143.661 317.885 143.523 317.885 143.327V143.285C317.885 142.776 317.745 142.38 317.466 142.097C317.191 141.815 316.773 141.674 316.211 141.674C315.629 141.674 315.173 141.801 314.842 142.056C314.512 142.311 314.279 142.583 314.145 142.872L312.988 142.459C313.195 141.977 313.47 141.602 313.815 141.333C314.162 141.061 314.541 140.872 314.951 140.765C315.364 140.655 315.77 140.6 316.17 140.6C316.425 140.6 316.717 140.631 317.048 140.693C317.382 140.751 317.704 140.873 318.014 141.059C318.327 141.245 318.587 141.526 318.794 141.901C319.001 142.277 319.104 142.779 319.104 143.409V148.637H317.885V147.562H317.823C317.74 147.735 317.602 147.919 317.41 148.115C317.217 148.311 316.96 148.478 316.64 148.616C316.32 148.754 315.929 148.823 315.467 148.823ZM315.653 147.728C316.135 147.728 316.542 147.633 316.872 147.444C317.206 147.254 317.458 147.01 317.627 146.71C317.799 146.41 317.885 146.095 317.885 145.765V144.649C317.833 144.711 317.72 144.768 317.544 144.82C317.372 144.868 317.172 144.911 316.945 144.949C316.721 144.983 316.502 145.014 316.289 145.042C316.079 145.066 315.908 145.086 315.777 145.104C315.461 145.145 315.164 145.212 314.889 145.305C314.617 145.395 314.397 145.531 314.228 145.713C314.062 145.892 313.98 146.137 313.98 146.447C313.98 146.87 314.137 147.19 314.45 147.407C314.767 147.621 315.168 147.728 315.653 147.728ZM322.548 138.058V148.637H321.329V138.058H322.548ZM325.999 138.058V148.637H324.78V138.058H325.999ZM329.823 145.662V145.6C329.83 144.942 329.899 144.418 330.03 144.029C330.161 143.64 330.347 143.325 330.588 143.084C330.829 142.843 331.118 142.621 331.455 142.418C331.658 142.294 331.841 142.147 332.003 141.979C332.165 141.806 332.292 141.608 332.385 141.385C332.481 141.161 332.53 140.913 332.53 140.641C332.53 140.303 332.451 140.011 332.292 139.763C332.134 139.515 331.922 139.324 331.657 139.189C331.392 139.055 331.097 138.988 330.774 138.988C330.491 138.988 330.219 139.047 329.957 139.164C329.696 139.281 329.477 139.465 329.301 139.716C329.126 139.968 329.024 140.297 328.997 140.703H327.695C327.723 140.117 327.874 139.616 328.15 139.2C328.428 138.783 328.795 138.465 329.25 138.244C329.708 138.024 330.216 137.914 330.774 137.914C331.38 137.914 331.906 138.034 332.354 138.275C332.805 138.516 333.153 138.847 333.397 139.267C333.645 139.687 333.769 140.166 333.769 140.703C333.769 141.082 333.711 141.424 333.594 141.731C333.48 142.037 333.315 142.311 333.098 142.552C332.884 142.793 332.626 143.007 332.323 143.193C332.02 143.382 331.777 143.582 331.595 143.792C331.412 143.998 331.28 144.245 331.197 144.53C331.114 144.816 331.07 145.173 331.063 145.6V145.662H329.823ZM330.484 148.719C330.229 148.719 330.011 148.628 329.828 148.446C329.646 148.263 329.555 148.044 329.555 147.79C329.555 147.535 329.646 147.316 329.828 147.134C330.011 146.951 330.229 146.86 330.484 146.86C330.739 146.86 330.958 146.951 331.14 147.134C331.323 147.316 331.414 147.535 331.414 147.79C331.414 147.958 331.371 148.113 331.285 148.254C331.202 148.396 331.09 148.509 330.949 148.595C330.811 148.678 330.656 148.719 330.484 148.719Z" fill="white" fill-opacity="0.88"/>
<rect x="205.455" y="176.455" width="132.727" height="32.7272" rx="3.63636" fill="#FF2D2D"/>
<rect x="205.455" y="176.455" width="132.727" height="32.7272" rx="3.63636" fill="black" fill-opacity="0.2"/>
<path d="M254.335 197.318V188.062H255.732V196.116H259.926V197.318H254.335ZM264.403 197.458C263.719 197.458 263.13 197.312 262.636 197.02C262.144 196.725 261.765 196.31 261.497 195.777C261.231 195.241 261.099 194.613 261.099 193.892C261.099 193.181 261.231 192.555 261.497 192.012C261.765 191.47 262.138 191.047 262.617 190.742C263.1 190.438 263.663 190.286 264.308 190.286C264.7 190.286 265.079 190.351 265.447 190.48C265.814 190.61 266.144 190.813 266.437 191.09C266.729 191.368 266.959 191.728 267.128 192.171C267.297 192.61 267.381 193.145 267.381 193.775V194.254H261.863V193.242H266.057C266.057 192.886 265.985 192.571 265.84 192.297C265.695 192.02 265.492 191.801 265.23 191.642C264.971 191.482 264.666 191.402 264.317 191.402C263.937 191.402 263.606 191.496 263.323 191.682C263.042 191.866 262.825 192.107 262.672 192.406C262.521 192.701 262.446 193.022 262.446 193.368V194.159C262.446 194.623 262.527 195.018 262.69 195.343C262.856 195.669 263.086 195.917 263.381 196.089C263.677 196.258 264.022 196.342 264.416 196.342C264.672 196.342 264.906 196.306 265.117 196.234C265.328 196.158 265.51 196.047 265.664 195.899C265.817 195.752 265.935 195.569 266.016 195.352L267.295 195.583C267.193 195.959 267.009 196.289 266.744 196.573C266.482 196.853 266.152 197.071 265.754 197.228C265.359 197.382 264.909 197.458 264.403 197.458ZM270.901 197.472C270.461 197.472 270.063 197.391 269.708 197.228C269.352 197.062 269.07 196.823 268.862 196.509C268.658 196.196 268.555 195.812 268.555 195.357C268.555 194.965 268.63 194.643 268.781 194.39C268.932 194.137 269.135 193.936 269.391 193.789C269.647 193.641 269.934 193.529 270.25 193.454C270.566 193.379 270.889 193.322 271.217 193.282C271.633 193.234 271.97 193.195 272.23 193.165C272.489 193.132 272.677 193.079 272.795 193.007C272.912 192.934 272.971 192.817 272.971 192.654V192.622C272.971 192.228 272.859 191.922 272.636 191.705C272.416 191.488 272.088 191.38 271.651 191.38C271.196 191.38 270.838 191.481 270.575 191.682C270.316 191.881 270.137 192.103 270.038 192.347L268.768 192.058C268.918 191.636 269.138 191.295 269.427 191.036C269.72 190.774 270.056 190.584 270.435 190.467C270.815 190.346 271.214 190.286 271.633 190.286C271.91 190.286 272.204 190.319 272.514 190.385C272.828 190.449 273.12 190.566 273.391 190.738C273.665 190.91 273.89 191.155 274.065 191.474C274.239 191.791 274.327 192.202 274.327 192.708V197.318H273.007V196.369H272.953C272.865 196.544 272.734 196.716 272.56 196.884C272.385 197.053 272.16 197.193 271.886 197.305C271.612 197.416 271.283 197.472 270.901 197.472ZM271.195 196.387C271.568 196.387 271.888 196.313 272.153 196.166C272.421 196.018 272.624 195.825 272.763 195.587C272.905 195.346 272.975 195.089 272.975 194.814V193.92C272.927 193.968 272.834 194.013 272.695 194.055C272.56 194.094 272.404 194.129 272.23 194.159C272.055 194.186 271.885 194.212 271.719 194.236C271.553 194.257 271.415 194.275 271.303 194.29C271.041 194.323 270.801 194.379 270.584 194.457C270.371 194.536 270.199 194.649 270.069 194.796C269.943 194.941 269.879 195.134 269.879 195.375C269.879 195.709 270.003 195.962 270.25 196.134C270.497 196.303 270.812 196.387 271.195 196.387ZM281.817 190.376L279.299 197.318H277.853L275.331 190.376H276.782L278.54 195.718H278.612L280.366 190.376H281.817ZM285.843 197.458C285.159 197.458 284.57 197.312 284.076 197.02C283.584 196.725 283.205 196.31 282.937 195.777C282.671 195.241 282.539 194.613 282.539 193.892C282.539 193.181 282.671 192.555 282.937 192.012C283.205 191.47 283.578 191.047 284.057 190.742C284.54 190.438 285.103 190.286 285.748 190.286C286.14 190.286 286.519 190.351 286.887 190.48C287.254 190.61 287.584 190.813 287.877 191.09C288.169 191.368 288.399 191.728 288.568 192.171C288.737 192.61 288.821 193.145 288.821 193.775V194.254H283.303V193.242H287.497C287.497 192.886 287.425 192.571 287.28 192.297C287.135 192.02 286.932 191.801 286.67 191.642C286.411 191.482 286.106 191.402 285.757 191.402C285.377 191.402 285.046 191.496 284.763 191.682C284.482 191.866 284.265 192.107 284.112 192.406C283.961 192.701 283.886 193.022 283.886 193.368V194.159C283.886 194.623 283.967 195.018 284.13 195.343C284.295 195.669 284.526 195.917 284.821 196.089C285.117 196.258 285.462 196.342 285.856 196.342C286.112 196.342 286.346 196.306 286.557 196.234C286.768 196.158 286.95 196.047 287.104 195.899C287.257 195.752 287.375 195.569 287.456 195.352L288.735 195.583C288.633 195.959 288.449 196.289 288.184 196.573C287.922 196.853 287.592 197.071 287.194 197.228C286.799 197.382 286.349 197.458 285.843 197.458Z" fill="white"/>
<rect x="61.8184" y="176.455" width="132.727" height="32.7272" rx="3.63636" fill="#2C2C2C"/>
<path d="M115.387 191.072H113.977C113.923 190.771 113.822 190.506 113.674 190.277C113.526 190.048 113.346 189.853 113.132 189.694C112.918 189.534 112.678 189.414 112.413 189.332C112.151 189.251 111.872 189.21 111.577 189.21C111.044 189.21 110.566 189.344 110.144 189.612C109.725 189.881 109.394 190.274 109.15 190.792C108.909 191.31 108.788 191.943 108.788 192.69C108.788 193.444 108.909 194.079 109.15 194.598C109.394 195.116 109.727 195.507 110.149 195.773C110.571 196.038 111.045 196.17 111.572 196.17C111.865 196.17 112.142 196.131 112.404 196.053C112.669 195.972 112.909 195.852 113.123 195.696C113.337 195.539 113.517 195.348 113.665 195.122C113.816 194.893 113.92 194.631 113.977 194.335L115.387 194.34C115.312 194.795 115.165 195.214 114.949 195.596C114.735 195.976 114.459 196.304 114.121 196.582C113.787 196.856 113.404 197.068 112.973 197.219C112.543 197.37 112.073 197.445 111.563 197.445C110.762 197.445 110.048 197.255 109.421 196.875C108.794 196.493 108.3 195.946 107.939 195.235C107.58 194.524 107.401 193.676 107.401 192.69C107.401 191.702 107.582 190.854 107.943 190.146C108.305 189.435 108.799 188.889 109.426 188.51C110.052 188.127 110.765 187.936 111.563 187.936C112.054 187.936 112.512 188.006 112.937 188.148C113.365 188.287 113.749 188.492 114.09 188.763C114.43 189.031 114.712 189.359 114.935 189.748C115.158 190.134 115.309 190.575 115.387 191.072ZM118.97 197.472C118.53 197.472 118.132 197.391 117.777 197.228C117.421 197.062 117.139 196.823 116.932 196.509C116.727 196.196 116.624 195.812 116.624 195.357C116.624 194.965 116.7 194.643 116.85 194.39C117.001 194.137 117.204 193.936 117.46 193.789C117.716 193.641 118.003 193.529 118.319 193.454C118.635 193.379 118.958 193.322 119.286 193.282C119.702 193.234 120.04 193.195 120.299 193.165C120.558 193.132 120.746 193.079 120.864 193.007C120.981 192.934 121.04 192.817 121.04 192.654V192.622C121.04 192.228 120.928 191.922 120.705 191.705C120.485 191.488 120.157 191.38 119.72 191.38C119.265 191.38 118.907 191.481 118.644 191.682C118.385 191.881 118.206 192.103 118.107 192.347L116.837 192.058C116.987 191.636 117.207 191.295 117.496 191.036C117.789 190.774 118.125 190.584 118.504 190.467C118.884 190.346 119.283 190.286 119.702 190.286C119.979 190.286 120.273 190.319 120.583 190.385C120.897 190.449 121.189 190.566 121.46 190.738C121.734 190.91 121.959 191.155 122.134 191.474C122.308 191.791 122.396 192.202 122.396 192.708V197.318H121.076V196.369H121.022C120.934 196.544 120.803 196.716 120.629 196.884C120.454 197.053 120.229 197.193 119.955 197.305C119.681 197.416 119.353 197.472 118.97 197.472ZM119.264 196.387C119.637 196.387 119.957 196.313 120.222 196.166C120.49 196.018 120.693 195.825 120.832 195.587C120.974 195.346 121.044 195.089 121.044 194.814V193.92C120.996 193.968 120.903 194.013 120.764 194.055C120.629 194.094 120.473 194.129 120.299 194.159C120.124 194.186 119.954 194.212 119.788 194.236C119.622 194.257 119.484 194.275 119.372 194.29C119.11 194.323 118.87 194.379 118.653 194.457C118.44 194.536 118.268 194.649 118.138 194.796C118.012 194.941 117.948 195.134 117.948 195.375C117.948 195.709 118.072 195.962 118.319 196.134C118.566 196.303 118.881 196.387 119.264 196.387ZM125.547 193.196V197.318H124.196V190.376H125.493V191.506H125.579C125.738 191.139 125.988 190.843 126.329 190.62C126.672 190.397 127.105 190.286 127.626 190.286C128.099 190.286 128.513 190.385 128.869 190.584C129.225 190.78 129.5 191.072 129.696 191.461C129.892 191.85 129.99 192.33 129.99 192.903V197.318H128.638V193.065C128.638 192.562 128.507 192.169 128.245 191.886C127.983 191.6 127.623 191.456 127.165 191.456C126.852 191.456 126.573 191.524 126.329 191.66C126.088 191.795 125.897 191.994 125.755 192.256C125.616 192.516 125.547 192.829 125.547 193.196ZM134.726 197.458C134.054 197.458 133.476 197.306 132.991 197.002C132.509 196.695 132.138 196.271 131.879 195.732C131.62 195.193 131.49 194.575 131.49 193.879C131.49 193.174 131.623 192.552 131.888 192.012C132.153 191.47 132.527 191.047 133.009 190.742C133.491 190.438 134.059 190.286 134.713 190.286C135.24 190.286 135.71 190.384 136.123 190.58C136.536 190.772 136.869 191.044 137.122 191.393C137.378 191.743 137.53 192.151 137.578 192.618H136.263C136.191 192.293 136.025 192.012 135.766 191.777C135.51 191.542 135.166 191.425 134.735 191.425C134.359 191.425 134.029 191.524 133.746 191.723C133.465 191.919 133.247 192.199 133.09 192.564C132.934 192.925 132.855 193.353 132.855 193.847C132.855 194.353 132.932 194.79 133.086 195.158C133.239 195.526 133.456 195.81 133.737 196.012C134.02 196.214 134.353 196.315 134.735 196.315C134.992 196.315 135.224 196.268 135.431 196.175C135.642 196.078 135.819 195.941 135.96 195.764C136.105 195.586 136.206 195.372 136.263 195.122H137.578C137.53 195.571 137.384 195.972 137.14 196.324C136.896 196.677 136.569 196.954 136.159 197.156C135.752 197.358 135.275 197.458 134.726 197.458ZM142.015 197.458C141.331 197.458 140.742 197.312 140.248 197.02C139.757 196.725 139.377 196.31 139.109 195.777C138.844 195.241 138.712 194.613 138.712 193.892C138.712 193.181 138.844 192.555 139.109 192.012C139.377 191.47 139.751 191.047 140.23 190.742C140.712 190.438 141.276 190.286 141.921 190.286C142.312 190.286 142.692 190.351 143.059 190.48C143.427 190.61 143.757 190.813 144.049 191.09C144.342 191.368 144.572 191.728 144.741 192.171C144.909 192.61 144.994 193.145 144.994 193.775V194.254H139.475V193.242H143.67C143.67 192.886 143.597 192.571 143.453 192.297C143.308 192.02 143.105 191.801 142.843 191.642C142.583 191.482 142.279 191.402 141.93 191.402C141.55 191.402 141.218 191.496 140.935 191.682C140.655 191.866 140.438 192.107 140.284 192.406C140.134 192.701 140.058 193.022 140.058 193.368V194.159C140.058 194.623 140.14 195.018 140.302 195.343C140.468 195.669 140.699 195.917 140.994 196.089C141.289 196.258 141.634 196.342 142.029 196.342C142.285 196.342 142.519 196.306 142.73 196.234C142.94 196.158 143.123 196.047 143.276 195.899C143.43 195.752 143.548 195.569 143.629 195.352L144.908 195.583C144.806 195.959 144.622 196.289 144.357 196.573C144.094 196.853 143.765 197.071 143.367 197.228C142.972 197.382 142.522 197.458 142.015 197.458ZM147.845 188.062V197.318H146.493V188.062H147.845Z" fill="white"/>
</svg>
