<svg width="400" height="300" viewBox="0 0 400 300" fill="none" xmlns="http://www.w3.org/2000/svg">
<rect width="400" height="300" fill="#E0E9FF"/>
<rect x="40" y="59" width="320" height="183" rx="7.27272" fill="#1A1A1A"/>
<path d="M65.9325 97.8184H62.3375L67.8153 81.9506H72.1386L77.6086 97.8184H74.0136L70.0389 85.5766H69.9149L65.9325 97.8184ZM65.7078 91.5813H74.1995V94.2001H65.7078V91.5813ZM82.7571 81.9506V97.8184H79.4565V81.9506H82.7571ZM88.7017 81.9506V97.8184H85.4011V81.9506H88.7017ZM96.7228 98.0508C95.5193 98.0508 94.4785 97.7951 93.6004 97.2838C92.7274 96.7672 92.0534 96.0492 91.5782 95.1298C91.1029 94.2052 90.8653 93.1334 90.8653 91.9144C90.8653 90.6851 91.1029 89.6107 91.5782 88.6913C92.0534 87.7667 92.7274 87.0487 93.6004 86.5374C94.4785 86.0208 95.5193 85.7626 96.7228 85.7626C97.9263 85.7626 98.9645 86.0208 99.8374 86.5374C100.716 87.0487 101.392 87.7667 101.867 88.6913C102.343 89.6107 102.58 90.6851 102.58 91.9144C102.58 93.1334 102.343 94.2052 101.867 95.1298C101.392 96.0492 100.716 96.7672 99.8374 97.2838C98.9645 97.7951 97.9263 98.0508 96.7228 98.0508ZM96.7383 95.494C97.2858 95.494 97.7429 95.339 98.1097 95.0291C98.4764 94.714 98.7527 94.2853 98.9387 93.7429C99.1298 93.2006 99.2254 92.5833 99.2254 91.8912C99.2254 91.199 99.1298 90.5818 98.9387 90.0394C98.7527 89.4971 98.4764 89.0684 98.1097 88.7533C97.7429 88.4382 97.2858 88.2807 96.7383 88.2807C96.1856 88.2807 95.7207 88.4382 95.3436 88.7533C94.9717 89.0684 94.6902 89.4971 94.4991 90.0394C94.3132 90.5818 94.2202 91.199 94.2202 91.8912C94.2202 92.5833 94.3132 93.2006 94.4991 93.7429C94.6902 94.2853 94.9717 94.714 95.3436 95.0291C95.7207 95.339 96.1856 95.494 96.7383 95.494ZM106.776 97.8184L103.537 85.9175H106.876L108.72 93.9134H108.829L110.75 85.9175H114.028L115.98 93.8669H116.081L117.894 85.9175H121.226L117.995 97.8184H114.5L112.455 90.3339H112.308L110.262 97.8184H106.776ZM130.833 97.8184H127.238L132.716 81.9506H137.039L142.509 97.8184H138.914L134.939 85.5766H134.815L130.833 97.8184ZM130.608 91.5813H139.1V94.2001H130.608V91.5813ZM151.989 92.7512V85.9175H155.289V97.8184H152.12V95.6567H151.996C151.728 96.354 151.281 96.9144 150.656 97.338C150.036 97.7615 149.28 97.9733 148.386 97.9733C147.591 97.9733 146.891 97.7925 146.286 97.431C145.682 97.0694 145.209 96.5554 144.868 95.8891C144.533 95.2228 144.362 94.4248 144.357 93.495V85.9175H147.658V92.9062C147.663 93.6087 147.851 94.1639 148.223 94.572C148.595 94.98 149.094 95.1841 149.719 95.1841C150.116 95.1841 150.488 95.0937 150.834 94.9129C151.18 94.7269 151.459 94.4532 151.671 94.0916C151.888 93.73 151.994 93.2832 151.989 92.7512ZM162.315 98.0121C161.411 98.0121 160.592 97.7796 159.859 97.3147C159.13 96.8447 158.552 96.1551 158.123 95.246C157.7 94.3318 157.488 93.2109 157.488 91.8834C157.488 90.5198 157.707 89.386 158.146 88.4821C158.585 87.573 159.169 86.8938 159.897 86.4444C160.631 85.9899 161.434 85.7626 162.307 85.7626C162.973 85.7626 163.529 85.8762 163.973 86.1035C164.422 86.3256 164.784 86.6045 165.058 86.9403C165.336 87.2708 165.548 87.5963 165.693 87.9165H165.794V81.9506H169.086V97.8184H165.832V95.9124H165.693C165.538 96.2429 165.318 96.5709 165.034 96.8964C164.755 97.2166 164.391 97.4826 163.942 97.6944C163.498 97.9062 162.955 98.0121 162.315 98.0121ZM163.361 95.3855C163.893 95.3855 164.342 95.2409 164.709 94.9516C165.081 94.6572 165.365 94.2466 165.561 93.7197C165.763 93.1928 165.863 92.5756 165.863 91.868C165.863 91.1603 165.765 90.5456 165.569 90.0239C165.373 89.5022 165.089 89.0994 164.717 88.8153C164.345 88.5312 163.893 88.3891 163.361 88.3891C162.818 88.3891 162.361 88.5363 161.989 88.8308C161.617 89.1252 161.336 89.5332 161.145 90.0549C160.954 90.5766 160.858 91.181 160.858 91.868C160.858 92.5601 160.954 93.1722 161.145 93.7042C161.341 94.2311 161.623 94.6443 161.989 94.9439C162.361 95.2383 162.818 95.3855 163.361 95.3855ZM171.8 97.8184V85.9175H175.101V97.8184H171.8ZM173.458 84.3835C172.968 84.3835 172.547 84.2207 172.195 83.8953C171.849 83.5648 171.676 83.1696 171.676 82.7099C171.676 82.2554 171.849 81.8654 172.195 81.54C172.547 81.2094 172.968 81.0441 173.458 81.0441C173.949 81.0441 174.367 81.2094 174.713 81.54C175.065 81.8654 175.24 82.2554 175.24 82.7099C175.24 83.1696 175.065 83.5648 174.713 83.8953C174.367 84.2207 173.949 84.3835 173.458 84.3835ZM183.122 98.0508C181.918 98.0508 180.878 97.7951 179.999 97.2838C179.127 96.7672 178.452 96.0492 177.977 95.1298C177.502 94.2052 177.264 93.1334 177.264 91.9144C177.264 90.6851 177.502 89.6107 177.977 88.6913C178.452 87.7667 179.127 87.0487 179.999 86.5374C180.878 86.0208 181.918 85.7626 183.122 85.7626C184.325 85.7626 185.364 86.0208 186.237 86.5374C187.115 87.0487 187.791 87.7667 188.266 88.6913C188.742 89.6107 188.979 90.6851 188.979 91.9144C188.979 93.1334 188.742 94.2052 188.266 95.1298C187.791 96.0492 187.115 96.7672 186.237 97.2838C185.364 97.7951 184.325 98.0508 183.122 98.0508ZM183.137 95.494C183.685 95.494 184.142 95.339 184.509 95.0291C184.875 94.714 185.152 94.2853 185.338 93.7429C185.529 93.2006 185.624 92.5833 185.624 91.8912C185.624 91.199 185.529 90.5818 185.338 90.0394C185.152 89.4971 184.875 89.0684 184.509 88.7533C184.142 88.4382 183.685 88.2807 183.137 88.2807C182.585 88.2807 182.12 88.4382 181.743 88.7533C181.371 89.0684 181.089 89.4971 180.898 90.0394C180.712 90.5818 180.619 91.199 180.619 91.8912C180.619 92.5833 180.712 93.2006 180.898 93.7429C181.089 94.2853 181.371 94.714 181.743 95.0291C182.12 95.339 182.585 95.494 183.137 95.494ZM196.237 97.8184V81.9506H202.497C203.701 81.9506 204.726 82.1805 205.573 82.6402C206.421 83.0947 207.066 83.7275 207.51 84.5384C207.96 85.3442 208.184 86.2739 208.184 87.3277C208.184 88.3814 207.957 89.3111 207.503 90.1169C207.048 90.9227 206.39 91.5503 205.527 91.9997C204.669 92.449 203.631 92.6737 202.412 92.6737H198.422V89.9852H201.87C202.516 89.9852 203.048 89.8742 203.466 89.652C203.89 89.4248 204.205 89.1123 204.411 88.7145C204.623 88.3117 204.729 87.8494 204.729 87.3277C204.729 86.8008 204.623 86.3411 204.411 85.9485C204.205 85.5508 203.89 85.2435 203.466 85.0265C203.042 84.8044 202.505 84.6934 201.854 84.6934H199.592V97.8184H196.237ZM213.602 81.9506V97.8184H210.302V81.9506H213.602ZM219.64 98.043C218.88 98.043 218.204 97.9113 217.61 97.6479C217.016 97.3793 216.546 96.9842 216.2 96.4625C215.859 95.9356 215.688 95.2796 215.688 94.4945C215.688 93.8333 215.81 93.2781 216.052 92.8287C216.295 92.3793 216.626 92.0177 217.044 91.744C217.463 91.4702 217.938 91.2636 218.47 91.1241C219.007 90.9847 219.57 90.8865 220.159 90.8297C220.851 90.7574 221.409 90.6903 221.832 90.6283C222.256 90.5611 222.563 90.463 222.754 90.3339C222.946 90.2047 223.041 90.0136 223.041 89.7605V89.714C223.041 89.2233 222.886 88.8437 222.576 88.5751C222.271 88.3065 221.838 88.1722 221.275 88.1722C220.681 88.1722 220.208 88.3039 219.857 88.5673C219.505 88.8256 219.273 89.151 219.159 89.5436L216.107 89.2956C216.262 88.5725 216.566 87.9475 217.021 87.4206C217.476 86.8886 218.062 86.4806 218.78 86.1965C219.503 85.9072 220.34 85.7626 221.29 85.7626C221.951 85.7626 222.584 85.8401 223.188 85.995C223.798 86.15 224.338 86.3902 224.808 86.7156C225.283 87.041 225.657 87.4594 225.931 87.9707C226.205 88.4769 226.342 89.0839 226.342 89.7915V97.8184H223.212V96.1681H223.119C222.927 96.54 222.672 96.8679 222.352 97.152C222.031 97.431 221.646 97.6505 221.197 97.8106C220.748 97.9656 220.229 98.043 219.64 98.043ZM220.585 95.7652C221.071 95.7652 221.499 95.6696 221.871 95.4785C222.243 95.2822 222.535 95.0188 222.747 94.6882C222.958 94.3576 223.064 93.9831 223.064 93.5647V92.3018C222.961 92.369 222.819 92.431 222.638 92.4878C222.463 92.5394 222.264 92.5885 222.042 92.635C221.82 92.6763 221.597 92.7151 221.375 92.7512C221.153 92.7822 220.952 92.8106 220.771 92.8364C220.384 92.8933 220.045 92.9837 219.756 93.1076C219.467 93.2316 219.242 93.3995 219.082 93.6112C218.922 93.8178 218.842 94.0761 218.842 94.386C218.842 94.8354 219.004 95.1789 219.33 95.4165C219.66 95.6489 220.079 95.7652 220.585 95.7652ZM230.514 102.281C230.096 102.281 229.703 102.248 229.336 102.18C228.975 102.118 228.675 102.038 228.438 101.94L229.181 99.4764C229.569 99.5952 229.917 99.6598 230.227 99.6701C230.542 99.6804 230.814 99.6081 231.041 99.4532C231.273 99.2982 231.462 99.0348 231.606 98.6629L231.8 98.1593L227.531 85.9175H231.002L233.466 94.6572H233.59L236.077 85.9175H239.571L234.946 99.1045C234.724 99.745 234.422 100.303 234.039 100.778C233.662 101.258 233.184 101.628 232.606 101.886C232.027 102.149 231.33 102.281 230.514 102.281ZM241.322 97.8184V81.9506H244.623V87.9165H244.724C244.868 87.5963 245.078 87.2708 245.351 86.9403C245.63 86.6045 245.992 86.3256 246.436 86.1035C246.885 85.8762 247.443 85.7626 248.11 85.7626C248.977 85.7626 249.778 85.9899 250.511 86.4444C251.245 86.8938 251.831 87.573 252.27 88.4821C252.709 89.386 252.929 90.5198 252.929 91.8834C252.929 93.2109 252.714 94.3318 252.286 95.246C251.862 96.1551 251.284 96.8447 250.55 97.3147C249.822 97.7796 249.006 98.0121 248.102 98.0121C247.461 98.0121 246.916 97.9062 246.467 97.6944C246.023 97.4826 245.659 97.2166 245.375 96.8964C245.09 96.5709 244.873 96.2429 244.724 95.9124H244.576V97.8184H241.322ZM244.553 91.868C244.553 92.5756 244.651 93.1928 244.848 93.7197C245.044 94.2466 245.328 94.6572 245.7 94.9516C246.072 95.2409 246.524 95.3855 247.056 95.3855C247.593 95.3855 248.048 95.2383 248.419 94.9439C248.791 94.6443 249.073 94.2311 249.264 93.7042C249.46 93.1722 249.558 92.5601 249.558 91.868C249.558 91.181 249.463 90.5766 249.272 90.0549C249.081 89.5332 248.799 89.1252 248.427 88.8308C248.055 88.5363 247.598 88.3891 247.056 88.3891C246.519 88.3891 246.064 88.5312 245.692 88.8153C245.325 89.0994 245.044 89.5022 244.848 90.0239C244.651 90.5456 244.553 91.1603 244.553 91.868ZM258.525 98.043C257.765 98.043 257.089 97.9113 256.495 97.6479C255.901 97.3793 255.431 96.9842 255.085 96.4625C254.744 95.9356 254.573 95.2796 254.573 94.4945C254.573 93.8333 254.695 93.2781 254.937 92.8287C255.18 92.3793 255.511 92.0177 255.929 91.744C256.348 91.4702 256.823 91.2636 257.355 91.1241C257.892 90.9847 258.455 90.8865 259.044 90.8297C259.736 90.7574 260.294 90.6903 260.717 90.6283C261.141 90.5611 261.448 90.463 261.639 90.3339C261.83 90.2047 261.926 90.0136 261.926 89.7605V89.714C261.926 89.2233 261.771 88.8437 261.461 88.5751C261.156 88.3065 260.723 88.1722 260.16 88.1722C259.565 88.1722 259.093 88.3039 258.742 88.5673C258.39 88.8256 258.158 89.151 258.044 89.5436L254.992 89.2956C255.147 88.5725 255.451 87.9475 255.906 87.4206C256.36 86.8886 256.947 86.4806 257.665 86.1965C258.388 85.9072 259.225 85.7626 260.175 85.7626C260.836 85.7626 261.469 85.8401 262.073 85.995C262.683 86.15 263.223 86.3902 263.693 86.7156C264.168 87.041 264.542 87.4594 264.816 87.9707C265.09 88.4769 265.227 89.0839 265.227 89.7915V97.8184H262.096V96.1681H262.004C261.812 96.54 261.557 96.8679 261.236 97.152C260.916 97.431 260.531 97.6505 260.082 97.8106C259.633 97.9656 259.114 98.043 258.525 98.043ZM259.47 95.7652C259.955 95.7652 260.384 95.6696 260.756 95.4785C261.128 95.2822 261.42 95.0188 261.632 94.6882C261.843 94.3576 261.949 93.9831 261.949 93.5647V92.3018C261.846 92.369 261.704 92.431 261.523 92.4878C261.348 92.5394 261.149 92.5885 260.927 92.635C260.704 92.6763 260.482 92.7151 260.26 92.7512C260.038 92.7822 259.837 92.8106 259.656 92.8364C259.268 92.8933 258.93 92.9837 258.641 93.1076C258.352 93.2316 258.127 93.3995 257.967 93.6112C257.807 93.8178 257.727 94.0761 257.727 94.386C257.727 94.8354 257.889 95.1789 258.215 95.4165C258.545 95.6489 258.964 95.7652 259.47 95.7652ZM273.164 98.0508C271.945 98.0508 270.897 97.7925 270.019 97.276C269.146 96.7543 268.474 96.0312 268.004 95.1066C267.539 94.182 267.307 93.1179 267.307 91.9144C267.307 90.6954 267.542 89.6262 268.012 88.7068C268.487 87.7822 269.161 87.0617 270.034 86.5451C270.907 86.0234 271.945 85.7626 273.149 85.7626C274.187 85.7626 275.096 85.9511 275.876 86.3282C276.656 86.7052 277.273 87.2347 277.728 87.9165C278.182 88.5983 278.433 89.3989 278.479 90.3184H275.365C275.277 89.7244 275.045 89.2466 274.667 88.885C274.296 88.5183 273.807 88.3349 273.203 88.3349C272.692 88.3349 272.245 88.4744 271.863 88.7533C271.486 89.027 271.191 89.4274 270.979 89.9542C270.768 90.4811 270.662 91.119 270.662 91.868C270.662 92.6272 270.765 93.2729 270.972 93.8049C271.184 94.337 271.481 94.7424 271.863 95.0214C272.245 95.3003 272.692 95.4397 273.203 95.4397C273.58 95.4397 273.919 95.3623 274.218 95.2073C274.523 95.0523 274.773 94.8277 274.97 94.5332C275.171 94.2337 275.303 93.8747 275.365 93.4563H278.479C278.428 94.3654 278.18 95.166 277.736 95.8581C277.297 96.5451 276.69 97.0823 275.915 97.4697C275.14 97.8571 274.223 98.0508 273.164 98.0508ZM283.583 94.3938L283.591 90.4346H284.072L287.884 85.9175H291.672L286.551 91.8989H285.768L283.583 94.3938ZM280.593 97.8184V81.9506H283.893V97.8184H280.593ZM288.031 97.8184L284.529 92.635L286.729 90.3029L291.897 97.8184H288.031Z" fill="white"/>
<path d="M64.3803 127.058V137.637H63.0994V127.058H64.3803ZM68.0025 132.864V137.637H66.7835V129.703H67.9612V130.943H68.0645C68.2504 130.54 68.5328 130.216 68.9116 129.971C69.2904 129.724 69.7794 129.6 70.3785 129.6C70.9157 129.6 71.3858 129.71 71.7887 129.93C72.1915 130.147 72.5049 130.478 72.7287 130.922C72.9526 131.363 73.0645 131.92 73.0645 132.595V137.637H71.8455V132.678C71.8455 132.055 71.6836 131.569 71.3599 131.221C71.0362 130.87 70.592 130.695 70.0273 130.695C69.6382 130.695 69.2904 130.779 68.9839 130.948C68.6809 131.116 68.4415 131.363 68.2659 131.686C68.0903 132.01 68.0025 132.403 68.0025 132.864ZM82.6061 137.802C81.8898 137.802 81.2614 137.632 80.7207 137.291C80.1835 136.95 79.7634 136.473 79.4604 135.86C79.1608 135.247 79.011 134.531 79.011 133.711C79.011 132.885 79.1608 132.163 79.4604 131.547C79.7634 130.93 80.1835 130.452 80.7207 130.111C81.2614 129.77 81.8898 129.6 82.6061 129.6C83.3223 129.6 83.949 129.77 84.4862 130.111C85.0268 130.452 85.447 130.93 85.7465 131.547C86.0496 132.163 86.2011 132.885 86.2011 133.711C86.2011 134.531 86.0496 135.247 85.7465 135.86C85.447 136.473 85.0268 136.95 84.4862 137.291C83.949 137.632 83.3223 137.802 82.6061 137.802ZM82.6061 136.707C83.1501 136.707 83.5978 136.568 83.949 136.289C84.3003 136.01 84.5603 135.643 84.729 135.188C84.8977 134.734 84.9821 134.241 84.9821 133.711C84.9821 133.181 84.8977 132.687 84.729 132.229C84.5603 131.771 84.3003 131.4 83.949 131.118C83.5978 130.836 83.1501 130.695 82.6061 130.695C82.062 130.695 81.6143 130.836 81.2631 131.118C80.9118 131.4 80.6519 131.771 80.4831 132.229C80.3144 132.687 80.23 133.181 80.23 133.711C80.23 134.241 80.3144 134.734 80.4831 135.188C80.6519 135.643 80.9118 136.01 81.2631 136.289C81.6143 136.568 82.062 136.707 82.6061 136.707ZM88.0619 137.637V129.703H89.2396V130.901H89.3222C89.4668 130.509 89.7285 130.19 90.1073 129.946C90.4861 129.701 90.9131 129.579 91.3883 129.579C91.4779 129.579 91.5898 129.581 91.7241 129.584C91.8584 129.587 91.96 129.593 92.0288 129.6V130.839C91.9875 130.829 91.8928 130.813 91.7447 130.793C91.6001 130.769 91.4469 130.757 91.285 130.757C90.8993 130.757 90.555 130.837 90.252 130.999C89.9524 131.158 89.7148 131.378 89.5392 131.66C89.367 131.939 89.2809 132.258 89.2809 132.616V137.637H88.0619ZM96.2282 137.802C95.567 137.802 94.9834 137.635 94.4772 137.301C93.971 136.964 93.575 136.488 93.2892 135.875C93.0033 135.259 92.8604 134.531 92.8604 133.69C92.8604 132.857 93.0033 132.134 93.2892 131.521C93.575 130.908 93.9727 130.435 94.4823 130.101C94.992 129.767 95.5808 129.6 96.2489 129.6C96.7654 129.6 97.1734 129.686 97.473 129.858C97.7761 130.027 98.0068 130.219 98.1652 130.436C98.327 130.65 98.4527 130.825 98.5422 130.963H98.6456V127.058H99.8646V137.637H98.6869V136.418H98.5422C98.4527 136.562 98.3253 136.745 98.16 136.965C97.9947 137.182 97.7588 137.377 97.4524 137.549C97.1459 137.718 96.7378 137.802 96.2282 137.802ZM96.3935 136.707C96.8825 136.707 97.2957 136.58 97.6332 136.325C97.9706 136.066 98.2272 135.71 98.4028 135.256C98.5784 134.798 98.6662 134.269 98.6662 133.67C98.6662 133.077 98.5801 132.559 98.408 132.115C98.2358 131.667 97.981 131.32 97.6435 131.072C97.306 130.82 96.8894 130.695 96.3935 130.695C95.877 130.695 95.4465 130.827 95.1022 131.092C94.7613 131.354 94.5047 131.71 94.3325 132.162C94.1638 132.609 94.0794 133.112 94.0794 133.67C94.0794 134.235 94.1655 134.748 94.3377 135.209C94.5133 135.667 94.7716 136.032 95.1125 136.304C95.4569 136.573 95.8838 136.707 96.3935 136.707ZM105.593 137.802C104.828 137.802 104.169 137.633 103.615 137.296C103.064 136.955 102.638 136.48 102.339 135.87C102.043 135.257 101.895 134.544 101.895 133.732C101.895 132.919 102.043 132.203 102.339 131.583C102.638 130.96 103.055 130.474 103.589 130.126C104.126 129.775 104.753 129.6 105.469 129.6C105.882 129.6 106.29 129.668 106.693 129.806C107.096 129.944 107.463 130.168 107.793 130.478C108.124 130.784 108.387 131.19 108.584 131.697C108.78 132.203 108.878 132.826 108.878 133.566V134.083H102.762V133.029H107.638C107.638 132.582 107.549 132.182 107.37 131.831C107.194 131.48 106.943 131.202 106.616 130.999C106.292 130.796 105.91 130.695 105.469 130.695C104.983 130.695 104.563 130.815 104.209 131.056C103.857 131.294 103.587 131.604 103.398 131.986C103.208 132.368 103.114 132.778 103.114 133.215V133.918C103.114 134.517 103.217 135.025 103.423 135.441C103.633 135.855 103.924 136.17 104.296 136.387C104.668 136.6 105.1 136.707 105.593 136.707C105.913 136.707 106.202 136.662 106.461 136.573C106.722 136.48 106.948 136.342 107.137 136.159C107.327 135.973 107.473 135.743 107.576 135.467L108.754 135.798C108.63 136.197 108.422 136.549 108.129 136.852C107.836 137.151 107.475 137.385 107.044 137.554C106.614 137.719 106.13 137.802 105.593 137.802ZM110.732 137.637V129.703H111.91V130.901H111.993C112.137 130.509 112.399 130.19 112.778 129.946C113.157 129.701 113.584 129.579 114.059 129.579C114.148 129.579 114.26 129.581 114.395 129.584C114.529 129.587 114.63 129.593 114.699 129.6V130.839C114.658 130.829 114.563 130.813 114.415 130.793C114.271 130.769 114.117 130.757 113.955 130.757C113.57 130.757 113.225 130.837 112.922 130.999C112.623 131.158 112.385 131.378 112.21 131.66C112.037 131.939 111.951 132.258 111.951 132.616V137.637H110.732ZM123.686 129.703V130.736H119.574V129.703H123.686ZM120.772 127.802H121.991V135.364C121.991 135.708 122.041 135.967 122.141 136.139C122.244 136.308 122.375 136.421 122.534 136.48C122.696 136.535 122.866 136.562 123.045 136.562C123.179 136.562 123.29 136.555 123.376 136.542C123.462 136.524 123.531 136.511 123.582 136.5L123.83 137.595C123.748 137.626 123.632 137.657 123.484 137.688C123.336 137.723 123.148 137.74 122.921 137.74C122.577 137.74 122.239 137.666 121.909 137.518C121.582 137.37 121.31 137.144 121.093 136.841C120.879 136.538 120.772 136.156 120.772 135.695V127.802ZM128.657 137.802C127.941 137.802 127.312 137.632 126.772 137.291C126.235 136.95 125.815 136.473 125.511 135.86C125.212 135.247 125.062 134.531 125.062 133.711C125.062 132.885 125.212 132.163 125.511 131.547C125.815 130.93 126.235 130.452 126.772 130.111C127.312 129.77 127.941 129.6 128.657 129.6C129.373 129.6 130 129.77 130.537 130.111C131.078 130.452 131.498 130.93 131.798 131.547C132.101 132.163 132.252 132.885 132.252 133.711C132.252 134.531 132.101 135.247 131.798 135.86C131.498 136.473 131.078 136.95 130.537 137.291C130 137.632 129.373 137.802 128.657 137.802ZM128.657 136.707C129.201 136.707 129.649 136.568 130 136.289C130.351 136.01 130.611 135.643 130.78 135.188C130.949 134.734 131.033 134.241 131.033 133.711C131.033 133.181 130.949 132.687 130.78 132.229C130.611 131.771 130.351 131.4 130 131.118C129.649 130.836 129.201 130.695 128.657 130.695C128.113 130.695 127.665 130.836 127.314 131.118C126.963 131.4 126.703 131.771 126.534 132.229C126.365 132.687 126.281 133.181 126.281 133.711C126.281 134.241 126.365 134.734 126.534 135.188C126.703 135.643 126.963 136.01 127.314 136.289C127.665 136.568 128.113 136.707 128.657 136.707ZM138.204 140.612V129.703H139.382V130.963H139.526C139.616 130.825 139.74 130.65 139.898 130.436C140.06 130.219 140.291 130.027 140.59 129.858C140.893 129.686 141.303 129.6 141.82 129.6C142.488 129.6 143.076 129.767 143.586 130.101C144.096 130.435 144.493 130.908 144.779 131.521C145.065 132.134 145.208 132.857 145.208 133.69C145.208 134.531 145.065 135.259 144.779 135.875C144.493 136.488 144.097 136.964 143.591 137.301C143.085 137.635 142.501 137.802 141.84 137.802C141.331 137.802 140.923 137.718 140.616 137.549C140.31 137.377 140.074 137.182 139.908 136.965C139.743 136.745 139.616 136.562 139.526 136.418H139.423V140.612H138.204ZM139.402 133.67C139.402 134.269 139.49 134.798 139.666 135.256C139.841 135.71 140.098 136.066 140.435 136.325C140.773 136.58 141.186 136.707 141.675 136.707C142.185 136.707 142.61 136.573 142.951 136.304C143.295 136.032 143.553 135.667 143.726 135.209C143.901 134.748 143.989 134.235 143.989 133.67C143.989 133.112 143.903 132.609 143.731 132.162C143.562 131.71 143.305 131.354 142.961 131.092C142.62 130.827 142.191 130.695 141.675 130.695C141.179 130.695 140.762 130.82 140.425 131.072C140.088 131.32 139.833 131.667 139.661 132.115C139.488 132.559 139.402 133.077 139.402 133.67ZM148.287 127.058V137.637H147.068V127.058H148.287ZM152.854 137.823C152.351 137.823 151.895 137.728 151.485 137.539C151.075 137.346 150.75 137.069 150.509 136.707C150.268 136.342 150.147 135.901 150.147 135.385C150.147 134.93 150.237 134.562 150.416 134.279C150.595 133.993 150.834 133.77 151.134 133.608C151.433 133.446 151.764 133.325 152.126 133.246C152.491 133.164 152.857 133.098 153.226 133.05C153.708 132.988 154.099 132.941 154.398 132.91C154.701 132.876 154.922 132.819 155.06 132.74C155.201 132.661 155.271 132.523 155.271 132.327V132.285C155.271 131.776 155.132 131.38 154.853 131.097C154.577 130.815 154.159 130.674 153.598 130.674C153.016 130.674 152.56 130.801 152.229 131.056C151.898 131.311 151.666 131.583 151.532 131.872L150.375 131.459C150.581 130.977 150.857 130.602 151.201 130.333C151.549 130.061 151.928 129.872 152.337 129.765C152.751 129.655 153.157 129.6 153.556 129.6C153.811 129.6 154.104 129.631 154.435 129.693C154.769 129.751 155.091 129.873 155.4 130.059C155.714 130.245 155.974 130.526 156.18 130.901C156.387 131.277 156.49 131.779 156.49 132.409V137.637H155.271V136.562H155.209C155.127 136.735 154.989 136.919 154.796 137.115C154.603 137.311 154.347 137.478 154.026 137.616C153.706 137.754 153.315 137.823 152.854 137.823ZM153.04 136.728C153.522 136.728 153.928 136.633 154.259 136.444C154.593 136.254 154.844 136.01 155.013 135.71C155.185 135.41 155.271 135.095 155.271 134.765V133.649C155.22 133.711 155.106 133.768 154.93 133.82C154.758 133.868 154.558 133.911 154.331 133.949C154.107 133.983 153.889 134.014 153.675 134.042C153.465 134.066 153.295 134.086 153.164 134.104C152.847 134.145 152.551 134.212 152.275 134.305C152.003 134.395 151.783 134.531 151.614 134.713C151.449 134.892 151.366 135.137 151.366 135.447C151.366 135.87 151.523 136.19 151.836 136.407C152.153 136.621 152.554 136.728 153.04 136.728ZM159.216 140.612C159.01 140.612 158.825 140.595 158.664 140.56C158.502 140.529 158.39 140.498 158.328 140.467L158.638 139.393C158.934 139.469 159.196 139.496 159.423 139.476C159.65 139.455 159.852 139.353 160.027 139.171C160.206 138.992 160.37 138.701 160.518 138.298L160.745 137.678L157.811 129.703H159.134L161.324 136.025H161.406L163.596 129.703H164.919L161.551 138.794C161.399 139.204 161.212 139.543 160.988 139.811C160.764 140.083 160.504 140.285 160.208 140.416C159.915 140.546 159.585 140.612 159.216 140.612ZM172.953 137.823C172.451 137.823 171.994 137.728 171.585 137.539C171.175 137.346 170.849 137.069 170.608 136.707C170.367 136.342 170.247 135.901 170.247 135.385C170.247 134.93 170.336 134.562 170.515 134.279C170.694 133.993 170.934 133.77 171.233 133.608C171.533 133.446 171.863 133.325 172.225 133.246C172.59 133.164 172.957 133.098 173.325 133.05C173.807 132.988 174.198 132.941 174.498 132.91C174.801 132.876 175.021 132.819 175.159 132.74C175.3 132.661 175.371 132.523 175.371 132.327V132.285C175.371 131.776 175.231 131.38 174.952 131.097C174.677 130.815 174.258 130.674 173.697 130.674C173.115 130.674 172.659 130.801 172.328 131.056C171.998 131.311 171.765 131.583 171.631 131.872L170.474 131.459C170.681 130.977 170.956 130.602 171.3 130.333C171.648 130.061 172.027 129.872 172.437 129.765C172.85 129.655 173.256 129.6 173.656 129.6C173.911 129.6 174.203 129.631 174.534 129.693C174.868 129.751 175.19 129.873 175.5 130.059C175.813 130.245 176.073 130.526 176.28 130.901C176.486 131.277 176.59 131.779 176.59 132.409V137.637H175.371V136.562H175.309C175.226 136.735 175.088 136.919 174.896 137.115C174.703 137.311 174.446 137.478 174.126 137.616C173.806 137.754 173.415 137.823 172.953 137.823ZM173.139 136.728C173.621 136.728 174.028 136.633 174.358 136.444C174.692 136.254 174.944 136.01 175.112 135.71C175.285 135.41 175.371 135.095 175.371 134.765V133.649C175.319 133.711 175.205 133.768 175.03 133.82C174.858 133.868 174.658 133.911 174.431 133.949C174.207 133.983 173.988 134.014 173.775 134.042C173.565 134.066 173.394 134.086 173.263 134.104C172.946 134.145 172.65 134.212 172.375 134.305C172.103 134.395 171.882 134.531 171.714 134.713C171.548 134.892 171.466 135.137 171.466 135.447C171.466 135.87 171.622 136.19 171.936 136.407C172.253 136.621 172.654 136.728 173.139 136.728ZM183.815 134.393V129.703H185.034V137.637H183.815V136.294H183.732C183.546 136.697 183.257 137.039 182.864 137.322C182.472 137.601 181.976 137.74 181.377 137.74C180.881 137.74 180.44 137.632 180.054 137.415C179.669 137.194 179.366 136.864 179.145 136.423C178.925 135.979 178.815 135.419 178.815 134.744V129.703H180.034V134.662C180.034 135.24 180.196 135.701 180.519 136.046C180.846 136.39 181.263 136.562 181.769 136.562C182.072 136.562 182.38 136.485 182.694 136.33C183.011 136.175 183.276 135.937 183.489 135.617C183.706 135.297 183.815 134.889 183.815 134.393ZM190.262 137.802C189.601 137.802 189.017 137.635 188.511 137.301C188.005 136.964 187.609 136.488 187.323 135.875C187.037 135.259 186.894 134.531 186.894 133.69C186.894 132.857 187.037 132.134 187.323 131.521C187.609 130.908 188.007 130.435 188.516 130.101C189.026 129.767 189.615 129.6 190.283 129.6C190.799 129.6 191.207 129.686 191.507 129.858C191.81 130.027 192.041 130.219 192.199 130.436C192.361 130.65 192.487 130.825 192.576 130.963H192.68V127.058H193.899V137.637H192.721V136.418H192.576C192.487 136.562 192.359 136.745 192.194 136.965C192.029 137.182 191.793 137.377 191.486 137.549C191.18 137.718 190.772 137.802 190.262 137.802ZM190.428 136.707C190.916 136.707 191.33 136.58 191.667 136.325C192.005 136.066 192.261 135.71 192.437 135.256C192.612 134.798 192.7 134.269 192.7 133.67C192.7 133.077 192.614 132.559 192.442 132.115C192.27 131.667 192.015 131.32 191.678 131.072C191.34 130.82 190.923 130.695 190.428 130.695C189.911 130.695 189.481 130.827 189.136 131.092C188.795 131.354 188.539 131.71 188.367 132.162C188.198 132.609 188.113 133.112 188.113 133.67C188.113 134.235 188.2 134.748 188.372 135.209C188.547 135.667 188.806 136.032 189.147 136.304C189.491 136.573 189.918 136.707 190.428 136.707ZM196.3 137.637V129.703H197.519V137.637H196.3ZM196.92 128.381C196.683 128.381 196.478 128.3 196.306 128.138C196.137 127.976 196.053 127.781 196.053 127.554C196.053 127.327 196.137 127.132 196.306 126.97C196.478 126.809 196.683 126.728 196.92 126.728C197.158 126.728 197.361 126.809 197.53 126.97C197.702 127.132 197.788 127.327 197.788 127.554C197.788 127.781 197.702 127.976 197.53 128.138C197.361 128.3 197.158 128.381 196.92 128.381ZM202.975 137.802C202.259 137.802 201.631 137.632 201.09 137.291C200.553 136.95 200.133 136.473 199.83 135.86C199.53 135.247 199.38 134.531 199.38 133.711C199.38 132.885 199.53 132.163 199.83 131.547C200.133 130.93 200.553 130.452 201.09 130.111C201.631 129.77 202.259 129.6 202.975 129.6C203.692 129.6 204.318 129.77 204.855 130.111C205.396 130.452 205.816 130.93 206.116 131.547C206.419 132.163 206.57 132.885 206.57 133.711C206.57 134.531 206.419 135.247 206.116 135.86C205.816 136.473 205.396 136.95 204.855 137.291C204.318 137.632 203.692 137.802 202.975 137.802ZM202.975 136.707C203.519 136.707 203.967 136.568 204.318 136.289C204.669 136.01 204.929 135.643 205.098 135.188C205.267 134.734 205.351 134.241 205.351 133.711C205.351 133.181 205.267 132.687 205.098 132.229C204.929 131.771 204.669 131.4 204.318 131.118C203.967 130.836 203.519 130.695 202.975 130.695C202.431 130.695 201.984 130.836 201.632 131.118C201.281 131.4 201.021 131.771 200.852 132.229C200.684 132.687 200.599 133.181 200.599 133.711C200.599 134.241 200.684 134.734 200.852 135.188C201.021 135.643 201.281 136.01 201.632 136.289C201.984 136.568 202.431 136.707 202.975 136.707ZM212.522 140.612V129.703H213.7V130.963H213.844C213.934 130.825 214.058 130.65 214.216 130.436C214.378 130.219 214.609 130.027 214.908 129.858C215.211 129.686 215.621 129.6 216.138 129.6C216.806 129.6 217.395 129.767 217.904 130.101C218.414 130.435 218.812 130.908 219.097 131.521C219.383 132.134 219.526 132.857 219.526 133.69C219.526 134.531 219.383 135.259 219.097 135.875C218.812 136.488 218.416 136.964 217.909 137.301C217.403 137.635 216.82 137.802 216.158 137.802C215.649 137.802 215.241 137.718 214.934 137.549C214.628 137.377 214.392 137.182 214.227 136.965C214.061 136.745 213.934 136.562 213.844 136.418H213.741V140.612H212.522ZM213.72 133.67C213.72 134.269 213.808 134.798 213.984 135.256C214.159 135.71 214.416 136.066 214.753 136.325C215.091 136.58 215.504 136.707 215.993 136.707C216.503 136.707 216.928 136.573 217.269 136.304C217.613 136.032 217.872 135.667 218.044 135.209C218.219 134.748 218.307 134.235 218.307 133.67C218.307 133.112 218.221 132.609 218.049 132.162C217.88 131.71 217.624 131.354 217.279 131.092C216.938 130.827 216.51 130.695 215.993 130.695C215.497 130.695 215.081 130.82 214.743 131.072C214.406 131.32 214.151 131.667 213.979 132.115C213.806 132.559 213.72 133.077 213.72 133.67ZM221.386 137.637V129.703H222.563V130.901H222.646C222.791 130.509 223.052 130.19 223.431 129.946C223.81 129.701 224.237 129.579 224.712 129.579C224.802 129.579 224.914 129.581 225.048 129.584C225.182 129.587 225.284 129.593 225.353 129.6V130.839C225.311 130.829 225.217 130.813 225.069 130.793C224.924 130.769 224.771 130.757 224.609 130.757C224.223 130.757 223.879 130.837 223.576 130.999C223.276 131.158 223.039 131.378 222.863 131.66C222.691 131.939 222.605 132.258 222.605 132.616V137.637H221.386ZM229.779 137.802C229.063 137.802 228.435 137.632 227.894 137.291C227.357 136.95 226.937 136.473 226.634 135.86C226.334 135.247 226.184 134.531 226.184 133.711C226.184 132.885 226.334 132.163 226.634 131.547C226.937 130.93 227.357 130.452 227.894 130.111C228.435 129.77 229.063 129.6 229.779 129.6C230.495 129.6 231.122 129.77 231.659 130.111C232.2 130.452 232.62 130.93 232.92 131.547C233.223 132.163 233.374 132.885 233.374 133.711C233.374 134.531 233.223 135.247 232.92 135.86C232.62 136.473 232.2 136.95 231.659 137.291C231.122 137.632 230.495 137.802 229.779 137.802ZM229.779 136.707C230.323 136.707 230.771 136.568 231.122 136.289C231.473 136.01 231.733 135.643 231.902 135.188C232.071 134.734 232.155 134.241 232.155 133.711C232.155 133.181 232.071 132.687 231.902 132.229C231.733 131.771 231.473 131.4 231.122 131.118C230.771 130.836 230.323 130.695 229.779 130.695C229.235 130.695 228.788 130.836 228.436 131.118C228.085 131.4 227.825 131.771 227.656 132.229C227.488 132.687 227.403 133.181 227.403 133.711C227.403 134.241 227.488 134.734 227.656 135.188C227.825 135.643 228.085 136.01 228.436 136.289C228.788 136.568 229.235 136.707 229.779 136.707ZM235.235 140.612V129.703H236.413V130.963H236.557C236.647 130.825 236.771 130.65 236.929 130.436C237.091 130.219 237.322 130.027 237.621 129.858C237.924 129.686 238.334 129.6 238.851 129.6C239.519 129.6 240.108 129.767 240.617 130.101C241.127 130.435 241.525 130.908 241.81 131.521C242.096 132.134 242.239 132.857 242.239 133.69C242.239 134.531 242.096 135.259 241.81 135.875C241.525 136.488 241.129 136.964 240.622 137.301C240.116 137.635 239.533 137.802 238.871 137.802C238.362 137.802 237.954 137.718 237.647 137.549C237.341 137.377 237.105 137.182 236.94 136.965C236.774 136.745 236.647 136.562 236.557 136.418H236.454V140.612H235.235ZM236.433 133.67C236.433 134.269 236.521 134.798 236.697 135.256C236.872 135.71 237.129 136.066 237.466 136.325C237.804 136.58 238.217 136.707 238.706 136.707C239.216 136.707 239.641 136.573 239.982 136.304C240.326 136.032 240.585 135.667 240.757 135.209C240.932 134.748 241.02 134.235 241.02 133.67C241.02 133.112 240.934 132.609 240.762 132.162C240.593 131.71 240.337 131.354 239.992 131.092C239.651 130.827 239.223 130.695 238.706 130.695C238.21 130.695 237.794 130.82 237.456 131.072C237.119 131.32 236.864 131.667 236.692 132.115C236.52 132.559 236.433 133.077 236.433 133.67ZM247.425 137.802C246.661 137.802 246.001 137.633 245.447 137.296C244.896 136.955 244.471 136.48 244.171 135.87C243.875 135.257 243.727 134.544 243.727 133.732C243.727 132.919 243.875 132.203 244.171 131.583C244.471 130.96 244.887 130.474 245.421 130.126C245.958 129.775 246.585 129.6 247.301 129.6C247.714 129.6 248.122 129.668 248.525 129.806C248.928 129.944 249.295 130.168 249.626 130.478C249.956 130.784 250.22 131.19 250.416 131.697C250.612 132.203 250.71 132.826 250.71 133.566V134.083H244.595V133.029H249.471C249.471 132.582 249.381 132.182 249.202 131.831C249.026 131.48 248.775 131.202 248.448 130.999C248.124 130.796 247.742 130.695 247.301 130.695C246.816 130.695 246.396 130.815 246.041 131.056C245.69 131.294 245.419 131.604 245.23 131.986C245.041 132.368 244.946 132.778 244.946 133.215V133.918C244.946 134.517 245.049 135.025 245.256 135.441C245.466 135.855 245.757 136.17 246.129 136.387C246.501 136.6 246.933 136.707 247.425 136.707C247.745 136.707 248.035 136.662 248.293 136.573C248.555 136.48 248.78 136.342 248.97 136.159C249.159 135.973 249.305 135.743 249.409 135.467L250.586 135.798C250.462 136.197 250.254 136.549 249.961 136.852C249.669 137.151 249.307 137.385 248.877 137.554C248.446 137.719 247.962 137.802 247.425 137.802ZM252.565 137.637V129.703H253.742V130.901H253.825C253.97 130.509 254.231 130.19 254.61 129.946C254.989 129.701 255.416 129.579 255.891 129.579C255.981 129.579 256.093 129.581 256.227 129.584C256.361 129.587 256.463 129.593 256.532 129.6V130.839C256.49 130.829 256.396 130.813 256.247 130.793C256.103 130.769 255.95 130.757 255.788 130.757C255.402 130.757 255.058 130.837 254.755 130.999C254.455 131.158 254.218 131.378 254.042 131.66C253.87 131.939 253.784 132.258 253.784 132.616V137.637H252.565ZM259.196 127.058V137.637H257.977V127.058H259.196ZM262.213 140.612C262.007 140.612 261.823 140.595 261.661 140.56C261.499 140.529 261.387 140.498 261.325 140.467L261.635 139.393C261.931 139.469 262.193 139.496 262.42 139.476C262.647 139.455 262.849 139.353 263.024 139.171C263.203 138.992 263.367 138.701 263.515 138.298L263.742 137.678L260.808 129.703H262.131L264.321 136.025H264.403L266.594 129.703H267.916L264.548 138.794C264.397 139.204 264.209 139.543 263.985 139.811C263.761 140.083 263.501 140.285 263.205 140.416C262.912 140.546 262.582 140.612 262.213 140.612ZM276.839 137.802C276.123 137.802 275.494 137.632 274.954 137.291C274.416 136.95 273.996 136.473 273.693 135.86C273.394 135.247 273.244 134.531 273.244 133.711C273.244 132.885 273.394 132.163 273.693 131.547C273.996 130.93 274.416 130.452 274.954 130.111C275.494 129.77 276.123 129.6 276.839 129.6C277.555 129.6 278.182 129.77 278.719 130.111C279.26 130.452 279.68 130.93 279.979 131.547C280.282 132.163 280.434 132.885 280.434 133.711C280.434 134.531 280.282 135.247 279.979 135.86C279.68 136.473 279.26 136.95 278.719 137.291C278.182 137.632 277.555 137.802 276.839 137.802ZM276.839 136.707C277.383 136.707 277.831 136.568 278.182 136.289C278.533 136.01 278.793 135.643 278.962 135.188C279.131 134.734 279.215 134.241 279.215 133.711C279.215 133.181 279.131 132.687 278.962 132.229C278.793 131.771 278.533 131.4 278.182 131.118C277.831 130.836 277.383 130.695 276.839 130.695C276.295 130.695 275.847 130.836 275.496 131.118C275.145 131.4 274.885 131.771 274.716 132.229C274.547 132.687 274.463 133.181 274.463 133.711C274.463 134.241 274.547 134.734 274.716 135.188C274.885 135.643 275.145 136.01 275.496 136.289C275.847 136.568 276.295 136.707 276.839 136.707ZM283.514 132.864V137.637H282.295V129.703H283.472V130.943H283.576C283.762 130.54 284.044 130.216 284.423 129.971C284.802 129.724 285.291 129.6 285.89 129.6C286.427 129.6 286.897 129.71 287.3 129.93C287.703 130.147 288.016 130.478 288.24 130.922C288.464 131.363 288.576 131.92 288.576 132.595V137.637H287.357V132.678C287.357 132.055 287.195 131.569 286.871 131.221C286.547 130.87 286.103 130.695 285.539 130.695C285.149 130.695 284.802 130.779 284.495 130.948C284.192 131.116 283.953 131.363 283.777 131.686C283.602 132.01 283.514 132.403 283.514 132.864ZM295.679 140.612C295.473 140.612 295.288 140.595 295.127 140.56C294.965 140.529 294.853 140.498 294.791 140.467L295.101 139.393C295.397 139.469 295.659 139.496 295.886 139.476C296.113 139.455 296.315 139.353 296.49 139.171C296.669 138.992 296.833 138.701 296.981 138.298L297.208 137.678L294.274 129.703H295.597L297.787 136.025H297.869L300.059 129.703H301.382L298.014 138.794C297.862 139.204 297.675 139.543 297.451 139.811C297.227 140.083 296.967 140.285 296.671 140.416C296.378 140.546 296.048 140.612 295.679 140.612ZM305.93 137.802C305.214 137.802 304.585 137.632 304.044 137.291C303.507 136.95 303.087 136.473 302.784 135.86C302.485 135.247 302.335 134.531 302.335 133.711C302.335 132.885 302.485 132.163 302.784 131.547C303.087 130.93 303.507 130.452 304.044 130.111C304.585 129.77 305.214 129.6 305.93 129.6C306.646 129.6 307.273 129.77 307.81 130.111C308.351 130.452 308.771 130.93 309.07 131.547C309.373 132.163 309.525 132.885 309.525 133.711C309.525 134.531 309.373 135.247 309.07 135.86C308.771 136.473 308.351 136.95 307.81 137.291C307.273 137.632 306.646 137.802 305.93 137.802ZM305.93 136.707C306.474 136.707 306.922 136.568 307.273 136.289C307.624 136.01 307.884 135.643 308.053 135.188C308.221 134.734 308.306 134.241 308.306 133.711C308.306 133.181 308.221 132.687 308.053 132.229C307.884 131.771 307.624 131.4 307.273 131.118C306.922 130.836 306.474 130.695 305.93 130.695C305.386 130.695 304.938 130.836 304.587 131.118C304.236 131.4 303.976 131.771 303.807 132.229C303.638 132.687 303.554 133.181 303.554 133.711C303.554 134.241 303.638 134.734 303.807 135.188C303.976 135.643 304.236 136.01 304.587 136.289C304.938 136.568 305.386 136.707 305.93 136.707ZM316.386 134.393V129.703H317.605V137.637H316.386V136.294H316.303C316.117 136.697 315.828 137.039 315.435 137.322C315.043 137.601 314.547 137.74 313.948 137.74C313.452 137.74 313.011 137.632 312.625 137.415C312.24 137.194 311.937 136.864 311.716 136.423C311.496 135.979 311.386 135.419 311.386 134.744V129.703H312.605V134.662C312.605 135.24 312.766 135.701 313.09 136.046C313.417 136.39 313.834 136.562 314.34 136.562C314.643 136.562 314.951 136.485 315.265 136.33C315.582 136.175 315.847 135.937 316.06 135.617C316.277 135.297 316.386 134.889 316.386 134.393ZM319.837 137.637V129.703H321.015V130.901H321.098C321.242 130.509 321.504 130.19 321.883 129.946C322.262 129.701 322.689 129.579 323.164 129.579C323.253 129.579 323.365 129.581 323.499 129.584C323.634 129.587 323.735 129.593 323.804 129.6V130.839C323.763 130.829 323.668 130.813 323.52 130.793C323.376 130.769 323.222 130.757 323.06 130.757C322.675 130.757 322.33 130.837 322.027 130.999C321.728 131.158 321.49 131.378 321.315 131.66C321.142 131.939 321.056 132.258 321.056 132.616V137.637H319.837ZM65.9299 159.802C65.2688 159.802 64.6851 159.635 64.1789 159.301C63.6727 158.964 63.2767 158.488 62.9909 157.875C62.7051 157.259 62.5622 156.531 62.5622 155.69C62.5622 154.857 62.7051 154.134 62.9909 153.521C63.2767 152.908 63.6744 152.435 64.1841 152.101C64.6937 151.767 65.2825 151.6 65.9506 151.6C66.4671 151.6 66.8752 151.686 67.1748 151.858C67.4778 152.027 67.7085 152.219 67.8669 152.436C68.0288 152.65 68.1544 152.825 68.244 152.963H68.3473V149.058H69.5663V159.637H68.3886V158.418H68.244C68.1544 158.562 68.027 158.745 67.8617 158.965C67.6965 159.182 67.4606 159.377 67.1541 159.549C66.8476 159.718 66.4396 159.802 65.9299 159.802ZM66.0952 158.707C66.5842 158.707 66.9974 158.58 67.3349 158.325C67.6723 158.066 67.9289 157.71 68.1045 157.256C68.2801 156.798 68.3679 156.269 68.3679 155.67C68.3679 155.077 68.2819 154.559 68.1097 154.115C67.9375 153.667 67.6827 153.32 67.3452 153.072C67.0077 152.82 66.5911 152.695 66.0952 152.695C65.5787 152.695 65.1482 152.827 64.8039 153.092C64.463 153.354 64.2064 153.71 64.0343 154.162C63.8655 154.609 63.7812 155.112 63.7812 155.67C63.7812 156.235 63.8673 156.748 64.0394 157.209C64.2151 157.667 64.4733 158.032 64.8142 158.304C65.1586 158.573 65.5856 158.707 66.0952 158.707ZM75.2946 159.802C74.5301 159.802 73.8707 159.633 73.3163 159.296C72.7653 158.955 72.34 158.48 72.0405 157.87C71.7443 157.257 71.5962 156.544 71.5962 155.732C71.5962 154.919 71.7443 154.203 72.0405 153.583C72.34 152.96 72.7567 152.474 73.2905 152.126C73.8276 151.775 74.4544 151.6 75.1706 151.6C75.5838 151.6 75.9919 151.668 76.3948 151.806C76.7977 151.944 77.1644 152.168 77.495 152.478C77.8256 152.784 78.089 153.19 78.2853 153.697C78.4816 154.203 78.5797 154.826 78.5797 155.566V156.083H72.464V155.029H77.34C77.34 154.582 77.2505 154.182 77.0714 153.831C76.8958 153.48 76.6445 153.202 76.3173 152.999C75.9936 152.796 75.6114 152.695 75.1706 152.695C74.6851 152.695 74.265 152.815 73.9103 153.056C73.5591 153.294 73.2887 153.604 73.0993 153.986C72.9099 154.368 72.8153 154.778 72.8153 155.215V155.918C72.8153 156.517 72.9186 157.025 73.1252 157.441C73.3352 157.855 73.6262 158.17 73.9981 158.387C74.37 158.6 74.8022 158.707 75.2946 158.707C75.6148 158.707 75.9041 158.662 76.1624 158.573C76.4241 158.48 76.6496 158.342 76.839 158.159C77.0284 157.973 77.1748 157.743 77.2781 157.467L78.4557 157.798C78.3318 158.197 78.1234 158.549 77.8307 158.852C77.538 159.151 77.1765 159.385 76.746 159.554C76.3156 159.719 75.8318 159.802 75.2946 159.802ZM86.6802 151.703L83.7463 159.637H82.5066L79.5727 151.703H80.8951L83.0851 158.025H83.1678L85.3579 151.703H86.6802ZM88.2892 159.637V151.703H89.5082V159.637H88.2892ZM88.909 150.381C88.6714 150.381 88.4665 150.3 88.2943 150.138C88.1256 149.976 88.0412 149.781 88.0412 149.554C88.0412 149.327 88.1256 149.132 88.2943 148.97C88.4665 148.809 88.6714 148.728 88.909 148.728C89.1466 148.728 89.3498 148.809 89.5185 148.97C89.6907 149.132 89.7768 149.327 89.7768 149.554C89.7768 149.781 89.6907 149.976 89.5185 150.138C89.3498 150.3 89.1466 150.381 88.909 150.381ZM94.964 159.802C94.2202 159.802 93.5797 159.626 93.0425 159.275C92.5053 158.924 92.0921 158.44 91.8028 157.824C91.5136 157.207 91.369 156.503 91.369 155.711C91.369 154.905 91.517 154.194 91.8132 153.578C92.1128 152.958 92.5294 152.474 93.0632 152.126C93.6004 151.775 94.2271 151.6 94.9433 151.6C95.5012 151.6 96.0039 151.703 96.4516 151.909C96.8993 152.116 97.266 152.405 97.5518 152.777C97.8376 153.149 98.015 153.583 98.0838 154.079H96.8648C96.7718 153.717 96.5652 153.397 96.245 153.118C95.9282 152.836 95.5012 152.695 94.964 152.695C94.4888 152.695 94.0721 152.819 93.714 153.066C93.3593 153.311 93.0821 153.657 92.8824 154.105C92.6861 154.549 92.588 155.071 92.588 155.67C92.588 156.283 92.6844 156.816 92.8772 157.271C93.0735 157.726 93.349 158.079 93.7037 158.33C94.0618 158.581 94.4819 158.707 94.964 158.707C95.2808 158.707 95.5683 158.652 95.8266 158.542C96.0849 158.431 96.3035 158.273 96.4826 158.066C96.6617 157.86 96.7891 157.612 96.8648 157.323H98.0838C98.015 157.791 97.8445 158.213 97.5725 158.588C97.3039 158.96 96.9475 159.256 96.5033 159.477C96.0625 159.694 95.5494 159.802 94.964 159.802ZM103.192 159.802C102.428 159.802 101.768 159.633 101.214 159.296C100.663 158.955 100.238 158.48 99.9382 157.87C99.642 157.257 99.494 156.544 99.494 155.732C99.494 154.919 99.642 154.203 99.9382 153.583C100.238 152.96 100.654 152.474 101.188 152.126C101.725 151.775 102.352 151.6 103.068 151.6C103.482 151.6 103.89 151.668 104.293 151.806C104.695 151.944 105.062 152.168 105.393 152.478C105.723 152.784 105.987 153.19 106.183 153.697C106.379 154.203 106.477 154.826 106.477 155.566V156.083H100.362V155.029H105.238C105.238 154.582 105.148 154.182 104.969 153.831C104.794 153.48 104.542 153.202 104.215 152.999C103.891 152.796 103.509 152.695 103.068 152.695C102.583 152.695 102.163 152.815 101.808 153.056C101.457 153.294 101.186 153.604 100.997 153.986C100.808 154.368 100.713 154.778 100.713 155.215V155.918C100.713 156.517 100.816 157.025 101.023 157.441C101.233 157.855 101.524 158.17 101.896 158.387C102.268 158.6 102.7 158.707 103.192 158.707C103.513 158.707 103.802 158.662 104.06 158.573C104.322 158.48 104.547 158.342 104.737 158.159C104.926 157.973 105.072 157.743 105.176 157.467L106.353 157.798C106.229 158.197 106.021 158.549 105.728 158.852C105.436 159.151 105.074 159.385 104.644 159.554C104.213 159.719 103.729 159.802 103.192 159.802ZM110.15 158.19L110.067 158.748C110.009 159.141 109.919 159.561 109.799 160.009C109.682 160.456 109.559 160.878 109.432 161.274C109.305 161.67 109.2 161.985 109.117 162.219H108.187C108.232 161.999 108.29 161.708 108.363 161.346C108.435 160.985 108.507 160.58 108.58 160.133C108.655 159.688 108.717 159.234 108.766 158.769L108.828 158.19H110.15ZM119.723 159.802C118.979 159.802 118.338 159.626 117.801 159.275C117.264 158.924 116.851 158.44 116.561 157.824C116.272 157.207 116.127 156.503 116.127 155.711C116.127 154.905 116.276 154.194 116.572 153.578C116.871 152.958 117.288 152.474 117.822 152.126C118.359 151.775 118.986 151.6 119.702 151.6C120.26 151.6 120.762 151.703 121.21 151.909C121.658 152.116 122.024 152.405 122.31 152.777C122.596 153.149 122.773 153.583 122.842 154.079H121.623C121.53 153.717 121.324 153.397 121.003 153.118C120.687 152.836 120.26 152.695 119.723 152.695C119.247 152.695 118.831 152.819 118.473 153.066C118.118 153.311 117.841 153.657 117.641 154.105C117.445 154.549 117.346 155.071 117.346 155.67C117.346 156.283 117.443 156.816 117.636 157.271C117.832 157.726 118.107 158.079 118.462 158.33C118.82 158.581 119.24 158.707 119.723 158.707C120.039 158.707 120.327 158.652 120.585 158.542C120.843 158.431 121.062 158.273 121.241 158.066C121.42 157.86 121.548 157.612 121.623 157.323H122.842C122.773 157.791 122.603 158.213 122.331 158.588C122.062 158.96 121.706 159.256 121.262 159.477C120.821 159.694 120.308 159.802 119.723 159.802ZM125.843 149.058V159.637H124.624V149.058H125.843ZM128.076 159.637V151.703H129.295V159.637H128.076ZM128.696 150.381C128.458 150.381 128.253 150.3 128.081 150.138C127.912 149.976 127.828 149.781 127.828 149.554C127.828 149.327 127.912 149.132 128.081 148.97C128.253 148.809 128.458 148.728 128.696 148.728C128.933 148.728 129.137 148.809 129.305 148.97C129.478 149.132 129.564 149.327 129.564 149.554C129.564 149.781 129.478 149.976 129.305 150.138C129.137 150.3 128.933 150.381 128.696 150.381ZM134.751 159.802C134.007 159.802 133.367 159.626 132.829 159.275C132.292 158.924 131.879 158.44 131.59 157.824C131.3 157.207 131.156 156.503 131.156 155.711C131.156 154.905 131.304 154.194 131.6 153.578C131.9 152.958 132.316 152.474 132.85 152.126C133.387 151.775 134.014 151.6 134.73 151.6C135.288 151.6 135.791 151.703 136.239 151.909C136.686 152.116 137.053 152.405 137.339 152.777C137.625 153.149 137.802 153.583 137.871 154.079H136.652C136.559 153.717 136.352 153.397 136.032 153.118C135.715 152.836 135.288 152.695 134.751 152.695C134.276 152.695 133.859 152.819 133.501 153.066C133.146 153.311 132.869 153.657 132.669 154.105C132.473 154.549 132.375 155.071 132.375 155.67C132.375 156.283 132.471 156.816 132.664 157.271C132.86 157.726 133.136 158.079 133.491 158.33C133.849 158.581 134.269 158.707 134.751 158.707C135.068 158.707 135.355 158.652 135.614 158.542C135.872 158.431 136.09 158.273 136.269 158.066C136.449 157.86 136.576 157.612 136.652 157.323H137.871C137.802 157.791 137.631 158.213 137.359 158.588C137.091 158.96 136.734 159.256 136.29 159.477C135.849 159.694 135.336 159.802 134.751 159.802ZM140.789 156.744L140.768 155.236H141.016L144.487 151.703H145.996L142.297 155.443H142.194L140.789 156.744ZM139.653 159.637V149.058H140.872V159.637H139.653ZM144.694 159.637L141.595 155.711L142.463 154.864L146.244 159.637H144.694ZM155.106 151.703V152.736H150.994V151.703H155.106ZM152.193 149.802H153.412V157.364C153.412 157.708 153.462 157.967 153.562 158.139C153.665 158.308 153.796 158.421 153.954 158.48C154.116 158.535 154.286 158.562 154.466 158.562C154.6 158.562 154.71 158.555 154.796 158.542C154.882 158.524 154.951 158.511 155.003 158.5L155.251 159.595C155.168 159.626 155.053 159.657 154.905 159.688C154.756 159.723 154.569 159.74 154.342 159.74C153.997 159.74 153.66 159.666 153.329 159.518C153.002 159.37 152.73 159.144 152.513 158.841C152.3 158.538 152.193 158.156 152.193 157.695V149.802ZM158.329 154.864V159.637H157.11V149.058H158.329V152.943H158.432C158.618 152.533 158.897 152.207 159.269 151.966C159.645 151.722 160.144 151.6 160.767 151.6C161.308 151.6 161.781 151.708 162.188 151.925C162.594 152.138 162.909 152.467 163.133 152.912C163.36 153.352 163.474 153.914 163.474 154.595V159.637H162.255V154.678C162.255 154.048 162.091 153.561 161.764 153.216C161.44 152.868 160.991 152.695 160.416 152.695C160.016 152.695 159.658 152.779 159.342 152.948C159.028 153.116 158.78 153.363 158.598 153.686C158.419 154.01 158.329 154.403 158.329 154.864ZM169.03 159.802C168.266 159.802 167.606 159.633 167.052 159.296C166.501 158.955 166.076 158.48 165.776 157.87C165.48 157.257 165.332 156.544 165.332 155.732C165.332 154.919 165.48 154.203 165.776 153.583C166.076 152.96 166.492 152.474 167.026 152.126C167.563 151.775 168.19 151.6 168.906 151.6C169.32 151.6 169.728 151.668 170.131 151.806C170.533 151.944 170.9 152.168 171.231 152.478C171.561 152.784 171.825 153.19 172.021 153.697C172.217 154.203 172.315 154.826 172.315 155.566V156.083H166.2V155.029H171.076C171.076 154.582 170.986 154.182 170.807 153.831C170.632 153.48 170.38 153.202 170.053 152.999C169.729 152.796 169.347 152.695 168.906 152.695C168.421 152.695 168.001 152.815 167.646 153.056C167.295 153.294 167.024 153.604 166.835 153.986C166.646 154.368 166.551 154.778 166.551 155.215V155.918C166.551 156.517 166.654 157.025 166.861 157.441C167.071 157.855 167.362 158.17 167.734 158.387C168.106 158.6 168.538 158.707 169.03 158.707C169.351 158.707 169.64 158.662 169.898 158.573C170.16 158.48 170.385 158.342 170.575 158.159C170.764 157.973 170.91 157.743 171.014 157.467L172.191 157.798C172.068 158.197 171.859 158.549 171.566 158.852C171.274 159.151 170.912 159.385 170.482 159.554C170.051 159.719 169.568 159.802 169.03 159.802ZM178.426 159.637V149.058H179.645V152.963H179.748C179.838 152.825 179.962 152.65 180.12 152.436C180.282 152.219 180.513 152.027 180.812 151.858C181.115 151.686 181.525 151.6 182.042 151.6C182.71 151.6 183.299 151.767 183.808 152.101C184.318 152.435 184.716 152.908 185.001 153.521C185.287 154.134 185.43 154.857 185.43 155.69C185.43 156.531 185.287 157.259 185.001 157.875C184.716 158.488 184.32 158.964 183.813 159.301C183.307 159.635 182.723 159.802 182.062 159.802C181.553 159.802 181.145 159.718 180.838 159.549C180.532 159.377 180.296 159.182 180.131 158.965C179.965 158.745 179.838 158.562 179.748 158.418H179.604V159.637H178.426ZM179.624 155.67C179.624 156.269 179.712 156.798 179.888 157.256C180.063 157.71 180.32 158.066 180.657 158.325C180.995 158.58 181.408 158.707 181.897 158.707C182.407 158.707 182.832 158.573 183.173 158.304C183.517 158.032 183.775 157.667 183.948 157.209C184.123 156.748 184.211 156.235 184.211 155.67C184.211 155.112 184.125 154.609 183.953 154.162C183.784 153.71 183.528 153.354 183.183 153.092C182.842 152.827 182.414 152.695 181.897 152.695C181.401 152.695 180.985 152.82 180.647 153.072C180.31 153.32 180.055 153.667 179.883 154.115C179.71 154.559 179.624 155.077 179.624 155.67ZM192.295 156.393V151.703H193.514V159.637H192.295V158.294H192.212C192.026 158.697 191.737 159.039 191.344 159.322C190.952 159.601 190.456 159.74 189.857 159.74C189.361 159.74 188.92 159.632 188.534 159.415C188.149 159.194 187.846 158.864 187.625 158.423C187.405 157.979 187.295 157.419 187.295 156.744V151.703H188.514V156.662C188.514 157.24 188.676 157.701 188.999 158.046C189.326 158.39 189.743 158.562 190.249 158.562C190.552 158.562 190.861 158.485 191.174 158.33C191.491 158.175 191.756 157.937 191.969 157.617C192.186 157.297 192.295 156.889 192.295 156.393ZM199.197 151.703V152.736H195.085V151.703H199.197ZM196.284 149.802H197.503V157.364C197.503 157.708 197.553 157.967 197.652 158.139C197.756 158.308 197.887 158.421 198.045 158.48C198.207 158.535 198.377 158.562 198.556 158.562C198.691 158.562 198.801 158.555 198.887 158.542C198.973 158.524 199.042 158.511 199.094 158.5L199.342 159.595C199.259 159.626 199.144 159.657 198.995 159.688C198.847 159.723 198.66 159.74 198.432 159.74C198.088 159.74 197.751 159.666 197.42 159.518C197.093 159.37 196.821 159.144 196.604 158.841C196.39 158.538 196.284 158.156 196.284 157.695V149.802ZM204.481 151.703V152.736H200.369V151.703H204.481ZM201.568 149.802H202.787V157.364C202.787 157.708 202.837 157.967 202.937 158.139C203.04 158.308 203.171 158.421 203.329 158.48C203.491 158.535 203.661 158.562 203.84 158.562C203.975 158.562 204.085 158.555 204.171 158.542C204.257 158.524 204.326 158.511 204.378 158.5L204.626 159.595C204.543 159.626 204.428 159.657 204.28 159.688C204.131 159.723 203.944 159.74 203.717 159.74C203.372 159.74 203.035 159.666 202.704 159.518C202.377 159.37 202.105 159.144 201.888 158.841C201.674 158.538 201.568 158.156 201.568 157.695V149.802ZM209.453 159.802C208.736 159.802 208.108 159.632 207.567 159.291C207.03 158.95 206.61 158.473 206.307 157.86C206.007 157.247 205.858 156.531 205.858 155.711C205.858 154.885 206.007 154.163 206.307 153.547C206.61 152.93 207.03 152.452 207.567 152.111C208.108 151.77 208.736 151.6 209.453 151.6C210.169 151.6 210.796 151.77 211.333 152.111C211.873 152.452 212.293 152.93 212.593 153.547C212.896 154.163 213.048 154.885 213.048 155.711C213.048 156.531 212.896 157.247 212.593 157.86C212.293 158.473 211.873 158.95 211.333 159.291C210.796 159.632 210.169 159.802 209.453 159.802ZM209.453 158.707C209.997 158.707 210.444 158.568 210.796 158.289C211.147 158.01 211.407 157.643 211.575 157.188C211.744 156.734 211.829 156.241 211.829 155.711C211.829 155.181 211.744 154.687 211.575 154.229C211.407 153.771 211.147 153.4 210.796 153.118C210.444 152.836 209.997 152.695 209.453 152.695C208.908 152.695 208.461 152.836 208.11 153.118C207.758 153.4 207.498 153.771 207.33 154.229C207.161 154.687 207.077 155.181 207.077 155.711C207.077 156.241 207.161 156.734 207.33 157.188C207.498 157.643 207.758 158.01 208.11 158.289C208.461 158.568 208.908 158.707 209.453 158.707ZM216.127 154.864V159.637H214.908V151.703H216.086V152.943H216.189C216.375 152.54 216.658 152.216 217.036 151.971C217.415 151.724 217.904 151.6 218.503 151.6C219.041 151.6 219.511 151.71 219.914 151.93C220.316 152.147 220.63 152.478 220.854 152.922C221.077 153.363 221.189 153.92 221.189 154.595V159.637H219.97V154.678C219.97 154.055 219.809 153.569 219.485 153.221C219.161 152.87 218.717 152.695 218.152 152.695C217.763 152.695 217.415 152.779 217.109 152.948C216.806 153.116 216.566 153.363 216.391 153.686C216.215 154.01 216.127 154.403 216.127 154.864ZM227.673 159.637V149.058H228.892V152.963H228.995C229.085 152.825 229.209 152.65 229.367 152.436C229.529 152.219 229.76 152.027 230.059 151.858C230.362 151.686 230.772 151.6 231.289 151.6C231.957 151.6 232.546 151.767 233.055 152.101C233.565 152.435 233.963 152.908 234.249 153.521C234.534 154.134 234.677 154.857 234.677 155.69C234.677 156.531 234.534 157.259 234.249 157.875C233.963 158.488 233.567 158.964 233.06 159.301C232.554 159.635 231.971 159.802 231.309 159.802C230.8 159.802 230.392 159.718 230.085 159.549C229.779 159.377 229.543 159.182 229.378 158.965C229.212 158.745 229.085 158.562 228.995 158.418H228.851V159.637H227.673ZM228.871 155.67C228.871 156.269 228.959 156.798 229.135 157.256C229.31 157.71 229.567 158.066 229.904 158.325C230.242 158.58 230.655 158.707 231.144 158.707C231.654 158.707 232.079 158.573 232.42 158.304C232.764 158.032 233.023 157.667 233.195 157.209C233.37 156.748 233.458 156.235 233.458 155.67C233.458 155.112 233.372 154.609 233.2 154.162C233.031 153.71 232.775 153.354 232.43 153.092C232.089 152.827 231.661 152.695 231.144 152.695C230.648 152.695 230.232 152.82 229.894 153.072C229.557 153.32 229.302 153.667 229.13 154.115C228.958 154.559 228.871 155.077 228.871 155.67ZM239.868 159.802C239.104 159.802 238.444 159.633 237.89 159.296C237.339 158.955 236.914 158.48 236.614 157.87C236.318 157.257 236.17 156.544 236.17 155.732C236.17 154.919 236.318 154.203 236.614 153.583C236.914 152.96 237.33 152.474 237.864 152.126C238.401 151.775 239.028 151.6 239.744 151.6C240.158 151.6 240.566 151.668 240.969 151.806C241.371 151.944 241.738 152.168 242.069 152.478C242.399 152.784 242.663 153.19 242.859 153.697C243.055 154.203 243.153 154.826 243.153 155.566V156.083H237.038V155.029H241.914C241.914 154.582 241.824 154.182 241.645 153.831C241.47 153.48 241.218 153.202 240.891 152.999C240.567 152.796 240.185 152.695 239.744 152.695C239.259 152.695 238.839 152.815 238.484 153.056C238.133 153.294 237.862 153.604 237.673 153.986C237.484 154.368 237.389 154.778 237.389 155.215V155.918C237.389 156.517 237.492 157.025 237.699 157.441C237.909 157.855 238.2 158.17 238.572 158.387C238.944 158.6 239.376 158.707 239.868 158.707C240.189 158.707 240.478 158.662 240.736 158.573C240.998 158.48 241.223 158.342 241.413 158.159C241.602 157.973 241.749 157.743 241.852 157.467L243.029 157.798C242.906 158.197 242.697 158.549 242.404 158.852C242.112 159.151 241.75 159.385 241.32 159.554C240.889 159.719 240.406 159.802 239.868 159.802ZM246.227 149.058V159.637H245.008V149.058H246.227ZM251.683 159.802C250.966 159.802 250.338 159.632 249.797 159.291C249.26 158.95 248.84 158.473 248.537 157.86C248.237 157.247 248.088 156.531 248.088 155.711C248.088 154.885 248.237 154.163 248.537 153.547C248.84 152.93 249.26 152.452 249.797 152.111C250.338 151.77 250.966 151.6 251.683 151.6C252.399 151.6 253.026 151.77 253.563 152.111C254.103 152.452 254.524 152.93 254.823 153.547C255.126 154.163 255.278 154.885 255.278 155.711C255.278 156.531 255.126 157.247 254.823 157.86C254.524 158.473 254.103 158.95 253.563 159.291C253.026 159.632 252.399 159.802 251.683 159.802ZM251.683 158.707C252.227 158.707 252.674 158.568 253.026 158.289C253.377 158.01 253.637 157.643 253.806 157.188C253.974 156.734 254.059 156.241 254.059 155.711C254.059 155.181 253.974 154.687 253.806 154.229C253.637 153.771 253.377 153.4 253.026 153.118C252.674 152.836 252.227 152.695 251.683 152.695C251.139 152.695 250.691 152.836 250.34 153.118C249.988 153.4 249.728 153.771 249.56 154.229C249.391 154.687 249.307 155.181 249.307 155.711C249.307 156.241 249.391 156.734 249.56 157.188C249.728 157.643 249.988 158.01 250.34 158.289C250.691 158.568 251.139 158.707 251.683 158.707ZM258.666 159.637L256.249 151.703H257.53L259.245 157.777H259.327L261.021 151.703H262.323L263.997 157.757H264.079L265.794 151.703H267.075L264.658 159.637H263.459L261.724 153.542H261.6L259.864 159.637H258.666ZM268.496 159.719C268.241 159.719 268.022 159.628 267.84 159.446C267.657 159.263 267.566 159.044 267.566 158.79C267.566 158.535 267.657 158.316 267.84 158.134C268.022 157.951 268.241 157.86 268.496 157.86C268.75 157.86 268.969 157.951 269.152 158.134C269.334 158.316 269.425 158.535 269.425 158.79C269.425 158.958 269.382 159.113 269.296 159.254C269.214 159.396 269.102 159.509 268.961 159.595C268.823 159.678 268.668 159.719 268.496 159.719Z" fill="white" fill-opacity="0.88"/>
<rect x="61.8184" y="187.455" width="276.363" height="32.7272" rx="3.63636" fill="#2160FD"/>
<rect x="61.8184" y="187.455" width="276.363" height="32.7272" rx="3.63636" fill="black" fill-opacity="0.2"/>
<path d="M168.517 208.318V199.062H171.816C172.536 199.062 173.133 199.193 173.606 199.455C174.079 199.718 174.433 200.076 174.668 200.531C174.903 200.983 175.021 201.492 175.021 202.059C175.021 202.628 174.902 203.14 174.664 203.595C174.429 204.047 174.073 204.406 173.597 204.671C173.124 204.933 172.529 205.064 171.812 205.064H169.543V203.88H171.685C172.14 203.88 172.509 203.802 172.792 203.645C173.076 203.485 173.284 203.268 173.416 202.994C173.549 202.72 173.615 202.408 173.615 202.059C173.615 201.709 173.549 201.399 173.416 201.128C173.284 200.856 173.074 200.644 172.788 200.49C172.505 200.337 172.131 200.26 171.667 200.26H169.913V208.318H168.517ZM177.901 199.062V208.318H176.549V199.062H177.901ZM181.739 208.472C181.299 208.472 180.901 208.391 180.546 208.228C180.19 208.062 179.909 207.823 179.701 207.509C179.496 207.196 179.393 206.812 179.393 206.357C179.393 205.965 179.469 205.643 179.619 205.39C179.77 205.137 179.973 204.936 180.23 204.789C180.486 204.641 180.772 204.529 181.088 204.454C181.405 204.379 181.727 204.322 182.055 204.282C182.471 204.234 182.809 204.195 183.068 204.165C183.327 204.132 183.515 204.079 183.633 204.007C183.75 203.934 183.809 203.817 183.809 203.654V203.622C183.809 203.228 183.698 202.922 183.475 202.705C183.255 202.488 182.926 202.38 182.489 202.38C182.034 202.38 181.676 202.481 181.414 202.682C181.155 202.881 180.975 203.103 180.876 203.347L179.606 203.058C179.756 202.636 179.976 202.295 180.266 202.036C180.558 201.774 180.894 201.584 181.274 201.467C181.653 201.346 182.052 201.286 182.471 201.286C182.748 201.286 183.042 201.319 183.353 201.385C183.666 201.449 183.958 201.566 184.229 201.738C184.504 201.91 184.728 202.155 184.903 202.474C185.078 202.791 185.165 203.202 185.165 203.708V208.318H183.845V207.369H183.791C183.704 207.544 183.573 207.716 183.398 207.884C183.223 208.053 182.999 208.193 182.724 208.305C182.45 208.416 182.122 208.472 181.739 208.472ZM182.033 207.387C182.406 207.387 182.726 207.313 182.991 207.166C183.259 207.018 183.463 206.825 183.601 206.587C183.743 206.346 183.814 206.089 183.814 205.814V204.92C183.765 204.968 183.672 205.013 183.533 205.055C183.398 205.094 183.243 205.129 183.068 205.159C182.893 205.186 182.723 205.212 182.557 205.236C182.391 205.257 182.253 205.275 182.141 205.29C181.879 205.323 181.64 205.379 181.423 205.457C181.209 205.536 181.037 205.649 180.907 205.796C180.781 205.941 180.718 206.134 180.718 206.375C180.718 206.709 180.841 206.962 181.088 207.134C181.335 207.303 181.65 207.387 182.033 207.387ZM187.571 210.922C187.369 210.922 187.185 210.905 187.019 210.872C186.853 210.842 186.73 210.809 186.649 210.773L186.974 209.665C187.221 209.731 187.441 209.76 187.634 209.751C187.827 209.742 187.997 209.67 188.145 209.534C188.295 209.399 188.428 209.177 188.542 208.87L188.709 208.409L186.169 201.376H187.616L189.374 206.764H189.446L191.204 201.376H192.655L189.794 209.245C189.662 209.606 189.493 209.912 189.288 210.162C189.083 210.415 188.839 210.605 188.556 210.732C188.273 210.858 187.944 210.922 187.571 210.922ZM198.184 208.318H196.701L200.032 199.062H201.646L204.977 208.318H203.494L200.877 200.743H200.805L198.184 208.318ZM198.432 204.694H203.241V205.869H198.432V204.694ZM210.603 205.439V201.376H211.958V208.318H210.63V207.116H210.557C210.398 207.487 210.142 207.796 209.789 208.043C209.439 208.287 209.004 208.409 208.483 208.409C208.037 208.409 207.642 208.311 207.299 208.115C206.958 207.916 206.69 207.622 206.494 207.234C206.301 206.845 206.205 206.364 206.205 205.792V201.376H207.556V205.629C207.556 206.102 207.687 206.479 207.95 206.759C208.212 207.039 208.552 207.179 208.971 207.179C209.224 207.179 209.476 207.116 209.726 206.99C209.979 206.863 210.188 206.672 210.354 206.416C210.523 206.159 210.606 205.834 210.603 205.439ZM216.373 208.454C215.813 208.454 215.312 208.311 214.872 208.025C214.436 207.735 214.092 207.324 213.842 206.791C213.595 206.254 213.471 205.611 213.471 204.861C213.471 204.111 213.596 203.469 213.846 202.935C214.1 202.402 214.446 201.994 214.886 201.711C215.326 201.427 215.825 201.286 216.382 201.286C216.813 201.286 217.159 201.358 217.422 201.503C217.687 201.644 217.892 201.81 218.036 202C218.184 202.19 218.298 202.357 218.38 202.502H218.461V199.062H219.812V208.318H218.493V207.238H218.38C218.298 207.386 218.181 207.555 218.027 207.744C217.876 207.934 217.669 208.1 217.403 208.242C217.138 208.383 216.795 208.454 216.373 208.454ZM216.671 207.301C217.06 207.301 217.388 207.199 217.657 206.994C217.928 206.786 218.133 206.498 218.271 206.131C218.413 205.763 218.484 205.335 218.484 204.847C218.484 204.365 218.414 203.943 218.276 203.582C218.137 203.22 217.934 202.938 217.666 202.737C217.397 202.535 217.066 202.434 216.671 202.434C216.264 202.434 215.926 202.539 215.654 202.75C215.383 202.961 215.178 203.249 215.04 203.613C214.904 203.978 214.836 204.389 214.836 204.847C214.836 205.311 214.906 205.729 215.044 206.099C215.183 206.47 215.388 206.764 215.659 206.981C215.933 207.194 216.271 207.301 216.671 207.301ZM221.741 208.318V201.376H223.093V208.318H221.741ZM222.424 200.305C222.189 200.305 221.987 200.227 221.818 200.07C221.652 199.91 221.569 199.721 221.569 199.501C221.569 199.278 221.652 199.088 221.818 198.931C221.987 198.771 222.189 198.692 222.424 198.692C222.659 198.692 222.859 198.771 223.025 198.931C223.193 199.088 223.278 199.278 223.278 199.501C223.278 199.721 223.193 199.91 223.025 200.07C222.859 200.227 222.659 200.305 222.424 200.305ZM227.835 208.458C227.184 208.458 226.616 208.309 226.131 208.011C225.646 207.713 225.269 207.295 225.001 206.759C224.733 206.223 224.599 205.596 224.599 204.879C224.599 204.159 224.733 203.529 225.001 202.99C225.269 202.45 225.646 202.032 226.131 201.733C226.616 201.435 227.184 201.286 227.835 201.286C228.486 201.286 229.054 201.435 229.539 201.733C230.024 202.032 230.4 202.45 230.669 202.99C230.937 203.529 231.071 204.159 231.071 204.879C231.071 205.596 230.937 206.223 230.669 206.759C230.4 207.295 230.024 207.713 229.539 208.011C229.054 208.309 228.486 208.458 227.835 208.458ZM227.839 207.324C228.261 207.324 228.611 207.213 228.888 206.99C229.165 206.767 229.37 206.47 229.502 206.099C229.638 205.729 229.706 205.32 229.706 204.874C229.706 204.431 229.638 204.025 229.502 203.654C229.37 203.28 229.165 202.981 228.888 202.755C228.611 202.529 228.261 202.416 227.839 202.416C227.414 202.416 227.062 202.529 226.782 202.755C226.504 202.981 226.298 203.28 226.162 203.654C226.03 204.025 225.964 204.431 225.964 204.874C225.964 205.32 226.03 205.729 226.162 206.099C226.298 206.47 226.504 206.767 226.782 206.99C227.062 207.213 227.414 207.324 227.839 207.324Z" fill="white"/>
</svg>
