<svg width="400" height="300" viewBox="0 0 400 300" fill="none" xmlns="http://www.w3.org/2000/svg">
<rect width="400" height="300" fill="#E0E9FF"/>
<path d="M55 63C55 58.5817 58.5817 55 63 55H400V300H55V63Z" fill="#262626"/>
<rect x="73" y="71" width="70" height="14" rx="7" fill="#474747"/>
<rect x="73" y="98" width="60" height="60" rx="4" fill="#2160FD"/>
<path d="M149 104C149 100.686 151.686 98 155 98H400V300H149V104Z" fill="#474747"/>
<path d="M117.39 112.805C117.045 111.518 116.032 110.502 114.747 110.156C112.398 109.511 103 109.5 103 109.5C103 109.5 93.604 109.49 91.2535 110.106C89.9935 110.45 88.9525 111.488 88.6045 112.773C87.985 115.122 87.979 119.994 87.979 119.994C87.979 119.994 87.973 124.89 88.588 127.215C88.933 128.501 89.9455 129.516 91.2325 129.863C93.6055 130.508 102.978 130.518 102.978 130.518C102.978 130.518 112.375 130.529 114.724 129.914C116.008 129.569 117.025 128.555 117.375 127.269C117.996 124.922 118 120.051 118 120.051C118 120.051 118.03 115.154 117.39 112.805ZM99.994 124.508L100.002 115.508L107.812 120.015L99.994 124.508Z" fill="#F5F5F7"/>
<rect x="79" y="141" width="47" height="8" rx="4" fill="#DDDDDD"/>
</svg>
