<svg width="400" height="300" viewBox="0 0 400 300" fill="none" xmlns="http://www.w3.org/2000/svg">
<rect width="400" height="300" fill="#E0E9FF"/>
<rect x="19" y="31" width="362" height="239" rx="8" fill="#262626"/>
<rect x="275" y="37" width="100" height="228" rx="8" fill="#474747"/>
<path d="M369.15 43.855C369.104 43.8086 369.049 43.7719 368.988 43.7468C368.928 43.7217 368.863 43.7088 368.798 43.7088C368.732 43.7088 368.667 43.7217 368.607 43.7468C368.546 43.7719 368.491 43.8086 368.445 43.855L366 46.295L363.555 43.85C363.509 43.8037 363.454 43.767 363.393 43.7419C363.333 43.7169 363.268 43.704 363.203 43.704C363.137 43.704 363.072 43.7169 363.012 43.7419C362.951 43.767 362.896 43.8037 362.85 43.85C362.804 43.8963 362.767 43.9512 362.742 44.0117C362.717 44.0722 362.704 44.137 362.704 44.2025C362.704 44.268 362.717 44.3328 362.742 44.3933C362.767 44.4537 362.804 44.5087 362.85 44.555L365.295 47L362.85 49.445C362.804 49.4913 362.767 49.5462 362.742 49.6067C362.717 49.6672 362.704 49.732 362.704 49.7975C362.704 49.863 362.717 49.9278 362.742 49.9883C362.767 50.0487 362.804 50.1037 362.85 50.15C362.896 50.1963 362.951 50.233 363.012 50.2581C363.072 50.2831 363.137 50.296 363.203 50.296C363.268 50.296 363.333 50.2831 363.393 50.2581C363.454 50.233 363.509 50.1963 363.555 50.15L366 47.705L368.445 50.15C368.491 50.1963 368.546 50.233 368.607 50.2581C368.667 50.2831 368.732 50.296 368.798 50.296C368.863 50.296 368.928 50.2831 368.988 50.2581C369.049 50.233 369.104 50.1963 369.15 50.15C369.196 50.1037 369.233 50.0487 369.258 49.9883C369.283 49.9278 369.296 49.863 369.296 49.7975C369.296 49.732 369.283 49.6672 369.258 49.6067C369.233 49.5462 369.196 49.4913 369.15 49.445L366.705 47L369.15 44.555C369.34 44.365 369.34 44.045 369.15 43.855Z" fill="#DDDDDD"/>
</svg>
