<svg width="400" height="300" viewBox="0 0 400 300" fill="none" xmlns="http://www.w3.org/2000/svg">
<g clip-path="url(#clip0_227_4411)">
<rect width="400" height="300" fill="#E0E9FF"/>
<g opacity="0.5">
<rect x="-22" y="119" width="82" height="62" rx="4" fill="#262626"/>
<path d="M19 130.5C16.5147 130.5 14.5 132.515 14.5 135V143C14.5 145.485 16.5147 147.5 19 147.5C21.4853 147.5 23.5 145.485 23.5 143V135C23.5 132.515 21.4853 130.5 19 130.5ZM16 135C16 133.343 17.3431 132 19 132C20.6569 132 22 133.343 22 135V143C22 144.657 20.6569 146 19 146C17.3431 146 16 144.657 16 143V135ZM12.5 142.25C12.5 141.836 12.1642 141.5 11.75 141.5C11.3358 141.5 11 141.837 11 142.251V143C11 147.165 14.1834 150.587 18.25 150.965V153.75C18.25 154.164 18.5858 154.5 19 154.5C19.4142 154.5 19.75 154.164 19.75 153.75V150.965C23.8166 150.587 27 147.165 27 143V142.251C27 141.836 26.6642 141.501 26.25 141.501C25.8358 141.501 25.5 141.837 25.5 142.251V143C25.5 146.59 22.5899 149.5 19 149.5C15.4101 149.5 12.5 146.589 12.5 142.999V142.25Z" fill="white" fill-opacity="0.88"/>
<rect x="-13" y="164.5" width="64" height="7" rx="3.5" fill="#474747"/>
</g>
<g opacity="0.5">
<rect x="68" y="119" width="83" height="62" rx="4" fill="#262626"/>
<path d="M98.7803 130.72C98.4874 130.427 98.0126 130.427 97.7197 130.72C97.4268 131.013 97.4268 131.487 97.7197 131.78L100.021 134.082C98.5772 134.413 97.5 135.706 97.5 137.25V147.75C97.5 149.545 98.9551 151 100.75 151H111.252C112.796 151 114.088 149.924 114.42 148.481L120.219 154.28C120.512 154.573 120.987 154.573 121.28 154.28C121.573 153.988 121.573 153.513 121.28 153.22L98.7803 130.72ZM113.002 147.063V147.75C113.002 148.717 112.219 149.5 111.252 149.5H100.75C99.7835 149.5 99 148.717 99 147.75V137.25C99 136.284 99.7835 135.5 100.75 135.5H101.439L113.002 147.063ZM104.182 134L105.682 135.5H111.252C112.219 135.5 113.002 136.284 113.002 137.25V142.821L114.502 144.321V140.646L119.502 137.226V147.777L114.603 144.421L119.683 149.501C120.356 149.537 121.002 149.012 121.002 148.251V136.752C121.002 135.747 119.876 135.153 119.046 135.721L114.502 138.828V137.25C114.502 135.455 113.047 134 111.252 134H104.182Z" fill="#FF2D2D"/>
<rect x="77.5" y="164.5" width="64" height="7" rx="3.5" fill="#474747"/>
</g>
<rect x="159" y="119" width="82" height="62" rx="4" fill="#262626"/>
<path d="M188 135.749C188 134.507 189.007 133.499 190.25 133.499H209.75C210.993 133.499 212 134.507 212 135.749V149.25C212 150.493 210.993 151.5 209.75 151.5H190.25C189.007 151.5 188 150.493 188 149.25V135.749ZM190.25 134.999C189.836 134.999 189.5 135.335 189.5 135.749V149.25C189.5 149.664 189.836 150 190.25 150H209.75C210.164 150 210.5 149.664 210.5 149.25V135.749C210.5 135.335 210.164 134.999 209.75 134.999H190.25ZM199.997 137.121C200.196 137.121 200.387 137.2 200.528 137.341L203.783 140.595C204.075 140.888 204.075 141.363 203.783 141.656C203.49 141.949 203.015 141.949 202.722 141.656L200.748 139.682V147.128C200.748 147.543 200.412 147.878 199.998 147.878C199.584 147.878 199.248 147.543 199.248 147.128V139.683L197.278 141.656C196.986 141.949 196.511 141.949 196.218 141.656C195.925 141.364 195.924 140.889 196.217 140.596L199.467 137.341C199.608 137.2 199.798 137.121 199.997 137.121Z" fill="white" fill-opacity="0.88"/>
<rect x="168" y="164.5" width="64" height="7" rx="3.5" fill="#474747"/>
<g opacity="0.5">
<rect x="249" y="119" width="83" height="62" rx="4" fill="#262626"/>
<path d="M283.8 148.524V151.069L282.67 152.198H280.127L283.8 148.524ZM303 145.521V148.067L298.87 152.198H298.191L298.191 150.33L303 145.521ZM287.1 144.999H294.893C295.994 144.999 296.898 145.847 296.985 146.926L296.992 147.099V152.198H295.192V147.099C295.192 146.957 295.094 146.838 294.961 146.807L294.893 146.799H287.1C286.958 146.799 286.839 146.897 286.808 147.03L286.8 147.099V152.198H285V147.099C285 145.997 285.848 145.093 286.927 145.006L287.1 144.999ZM286.225 140.698C286.297 141.393 286.517 142.043 286.852 142.618L279 150.47V147.924L286.225 140.698ZM303 140.118V142.665L298.191 147.477L298.192 147.099L298.186 146.898C298.153 146.352 297.988 145.843 297.722 145.4L303 140.118ZM291.067 133L279 145.071V142.526L288.522 133H291.067ZM303 134.718V137.266L296.2 144.068C295.88 143.93 295.532 143.84 295.168 143.81L294.893 143.799L294.174 143.8C294.584 143.438 294.932 143.007 295.199 142.525L303 134.718ZM290.999 136.6C292.987 136.6 294.599 138.212 294.599 140.2C294.599 142.188 292.987 143.799 290.999 143.799C289.011 143.799 287.4 142.188 287.4 140.2C287.4 138.212 289.011 136.6 290.999 136.6ZM290.999 138.4C290.005 138.4 289.199 139.206 289.199 140.2C289.199 141.194 290.005 142 290.999 142C291.993 142 292.799 141.194 292.799 140.2C292.799 139.206 291.993 138.4 290.999 138.4ZM285.67 133L279 139.671V137.125L283.125 133H285.67ZM301.866 133L295.69 139.178C295.55 138.532 295.279 137.934 294.908 137.413L299.32 133H301.866ZM296.469 133L293.417 136.053C292.843 135.717 292.192 135.498 291.498 135.426L293.923 133H296.469Z" fill="white" fill-opacity="0.88"/>
<rect x="258.5" y="164.5" width="64" height="7" rx="3.5" fill="#474747"/>
</g>
<g opacity="0.5">
<rect x="340" y="119" width="82" height="62" rx="4" fill="#262626"/>
<path d="M370.28 130.72C369.987 130.427 369.513 130.427 369.22 130.72C368.927 131.013 368.927 131.488 369.22 131.78L374.944 137.505H372.25C370.455 137.505 369 138.96 369 140.755V144.247C369 146.042 370.455 147.497 372.25 147.497H375.262C375.706 147.497 376.134 147.666 376.458 147.97L381.395 152.596C382.194 153.345 383.5 152.778 383.5 151.684V146.061L391.719 154.281C392.012 154.573 392.487 154.574 392.78 154.281C393.073 153.988 393.073 153.513 392.78 153.22L370.28 130.72ZM382 144.561V151.107L377.484 146.876C376.882 146.311 376.087 145.997 375.262 145.997H372.25C371.284 145.997 370.5 145.214 370.5 144.247V140.755C370.5 139.789 371.284 139.005 372.25 139.005H375.261C375.611 139.005 375.954 138.949 376.28 138.841L382 144.561ZM377.622 135.94L378.683 137.002L382 133.891V140.318L383.5 141.818V133.314C383.5 132.22 382.193 131.654 381.395 132.402L377.622 135.94ZM387.172 145.491L388.309 146.627C388.912 145.379 389.25 143.978 389.25 142.5C389.25 140.364 388.544 138.39 387.353 136.803C387.104 136.472 386.634 136.404 386.303 136.653C385.972 136.902 385.904 137.372 386.153 137.703C387.156 139.04 387.75 140.699 387.75 142.5C387.75 143.558 387.545 144.567 387.172 145.491ZM389.975 148.293L391.07 149.389C392.294 147.382 393 145.023 393 142.5C393 139.148 391.754 136.085 389.702 133.752C389.428 133.441 388.955 133.411 388.644 133.684C388.333 133.958 388.302 134.432 388.576 134.743C390.397 136.813 391.5 139.527 391.5 142.5C391.5 144.607 390.946 146.584 389.975 148.293Z" fill="white" fill-opacity="0.88"/>
<rect x="349" y="164.5" width="64" height="7" rx="3.5" fill="#474747"/>
</g>
</g>
<defs>
<clipPath id="clip0_227_4411">
<rect width="400" height="300" fill="white"/>
</clipPath>
</defs>
</svg>
