<svg xmlns="http://www.w3.org/2000/svg" width="51" height="26" fill="none"><path fill="#fff" d="M.83 13.37c.364-.087.683-.166.954-.239.27-.084.488-.149.658-.194l.493-.132c.121-.045.272-.091.453-.14l.578-.154c.226-.061.488-.125.785-.193.176.293.361.577.556.852.204.261.382.498.537.712.189.252.373.488.553.707l.649.79c.214.258.475.577.783.955.305.367.66.788 1.066 1.262.03-.385.057-.738.08-1.06.035-.324.063-.605.084-.84.024-.274.037-.52.039-.74a18.5 18.5 0 0 0-.013-.796c-.01-.264-.029-.581-.055-.95a24.65 24.65 0 0 0-.09-1.286l.883-.237c.26-.07.486-.136.675-.199.215-.057.406-.115.573-.171.18-.05.421-.126.72-.23.255-.092.596-.202 1.023-.329l1.607-.521a3.41 3.41 0 0 0-.65 1.175c-.05.171-.07.328-.056.47.008.119.055.385.142.799.098.41.21.902.34 1.474.137.558.285 1.155.444 1.792.17.634.336 1.232.499 1.795.163.563.312 1.05.447 1.463.143.399.258.647.345.745.115.115.265.244.45.39.167.124.374.263.62.415.26.15.586.304.98.465-.514.163-.945.296-1.293.402-.337.102-.616.19-.84.261-.257.081-.465.143-.623.185-.17.046-.4.114-.692.204-.257.081-.598.19-1.022.328-.427.127-.976.298-1.646.514.11-.223.209-.444.296-.662.087-.217.156-.411.208-.583.067-.2.12-.39.156-.57.022-.236-.02-.643-.127-1.221a34.254 34.254 0 0 0-.458-2.116 101.59 101.59 0 0 0-.987-3.684c-.12.408-.22.81-.295 1.207-.068.382-.126.731-.174 1.048a28.06 28.06 0 0 0-.12 1.05c-.027.348-.052.73-.074 1.149-.025.358-.056.785-.093 1.28a62.545 62.545 0 0 1-.11 1.631l-.635.207a27.444 27.444 0 0 0-.6-1.15c-.19-.349-.366-.642-.526-.878a10.97 10.97 0 0 0-.524-.733c-.177-.207-.373-.44-.587-.698a39.949 39.949 0 0 0-.695-.76c-.261-.294-.56-.62-.9-.978.197 1.185.38 2.142.552 2.873.168.72.317 1.274.446 1.664.15.47.276.805.38 1.008.119.174.284.36.495.56.179.17.414.367.705.593.299.21.67.439 1.111.684l-.78.21c-.272.073-.52.145-.743.217-.269.084-.533.161-.794.23a48.09 48.09 0 0 0-.937.306c-.31.108-.684.232-1.12.373-.435.141-.933.317-1.496.529.207-.226.37-.433.489-.623.116-.2.203-.376.26-.524.073-.178.119-.348.136-.51.01-.1-.015-.305-.074-.617a20.09 20.09 0 0 0-.216-1.143c-.084-.45-.193-.95-.328-1.496a80.373 80.373 0 0 0-.39-1.66 91.443 91.443 0 0 0-.39-1.661 73.446 73.446 0 0 0-.375-1.465c-.107-.444-.2-.814-.278-1.108-.08-.294-.13-.481-.15-.56a3.006 3.006 0 0 0-.29-.469 1.864 1.864 0 0 0-.394-.385 2.174 2.174 0 0 0-.61-.31Z"/><path fill="#fff" d="M21.289 18.005c.317-.085.602-.197.855-.338.212-.118.402-.266.573-.445a.994.994 0 0 0 .265-.708l.61-.036a7.89 7.89 0 0 1 .425-.04c.133 0 .247-.006.34-.02.097-.001.21-.007.341-.018.12-.008.263-.016.43-.024a9.77 9.77 0 0 1 .622-.058 1.256 1.256 0 0 0-.512.192 6.568 6.568 0 0 0-.443.32 2.92 2.92 0 0 0-.432.424 2.56 2.56 0 0 0-.275.401c-.088.17-.234.348-.438.537-.205.188-.493.38-.865.577-.363.182-.854.344-1.471.485-.742.175-1.394.21-1.955.105-.565-.115-1.047-.307-1.447-.576a3.59 3.59 0 0 1-.976-.995 4.39 4.39 0 0 1-.535-1.112c-.108-.36-.102-.767.018-1.224.12-.457.34-.904.66-1.341.33-.44.763-.842 1.297-1.203a5.8 5.8 0 0 1 1.85-.842c.407-.109.794-.158 1.16-.147.376-.004.726.036 1.052.119.336.08.64.192.91.338.266.135.5.285.702.449.205.176.39.369.555.58.145.179.281.39.408.636.126.245.214.507.264.784-.854.254-1.545.457-2.074.611-.518.15-.924.266-1.218.345l-1.342.359c-.204.055-.468.131-.793.23-.325.1-.723.225-1.192.375.178.437.413.75.706.939.302.174.6.288.893.343a2.8 2.8 0 0 0 1.032-.022Zm-2.347-2.647c.368-.074.672-.137.913-.19.252-.055.459-.098.62-.13.173-.034.31-.065.413-.092l.424-.114c.283-.075.805-.233 1.565-.474-.167-.489-.376-.839-.627-1.05-.24-.216-.472-.36-.698-.432a1.768 1.768 0 0 0-.81-.038c-.733.209-1.242.508-1.525.9-.272.388-.364.928-.275 1.62ZM29.729 10.52c.294-.078.615-.103.962-.075.345.017.687.07 1.026.162.337.08.65.184.94.312.297.115.548.236.752.363.365.23.668.591.91 1.085.249.479.412.999.49 1.56.075.55.051 1.097-.07 1.639a2.474 2.474 0 0 1-.754 1.33 5.947 5.947 0 0 1-.834.624 7.27 7.27 0 0 1-.828.44 5.25 5.25 0 0 1-.78.282c-.249.067-.465.119-.65.156-.345.068-.734.045-1.165-.07a5.834 5.834 0 0 1-1.25-.52 5.665 5.665 0 0 1-1.092-.818c-.33-.324-.562-.65-.699-.977a6.463 6.463 0 0 1-.425-1.451 3.117 3.117 0 0 1 .115-1.542c.179-.509.525-.983 1.038-1.424.524-.444 1.295-.802 2.314-1.075Zm1.205 6.739c.13-.01.293-.085.486-.222.191-.148.363-.345.515-.592a2.75 2.75 0 0 0 .365-.88c.088-.352.09-.747.01-1.186a6.774 6.774 0 0 0-.31-1.155 4.21 4.21 0 0 0-.398-.876 2.953 2.953 0 0 0-.45-.59 1.043 1.043 0 0 0-.418-.27 2.731 2.731 0 0 0-.76-.05c-.29.005-.518.078-.686.22-.079.07-.166.196-.263.38a3.547 3.547 0 0 0-.257.67 4.757 4.757 0 0 0-.173.846c-.026.31-.021.625.015.942.037.318.114.65.23.994.128.342.291.656.49.943.195.275.424.499.689.67.273.158.578.21.915.156ZM33.337 9.317c.346-.068.65-.131.914-.19.275-.061.504-.11.688-.148.207-.043.39-.086.548-.128.158-.043.338-.097.539-.163.178-.06.394-.136.648-.228.263-.107.562-.236.898-.386-.226.242-.405.46-.535.652a2.994 2.994 0 0 0-.273.474 1.157 1.157 0 0 0-.113.394c.001.097.027.284.077.562.059.263.13.572.212.926.091.34.194.7.308 1.082.115.382.226.728.333 1.039.105.3.209.55.311.754.1.191.183.272.248.243.069-.104.145-.41.227-.917.028-.213.059-.482.093-.807.032-.336.063-.739.095-1.208.029-.481.055-1.04.078-1.677.035-.64.067-1.383.095-2.228l1.477-.396c.252.758.483 1.418.695 1.98a47.956 47.956 0 0 0 1.014 2.495c.132.267.25.484.356.65.24.397.426.596.56.596.096-.05.169-.209.218-.477.06-.27.095-.595.103-.974.02-.38.02-.787 0-1.22a45.344 45.344 0 0 0-.075-1.234c-.03-.38-.07-.71-.12-.988-.05-.277-.095-.447-.136-.51a1.822 1.822 0 0 0-.28-.233 5.934 5.934 0 0 0-.474-.274 7.158 7.158 0 0 0-.753-.362c.332-.028.643-.07.932-.122.297-.068.56-.126.79-.176.264-.058.501-.122.713-.19.227-.061.502-.141.828-.24.28-.088.629-.188 1.048-.3.43-.115.93-.261 1.502-.439a9.546 9.546 0 0 0-1.1.786c-.258.215-.45.406-.574.573-.156.187-.257.354-.303.5-.034.19-.063.58-.087 1.17l-.027.917a111.239 111.239 0 0 0-.078 2.969c-.012.634-.024 1.359-.036 2.175-.13.01-.264.034-.4.07a4.083 4.083 0 0 0-.36.079l-.391.105-.433.152c-.133.048-.287.107-.462.178-.175.071-.365.153-.571.244l-2.124-3.853-.559 4.572-1.915.459a430.78 430.78 0 0 0-1.396-2.902 45.442 45.442 0 0 0-.813-1.675c-.23-.448-.387-.763-.472-.947a2.477 2.477 0 0 0-.936-.914 2.274 2.274 0 0 0-.752-.29Z"/><path fill="#fff" d="M45.381 1.359c.23-.001.446-.01.648-.028.198-.03.374-.052.527-.069.176-.023.34-.048.49-.076.161-.031.35-.07.569-.117.195-.04.429-.096.7-.169l.968-.26a58.252 58.252 0 0 0-.265 2.201 28.14 28.14 0 0 0-.12 1.452c-.016.44-.017.799-.004 1.074.024.273.053.605.085.997.031.343.06.766.085 1.269.026.503.064 1.099.116 1.789l-1.513.332c-.07-.624-.144-1.15-.223-1.578l-.201-1.092a12.693 12.693 0 0 0-.185-.824c-.06-.227-.168-.562-.324-1.006a283.907 283.907 0 0 0-1.353-3.896Zm4.484 9.262a.928.928 0 0 1 .25.388c.062.141.091.297.088.468a1.06 1.06 0 0 1-.107.483 1.072 1.072 0 0 1-.338.437c-.316.267-.627.398-.931.395-.307-.015-.556-.106-.747-.273a.775.775 0 0 1-.236-.337 1.13 1.13 0 0 1-.028-.447c.017-.163.071-.323.162-.48.091-.159.222-.303.394-.434.33-.258.621-.397.871-.415.261-.022.468.05.622.215Z"/></svg>
