<svg width="400" height="300" viewBox="0 0 400 300" fill="none" xmlns="http://www.w3.org/2000/svg">
<rect width="400" height="300" fill="#E0E9FF"/>
<rect x="38" y="45" width="323" height="93" rx="8" fill="#262626"/>
<rect x="53" y="59" width="96" height="14" rx="7" fill="#999999"/>
<rect x="53" y="84" width="276" height="15" rx="7" fill="#474747"/>
<rect x="53" y="105" width="116" height="14" rx="7" fill="#474747"/>
<rect x="38" y="154" width="323" height="100" rx="8" fill="#262626"/>
<rect x="52" y="188" width="296" height="54" rx="4" fill="#1E1E1E"/>
<path d="M61.233 231V220.818H64.6733C65.4721 220.818 66.125 220.962 66.6321 221.251C67.1425 221.536 67.5204 221.922 67.7656 222.409C68.0109 222.896 68.1335 223.44 68.1335 224.04C68.1335 224.64 68.0109 225.185 67.7656 225.675C67.5237 226.166 67.1491 226.557 66.642 226.849C66.1349 227.137 65.4853 227.281 64.6932 227.281H62.2273V226.188H64.6534C65.2003 226.188 65.6394 226.093 65.9709 225.904C66.3023 225.715 66.5426 225.46 66.6918 225.138C66.8442 224.814 66.9205 224.447 66.9205 224.04C66.9205 223.632 66.8442 223.268 66.6918 222.946C66.5426 222.625 66.3007 222.373 65.9659 222.19C65.6312 222.005 65.187 221.912 64.6335 221.912H62.4659V231H61.233ZM73.2617 231H70.1197V220.818H73.4009C74.3886 220.818 75.2338 221.022 75.9364 221.43C76.6391 221.834 77.1777 222.416 77.5522 223.175C77.9267 223.93 78.114 224.835 78.114 225.889C78.114 226.95 77.9251 227.863 77.5472 228.629C77.1694 229.391 76.6192 229.978 75.8967 230.388C75.1741 230.796 74.2958 231 73.2617 231ZM71.3526 229.906H73.1822C74.024 229.906 74.7217 229.744 75.2752 229.419C75.8287 229.094 76.2414 228.632 76.5131 228.032C76.7849 227.432 76.9208 226.718 76.9208 225.889C76.9208 225.067 76.7866 224.36 76.5181 223.766C76.2496 223.17 75.8486 222.712 75.315 222.394C74.7814 222.073 74.1168 221.912 73.3214 221.912H71.3526V229.906ZM80.1822 231V220.818H86.2873V221.912H81.4151V225.352H85.8299V226.446H81.4151V231H80.1822Z" fill="#1E1E1E"/>
<line x1="96.5" y1="220" x2="96.5" y2="232" stroke="white" stroke-opacity="0.52"/>
<path d="M108.634 220.818V231H107.401V222.111H107.341L104.855 223.761V222.509L107.401 220.818H108.634ZM111.835 231.08C111.59 231.08 111.379 230.992 111.204 230.816C111.028 230.64 110.94 230.43 110.94 230.185C110.94 229.939 111.028 229.729 111.204 229.553C111.379 229.378 111.59 229.29 111.835 229.29C112.08 229.29 112.291 229.378 112.467 229.553C112.642 229.729 112.73 229.939 112.73 230.185C112.73 230.347 112.689 230.496 112.606 230.632C112.526 230.768 112.419 230.877 112.283 230.96C112.15 231.04 112.001 231.08 111.835 231.08ZM114.816 231V230.105L118.176 226.426C118.571 225.995 118.896 225.621 119.151 225.303C119.406 224.981 119.595 224.679 119.718 224.398C119.844 224.113 119.907 223.814 119.907 223.503C119.907 223.145 119.82 222.835 119.648 222.573C119.479 222.311 119.247 222.109 118.952 221.967C118.657 221.824 118.326 221.753 117.958 221.753C117.567 221.753 117.225 221.834 116.934 221.996C116.645 222.156 116.422 222.379 116.262 222.668C116.107 222.956 116.029 223.294 116.029 223.682H114.855C114.855 223.085 114.993 222.562 115.268 222.111C115.543 221.66 115.918 221.309 116.392 221.057C116.869 220.805 117.404 220.679 117.998 220.679C118.594 220.679 119.123 220.805 119.583 221.057C120.044 221.309 120.405 221.648 120.667 222.076C120.929 222.504 121.06 222.979 121.06 223.503C121.06 223.877 120.992 224.244 120.856 224.602C120.724 224.956 120.492 225.352 120.16 225.79C119.832 226.224 119.376 226.754 118.793 227.381L116.506 229.827V229.906H121.239V231H114.816ZM123.471 220.818H124.943L128.403 229.27H128.522L131.983 220.818H133.454V231H132.301V223.264H132.201L129.02 231H127.906L124.724 223.264H124.625V231H123.471V220.818ZM135.926 231V220.818H139.486C140.195 220.818 140.78 220.941 141.241 221.186C141.702 221.428 142.045 221.754 142.27 222.165C142.495 222.573 142.608 223.026 142.608 223.523C142.608 223.96 142.53 224.321 142.374 224.607C142.222 224.892 142.02 225.117 141.768 225.283C141.519 225.448 141.249 225.571 140.958 225.651V225.75C141.269 225.77 141.582 225.879 141.897 226.078C142.212 226.277 142.476 226.562 142.688 226.933C142.9 227.304 143.006 227.759 143.006 228.295C143.006 228.806 142.89 229.265 142.658 229.673C142.426 230.08 142.06 230.403 141.559 230.642C141.059 230.881 140.407 231 139.605 231H135.926ZM137.159 229.906H139.605C140.411 229.906 140.982 229.75 141.32 229.439C141.662 229.124 141.833 228.743 141.833 228.295C141.833 227.951 141.745 227.633 141.569 227.341C141.393 227.046 141.143 226.811 140.818 226.635C140.494 226.456 140.109 226.366 139.665 226.366H137.159V229.906ZM137.159 225.293H139.446C139.817 225.293 140.152 225.22 140.45 225.074C140.752 224.928 140.991 224.723 141.166 224.457C141.345 224.192 141.435 223.881 141.435 223.523C141.435 223.075 141.279 222.696 140.968 222.384C140.656 222.069 140.162 221.912 139.486 221.912H137.159V225.293Z" fill="#1E1E1E" fill-opacity="0.64"/>
<rect x="60" y="198" width="96" height="12" rx="6" fill="#474747"/>
<rect x="60" y="198" width="96" height="12" rx="6" fill="#474747"/>
<rect x="103" y="222" width="38" height="8" rx="4" fill="#474747"/>
<rect x="60" y="222" width="30" height="8" rx="4" fill="#474747"/>
<rect x="308" y="199" width="32" height="32" rx="4" fill="#2C2C2C"/>
<path d="M329.5 221.999C329.776 221.999 330 222.223 330 222.499C330 222.744 329.823 222.948 329.59 222.991L329.5 222.999H318.5C318.224 222.999 318 222.775 318 222.499C318 222.253 318.177 222.049 318.41 222.007L318.5 221.999H329.5ZM324 207.001C324.246 207.001 324.45 207.178 324.492 207.411L324.5 207.501L324.496 219.295L328.141 215.647C328.315 215.473 328.584 215.454 328.779 215.588L328.849 215.646C329.022 215.82 329.042 216.089 328.907 216.284L328.849 216.353L324.357 220.853C324.285 220.926 324.196 220.972 324.102 220.99L323.996 221C323.835 221 323.692 220.924 323.601 220.806L319.144 216.354C318.948 216.159 318.948 215.842 319.143 215.647C319.317 215.473 319.586 215.454 319.781 215.588L319.85 215.646L323.496 219.287L323.5 207.501C323.5 207.225 323.724 207.001 324 207.001Z" fill="white"/>
<rect x="52" y="165" width="96" height="14" rx="7" fill="#999999"/>
<rect x="52" y="165" width="96" height="14" rx="7" fill="#999999"/>
</svg>
