<svg width="400" height="300" viewBox="0 0 400 300" fill="none" xmlns="http://www.w3.org/2000/svg">
<g clip-path="url(#clip0_238_5058)">
<rect width="400" height="300" fill="#E0E9FF"/>
<path d="M38 -16H400V223H46C41.5817 223 38 219.418 38 215V-16Z" fill="#262626"/>
<rect x="51" y="150" width="82" height="62" rx="4" fill="#080808"/>
<path d="M92 161.5C89.5147 161.5 87.5 163.515 87.5 166V174C87.5 176.485 89.5147 178.5 92 178.5C94.4853 178.5 96.5 176.485 96.5 174V166C96.5 163.515 94.4853 161.5 92 161.5ZM89 166C89 164.343 90.3431 163 92 163C93.6569 163 95 164.343 95 166V174C95 175.657 93.6569 177 92 177C90.3431 177 89 175.657 89 174V166ZM85.5 173.25C85.5 172.836 85.1642 172.5 84.75 172.5C84.3358 172.5 84 172.837 84 173.251V174C84 178.165 87.1834 181.587 91.25 181.965V184.75C91.25 185.164 91.5858 185.5 92 185.5C92.4142 185.5 92.75 185.164 92.75 184.75V181.965C96.8166 181.587 100 178.165 100 174V173.251C100 172.836 99.6642 172.501 99.25 172.501C98.8358 172.501 98.5 172.837 98.5 173.251V174C98.5 177.59 95.5899 180.5 92 180.5C88.4101 180.5 85.5 177.589 85.5 173.999V173.25Z" fill="white" fill-opacity="0.88"/>
<rect x="60" y="195.5" width="64" height="7" rx="3.5" fill="#474747"/>
<rect x="141" y="150" width="83" height="62" rx="4" fill="#080808"/>
<path d="M171.78 161.72C171.487 161.427 171.013 161.427 170.72 161.72C170.427 162.013 170.427 162.487 170.72 162.78L173.021 165.082C171.577 165.413 170.5 166.706 170.5 168.25V178.75C170.5 180.545 171.955 182 173.75 182H184.252C185.796 182 187.088 180.924 187.42 179.481L193.219 185.28C193.512 185.573 193.987 185.573 194.28 185.28C194.573 184.988 194.573 184.513 194.28 184.22L171.78 161.72ZM186.002 178.063V178.75C186.002 179.717 185.219 180.5 184.252 180.5H173.75C172.784 180.5 172 179.717 172 178.75V168.25C172 167.284 172.784 166.5 173.75 166.5H174.439L186.002 178.063ZM177.182 165L178.682 166.5H184.252C185.219 166.5 186.002 167.284 186.002 168.25V173.821L187.502 175.321V171.646L192.502 168.226V178.777L187.603 175.421L192.683 180.501C193.356 180.537 194.002 180.012 194.002 179.251V167.752C194.002 166.747 192.876 166.153 192.046 166.721L187.502 169.828V168.25C187.502 166.455 186.047 165 184.252 165H177.182Z" fill="#FF2D2D"/>
<rect x="150.5" y="195.5" width="64" height="7" rx="3.5" fill="#474747"/>
<rect x="232" y="150" width="82" height="62" rx="4" fill="#080808"/>
<path d="M261 166.749C261 165.507 262.007 164.499 263.25 164.499H282.75C283.993 164.499 285 165.507 285 166.749V180.25C285 181.493 283.993 182.5 282.75 182.5H263.25C262.007 182.5 261 181.493 261 180.25V166.749ZM263.25 165.999C262.836 165.999 262.5 166.335 262.5 166.749V180.25C262.5 180.664 262.836 181 263.25 181H282.75C283.164 181 283.5 180.664 283.5 180.25V166.749C283.5 166.335 283.164 165.999 282.75 165.999H263.25ZM272.997 168.121C273.196 168.121 273.387 168.2 273.528 168.341L276.783 171.595C277.075 171.888 277.075 172.363 276.783 172.656C276.49 172.949 276.015 172.949 275.722 172.656L273.748 170.682V178.128C273.748 178.543 273.412 178.878 272.998 178.878C272.584 178.878 272.248 178.543 272.248 178.128V170.683L270.278 172.656C269.986 172.949 269.511 172.949 269.218 172.656C268.925 172.364 268.924 171.889 269.217 171.596L272.467 168.341C272.608 168.2 272.798 168.121 272.997 168.121Z" fill="white" fill-opacity="0.88"/>
<rect x="241" y="195.5" width="64" height="7" rx="3.5" fill="#474747"/>
<rect x="322" y="150" width="83" height="62" rx="4" fill="#080808"/>
<path d="M356.8 179.524V182.069L355.67 183.198H353.127L356.8 179.524ZM376 176.521V179.067L371.87 183.198H371.191L371.191 181.33L376 176.521ZM360.1 175.999H367.893C368.994 175.999 369.898 176.847 369.985 177.926L369.992 178.099V183.198H368.192V178.099C368.192 177.957 368.094 177.838 367.961 177.807L367.893 177.799H360.1C359.958 177.799 359.839 177.897 359.808 178.03L359.8 178.099V183.198H358V178.099C358 176.997 358.848 176.093 359.927 176.006L360.1 175.999ZM359.225 171.698C359.297 172.393 359.517 173.043 359.852 173.618L352 181.47V178.924L359.225 171.698ZM376 171.118V173.665L371.191 178.477L371.192 178.099L371.186 177.898C371.153 177.352 370.988 176.843 370.722 176.4L376 171.118ZM364.067 164L352 176.071V173.526L361.522 164H364.067ZM376 165.718V168.266L369.2 175.068C368.88 174.93 368.532 174.84 368.168 174.81L367.893 174.799L367.174 174.8C367.584 174.438 367.932 174.007 368.199 173.525L376 165.718ZM363.999 167.6C365.987 167.6 367.599 169.212 367.599 171.2C367.599 173.188 365.987 174.799 363.999 174.799C362.011 174.799 360.4 173.188 360.4 171.2C360.4 169.212 362.011 167.6 363.999 167.6ZM363.999 169.4C363.005 169.4 362.199 170.206 362.199 171.2C362.199 172.194 363.005 173 363.999 173C364.993 173 365.799 172.194 365.799 171.2C365.799 170.206 364.993 169.4 363.999 169.4ZM358.67 164L352 170.671V168.125L356.125 164H358.67ZM374.866 164L368.69 170.178C368.55 169.532 368.279 168.934 367.908 168.413L372.32 164H374.866ZM369.469 164L366.417 167.053C365.843 166.717 365.192 166.498 364.498 166.426L366.923 164H369.469Z" fill="white" fill-opacity="0.88"/>
<rect x="331.5" y="195.5" width="64" height="7" rx="3.5" fill="#474747"/>
</g>
<defs>
<clipPath id="clip0_238_5058">
<rect width="400" height="300" fill="white"/>
</clipPath>
</defs>
</svg>
