<svg width="400" height="300" viewBox="0 0 400 300" fill="none" xmlns="http://www.w3.org/2000/svg">
<rect width="400" height="300" fill="#E0E9FF"/>
<rect x="55" y="38" width="290.667" height="224" rx="8" fill="#0B0B0B"/>
<g clip-path="url(#clip0_238_5201)">
<rect x="63" y="46" width="133.333" height="100" rx="4" fill="#1E1E1E"/>
<path d="M189 55C188.448 55 188 54.5523 188 54C188 53.4477 188.448 53 189 53C189.552 53 190 53.4477 190 54C190 54.5523 189.552 55 189 55ZM189 59C188.448 59 188 58.5523 188 58C188 57.4477 188.448 57 189 57C189.552 57 190 57.4477 190 58C190 58.5523 189.552 59 189 59ZM188 62C188 62.5523 188.448 63 189 63C189.552 63 190 62.5523 190 62C190 61.4477 189.552 61 189 61C188.448 61 188 61.4477 188 62Z" fill="#999999"/>
<rect x="80.6665" y="135.889" width="31.1111" height="3.88888" rx="1.94444" fill="#474747"/>
</g>
<g clip-path="url(#clip1_238_5201)">
<rect x="204.333" y="46" width="133.333" height="100" rx="4" fill="#1E1E1E"/>
<path d="M330.333 55C329.781 55 329.333 54.5523 329.333 54C329.333 53.4477 329.781 53 330.333 53C330.886 53 331.333 53.4477 331.333 54C331.333 54.5523 330.886 55 330.333 55ZM330.333 59C329.781 59 329.333 58.5523 329.333 58C329.333 57.4477 329.781 57 330.333 57C330.886 57 331.333 57.4477 331.333 58C331.333 58.5523 330.886 59 330.333 59ZM329.333 62C329.333 62.5523 329.781 63 330.333 63C330.886 63 331.333 62.5523 331.333 62C331.333 61.4477 330.886 61 330.333 61C329.781 61 329.333 61.4477 329.333 62Z" fill="#999999"/>
<rect x="222" y="135.889" width="31.1111" height="3.88888" rx="1.94444" fill="#474747"/>
</g>
<g clip-path="url(#clip2_238_5201)">
<rect x="63" y="154" width="133.333" height="100" rx="4" fill="#1E1E1E"/>
<path d="M189 163C188.448 163 188 162.552 188 162C188 161.448 188.448 161 189 161C189.552 161 190 161.448 190 162C190 162.552 189.552 163 189 163ZM189 167C188.448 167 188 166.552 188 166C188 165.448 188.448 165 189 165C189.552 165 190 165.448 190 166C190 166.552 189.552 167 189 167ZM188 170C188 170.552 188.448 171 189 171C189.552 171 190 170.552 190 170C190 169.448 189.552 169 189 169C188.448 169 188 169.448 188 170Z" fill="#999999"/>
<rect x="80.6665" y="243.889" width="31.1111" height="3.88888" rx="1.94444" fill="#474747"/>
</g>
<g clip-path="url(#clip3_238_5201)">
<rect x="204.333" y="154" width="133.333" height="100" rx="4" fill="#1E1E1E"/>
<path d="M330.333 163C329.781 163 329.333 162.552 329.333 162C329.333 161.448 329.781 161 330.333 161C330.886 161 331.333 161.448 331.333 162C331.333 162.552 330.886 163 330.333 163ZM330.333 167C329.781 167 329.333 166.552 329.333 166C329.333 165.448 329.781 165 330.333 165C330.886 165 331.333 165.448 331.333 166C331.333 166.552 330.886 167 330.333 167ZM329.333 170C329.333 170.552 329.781 171 330.333 171C330.886 171 331.333 170.552 331.333 170C331.333 169.448 330.886 169 330.333 169C329.781 169 329.333 169.448 329.333 170Z" fill="#999999"/>
<rect x="222" y="243.889" width="31.1111" height="3.88888" rx="1.94444" fill="#474747"/>
</g>
<defs>
<clipPath id="clip0_238_5201">
<rect x="63" y="46" width="133.333" height="100" rx="4" fill="white"/>
</clipPath>
<clipPath id="clip1_238_5201">
<rect x="204.333" y="46" width="133.333" height="100" rx="4" fill="white"/>
</clipPath>
<clipPath id="clip2_238_5201">
<rect x="63" y="154" width="133.333" height="100" rx="4" fill="white"/>
</clipPath>
<clipPath id="clip3_238_5201">
<rect x="204.333" y="154" width="133.333" height="100" rx="4" fill="white"/>
</clipPath>
</defs>
</svg>
