<svg width="400" height="300" viewBox="0 0 400 300" fill="none" xmlns="http://www.w3.org/2000/svg">
<g clip-path="url(#clip0_238_5117)">
<rect width="400" height="300" fill="#E0E9FF"/>
<path d="M0 61H354C358.418 61 362 64.5817 362 69V300H0V61Z" fill="#262626"/>
<rect x="275" y="75" width="71" height="40" rx="4" fill="#1E1E1E"/>
<rect x="284" y="89" width="53" height="11" rx="5.5" fill="#474747"/>
<rect x="183" y="75" width="82" height="40" rx="4" fill="#1E1E1E"/>
<rect x="198" y="89.5" width="21" height="11" rx="5.5" fill="#474747"/>
<path d="M241.754 93C242.721 93 243.504 93.7835 243.504 94.75V99.499C243.504 101.985 241.489 104 239.003 104C236.517 104 234.502 101.985 234.502 99.499V94.75C234.502 93.7835 235.285 93 236.252 93H241.754ZM241.754 94.5H236.252C236.114 94.5 236.002 94.6119 236.002 94.75V99.499C236.002 101.156 237.346 102.5 239.003 102.5C240.66 102.5 242.004 101.156 242.004 99.499V94.75C242.004 94.6119 241.892 94.5 241.754 94.5ZM230.75 93L234.131 92.9991C233.788 93.4145 233.564 93.9325 233.513 94.5002L230.75 94.5C230.612 94.5 230.5 94.6119 230.5 94.75V97.9988C230.5 99.3802 231.62 100.5 233.001 100.5C233.201 100.5 233.396 100.477 233.582 100.432C233.667 100.936 233.822 101.417 234.035 101.864C233.706 101.953 233.359 102 233.001 102C230.791 102 229 100.209 229 97.9988V94.75C229 93.7835 229.784 93 230.75 93ZM243.875 92.9991L247.25 93C248.216 93 249 93.7835 249 94.75V98C249 100.209 247.209 102 245 102C244.644 102 244.298 101.953 243.969 101.866C244.184 101.418 244.339 100.937 244.425 100.433C244.609 100.477 244.802 100.5 245 100.5C246.381 100.5 247.5 99.3807 247.5 98V94.75C247.5 94.6119 247.388 94.5 247.25 94.5L244.493 94.5002C244.442 93.9325 244.218 93.4145 243.875 92.9991ZM239 86C240.657 86 242 87.3431 242 89C242 90.6569 240.657 92 239 92C237.343 92 236 90.6569 236 89C236 87.3431 237.343 86 239 86ZM245.5 87C246.881 87 248 88.1193 248 89.5C248 90.8807 246.881 92 245.5 92C244.119 92 243 90.8807 243 89.5C243 88.1193 244.119 87 245.5 87ZM232.5 87C233.881 87 235 88.1193 235 89.5C235 90.8807 233.881 92 232.5 92C231.119 92 230 90.8807 230 89.5C230 88.1193 231.119 87 232.5 87ZM239 87.5C238.172 87.5 237.5 88.1716 237.5 89C237.5 89.8284 238.172 90.5 239 90.5C239.828 90.5 240.5 89.8284 240.5 89C240.5 88.1716 239.828 87.5 239 87.5ZM245.5 88.5C244.948 88.5 244.5 88.9477 244.5 89.5C244.5 90.0523 244.948 90.5 245.5 90.5C246.052 90.5 246.5 90.0523 246.5 89.5C246.5 88.9477 246.052 88.5 245.5 88.5ZM232.5 88.5C231.948 88.5 231.5 88.9477 231.5 89.5C231.5 90.0523 231.948 90.5 232.5 90.5C233.052 90.5 233.5 90.0523 233.5 89.5C233.5 88.9477 233.052 88.5 232.5 88.5Z" fill="#DDDDDD"/>
<path d="M115.99 87.9289C116.282 88.2218 116.282 88.6967 115.99 88.9896C112.67 92.309 112.67 97.6909 115.99 101.01C116.282 101.303 116.282 101.778 115.99 102.071C115.697 102.364 115.222 102.364 114.929 102.071C111.024 98.1658 111.024 91.8341 114.929 87.9289C115.222 87.636 115.697 87.636 115.99 87.9289ZM129.071 87.9289C132.976 91.8341 132.976 98.1658 129.071 102.071C128.778 102.364 128.303 102.364 128.01 102.071C127.718 101.778 127.718 101.303 128.01 101.01C131.33 97.6909 131.33 92.309 128.01 88.9896C127.718 88.6967 127.718 88.2218 128.01 87.9289C128.303 87.636 128.778 87.636 129.071 87.9289ZM118.818 90.7573C119.111 91.0502 119.111 91.5251 118.818 91.818C117.061 93.5753 117.061 96.4246 118.818 98.1819C119.111 98.4748 119.111 98.9497 118.818 99.2426C118.525 99.5355 118.05 99.5355 117.757 99.2426C115.414 96.8995 115.414 93.1005 117.757 90.7573C118.05 90.4644 118.525 90.4644 118.818 90.7573ZM126.243 90.7573C128.586 93.1005 128.586 96.8995 126.243 99.2426C125.95 99.5355 125.475 99.5355 125.182 99.2426C124.889 98.9497 124.889 98.4748 125.182 98.1819C126.939 96.4246 126.939 93.5753 125.182 91.818C124.889 91.5251 124.889 91.0502 125.182 90.7573C125.475 90.4644 125.95 90.4644 126.243 90.7573ZM122 93.5C122.828 93.5 123.5 94.1715 123.5 95C123.5 95.8284 122.828 96.5 122 96.5C121.172 96.5 120.5 95.8284 120.5 95C120.5 94.1715 121.172 93.5 122 93.5Z" fill="#FF414D"/>
<path d="M138.759 99H144.345V97.4787H140.604V90.2727H138.759V99ZM147.412 90.2727H145.567V99H147.412V90.2727ZM150.507 90.2727H148.457L151.47 99H153.848L156.857 90.2727H154.811L152.697 96.9034H152.616L150.507 90.2727ZM157.907 99H163.805V97.4787H159.752V95.3949H163.485V93.8736H159.752V91.794H163.788V90.2727H157.907V99Z" fill="#FF414D"/>
</g>
<defs>
<clipPath id="clip0_238_5117">
<rect width="400" height="300" fill="white"/>
</clipPath>
</defs>
</svg>
