<svg width="400" height="300" viewBox="0 0 400 300" fill="none" xmlns="http://www.w3.org/2000/svg">
<g clip-path="url(#clip0_238_4969)">
<rect width="400" height="300" fill="#E0E9FF"/>
<g clip-path="url(#clip1_238_4969)">
<path d="M675.009 36H44.2398C40.2414 36 37 39.2414 37 43.2398V428.76C37 432.759 40.2414 436 44.2398 436H675.009C679.007 436 682.249 432.759 682.249 428.76V43.2398C682.249 39.2414 679.007 36 675.009 36Z" fill="#1A1A1A"/>
<path d="M66.1759 72.8091C66.1297 72.3425 65.9311 71.9799 65.5802 71.7216C65.2292 71.4632 64.753 71.334 64.1513 71.334C63.7425 71.334 63.3974 71.3919 63.1159 71.5075C62.8344 71.6194 62.6184 71.7756 62.468 71.9761C62.3215 72.1766 62.2482 72.4042 62.2482 72.6587C62.2405 72.8708 62.2848 73.0559 62.3813 73.214C62.4815 73.3722 62.6184 73.509 62.792 73.6247C62.9655 73.7366 63.1661 73.8349 63.3936 73.9198C63.6211 74.0008 63.8641 74.0702 64.1225 74.128L65.1868 74.3825C65.7035 74.4982 66.1779 74.6524 66.6099 74.8453C67.0417 75.0381 67.4158 75.2752 67.732 75.5568C68.0482 75.8383 68.2931 76.17 68.4667 76.5518C68.6441 76.9335 68.7348 77.3713 68.7386 77.8649C68.7348 78.5899 68.5496 79.2185 68.1833 79.7507C67.8207 80.279 67.2963 80.6897 66.6099 80.9828C65.9272 81.2721 65.1039 81.4167 64.1397 81.4167C63.1834 81.4167 62.3504 81.2701 61.6408 80.977C60.9351 80.6839 60.3836 80.2501 59.9864 79.6755C59.593 79.097 59.3867 78.3817 59.3674 77.5294H61.7912C61.8182 77.9265 61.932 78.2582 62.1325 78.5243C62.3369 78.7865 62.6088 78.9852 62.9482 79.1201C63.2913 79.2513 63.6789 79.3169 64.1109 79.3169C64.535 79.3169 64.9034 79.2551 65.2158 79.1317C65.532 79.0083 65.7768 78.8367 65.9504 78.6169C66.1239 78.397 66.2107 78.1445 66.2107 77.8591C66.2107 77.593 66.1316 77.3693 65.9735 77.1881C65.8193 77.0068 65.5918 76.8525 65.291 76.7253C64.9939 76.598 64.6295 76.4824 64.1977 76.3782L62.9076 76.0542C61.9088 75.8113 61.1202 75.4314 60.5417 74.9147C59.9633 74.3979 59.6759 73.7018 59.6798 72.8265C59.6759 72.1092 59.8669 71.4825 60.2525 70.9465C60.642 70.4103 61.1761 69.992 61.8549 69.6912C62.5336 69.3903 63.3049 69.2399 64.1687 69.2399C65.048 69.2399 65.8154 69.3903 66.471 69.6912C67.1304 69.992 67.6434 70.4103 68.0097 70.9465C68.3761 71.4825 68.5651 72.1034 68.5766 72.8091H66.1759ZM74.4263 81.4225C73.5124 81.4225 72.7256 81.2373 72.0662 80.8671C71.4106 80.4931 70.9054 79.9647 70.5506 79.2821C70.1958 78.5957 70.0185 77.7839 70.0185 76.8468C70.0185 75.9328 70.1958 75.1306 70.5506 74.4404C70.9054 73.7501 71.4048 73.2121 72.0489 72.8265C72.6968 72.4408 73.4565 72.248 74.328 72.248C74.9142 72.248 75.4598 72.3425 75.9651 72.5314C76.4741 72.7165 76.9176 72.9961 77.2956 73.3702C77.6773 73.7443 77.9743 74.2148 78.1863 74.7817C78.3985 75.3447 78.5045 76.0041 78.5045 76.76V77.4368H71.0018V75.9096H76.1849C76.1849 75.5549 76.1078 75.2406 75.9535 74.9667C75.7992 74.693 75.5852 74.4789 75.3114 74.3246C75.0415 74.1665 74.7272 74.0875 74.3685 74.0875C73.9944 74.0875 73.6628 74.1742 73.3735 74.3478C73.0882 74.5175 72.8644 74.7469 72.7025 75.0361C72.5406 75.3216 72.4577 75.6397 72.4538 75.9906V77.4426C72.4538 77.8822 72.5348 78.2621 72.6968 78.5822C72.8625 78.9023 73.0958 79.1491 73.3967 79.3226C73.6975 79.4961 74.0542 79.5829 74.4668 79.5829C74.7406 79.5829 74.9913 79.5444 75.2188 79.4672C75.4463 79.3901 75.6411 79.2744 75.8031 79.1201C75.9651 78.9659 76.0884 78.777 76.1733 78.5532L78.4525 78.7037C78.3368 79.2513 78.0996 79.7294 77.7409 80.1382C77.3862 80.5432 76.9272 80.8594 76.3642 81.0869C75.805 81.3106 75.1591 81.4225 74.4263 81.4225ZM84.8387 72.3636V74.2148H79.4879V72.3636H84.8387ZM80.7027 70.2349H83.167V78.5186C83.167 78.7461 83.2016 78.9235 83.271 79.0507C83.3405 79.1741 83.4369 79.2609 83.5603 79.3111C83.6876 79.3612 83.8341 79.3863 83.9999 79.3863C84.1157 79.3863 84.2313 79.3766 84.3471 79.3573C84.4627 79.3341 84.5514 79.3169 84.6131 79.3053L85.0007 81.139C84.8773 81.1776 84.7037 81.2219 84.4801 81.2721C84.2564 81.326 83.9845 81.3588 83.6644 81.3703C83.0705 81.3935 82.55 81.3144 82.1025 81.1332C81.6591 80.952 81.3139 80.6704 81.0672 80.2886C80.8203 79.9068 80.6988 79.4248 80.7027 78.8425V70.2349ZM91.1701 72.3636V74.2148H85.8192V72.3636H91.1701ZM87.034 70.2349H89.4983V78.5186C89.4983 78.7461 89.533 78.9235 89.6024 79.0507C89.6718 79.1741 89.7682 79.2609 89.8916 79.3111C90.0189 79.3612 90.1654 79.3863 90.3312 79.3863C90.447 79.3863 90.5626 79.3766 90.6784 79.3573C90.794 79.3341 90.8827 79.3169 90.9444 79.3053L91.332 81.139C91.2086 81.1776 91.035 81.2219 90.8114 81.2721C90.5877 81.326 90.3158 81.3588 89.9958 81.3703C89.4018 81.3935 88.8813 81.3144 88.4339 81.1332C87.9904 80.952 87.6453 80.6704 87.3985 80.2886C87.1516 79.9068 87.0301 79.4248 87.034 78.8425V70.2349ZM92.7753 81.2489V72.3636H95.2396V81.2489H92.7753ZM94.0132 71.2183C93.6468 71.2183 93.3325 71.0969 93.0703 70.8539C92.812 70.6071 92.6827 70.3121 92.6827 69.9688C92.6827 69.6294 92.812 69.3383 93.0703 69.0953C93.3325 68.8485 93.6468 68.7251 94.0132 68.7251C94.3796 68.7251 94.692 68.8485 94.9503 69.0953C95.2126 69.3383 95.3436 69.6294 95.3436 69.9688C95.3436 70.3121 95.2126 70.6071 94.9503 70.8539C94.692 71.0969 94.3796 71.2183 94.0132 71.2183ZM99.6778 76.1122V81.2489H97.2136V72.3636H99.5621V73.9313H99.6663C99.8629 73.4145 100.193 73.0057 100.655 72.7049C101.118 72.4003 101.679 72.248 102.339 72.248C102.956 72.248 103.494 72.3829 103.953 72.6529C104.412 72.9228 104.768 73.3085 105.023 73.8098C105.277 74.3073 105.405 74.9012 105.405 75.5915V81.2489H102.94V76.0312C102.944 75.4874 102.805 75.0632 102.524 74.7585C102.242 74.45 101.855 74.2958 101.361 74.2958C101.03 74.2958 100.736 74.3671 100.482 74.5098C100.231 74.6524 100.035 74.8608 99.8919 75.1345C99.753 75.4045 99.6816 75.7303 99.6778 76.1122ZM111.35 84.766C110.552 84.766 109.867 84.656 109.296 84.4362C108.729 84.2203 108.278 83.9253 107.943 83.5512C107.607 83.1771 107.389 82.7568 107.289 82.2902L109.568 81.9836C109.638 82.1609 109.747 82.3268 109.898 82.481C110.048 82.6353 110.247 82.7587 110.494 82.8513C110.744 82.9476 111.049 82.9959 111.408 82.9959C111.944 82.9959 112.385 82.8647 112.732 82.6025C113.083 82.3441 113.259 81.9103 113.259 81.3009V79.6755H113.155C113.047 79.9223 112.885 80.1556 112.669 80.3754C112.453 80.5952 112.175 80.7746 111.836 80.9134C111.496 81.0522 111.091 81.1217 110.621 81.1217C109.954 81.1217 109.346 80.9674 108.799 80.6589C108.255 80.3465 107.821 79.8703 107.497 79.2301C107.177 78.586 107.017 77.7723 107.017 76.7889C107.017 75.7824 107.181 74.9417 107.509 74.2668C107.837 73.592 108.272 73.0867 108.816 72.7513C109.364 72.4157 109.963 72.248 110.615 72.248C111.113 72.248 111.529 72.3328 111.865 72.5025C112.2 72.6684 112.47 72.8766 112.674 73.1273C112.883 73.3741 113.043 73.617 113.155 73.8561H113.247V72.3636H115.694V81.3357C115.694 82.0915 115.509 82.724 115.139 83.2331C114.769 83.7421 114.256 84.1238 113.6 84.3784C112.948 84.6368 112.198 84.766 111.35 84.766ZM111.402 79.2705C111.799 79.2705 112.135 79.1722 112.408 78.9755C112.686 78.775 112.898 78.4896 113.045 78.1194C113.195 77.7454 113.27 77.2979 113.27 76.7773C113.27 76.2568 113.197 75.8056 113.051 75.4237C112.904 75.0381 112.692 74.7392 112.414 74.5271C112.136 74.3151 111.799 74.209 111.402 74.209C110.997 74.209 110.656 74.3189 110.378 74.5387C110.1 74.7547 109.89 75.0554 109.747 75.4411C109.605 75.8267 109.533 76.2722 109.533 76.7773C109.533 77.2903 109.605 77.7338 109.747 78.1078C109.894 78.478 110.104 78.7654 110.378 78.9697C110.656 79.1703 110.997 79.2705 111.402 79.2705ZM125.048 74.8973L122.792 75.0361C122.753 74.8434 122.67 74.6698 122.543 74.5156C122.416 74.3574 122.248 74.2321 122.04 74.1396C121.835 74.0431 121.591 73.995 121.305 73.995C120.923 73.995 120.601 74.076 120.339 74.2379C120.077 74.396 119.946 74.6081 119.946 74.8742C119.946 75.0863 120.031 75.2656 120.2 75.4122C120.37 75.5588 120.661 75.6763 121.074 75.765L122.682 76.089C123.546 76.2664 124.19 76.5518 124.614 76.9451C125.038 77.3385 125.25 77.8552 125.25 78.4954C125.25 79.0778 125.079 79.5887 124.735 80.0284C124.396 80.468 123.93 80.8112 123.336 81.058C122.746 81.3009 122.065 81.4225 121.294 81.4225C120.117 81.4225 119.18 81.1776 118.482 80.6878C117.788 80.1941 117.381 79.5231 117.262 78.6747L119.686 78.5475C119.759 78.9061 119.936 79.1799 120.218 79.3689C120.499 79.554 120.86 79.6465 121.299 79.6465C121.731 79.6465 122.078 79.5636 122.341 79.3978C122.607 79.2281 122.742 79.0103 122.746 78.7441C122.742 78.5205 122.647 78.3373 122.462 78.1946C122.277 78.0481 121.992 77.9362 121.606 77.8591L120.067 77.5525C119.2 77.3789 118.554 77.0781 118.129 76.6501C117.709 76.222 117.499 75.6763 117.499 75.0131C117.499 74.4423 117.653 73.9506 117.962 73.5379C118.274 73.1253 118.712 72.8072 119.275 72.5835C119.842 72.3598 120.505 72.248 121.265 72.248C122.387 72.248 123.27 72.4852 123.914 72.9595C124.562 73.4338 124.94 74.0798 125.048 74.8973Z" fill="white"/>
<path d="M232.927 436V36" stroke="#393939"/>
<path d="M45.1448 118.353C45.1448 116.354 46.7655 114.733 48.7647 114.733H233.38V154.552H48.7647C46.7655 154.552 45.1448 152.931 45.1448 150.932V118.353Z" fill="#2160FD" fill-opacity="0.2"/>
<path d="M61.671 139.167H59.9844L63.774 128.637H65.6096L69.3992 139.167H67.7127L64.7355 130.549H64.6532L61.671 139.167ZM61.9538 135.043H67.4247V136.38H61.9538V135.043ZM75.7997 135.892V131.27H77.3422V139.167H75.8305V137.8H75.7483C75.5665 138.222 75.2751 138.573 74.8742 138.853C74.4765 139.131 73.9811 139.271 73.3881 139.271C72.8808 139.271 72.4317 139.159 72.0409 138.936C71.6535 138.709 71.3485 138.376 71.1256 137.933C70.9063 137.491 70.7966 136.945 70.7966 136.293V131.27H72.334V136.108C72.334 136.646 72.4831 137.074 72.7814 137.394C73.0796 137.712 73.4669 137.871 73.9434 137.871C74.2313 137.871 74.5176 137.8 74.8021 137.656C75.0901 137.511 75.3283 137.294 75.5169 137.003C75.7088 136.711 75.8031 136.341 75.7997 135.892ZM82.3646 139.321C81.727 139.321 81.158 139.159 80.6575 138.833C80.1604 138.504 79.7696 138.036 79.4851 137.43C79.204 136.819 79.0635 136.088 79.0635 135.233C79.0635 134.38 79.2057 133.65 79.4903 133.043C79.7782 132.436 80.1724 131.972 80.6729 131.65C81.1734 131.328 81.7407 131.166 82.3749 131.166C82.8651 131.166 83.2593 131.249 83.5575 131.414C83.8592 131.575 84.0923 131.763 84.2569 131.979C84.4248 132.195 84.5551 132.385 84.6476 132.55H84.7401V128.637H86.2776V139.167H84.7761V137.938H84.6476C84.5551 138.107 84.4214 138.299 84.2466 138.514C84.0751 138.73 83.8386 138.919 83.537 139.08C83.2353 139.241 82.8445 139.321 82.3646 139.321ZM82.7039 138.011C83.1462 138.011 83.5199 137.894 83.8249 137.661C84.1334 137.424 84.3665 137.097 84.5242 136.679C84.6853 136.261 84.7658 135.774 84.7658 135.218C84.7658 134.67 84.687 134.19 84.5294 133.778C84.3716 133.367 84.1403 133.047 83.8351 132.817C83.5301 132.587 83.1531 132.472 82.7039 132.472C82.2412 132.472 81.8555 132.593 81.547 132.833C81.2385 133.072 81.0054 133.4 80.8477 133.814C80.6935 134.23 80.6163 134.698 80.6163 135.218C80.6163 135.747 80.6951 136.221 80.8529 136.642C81.0105 137.064 81.2437 137.398 81.5522 137.645C81.8641 137.889 82.2481 138.011 82.7039 138.011ZM88.4719 139.167V131.27H90.0094V139.167H88.4719ZM89.2484 130.051C88.9809 130.051 88.7513 129.962 88.5593 129.784C88.3708 129.602 88.2765 129.385 88.2765 129.136C88.2765 128.881 88.3708 128.666 88.5593 128.488C88.7513 128.306 88.9809 128.215 89.2484 128.215C89.5157 128.215 89.7437 128.306 89.9323 128.488C90.1242 128.666 90.2201 128.881 90.2201 129.136C90.2201 129.385 90.1242 129.602 89.9323 129.784C89.7437 129.962 89.5157 130.051 89.2484 130.051ZM95.4045 139.327C94.6641 139.327 94.0179 139.157 93.466 138.818C92.9141 138.479 92.4856 138.004 92.1805 137.394C91.8754 136.784 91.7229 136.071 91.7229 135.254C91.7229 134.435 91.8754 133.719 92.1805 133.105C92.4856 132.491 92.9141 132.015 93.466 131.676C94.0179 131.337 94.6641 131.166 95.4045 131.166C96.1449 131.166 96.7911 131.337 97.343 131.676C97.8949 132.015 98.3234 132.491 98.6285 133.105C98.9336 133.719 99.0861 134.435 99.0861 135.254C99.0861 136.071 98.9336 136.784 98.6285 137.394C98.3234 138.004 97.8949 138.479 97.343 138.818C96.7911 139.157 96.1449 139.327 95.4045 139.327ZM95.4096 138.036C95.8895 138.036 96.2872 137.909 96.6026 137.656C96.918 137.402 97.1511 137.064 97.3018 136.642C97.4561 136.221 97.5332 135.757 97.5332 135.249C97.5332 134.746 97.4561 134.282 97.3018 133.861C97.1511 133.436 96.918 133.095 96.6026 132.838C96.2872 132.581 95.8895 132.452 95.4096 132.452C94.9263 132.452 94.5252 132.581 94.2065 132.838C93.8911 133.095 93.6562 133.436 93.502 133.861C93.3512 134.282 93.2758 134.746 93.2758 135.249C93.2758 135.757 93.3512 136.221 93.502 136.642C93.6562 137.064 93.8911 137.402 94.2065 137.656C94.5252 137.909 94.9263 138.036 95.4096 138.036Z" fill="white"/>
<path d="M207.136 137.357C208.635 137.357 209.851 136.142 209.851 134.643V130.118C209.851 128.618 208.635 127.403 207.136 127.403C205.636 127.403 204.421 128.618 204.421 130.118V134.643C204.421 136.142 205.636 137.357 207.136 137.357ZM207.136 136.452C206.136 136.452 205.326 135.643 205.326 134.643V130.118C205.326 129.118 206.136 128.308 207.136 128.308C208.136 128.308 208.946 129.118 208.946 130.118V134.643C208.946 135.643 208.136 136.452 207.136 136.452ZM202.611 134.19C202.861 134.19 203.063 134.393 203.063 134.643C203.063 136.891 204.887 138.715 207.136 138.715C209.385 138.715 211.208 136.891 211.208 134.643C211.208 134.393 211.411 134.19 211.661 134.19C211.91 134.19 212.113 134.393 212.113 134.643C212.113 137.239 210.125 139.371 207.588 139.6V141.43C207.588 141.68 207.386 141.882 207.136 141.882C206.886 141.882 206.683 141.68 206.683 141.43V139.6C204.147 139.371 202.158 137.239 202.158 134.643C202.158 134.393 202.361 134.19 202.611 134.19Z" fill="white"/>
<path d="M61.7018 179.316L64.6327 187.892H64.751L67.6818 179.316H69.3992L65.6096 189.846H63.774L59.9844 179.316H61.7018ZM70.7966 189.846V181.948H72.334V189.846H70.7966ZM71.573 180.729C71.3056 180.729 71.076 180.641 70.884 180.462C70.6954 180.281 70.6012 180.064 70.6012 179.815C70.6012 179.56 70.6954 179.345 70.884 179.167C71.076 178.985 71.3056 178.894 71.573 178.894C71.8404 178.894 72.0684 178.985 72.2569 179.167C72.4488 179.345 72.5448 179.56 72.5448 179.815C72.5448 180.064 72.4488 180.281 72.2569 180.462C72.0684 180.641 71.8404 180.729 71.573 180.729ZM77.3589 190C76.7213 190 76.1523 189.838 75.6518 189.512C75.1548 189.183 74.764 188.715 74.4795 188.109C74.1984 187.498 74.0579 186.767 74.0579 185.912C74.0579 185.059 74.2001 184.329 74.4846 183.722C74.7725 183.115 75.1667 182.651 75.6673 182.329C76.1677 182.006 76.7351 181.845 77.3693 181.845C77.8594 181.845 78.2536 181.928 78.5519 182.092C78.8535 182.253 79.0866 182.442 79.2512 182.658C79.4191 182.873 79.5494 183.064 79.6419 183.229H79.7345V179.316H81.272V189.846H79.7705V188.617H79.6419C79.5494 188.786 79.4157 188.977 79.2408 189.193C79.0694 189.409 78.833 189.597 78.5313 189.758C78.2296 189.919 77.8389 190 77.3589 190ZM77.6983 188.69C78.1405 188.69 78.5142 188.573 78.8192 188.339C79.1277 188.103 79.3608 187.776 79.5186 187.358C79.6797 186.939 79.7602 186.453 79.7602 185.897C79.7602 185.348 79.6814 184.869 79.5237 184.457C79.366 184.046 79.1346 183.726 78.8295 183.496C78.5245 183.266 78.1474 183.151 77.6983 183.151C77.2355 183.151 76.8499 183.272 76.5414 183.511C76.2329 183.751 75.9998 184.079 75.8421 184.493C75.6878 184.909 75.6107 185.377 75.6107 185.897C75.6107 186.425 75.6895 186.9 75.8472 187.321C76.0049 187.743 76.238 188.077 76.5465 188.324C76.8585 188.567 77.2424 188.69 77.6983 188.69ZM86.8702 190.005C86.0921 190.005 85.4219 189.839 84.8597 189.507C84.3009 189.171 83.869 188.7 83.5639 188.092C83.2623 187.482 83.1114 186.767 83.1114 185.948C83.1114 185.139 83.2623 184.426 83.5639 183.81C83.869 183.193 84.2941 182.711 84.8391 182.365C85.3876 182.018 86.0286 181.845 86.7622 181.845C87.2078 181.845 87.6398 181.92 88.0579 182.066C88.4762 182.214 88.8515 182.445 89.1841 182.76C89.5166 183.076 89.7788 183.486 89.9708 183.989C90.1627 184.49 90.2588 185.099 90.2588 185.815V186.36H83.9805V185.208H88.7522C88.7522 184.804 88.6699 184.445 88.5054 184.134C88.3408 183.818 88.1094 183.569 87.8112 183.388C87.5163 183.206 87.1702 183.115 86.7725 183.115C86.3406 183.115 85.9635 183.222 85.6413 183.434C85.3225 183.643 85.0757 183.918 84.9008 184.257C84.7294 184.593 84.6437 184.958 84.6437 185.352V186.252C84.6437 186.78 84.7363 187.229 84.9214 187.599C85.11 187.969 85.3722 188.253 85.7081 188.448C86.0441 188.64 86.4366 188.736 86.8856 188.736C87.177 188.736 87.4427 188.694 87.6827 188.612C87.9226 188.527 88.13 188.4 88.3048 188.232C88.4796 188.063 88.6133 187.856 88.7058 187.609L90.161 187.872C90.0445 188.3 89.8353 188.675 89.5337 188.997C89.2355 189.317 88.8601 189.565 88.4076 189.743C87.9586 189.919 87.4461 190.005 86.8702 190.005ZM95.2913 190.005C94.551 190.005 93.9047 189.836 93.3529 189.497C92.8009 189.158 92.3725 188.682 92.0674 188.072C91.7623 187.462 91.6098 186.749 91.6098 185.933C91.6098 185.114 91.7623 184.397 92.0674 183.784C92.3725 183.17 92.8009 182.694 93.3529 182.355C93.9047 182.015 94.551 181.845 95.2913 181.845C96.0318 181.845 96.678 182.015 97.2299 182.355C97.7818 182.694 98.2103 183.17 98.5153 183.784C98.8205 184.397 98.973 185.114 98.973 185.933C98.973 186.749 98.8205 187.462 98.5153 188.072C98.2103 188.682 97.7818 189.158 97.2299 189.497C96.678 189.836 96.0318 190.005 95.2913 190.005ZM95.2965 188.715C95.7764 188.715 96.1741 188.588 96.4894 188.335C96.8048 188.081 97.038 187.743 97.1887 187.321C97.343 186.9 97.4201 186.435 97.4201 185.928C97.4201 185.424 97.343 184.961 97.1887 184.539C97.038 184.115 96.8048 183.774 96.4894 183.517C96.1741 183.26 95.7764 183.131 95.2965 183.131C94.8132 183.131 94.4121 183.26 94.0933 183.517C93.778 183.774 93.5431 184.115 93.3889 184.539C93.238 184.961 93.1627 185.424 93.1627 185.928C93.1627 186.435 93.238 186.9 93.3889 187.321C93.5431 187.743 93.778 188.081 94.0933 188.335C94.4121 188.588 94.8132 188.715 95.2965 188.715Z" fill="white"/>
<path d="M202.158 179.891C200.909 179.891 199.896 180.904 199.896 182.154V188.489C199.896 189.738 200.909 190.751 202.158 190.751H208.493C209.743 190.751 210.756 189.738 210.756 188.489V187.584L212.928 189.213C213.524 189.66 214.376 189.234 214.376 188.489V182.154C214.376 181.408 213.524 180.983 212.928 181.43L210.756 183.059V182.154C210.756 180.904 209.743 179.891 208.493 179.891H202.158ZM210.756 184.19L213.471 182.154V188.489L210.756 186.452V184.19ZM209.851 182.154V188.489C209.851 189.238 209.243 189.846 208.493 189.846H202.158C201.409 189.846 200.801 189.238 200.801 188.489V182.154C200.801 181.404 201.409 180.796 202.158 180.796H208.493C209.243 180.796 209.851 181.404 209.851 182.154Z" fill="white"/>
<path d="M69.5277 233.419H67.9234C67.8617 233.076 67.7469 232.775 67.5789 232.514C67.4109 232.253 67.2052 232.033 66.9619 231.851C66.7185 231.669 66.446 231.531 66.1442 231.439C65.8461 231.347 65.529 231.3 65.193 231.3C64.5863 231.3 64.043 231.453 63.5631 231.757C63.0866 232.063 62.7095 232.51 62.4318 233.1C62.1576 233.69 62.0204 234.409 62.0204 235.26C62.0204 236.117 62.1576 236.84 62.4318 237.43C62.7095 238.019 63.0883 238.464 63.5682 238.767C64.0481 239.068 64.588 239.219 65.1879 239.219C65.5204 239.219 65.8357 239.175 66.134 239.085C66.4356 238.993 66.7082 238.857 66.9516 238.679C67.1949 238.501 67.4006 238.283 67.5686 238.026C67.74 237.766 67.8583 237.467 67.9234 237.131L69.5277 237.137C69.442 237.654 69.2757 238.13 69.0289 238.566C68.7855 238.997 68.4718 239.371 68.088 239.687C67.7074 239.999 67.2721 240.241 66.7819 240.412C66.2917 240.583 65.7569 240.669 65.1776 240.669C64.2658 240.669 63.4534 240.453 62.7404 240.021C62.0273 239.586 61.4652 238.964 61.0537 238.155C60.6459 237.346 60.4419 236.38 60.4419 235.26C60.4419 234.135 60.6476 233.17 61.0589 232.365C61.4703 231.556 62.0325 230.935 62.7455 230.503C63.4585 230.068 64.2692 229.851 65.1776 229.851C65.7364 229.851 66.2574 229.931 66.7407 230.092C67.2275 230.25 67.6646 230.482 68.0519 230.791C68.4393 231.096 68.7598 231.47 69.0135 231.912C69.2671 232.351 69.4385 232.853 69.5277 233.419ZM74.6323 240.684C73.8918 240.684 73.2457 240.515 72.6938 240.176C72.1419 239.836 71.7134 239.361 71.4083 238.751C71.1033 238.141 70.9507 237.428 70.9507 236.612C70.9507 235.793 71.1033 235.076 71.4083 234.462C71.7134 233.849 72.1419 233.373 72.6938 233.034C73.2457 232.694 73.8918 232.524 74.6323 232.524C75.3728 232.524 76.0189 232.694 76.5708 233.034C77.1227 233.373 77.5512 233.849 77.8563 234.462C78.1613 235.076 78.3139 235.793 78.3139 236.612C78.3139 237.428 78.1613 238.141 77.8563 238.751C77.5512 239.361 77.1227 239.836 76.5708 240.176C76.0189 240.515 75.3728 240.684 74.6323 240.684ZM74.6375 239.394C75.1174 239.394 75.515 239.267 75.8304 239.014C76.1458 238.759 76.3788 238.422 76.5297 238C76.684 237.578 76.7611 237.114 76.7611 236.606C76.7611 236.103 76.684 235.64 76.5297 235.218C76.3788 234.794 76.1458 234.453 75.8304 234.196C75.515 233.938 75.1174 233.81 74.6375 233.81C74.1541 233.81 73.753 233.938 73.4342 234.196C73.1189 234.453 72.8841 234.794 72.7298 235.218C72.579 235.64 72.5035 236.103 72.5035 236.606C72.5035 237.114 72.579 237.578 72.7298 238C72.8841 238.422 73.1189 238.759 73.4342 239.014C73.753 239.267 74.1541 239.394 74.6375 239.394ZM81.5675 235.835V240.525H80.03V232.627H81.5058V233.912H81.6034C81.7851 233.494 82.0697 233.158 82.457 232.905C82.8478 232.651 83.3397 232.524 83.9328 232.524C84.4709 232.524 84.9423 232.637 85.3468 232.863C85.7513 233.086 86.065 233.419 86.2878 233.861C86.5106 234.303 86.622 234.85 86.622 235.501V240.525H85.0845V235.686C85.0845 235.114 84.9355 234.667 84.6372 234.344C84.339 234.019 83.9293 233.856 83.4082 233.856C83.0518 233.856 82.7346 233.933 82.457 234.087C82.1828 234.242 81.9651 234.468 81.804 234.766C81.6463 235.061 81.5675 235.417 81.5675 235.835ZM90.2213 235.835V240.525H88.6839V232.627H90.1596V233.912H90.2573C90.439 233.494 90.7235 233.158 91.1108 232.905C91.5016 232.651 91.9936 232.524 92.5866 232.524C93.1248 232.524 93.5961 232.637 94.0006 232.863C94.4051 233.086 94.7188 233.419 94.9416 233.861C95.1644 234.303 95.2758 234.85 95.2758 235.501V240.525H93.7384V235.686C93.7384 235.114 93.5893 234.667 93.291 234.344C92.9928 234.019 92.5832 233.856 92.0622 233.856C91.7056 233.856 91.3885 233.933 91.1108 234.087C90.8366 234.242 90.619 234.468 90.4578 234.766C90.3002 235.061 90.2213 235.417 90.2213 235.835ZM100.742 240.684C99.9635 240.684 99.2934 240.518 98.7312 240.186C98.1724 239.85 97.7405 239.378 97.4354 238.771C97.1337 238.161 96.9829 237.446 96.9829 236.627C96.9829 235.818 97.1337 235.105 97.4354 234.489C97.7405 233.872 98.1656 233.39 98.7106 233.043C99.2591 232.697 99.9001 232.524 100.634 232.524C101.079 232.524 101.511 232.598 101.929 232.745C102.348 232.892 102.723 233.124 103.056 233.439C103.388 233.755 103.65 234.165 103.842 234.668C104.034 235.168 104.13 235.777 104.13 236.493V237.039H97.8519V235.887H102.624C102.624 235.482 102.541 235.124 102.377 234.813C102.212 234.497 101.981 234.248 101.683 234.067C101.388 233.885 101.042 233.794 100.644 233.794C100.212 233.794 99.835 233.9 99.5127 234.113C99.1939 234.322 98.9471 234.596 98.7723 234.936C98.6009 235.272 98.5152 235.636 98.5152 236.031V236.93C98.5152 237.459 98.6078 237.908 98.7928 238.278C98.9814 238.648 99.2437 238.931 99.5796 239.127C99.9156 239.319 100.308 239.415 100.757 239.415C101.048 239.415 101.314 239.373 101.554 239.291C101.794 239.205 102.001 239.079 102.176 238.91C102.351 238.742 102.485 238.535 102.577 238.288L104.032 238.55C103.916 238.979 103.707 239.354 103.405 239.676C103.107 239.996 102.732 240.243 102.279 240.422C101.83 240.597 101.318 240.684 100.742 240.684ZM109.163 240.684C108.398 240.684 107.74 240.511 107.188 240.165C106.64 239.815 106.218 239.334 105.923 238.72C105.629 238.107 105.481 237.404 105.481 236.612C105.481 235.81 105.632 235.102 105.934 234.489C106.235 233.872 106.66 233.39 107.209 233.043C107.757 232.697 108.404 232.524 109.147 232.524C109.747 232.524 110.282 232.635 110.752 232.858C111.221 233.078 111.6 233.386 111.888 233.784C112.179 234.182 112.353 234.646 112.407 235.177H110.911C110.829 234.807 110.64 234.489 110.346 234.221C110.054 233.954 109.663 233.82 109.173 233.82C108.745 233.82 108.369 233.933 108.047 234.159C107.728 234.382 107.48 234.7 107.301 235.116C107.123 235.527 107.034 236.014 107.034 236.576C107.034 237.152 107.122 237.649 107.296 238.067C107.471 238.485 107.718 238.809 108.037 239.039C108.359 239.269 108.738 239.384 109.173 239.384C109.465 239.384 109.728 239.33 109.965 239.224C110.205 239.114 110.406 238.958 110.567 238.756C110.731 238.554 110.846 238.31 110.911 238.026H112.407C112.353 238.537 112.186 238.993 111.909 239.394C111.631 239.795 111.259 240.11 110.793 240.339C110.33 240.569 109.787 240.684 109.163 240.684ZM117.738 232.627V233.861H113.424V232.627H117.738ZM114.581 230.735H116.119V238.206C116.119 238.504 116.163 238.729 116.252 238.88C116.341 239.027 116.456 239.128 116.597 239.183C116.741 239.234 116.897 239.26 117.065 239.26C117.188 239.26 117.296 239.252 117.389 239.234C117.481 239.217 117.553 239.204 117.605 239.193L117.882 240.463C117.793 240.498 117.666 240.532 117.502 240.566C117.337 240.604 117.132 240.624 116.885 240.628C116.48 240.634 116.103 240.563 115.753 240.412C115.404 240.261 115.121 240.028 114.905 239.712C114.689 239.397 114.581 239.001 114.581 238.525V230.735ZM119.439 240.525V232.627H120.976V240.525H119.439ZM120.215 231.408C119.948 231.408 119.718 231.319 119.526 231.141C119.338 230.959 119.244 230.743 119.244 230.493C119.244 230.239 119.338 230.024 119.526 229.845C119.718 229.663 119.948 229.573 120.215 229.573C120.483 229.573 120.711 229.663 120.899 229.845C121.091 230.024 121.187 230.239 121.187 230.493C121.187 230.743 121.091 230.959 120.899 231.141C120.711 231.319 120.483 231.408 120.215 231.408ZM126.372 240.684C125.631 240.684 124.985 240.515 124.433 240.176C123.881 239.836 123.453 239.361 123.148 238.751C122.843 238.141 122.69 237.428 122.69 236.612C122.69 235.793 122.843 235.076 123.148 234.462C123.453 233.849 123.881 233.373 124.433 233.034C124.985 232.694 125.631 232.524 126.372 232.524C127.112 232.524 127.758 232.694 128.31 233.034C128.862 233.373 129.29 233.849 129.595 234.462C129.9 235.076 130.053 235.793 130.053 236.612C130.053 237.428 129.9 238.141 129.595 238.751C129.29 239.361 128.862 239.836 128.31 240.176C127.758 240.515 127.112 240.684 126.372 240.684ZM126.377 239.394C126.857 239.394 127.254 239.267 127.57 239.014C127.885 238.759 128.118 238.422 128.269 238C128.423 237.578 128.5 237.114 128.5 236.606C128.5 236.103 128.423 235.64 128.269 235.218C128.118 234.794 127.885 234.453 127.57 234.196C127.254 233.938 126.857 233.81 126.377 233.81C125.893 233.81 125.492 233.938 125.173 234.196C124.858 234.453 124.623 234.794 124.469 235.218C124.318 235.64 124.243 236.103 124.243 236.606C124.243 237.114 124.318 237.578 124.469 238C124.623 238.422 124.858 238.759 125.173 239.014C125.492 239.267 125.893 239.394 126.377 239.394ZM133.307 235.835V240.525H131.769V232.627H133.245V233.912H133.343C133.525 233.494 133.809 233.158 134.196 232.905C134.587 232.651 135.079 232.524 135.672 232.524C136.21 232.524 136.681 232.637 137.086 232.863C137.49 233.086 137.804 233.419 138.027 233.861C138.25 234.303 138.361 234.85 138.361 235.501V240.525H136.823V235.686C136.823 235.114 136.675 234.667 136.376 234.344C136.079 234.019 135.669 233.856 135.147 233.856C134.791 233.856 134.474 233.933 134.196 234.087C133.922 234.242 133.704 234.468 133.543 234.766C133.385 235.061 133.307 235.417 133.307 235.835Z" fill="white"/>
<path d="M212.32 233.795C212.686 234.16 213.03 234.576 213.33 235.011C213.543 235.319 213.465 235.742 213.157 235.956C212.848 236.168 212.425 236.09 212.213 235.782C211.958 235.414 211.666 235.061 211.36 234.755C208.545 231.938 203.979 231.938 201.163 234.755C200.872 235.045 200.584 235.399 200.32 235.779C200.106 236.088 199.682 236.164 199.375 235.95C199.067 235.737 198.99 235.314 199.204 235.005C199.512 234.562 199.852 234.147 200.204 233.795C203.549 230.449 208.975 230.449 212.32 233.795ZM210.385 235.503C210.813 235.931 211.182 236.449 211.463 236.999C211.634 237.333 211.502 237.742 211.168 237.912C210.834 238.083 210.425 237.951 210.255 237.617C210.036 237.19 209.749 236.787 209.424 236.463C207.678 234.717 204.846 234.717 203.099 236.463C202.759 236.803 202.484 237.185 202.272 237.604C202.102 237.938 201.694 238.072 201.359 237.903C201.025 237.734 200.891 237.326 201.061 236.991C201.338 236.443 201.698 235.945 202.139 235.503C204.416 233.226 208.108 233.226 210.385 235.503ZM208.905 237.666C209.234 237.995 209.504 238.397 209.691 238.826C209.843 239.17 209.686 239.57 209.342 239.72C208.999 239.871 208.599 239.715 208.448 239.371C208.327 239.093 208.151 238.832 207.945 238.625C207.015 237.696 205.509 237.696 204.578 238.625C204.374 238.831 204.206 239.081 204.083 239.362C203.933 239.705 203.533 239.862 203.19 239.711C202.846 239.561 202.69 239.161 202.84 238.818C203.029 238.386 203.291 237.995 203.619 237.666C205.079 236.206 207.445 236.206 208.905 237.666ZM207.064 239.513C207.504 239.952 207.504 240.663 207.064 241.103C206.625 241.542 205.914 241.542 205.475 241.103C205.035 240.663 205.035 239.952 205.475 239.513C205.914 239.074 206.625 239.074 207.064 239.513Z" fill="#83D017"/>
<path d="M646.955 226.95H265.959C263.96 226.95 262.339 228.571 262.339 230.57V261.339C262.339 263.339 263.96 264.959 265.959 264.959H646.955C648.954 264.959 650.575 263.339 650.575 261.339V230.57C650.575 228.571 648.954 226.95 646.955 226.95Z" fill="#2C2C2C"/>
<path d="M601.706 140.072H265.959C263.96 140.072 262.339 141.693 262.339 143.692V174.462C262.339 176.461 263.96 178.081 265.959 178.081H601.706C603.705 178.081 605.326 176.461 605.326 174.462V143.692C605.326 141.693 603.705 140.072 601.706 140.072Z" fill="#2C2C2C"/>
<path d="M324.783 275.819H265.959C263.96 275.819 262.339 277.44 262.339 279.439V301.158C262.339 303.158 263.96 304.778 265.959 304.778H324.783C326.782 304.778 328.403 303.158 328.403 301.158V279.439C328.403 277.44 326.782 275.819 324.783 275.819Z" fill="#2C2C2C"/>
<path d="M281.067 284.904C281.234 284.975 281.343 285.139 281.343 285.321V295.276C281.343 295.458 281.234 295.623 281.066 295.693C280.898 295.764 280.704 295.727 280.574 295.599L277.926 292.997H276.367C275.616 292.997 275.009 292.389 275.009 291.64V288.935C275.009 288.185 275.616 287.577 276.367 287.577H277.927L280.576 284.997C280.706 284.871 280.9 284.833 281.067 284.904ZM280.438 286.394L278.426 288.354C278.342 288.436 278.229 288.482 278.11 288.482H276.367C276.116 288.482 275.914 288.685 275.914 288.935V291.64C275.914 291.89 276.116 292.092 276.367 292.092H278.11C278.229 292.092 278.343 292.138 278.428 292.222L280.438 294.197V286.394ZM282.349 287.755C282.505 287.559 282.789 287.527 282.985 287.682H282.986L282.986 287.683L282.988 287.685L282.994 287.689L283.007 287.7C283.017 287.709 283.032 287.721 283.048 287.737C283.081 287.767 283.125 287.81 283.176 287.865C283.28 287.976 283.412 288.138 283.543 288.354C283.807 288.788 284.062 289.433 284.062 290.298C284.062 291.161 283.807 291.807 283.543 292.242C283.413 292.458 283.28 292.621 283.177 292.731C283.126 292.787 283.081 292.83 283.049 292.861C283.031 292.877 283.013 292.893 282.994 292.909L282.986 292.915H282.986C282.986 292.915 282.582 293.135 282.349 292.844C282.195 292.65 282.225 292.367 282.418 292.211L282.419 292.209L282.418 292.21L282.42 292.209H282.419C282.422 292.207 282.427 292.203 282.435 292.195C282.452 292.179 282.479 292.154 282.512 292.118C282.58 292.044 282.674 291.929 282.769 291.772C282.959 291.46 283.157 290.974 283.157 290.298C283.157 289.621 282.959 289.136 282.77 288.824C282.674 288.667 282.58 288.553 282.513 288.48C282.48 288.444 282.452 288.419 282.436 288.404C282.428 288.396 282.423 288.391 282.42 288.389L282.421 288.39C282.225 288.234 282.194 287.95 282.349 287.755ZM283.89 285.872C283.694 285.717 283.409 285.749 283.253 285.945C283.098 286.14 283.13 286.424 283.326 286.58L283.336 286.589C283.346 286.597 283.361 286.611 283.383 286.63C283.424 286.668 283.488 286.727 283.565 286.806C283.719 286.966 283.927 287.207 284.135 287.525C284.551 288.159 284.966 289.093 284.966 290.302C284.966 291.511 284.552 292.442 284.135 293.075C283.927 293.392 283.719 293.632 283.565 293.791C283.489 293.871 283.425 293.929 283.383 293.967C283.362 293.986 283.347 294 283.337 294.008L283.326 294.016L283.325 294.017C283.13 294.173 283.098 294.456 283.252 294.652C283.408 294.848 283.693 294.88 283.889 294.725L283.919 294.7C283.936 294.687 283.958 294.667 283.987 294.642C284.044 294.59 284.123 294.517 284.215 294.42C284.402 294.228 284.647 293.945 284.891 293.573C285.38 292.83 285.871 291.728 285.871 290.302C285.871 288.877 285.38 287.773 284.891 287.028C284.647 286.656 284.402 286.372 284.216 286.179C284.123 286.082 284.044 286.008 283.988 285.957C283.959 285.931 283.937 285.911 283.919 285.898L283.9 285.88L283.893 285.875L283.89 285.873L283.89 285.872ZM282.42 288.389L282.419 288.388L282.42 288.389Z" fill="white"/>
<rect x="274" y="152" width="137" height="14" rx="6" fill="#474747"/>
<rect x="274" y="239" width="137" height="14" rx="6" fill="#474747"/>
<rect x="291" y="285" width="30" height="9" rx="4.5" fill="#474747"/>
<rect x="262" y="122" width="94" height="9" rx="4.5" fill="#474747"/>
<rect x="262" y="211" width="110" height="9" rx="4.5" fill="#474747"/>
</g>
</g>
<defs>
<clipPath id="clip0_238_4969">
<rect width="400" height="300" fill="white"/>
</clipPath>
<clipPath id="clip1_238_4969">
<rect width="645.249" height="400" fill="white" transform="translate(37 36)"/>
</clipPath>
</defs>
</svg>
