<svg width="400" height="300" viewBox="0 0 400 300" fill="none" xmlns="http://www.w3.org/2000/svg">
<rect width="400" height="300" fill="#E0E9FF"/>
<rect x="19" y="31" width="362" height="239" rx="4" fill="#0B0B0B"/>
<rect x="275" y="52" width="100" height="198" rx="4" fill="#1E1E1E"/>
<g clip-path="url(#clip0_306_11136)">
<rect x="41" y="70" width="102.564" height="76.9231" rx="4" fill="#1E1E1E"/>
<g clip-path="url(#clip1_306_11136)">
<path d="M135.6 79.2C135.269 79.2 135 78.9314 135 78.6C135 78.2686 135.269 78 135.6 78C135.931 78 136.2 78.2686 136.2 78.6C136.2 78.9314 135.931 79.2 135.6 79.2ZM135.6 81.6C135.269 81.6 135 81.3314 135 81C135 80.6686 135.269 80.4 135.6 80.4C135.931 80.4 136.2 80.6686 136.2 81C136.2 81.3314 135.931 81.6 135.6 81.6ZM135 83.4C135 83.7314 135.269 84 135.6 84C135.931 84 136.2 83.7314 136.2 83.4C136.2 83.0686 135.931 82.8 135.6 82.8C135.269 82.8 135 83.0686 135 83.4Z" fill="#999999"/>
</g>
<rect x="54.5898" y="139.145" width="23.9316" height="2.99145" rx="1.49572" fill="#191919"/>
</g>
<g clip-path="url(#clip2_306_11136)">
<rect x="149.718" y="70" width="102.564" height="76.9231" rx="4" fill="#1E1E1E"/>
<g clip-path="url(#clip3_306_11136)">
<path d="M244.318 79.2C243.987 79.2 243.718 78.9314 243.718 78.6C243.718 78.2686 243.987 78 244.318 78C244.65 78 244.918 78.2686 244.918 78.6C244.918 78.9314 244.65 79.2 244.318 79.2ZM244.318 81.6C243.987 81.6 243.718 81.3314 243.718 81C243.718 80.6686 243.987 80.4 244.318 80.4C244.65 80.4 244.918 80.6686 244.918 81C244.918 81.3314 244.65 81.6 244.318 81.6ZM243.718 83.4C243.718 83.7314 243.987 84 244.318 84C244.65 84 244.918 83.7314 244.918 83.4C244.918 83.0686 244.65 82.8 244.318 82.8C243.987 82.8 243.718 83.0686 243.718 83.4Z" fill="#999999"/>
</g>
<rect x="163.308" y="139.145" width="23.9316" height="2.99145" rx="1.49572" fill="#191919"/>
</g>
<g clip-path="url(#clip4_306_11136)">
<rect x="41" y="153.077" width="102.564" height="76.9231" rx="4" fill="#1E1E1E"/>
<g clip-path="url(#clip5_306_11136)">
<path d="M135.6 162.277C135.269 162.277 135 162.008 135 161.677C135 161.346 135.269 161.077 135.6 161.077C135.931 161.077 136.2 161.346 136.2 161.677C136.2 162.008 135.931 162.277 135.6 162.277ZM135.6 164.677C135.269 164.677 135 164.408 135 164.077C135 163.746 135.269 163.477 135.6 163.477C135.931 163.477 136.2 163.746 136.2 164.077C136.2 164.408 135.931 164.677 135.6 164.677ZM135 166.477C135 166.808 135.269 167.077 135.6 167.077C135.931 167.077 136.2 166.808 136.2 166.477C136.2 166.146 135.931 165.877 135.6 165.877C135.269 165.877 135 166.146 135 166.477Z" fill="#999999"/>
</g>
<rect x="54.5898" y="222.222" width="23.9316" height="2.99145" rx="1.49572" fill="#191919"/>
</g>
<g clip-path="url(#clip6_306_11136)">
<rect x="149.718" y="153.077" width="102.564" height="76.9231" rx="4" fill="#1E1E1E"/>
<g clip-path="url(#clip7_306_11136)">
<path d="M244.318 162.277C243.987 162.277 243.718 162.008 243.718 161.677C243.718 161.346 243.987 161.077 244.318 161.077C244.65 161.077 244.918 161.346 244.918 161.677C244.918 162.008 244.65 162.277 244.318 162.277ZM244.318 164.677C243.987 164.677 243.718 164.408 243.718 164.077C243.718 163.746 243.987 163.477 244.318 163.477C244.65 163.477 244.918 163.746 244.918 164.077C244.918 164.408 244.65 164.677 244.318 164.677ZM243.718 166.477C243.718 166.808 243.987 167.077 244.318 167.077C244.65 167.077 244.918 166.808 244.918 166.477C244.918 166.146 244.65 165.877 244.318 165.877C243.987 165.877 243.718 166.146 243.718 166.477Z" fill="#999999"/>
</g>
<rect x="163.308" y="222.222" width="23.9316" height="2.99145" rx="1.49572" fill="#191919"/>
</g>
<path d="M19 35C19 32.7909 20.7909 31 23 31H377C379.209 31 381 32.7909 381 35V44H19V35Z" fill="#1E1E1E"/>
<path d="M19 266C19 268.209 20.7909 270 23 270H377C379.209 270 381 268.209 381 266V257H19V266Z" fill="#1E1E1E"/>
<defs>
<clipPath id="clip0_306_11136">
<rect x="41" y="70" width="102.564" height="76.9231" rx="4" fill="white"/>
</clipPath>
<clipPath id="clip1_306_11136">
<rect width="16" height="16" fill="white" transform="translate(120 78)"/>
</clipPath>
<clipPath id="clip2_306_11136">
<rect x="149.718" y="70" width="102.564" height="76.9231" rx="4" fill="white"/>
</clipPath>
<clipPath id="clip3_306_11136">
<rect width="16" height="16" fill="white" transform="translate(228.718 78)"/>
</clipPath>
<clipPath id="clip4_306_11136">
<rect x="41" y="153.077" width="102.564" height="76.9231" rx="4" fill="white"/>
</clipPath>
<clipPath id="clip5_306_11136">
<rect width="16" height="16" fill="white" transform="translate(120 161.077)"/>
</clipPath>
<clipPath id="clip6_306_11136">
<rect x="149.718" y="153.077" width="102.564" height="76.9231" rx="4" fill="white"/>
</clipPath>
<clipPath id="clip7_306_11136">
<rect width="16" height="16" fill="white" transform="translate(228.718 161.077)"/>
</clipPath>
</defs>
</svg>
