<svg viewBox="0 0 25 25" fill="none" xmlns="http://www.w3.org/2000/svg">
<path d="M3.79157 6.69459C3.25939 6.69459 2.82397 7.13001 2.82397 7.66218V20.2409C2.82397 21.3052 3.69481 22.1761 4.75916 22.1761H17.3379C17.87 22.1761 18.3055 21.7407 18.3055 21.2085C18.3055 20.6763 17.87 20.2409 17.3379 20.2409H5.72675C5.19458 20.2409 4.75916 19.8055 4.75916 19.2733V7.66218C4.75916 7.13001 4.32374 6.69459 3.79157 6.69459ZM20.2406 2.82422H8.62953C7.56518 2.82422 6.69434 3.69505 6.69434 4.7594V16.3705C6.69434 17.4349 7.56518 18.3057 8.62953 18.3057H20.2406C21.305 18.3057 22.1758 17.4349 22.1758 16.3705V4.7594C22.1758 3.69505 21.305 2.82422 20.2406 2.82422ZM18.3055 11.5326H10.5647C10.0325 11.5326 9.59712 11.0971 9.59712 10.565C9.59712 10.0328 10.0325 9.59737 10.5647 9.59737H18.3055C18.8376 9.59737 19.273 10.0328 19.273 10.565C19.273 11.0971 18.8376 11.5326 18.3055 11.5326ZM14.4351 15.4029H10.5647C10.0325 15.4029 9.59712 14.9675 9.59712 14.4353C9.59712 13.9032 10.0325 13.4677 10.5647 13.4677H14.4351C14.9673 13.4677 15.4027 13.9032 15.4027 14.4353C15.4027 14.9675 14.9673 15.4029 14.4351 15.4029ZM18.3055 7.66218H10.5647C10.0325 7.66218 9.59712 7.22676 9.59712 6.69459C9.59712 6.16241 10.0325 5.727 10.5647 5.727H18.3055C18.8376 5.727 19.273 6.16241 19.273 6.69459C19.273 7.22676 18.8376 7.66218 18.3055 7.66218Z" fill="#2160FD"/>
</svg>
