<svg xmlns="http://www.w3.org/2000/svg" width="162" height="57" viewBox="0 0 162 57" fill="none">
  <path d="M31.5 33.3486H49.5V51.9437H31.5V33.3486Z" fill="#2160FD"/>
  <path d="M40.5 5.53231C39.7563 5.48174 39.0061 5.45605 38.25 5.45605C19.6104 5.45605 4.5 21.066 4.5 40.3218C4.5 41.1022 4.52482 41.8767 4.5737 42.6443H27V28.6981H40.5V5.53231Z" fill="#2160FD"/>
  <path d="M58.4998 29.6302C58.4998 27.0321 58.9899 24.7278 59.9701 22.7174C60.9801 20.7069 62.3465 19.1604 64.0693 18.0779C65.7922 16.9953 67.7081 16.4541 69.8171 16.4541C71.4211 16.4541 72.9509 16.8252 74.4064 17.5675C75.8619 18.2789 77.0204 19.2378 77.8818 20.444V8.24219H84.2089V42.5743H77.8818V38.77C77.1095 40.0381 76.0253 41.0588 74.6292 41.832C73.2331 42.6053 71.6142 42.9919 69.7725 42.9919C67.6932 42.9919 65.7922 42.4352 64.0693 41.3217C62.3465 40.2082 60.9801 38.6462 59.9701 36.6358C58.9899 34.5944 58.4998 32.2592 58.4998 29.6302ZM77.9264 29.723C77.9264 28.1456 77.6293 26.8001 77.0353 25.6866C76.4412 24.5422 75.6392 23.6762 74.6292 23.0885C73.6193 22.4699 72.5351 22.1606 71.3766 22.1606C70.2181 22.1606 69.1488 22.4545 68.1685 23.0421C67.1883 23.6298 66.3863 24.4958 65.7625 25.6402C65.1684 26.7537 64.8713 28.0837 64.8713 29.6302C64.8713 31.1767 65.1684 32.5376 65.7625 33.7129C66.3863 34.8573 67.1883 35.7388 68.1685 36.3574C69.1785 36.976 70.2478 37.2853 71.3766 37.2853C72.5351 37.2853 73.6193 36.9915 74.6292 36.4038C75.6392 35.7852 76.4412 34.9192 77.0353 33.8057C77.6293 32.6613 77.9264 31.3004 77.9264 29.723Z" fill="black"/>
  <path d="M113.916 16.8716L98.6333 54.7298H91.9944L97.3412 41.9248L87.4496 16.8716H94.445L100.817 34.8264L107.277 16.8716H113.916Z" fill="black"/>
  <path d="M124.542 22.207V34.6408C124.542 35.5069 124.735 36.1409 125.121 36.543C125.537 36.9142 126.22 37.0998 127.17 37.0998H130.067V42.5743H126.146C120.888 42.5743 118.259 39.9144 118.259 34.5944V22.207H115.318V16.8716H118.259V10.5155H124.542V16.8716H130.067V22.207H124.542Z" fill="black"/>
  <path d="M157.5 29.1662C157.5 30.0941 157.44 30.9292 157.322 31.6716H139.276C139.425 33.5274 140.048 34.9811 141.148 36.0327C142.247 37.0843 143.598 37.6101 145.202 37.6101C147.519 37.6101 149.168 36.5739 150.148 34.5016H156.876C156.163 36.976 154.797 39.0174 152.777 40.6258C150.757 42.2032 148.277 42.9919 145.336 42.9919C142.959 42.9919 140.821 42.4506 138.92 41.3681C137.048 40.2546 135.578 38.6926 134.509 36.6822C133.469 34.6718 132.949 32.352 132.949 29.723C132.949 27.063 133.469 24.7278 134.509 22.7174C135.548 20.7069 137.004 19.1604 138.875 18.0779C140.747 16.9953 142.9 16.4541 145.336 16.4541C147.682 16.4541 149.777 16.9799 151.618 18.0315C153.49 19.0831 154.93 20.5832 155.94 22.5318C156.98 24.4494 157.5 26.6609 157.5 29.1662ZM151.039 27.3105C151.009 25.6402 150.43 24.3103 149.301 23.3205C148.173 22.2998 146.791 21.7895 145.158 21.7895C143.613 21.7895 142.306 22.2843 141.237 23.2741C140.197 24.2329 139.558 25.5784 139.321 27.3105H151.039Z" fill="black"/>
</svg>
