<svg width="101" height="40" viewBox="0 0 101 40" fill="none" xmlns="http://www.w3.org/2000/svg">
<g clip-path="url(#clip0_152_13155)">
<path d="M19.944 22.4445H31.0551V33.5556H19.944V22.4445Z" fill="#2160FD"/>
<path d="M25.4996 5.82339C25.0405 5.79318 24.5774 5.77783 24.1107 5.77783C12.6047 5.77783 3.27734 15.1052 3.27734 26.6112C3.27734 27.0775 3.29267 27.5403 3.32283 27.999H17.1662V19.6656H25.4996V5.82339Z" fill="#2160FD"/>
<path d="M36.6094 20.2234C36.6094 18.6709 36.9119 17.294 37.517 16.0927C38.1404 14.8914 38.9839 13.9673 40.0474 13.3205C41.1109 12.6736 42.2935 12.3502 43.5954 12.3502C44.5855 12.3502 45.5298 12.572 46.4283 13.0155C47.3268 13.4406 48.0419 14.0136 48.5736 14.7343V7.44336H52.4792V27.9579H48.5736V25.6847C48.0969 26.4424 47.4276 27.0523 46.5658 27.5143C45.704 27.9764 44.7047 28.2074 43.5679 28.2074C42.2844 28.2074 41.1109 27.8747 40.0474 27.2094C38.9839 26.544 38.1404 25.6107 37.517 24.4094C36.9119 23.1896 36.6094 21.7943 36.6094 20.2234ZM48.6011 20.2788C48.6011 19.3362 48.4178 18.5323 48.051 17.867C47.6843 17.1831 47.1893 16.6657 46.5658 16.3145C45.9424 15.9449 45.2731 15.7601 44.558 15.7601C43.8429 15.7601 43.1828 15.9356 42.5777 16.2868C41.9727 16.6379 41.4776 17.1554 41.0925 17.8392C40.7258 18.5046 40.5424 19.2993 40.5424 20.2234C40.5424 21.1474 40.7258 21.9606 41.0925 22.6629C41.4776 23.3467 41.9727 23.8735 42.5777 24.2431C43.2012 24.6127 43.8613 24.7975 44.558 24.7975C45.2731 24.7975 45.9424 24.622 46.5658 24.2708C47.1893 23.9012 47.6843 23.3837 48.051 22.7184C48.4178 22.0345 48.6011 21.2214 48.6011 20.2788Z" fill="white"/>
<path d="M70.8171 12.5997L61.3832 35.2211H57.2851L60.5856 27.5698L54.4797 12.5997H58.7978L62.7309 23.3283L66.719 12.5997H70.8171Z" fill="white"/>
<path d="M77.3759 15.7878V23.2174C77.3759 23.7348 77.4951 24.1137 77.7335 24.354C77.9902 24.5758 78.4119 24.6866 78.9986 24.6866H80.7864V27.9579H78.366C75.1206 27.9579 73.4978 26.3685 73.4978 23.1896V15.7878H71.6826V12.5997H73.4978V8.80175H77.3759V12.5997H80.7864V15.7878H77.3759Z" fill="white"/>
<path d="M97.7205 19.9461C97.7205 20.5006 97.6838 20.9996 97.6105 21.4431H86.4713C86.563 22.552 86.9481 23.4207 87.6265 24.049C88.3049 24.6774 89.1392 24.9916 90.1294 24.9916C91.5596 24.9916 92.5772 24.3725 93.1823 23.1342H97.3354C96.8954 24.6127 96.0519 25.8325 94.8051 26.7935C93.5582 27.7361 92.0272 28.2074 90.2119 28.2074C88.745 28.2074 87.4248 27.884 86.2513 27.2371C85.0961 26.5718 84.1885 25.6384 83.5284 24.4371C82.8867 23.2358 82.5658 21.8497 82.5658 20.2788C82.5658 18.6894 82.8867 17.294 83.5284 16.0927C84.1702 14.8914 85.0686 13.9673 86.2238 13.3205C87.379 12.6736 88.7083 12.3502 90.2119 12.3502C91.6604 12.3502 92.9531 12.6644 94.09 13.2928C95.2451 13.9211 96.1344 14.8175 96.7578 15.9818C97.3996 17.1277 97.7205 18.4491 97.7205 19.9461ZM93.7324 18.8372C93.7141 17.8392 93.3565 17.0445 92.6597 16.4531C91.963 15.8432 91.1104 15.5383 90.1019 15.5383C89.1484 15.5383 88.3416 15.834 87.6815 16.4254C87.0398 16.9983 86.6455 17.8023 86.4989 18.8372H93.7324Z" fill="white"/>
</g>
<defs>
<clipPath id="clip0_152_13155">
<rect width="100" height="40" fill="white" transform="translate(0.5)"/>
</clipPath>
</defs>
</svg>
