<svg viewBox="0 0 101 40" fill="none" xmlns="http://www.w3.org/2000/svg">
<g clip-path="url(#clip0_2416_4277)">
<path d="M19.944 21.444H31.0551V32.5551H19.944V21.444Z" fill="#2160FD"/>
<path d="M25.4996 4.82291C25.0405 4.79269 24.5774 4.77734 24.1107 4.77734C12.6047 4.77734 3.27734 14.1047 3.27734 25.6107C3.27734 26.077 3.29267 26.5398 3.32283 26.9985H17.1662V18.6652H25.4996V4.82291Z" fill="#2160FD"/>
<path d="M36.6113 19.2234C36.6113 17.6709 36.9139 16.294 37.519 15.0927C38.1424 13.8914 38.9858 12.9673 40.0493 12.3205C41.1128 11.6736 42.2955 11.3502 43.5973 11.3502C44.5875 11.3502 45.5318 11.572 46.4303 12.0155C47.3287 12.4406 48.0438 13.0136 48.5756 13.7343V6.44336H52.4811V26.9579H48.5756V24.6847C48.0988 25.4424 47.4296 26.0523 46.5678 26.5143C45.706 26.9764 44.7067 27.2074 43.5698 27.2074C42.2863 27.2074 41.1128 26.8747 40.0493 26.2094C38.9858 25.544 38.1424 24.6107 37.519 23.4094C36.9139 22.1896 36.6113 20.7943 36.6113 19.2234ZM48.6031 19.2788C48.6031 18.3362 48.4197 17.5323 48.053 16.867C47.6863 16.1831 47.1912 15.6657 46.5678 15.3145C45.9444 14.9449 45.2751 14.7601 44.56 14.7601C43.8449 14.7601 43.1848 14.9356 42.5797 15.2868C41.9746 15.6379 41.4795 16.1554 41.0945 16.8392C40.7278 17.5046 40.5444 18.2993 40.5444 19.2234C40.5444 20.1474 40.7278 20.9606 41.0945 21.6629C41.4795 22.3467 41.9746 22.8735 42.5797 23.2431C43.2031 23.6127 43.8632 23.7975 44.56 23.7975C45.2751 23.7975 45.9444 23.622 46.5678 23.2708C47.1912 22.9012 47.6863 22.3837 48.053 21.7184C48.4197 21.0345 48.6031 20.2214 48.6031 19.2788Z" fill="#0B0B0B"/>
<path d="M70.819 11.5997L61.3851 34.2211H57.287L60.5875 26.5698L54.4816 11.5997H58.7998L62.7328 22.3283L66.7209 11.5997H70.819Z" fill="#0B0B0B"/>
<path d="M77.3779 14.7878V22.2174C77.3779 22.7348 77.497 23.1137 77.7354 23.354C77.9921 23.5758 78.4138 23.6866 79.0006 23.6866H80.7883V26.9579H78.368C75.1225 26.9579 73.4998 25.3685 73.4998 22.1896V14.7878H71.6845V11.5997H73.4998V7.80175H77.3779V11.5997H80.7883V14.7878H77.3779Z" fill="#0B0B0B"/>
<path d="M97.7224 18.9461C97.7224 19.5006 97.6858 19.9996 97.6124 20.4431H86.4733C86.565 21.552 86.95 22.4207 87.6285 23.049C88.3069 23.6774 89.1412 23.9916 90.1313 23.9916C91.5615 23.9916 92.5792 23.3725 93.1843 22.1342H97.3374C96.8973 23.6127 96.0539 24.8325 94.807 25.7935C93.5602 26.7361 92.0291 27.2074 90.2138 27.2074C88.747 27.2074 87.4268 26.884 86.2533 26.2371C85.0981 25.5718 84.1905 24.6384 83.5304 23.4371C82.8886 22.2358 82.5677 20.8497 82.5677 19.2788C82.5677 17.6894 82.8886 16.294 83.5304 15.0927C84.1721 13.8914 85.0706 12.9673 86.2258 12.3205C87.3809 11.6736 88.7103 11.3502 90.2138 11.3502C91.6624 11.3502 92.9551 11.6644 94.0919 12.2928C95.2471 12.9211 96.1364 13.8175 96.7598 14.9818C97.4016 16.1277 97.7224 17.4491 97.7224 18.9461ZM93.7344 17.8372C93.716 16.8392 93.3585 16.0445 92.6617 15.4531C91.9649 14.8432 91.1123 14.5383 90.1038 14.5383C89.1504 14.5383 88.3436 14.834 87.6835 15.4254C87.0417 15.9983 86.6475 16.8023 86.5008 17.8372H93.7344Z" fill="#0B0B0B"/>
<path d="M69.4322 38.8898H66.5V31.1064H69.4565C70.2885 31.1064 71.0047 31.2622 71.6051 31.5739C72.2056 31.883 72.6674 32.3276 72.9905 32.9078C73.3163 33.488 73.4792 34.1823 73.4792 34.9905C73.4792 35.8013 73.3163 36.498 72.9905 37.0808C72.6674 37.6635 72.2029 38.1107 71.5971 38.4223C70.9939 38.734 70.2723 38.8898 69.4322 38.8898ZM68.2488 37.4798H69.3595C69.8765 37.4798 70.3114 37.3937 70.6641 37.2214C71.0195 37.0466 71.2861 36.7767 71.4638 36.4119C71.6442 36.0445 71.7344 35.5707 71.7344 34.9905C71.7344 34.4154 71.6442 33.9454 71.4638 33.5805C71.2861 33.2157 71.0208 32.9471 70.6681 32.7748C70.3154 32.6025 69.8805 32.5164 69.3636 32.5164H68.2488V37.4798Z" fill="#2160FD"/>
<path d="M82.3758 34.9981C82.3758 35.8469 82.2048 36.569 81.8629 37.1644C81.5236 37.7598 81.0605 38.2146 80.4735 38.5287C79.8892 38.8404 79.2322 38.9962 78.5025 38.9962C77.7675 38.9962 77.1078 38.8391 76.5235 38.5249C75.9392 38.2108 75.4774 37.756 75.1381 37.1606C74.7989 36.5652 74.6292 35.8443 74.6292 34.9981C74.6292 34.1493 74.7989 33.4272 75.1381 32.8318C75.4774 32.2364 75.9392 31.7829 76.5235 31.4713C77.1078 31.1571 77.7675 31 78.5025 31C79.2322 31 79.8892 31.1571 80.4735 31.4713C81.0605 31.7829 81.5236 32.2364 81.8629 32.8318C82.2048 33.4272 82.3758 34.1493 82.3758 34.9981ZM80.6027 34.9981C80.6027 34.4483 80.5152 33.9846 80.3402 33.6071C80.1679 33.2296 79.9242 32.9433 79.6092 32.7482C79.2941 32.5531 78.9253 32.4556 78.5025 32.4556C78.0798 32.4556 77.7109 32.5531 77.3959 32.7482C77.0808 32.9433 76.8358 33.2296 76.6608 33.6071C76.4885 33.9846 76.4023 34.4483 76.4023 34.9981C76.4023 35.5479 76.4885 36.0116 76.6608 36.3891C76.8358 36.7666 77.0808 37.0529 77.3959 37.248C77.7109 37.4431 78.0798 37.5406 78.5025 37.5406C78.9253 37.5406 79.2941 37.4431 79.6092 37.248C79.9242 37.0529 80.1679 36.7666 80.3402 36.3891C80.5152 36.0116 80.6027 35.5479 80.6027 34.9981Z" fill="#2160FD"/>
<path d="M90.9695 33.8314H89.2005C89.1682 33.616 89.1022 33.4247 89.0026 33.2575C88.903 33.0877 88.7751 32.9433 88.6189 32.8242C88.4627 32.7051 88.2823 32.6139 88.0777 32.5506C87.8757 32.4873 87.6563 32.4556 87.4193 32.4556C86.9912 32.4556 86.6183 32.5557 86.3006 32.7558C85.9829 32.9534 85.7365 33.2423 85.5615 33.6223C85.3864 33.9998 85.2989 34.4584 85.2989 34.9981C85.2989 35.553 85.3864 36.0192 85.5615 36.3967C85.7392 36.7742 85.9869 37.0592 86.3046 37.2518C86.6223 37.4443 86.9899 37.5406 87.4072 37.5406C87.6415 37.5406 87.8582 37.5115 88.0575 37.4532C88.2594 37.3949 88.4385 37.3101 88.5947 37.1986C88.7508 37.0846 88.8801 36.9465 88.9824 36.7843C89.0874 36.6222 89.1601 36.4372 89.2005 36.2295L90.9695 36.2371C90.9237 36.5943 90.8093 36.9389 90.6262 37.2708C90.4458 37.6002 90.2021 37.8953 89.8952 38.1563C89.5909 38.4147 89.2274 38.62 88.8047 38.772C88.3846 38.9215 87.9094 38.9962 87.379 38.9962C86.6412 38.9962 85.9815 38.8391 85.3999 38.5249C84.821 38.2108 84.3633 37.756 84.0267 37.1606C83.6928 36.5652 83.5259 35.8443 83.5259 34.9981C83.5259 34.1493 83.6955 33.4272 84.0348 32.8318C84.374 32.2364 84.8345 31.7829 85.4161 31.4713C85.9977 31.1571 86.652 31 87.379 31C87.8582 31 88.3025 31.0633 88.7118 31.19C89.1238 31.3167 89.4886 31.5017 89.8063 31.7449C90.124 31.9856 90.3825 32.2808 90.5818 32.6304C90.7837 32.98 90.913 33.3804 90.9695 33.8314Z" fill="#2160FD"/>
<path d="M96.7108 33.3449C96.6785 33.0383 96.5398 32.8002 96.2948 32.6304C96.0498 32.4606 95.7172 32.3758 95.2972 32.3758C95.0118 32.3758 94.7708 32.4138 94.5742 32.4898C94.3777 32.5633 94.2269 32.6659 94.1219 32.7976C94.0195 32.9294 93.9684 33.0789 93.9684 33.2461C93.963 33.3854 93.994 33.507 94.0613 33.6109C94.1313 33.7148 94.2269 33.8048 94.348 33.8808C94.4692 33.9542 94.6092 34.0188 94.7681 34.0746C94.9269 34.1278 95.0966 34.1734 95.277 34.2114L96.0201 34.3786C96.3809 34.4546 96.7121 34.556 97.0137 34.6827C97.3153 34.8093 97.5764 34.9652 97.7972 35.1501C98.018 35.3351 98.189 35.553 98.3102 35.8038C98.434 36.0546 98.4973 36.3422 98.5 36.6665C98.4973 37.1428 98.3681 37.5558 98.1123 37.9055C97.8592 38.2526 97.493 38.5224 97.0137 38.715C96.5371 38.905 95.9622 39 95.2891 39C94.6213 39 94.0397 38.9037 93.5443 38.7112C93.0516 38.5186 92.6665 38.2336 92.3892 37.8561C92.1145 37.476 91.9705 37.006 91.957 36.4461H93.6493C93.6682 36.707 93.7476 36.9249 93.8876 37.0998C94.0303 37.2721 94.2201 37.4025 94.4571 37.4912C94.6967 37.5774 94.9673 37.6204 95.2689 37.6204C95.5651 37.6204 95.8222 37.5799 96.0403 37.4988C96.2611 37.4177 96.4321 37.305 96.5533 37.1606C96.6744 37.0162 96.735 36.8502 96.735 36.6627C96.735 36.4879 96.6798 36.3409 96.5694 36.2219C96.4617 36.1028 96.3029 36.0014 96.0928 35.9178C95.8855 35.8342 95.6311 35.7582 95.3295 35.6898L94.4288 35.477C93.7314 35.3173 93.1808 35.0678 92.7769 34.7283C92.373 34.3888 92.1724 33.9314 92.1751 33.3563C92.1724 32.885 92.3057 32.4733 92.575 32.1211C92.8469 31.769 93.2198 31.4941 93.6937 31.2964C94.1676 31.0988 94.7062 31 95.3093 31C95.9232 31 96.459 31.0988 96.9168 31.2964C97.3772 31.4941 97.7353 31.769 97.9911 32.1211C98.2469 32.4733 98.3788 32.8812 98.3869 33.3449H96.7108Z" fill="#2160FD"/>
</g>
<defs>
<clipPath id="clip0_2416_4277">
<rect width="100" height="40" fill="white" transform="translate(0.5)"/>
</clipPath>
</defs>
</svg>
