<svg viewBox="0 0 956 219" fill="none" xmlns="http://www.w3.org/2000/svg"><path d="M684.67 173c23.932 0 38.429-14.804 38.429-39.349 0-24.469-14.497-39.197-38.198-39.197h-28.074V173h27.843Zm-11.237-14.229v-50.088h10.585c14.728 0 22.513 7.517 22.513 24.968 0 17.527-7.785 25.12-22.551 25.12h-10.547Zm130.907-25.044c0-25.696-15.955-40.346-36.78-40.346-20.94 0-36.78 14.65-36.78 40.346 0 25.581 15.84 40.347 36.78 40.347 20.825 0 36.78-14.651 36.78-40.347Zm-16.837 0c0 16.645-7.9 25.658-19.943 25.658-12.081 0-19.943-9.013-19.943-25.658 0-16.645 7.862-25.657 19.943-25.657 12.043 0 19.943 9.012 19.943 25.657Zm95.201-11.774c-2.186-18.141-15.916-28.572-34.095-28.572-20.749 0-36.588 14.65-36.588 40.346 0 25.62 15.571 40.347 36.588 40.347 20.135 0 32.292-13.385 34.095-27.844l-16.798-.077c-1.573 8.4-8.169 13.232-17.029 13.232-11.927 0-20.02-8.859-20.02-25.658 0-16.338 7.978-25.657 20.135-25.657 9.09 0 15.648 5.254 16.914 13.883h16.798Zm51.278-4.909h15.916c-.23-13.999-11.736-23.663-29.225-23.663-17.22 0-29.838 9.511-29.761 23.778-.038 11.582 8.131 18.217 21.401 21.401l8.552 2.147c8.553 2.071 13.308 4.526 13.347 9.819-.039 5.752-5.485 9.664-13.922 9.664-8.629 0-14.842-3.988-15.379-11.851h-16.07c.422 16.991 12.58 25.773 31.641 25.773 19.176 0 30.451-9.166 30.49-23.548-.039-13.078-9.895-20.02-23.549-23.088l-7.056-1.688c-6.827-1.572-12.542-4.103-12.426-9.741 0-5.063 4.487-8.783 12.617-8.783 7.939 0 12.81 3.605 13.424 9.78Z" fill="#2160FD"></path><g clip-path="url(#a)"><path d="M243.55 127.335c0-9.095 1.782-17.164 5.345-24.2 3.659-7.042 8.62-12.455 14.876-16.247 6.256-3.784 13.211-5.68 20.872-5.68 5.825 0 11.375 1.3 16.658 3.901 5.29 2.484 9.497 5.845 12.622 10.06V52.464h22.976v120.197h-22.976v-13.318c-2.809 4.442-6.743 8.014-11.806 10.724-5.071 2.704-10.95 4.059-17.638 4.059a38.387 38.387 0 0 1-20.708-5.852c-6.256-3.901-11.217-9.362-14.883-16.404-3.563-7.145-5.338-15.323-5.338-24.528v-.007Zm70.537.328c0-5.522-1.082-10.231-3.241-14.132-2.151-4.01-5.07-7.042-8.729-9.102a22.832 22.832 0 0 0-11.814-3.244c-4.207 0-8.085 1.027-11.649 3.087-3.563 2.053-6.468 5.091-8.736 9.102-2.152 3.894-3.235 8.554-3.235 13.961 0 5.413 1.083 10.183 3.235 14.297 2.261 4.003 5.18 7.09 8.736 9.259a22.551 22.551 0 0 0 11.649 3.251c4.208 0 8.141-1.027 11.814-3.087 3.666-2.169 6.578-5.201 8.729-9.102 2.159-4.003 3.241-8.767 3.241-14.29ZM444.76 82.666l-55.489 132.55h-24.114l19.413-44.827-35.913-87.723h25.395l23.14 62.867 23.455-62.867H444.76Zm38.579 18.683v43.527c0 3.038.699 5.256 2.103 6.665 1.508 1.301 3.988 1.951 7.442 1.951h10.518v19.162h-14.239c-19.09 0-28.636-9.307-28.636-27.936v-43.369h-10.675V82.666h10.675v-22.25h22.812v22.25h20.063v18.683h-20.063Zm119.668 24.364c0 3.251-.22 6.173-.651 8.774h-65.522c.548 6.494 2.81 11.586 6.798 15.261 3.988 3.689 8.901 5.53 14.725 5.53 8.408 0 14.39-3.627 17.953-10.882h24.429c-2.584 8.658-7.552 15.81-14.884 21.442-7.331 5.516-16.335 8.281-27.018 8.281-8.627 0-16.391-1.896-23.298-5.68a41.775 41.775 0 0 1-16.014-16.412c-3.768-7.035-5.66-15.159-5.66-24.364 0-9.314 1.885-17.492 5.66-24.528a39.605 39.605 0 0 1 15.857-16.247c6.797-3.784 14.615-5.68 23.455-5.68 8.524 0 16.123 1.841 22.818 5.523a38.021 38.021 0 0 1 15.692 15.754c3.768 6.707 5.66 14.454 5.66 23.228Zm-23.462-6.502c-.103-5.844-2.207-10.498-6.305-13.961-4.104-3.579-9.113-5.365-15.047-5.365-5.612 0-10.354 1.731-14.239 5.201-3.769 3.353-6.092 8.062-6.955 14.132h42.552l-.006-.007Z" fill="#181818"></path><path d="M211.235 118.513h-89.874v90.241h89.874v-90.241Z" fill="#2160FD"></path><path fill-rule="evenodd" clip-rule="evenodd" fill="#2160FD" d="M175.288 99.377V1.258a168.64 168.64 0 0 0-4.495-.061c-91.82 0-166.27 74.747-166.27 166.953 0 1.505.02 3.011.061 4.517h97.515V99.384h73.182l.007-.007Z"></path></g><defs><clipPath id="a"><path fill="#fff" d="M0 0h603v219H0z"></path></clipPath></defs></svg>
