<svg width="400" height="300" viewBox="0 0 400 300" fill="none" xmlns="http://www.w3.org/2000/svg">
<g clip-path="url(#clip0_238_5202)">
<rect width="400" height="300" fill="#E0E9FF"/>
<g clip-path="url(#clip1_238_5202)">
<path d="M675.009 36H44.2398C40.2414 36 37 39.2414 37 43.2398V428.76C37 432.759 40.2414 436 44.2398 436H675.009C679.007 436 682.249 432.759 682.249 428.76V43.2398C682.249 39.2414 679.007 36 675.009 36Z" fill="#1A1A1A"/>
<path d="M66.1757 72.8091C66.1294 72.3425 65.9309 71.9799 65.5799 71.7216C65.229 71.4632 64.7527 71.334 64.1511 71.334C63.7423 71.334 63.3971 71.3919 63.1157 71.5075C62.8342 71.6194 62.6181 71.7756 62.4677 71.9761C62.3212 72.1766 62.2479 72.4042 62.2479 72.6587C62.2402 72.8708 62.2846 73.0559 62.381 73.214C62.4813 73.3722 62.6181 73.509 62.7917 73.6247C62.9653 73.7366 63.1658 73.8349 63.3933 73.9198C63.6209 74.0008 63.8638 74.0702 64.1222 74.128L65.1866 74.3825C65.7033 74.4982 66.1777 74.6524 66.6096 74.8453C67.0415 75.0381 67.4156 75.2752 67.7318 75.5568C68.048 75.8383 68.2929 76.17 68.4665 76.5518C68.6438 76.9335 68.7345 77.3713 68.7383 77.8649C68.7345 78.5899 68.5494 79.2185 68.183 79.7507C67.8205 80.279 67.2961 80.6897 66.6096 80.9828C65.927 81.2721 65.1037 81.4167 64.1395 81.4167C63.1831 81.4167 62.3502 81.2701 61.6406 80.977C60.9349 80.6839 60.3834 80.2501 59.9862 79.6755C59.5928 79.097 59.3865 78.3817 59.3672 77.5294H61.791C61.818 77.9265 61.9317 78.2582 62.1323 78.5243C62.3367 78.7865 62.6085 78.9852 62.9479 79.1201C63.2911 79.2513 63.6787 79.3169 64.1106 79.3169C64.5348 79.3169 64.9031 79.2551 65.2155 79.1317C65.5317 79.0083 65.7766 78.8367 65.9502 78.6169C66.1237 78.397 66.2104 78.1445 66.2104 77.8591C66.2104 77.593 66.1313 77.3693 65.9732 77.1881C65.819 77.0068 65.5915 76.8525 65.2907 76.7253C64.9937 76.598 64.6293 76.4824 64.1974 76.3782L62.9074 76.0542C61.9085 75.8113 61.1199 75.4314 60.5415 74.9147C59.963 74.3979 59.6757 73.7018 59.6796 72.8265C59.6757 72.1092 59.8666 71.4825 60.2523 70.9465C60.6418 70.4103 61.1759 69.992 61.8546 69.6912C62.5333 69.3903 63.3047 69.2399 64.1685 69.2399C65.0477 69.2399 65.8152 69.3903 66.4707 69.6912C67.1302 69.992 67.6431 70.4103 68.0094 70.9465C68.3759 71.4825 68.5648 72.1034 68.5763 72.8091H66.1757ZM74.4261 81.4225C73.5122 81.4225 72.7254 81.2373 72.0659 80.8671C71.4104 80.4931 70.9052 79.9647 70.5504 79.2821C70.1956 78.5957 70.0182 77.7839 70.0182 76.8468C70.0182 75.9328 70.1956 75.1306 70.5504 74.4404C70.9052 73.7501 71.4046 73.2121 72.0486 72.8265C72.6965 72.4408 73.4562 72.248 74.3277 72.248C74.914 72.248 75.4596 72.3425 75.9648 72.5314C76.4739 72.7165 76.9173 72.9961 77.2953 73.3702C77.6771 73.7443 77.9741 74.2148 78.1861 74.7817C78.3982 75.3447 78.5043 76.0041 78.5043 76.76V77.4368H71.0016V75.9096H76.1847C76.1847 75.5549 76.1075 75.2406 75.9532 74.9667C75.799 74.693 75.5849 74.4789 75.3112 74.3246C75.0412 74.1665 74.7269 74.0875 74.3683 74.0875C73.9942 74.0875 73.6626 74.1742 73.3733 74.3478C73.0879 74.5175 72.8642 74.7469 72.7023 75.0361C72.5403 75.3216 72.4574 75.6397 72.4535 75.9906V77.4426C72.4535 77.8822 72.5345 78.2621 72.6965 78.5822C72.8623 78.9023 73.0956 79.1491 73.3964 79.3226C73.6972 79.4961 74.054 79.5829 74.4666 79.5829C74.7404 79.5829 74.9911 79.5444 75.2186 79.4672C75.4461 79.3901 75.6409 79.2744 75.8028 79.1201C75.9648 78.9659 76.0882 78.777 76.1731 78.5532L78.4523 78.7037C78.3365 79.2513 78.0994 79.7294 77.7407 80.1382C77.3859 80.5432 76.927 80.8594 76.3639 81.0869C75.8047 81.3106 75.1589 81.4225 74.4261 81.4225ZM84.8385 72.3636V74.2148H79.4876V72.3636H84.8385ZM80.7025 70.2349H83.1667V78.5186C83.1667 78.7461 83.2014 78.9235 83.2708 79.0507C83.3402 79.1741 83.4367 79.2609 83.56 79.3111C83.6874 79.3612 83.8339 79.3863 83.9997 79.3863C84.1154 79.3863 84.2311 79.3766 84.3468 79.3573C84.4625 79.3341 84.5512 79.3169 84.6129 79.3053L85.0005 81.139C84.8771 81.1776 84.7035 81.2219 84.4799 81.2721C84.2561 81.326 83.9843 81.3588 83.6642 81.3703C83.0703 81.3935 82.5497 81.3144 82.1023 81.1332C81.6589 80.952 81.3137 80.6704 81.0669 80.2886C80.82 79.9068 80.6986 79.4248 80.7025 78.8425V70.2349ZM91.1698 72.3636V74.2148H85.819V72.3636H91.1698ZM87.0338 70.2349H89.498V78.5186C89.498 78.7461 89.5327 78.9235 89.6021 79.0507C89.6715 79.1741 89.768 79.2609 89.8913 79.3111C90.0187 79.3612 90.1652 79.3863 90.331 79.3863C90.4467 79.3863 90.5624 79.3766 90.6781 79.3573C90.7938 79.3341 90.8825 79.3169 90.9442 79.3053L91.3318 81.139C91.2084 81.1776 91.0348 81.2219 90.8112 81.2721C90.5875 81.326 90.3156 81.3588 89.9955 81.3703C89.4016 81.3935 88.881 81.3144 88.4336 81.1332C87.9902 80.952 87.645 80.6704 87.3982 80.2886C87.1514 79.9068 87.0299 79.4248 87.0338 78.8425V70.2349ZM92.7751 81.2489V72.3636H95.2393V81.2489H92.7751ZM94.013 71.2183C93.6466 71.2183 93.3323 71.0969 93.0701 70.8539C92.8117 70.6071 92.6825 70.3121 92.6825 69.9688C92.6825 69.6294 92.8117 69.3383 93.0701 69.0953C93.3323 68.8485 93.6466 68.7251 94.013 68.7251C94.3793 68.7251 94.6917 68.8485 94.9501 69.0953C95.2123 69.3383 95.3434 69.6294 95.3434 69.9688C95.3434 70.3121 95.2123 70.6071 94.9501 70.8539C94.6917 71.0969 94.3793 71.2183 94.013 71.2183ZM99.6776 76.1122V81.2489H97.2133V72.3636H99.5618V73.9313H99.666C99.8627 73.4145 100.192 73.0057 100.655 72.7049C101.118 72.4003 101.679 72.248 102.339 72.248C102.956 72.248 103.494 72.3829 103.952 72.6529C104.411 72.9228 104.768 73.3085 105.023 73.8098C105.277 74.3073 105.404 74.9012 105.404 75.5915V81.2489H102.94V76.0312C102.944 75.4874 102.805 75.0632 102.524 74.7585C102.242 74.45 101.855 74.2958 101.361 74.2958C101.029 74.2958 100.736 74.3671 100.482 74.5098C100.231 74.6524 100.034 74.8608 99.8916 75.1345C99.7528 75.4045 99.6814 75.7303 99.6776 76.1122ZM111.35 84.766C110.551 84.766 109.867 84.656 109.296 84.4362C108.729 84.2203 108.278 83.9253 107.942 83.5512C107.607 83.1771 107.389 82.7568 107.289 82.2902L109.568 81.9836C109.637 82.1609 109.747 82.3268 109.898 82.481C110.048 82.6353 110.247 82.7587 110.493 82.8513C110.744 82.9476 111.049 82.9959 111.407 82.9959C111.943 82.9959 112.385 82.8647 112.732 82.6025C113.083 82.3441 113.258 81.9103 113.258 81.3009V79.6755H113.154C113.046 79.9223 112.884 80.1556 112.668 80.3754C112.453 80.5952 112.175 80.7746 111.836 80.9134C111.496 81.0522 111.091 81.1217 110.621 81.1217C109.954 81.1217 109.346 80.9674 108.799 80.6589C108.255 80.3465 107.821 79.8703 107.497 79.2301C107.177 78.586 107.017 77.7723 107.017 76.7889C107.017 75.7824 107.181 74.9417 107.509 74.2668C107.836 73.592 108.272 73.0867 108.816 72.7513C109.363 72.4157 109.963 72.248 110.615 72.248C111.112 72.248 111.529 72.3328 111.864 72.5025C112.2 72.6684 112.47 72.8766 112.674 73.1273C112.882 73.3741 113.043 73.617 113.154 73.8561H113.247V72.3636H115.694V81.3357C115.694 82.0915 115.509 82.724 115.139 83.2331C114.768 83.7421 114.255 84.1238 113.6 84.3784C112.948 84.6368 112.198 84.766 111.35 84.766ZM111.402 79.2705C111.799 79.2705 112.134 79.1722 112.408 78.9755C112.686 78.775 112.898 78.4896 113.044 78.1194C113.195 77.7454 113.27 77.2979 113.27 76.7773C113.27 76.2568 113.197 75.8056 113.05 75.4237C112.904 75.0381 112.692 74.7392 112.414 74.5271C112.136 74.3151 111.799 74.209 111.402 74.209C110.997 74.209 110.655 74.3189 110.378 74.5387C110.1 74.7547 109.89 75.0554 109.747 75.4411C109.605 75.8267 109.533 76.2722 109.533 76.7773C109.533 77.2903 109.605 77.7338 109.747 78.1078C109.894 78.478 110.104 78.7654 110.378 78.9697C110.655 79.1703 110.997 79.2705 111.402 79.2705ZM125.048 74.8973L122.792 75.0361C122.753 74.8434 122.67 74.6698 122.543 74.5156C122.416 74.3574 122.248 74.2321 122.04 74.1396C121.835 74.0431 121.59 73.995 121.305 73.995C120.923 73.995 120.601 74.076 120.339 74.2379C120.077 74.396 119.946 74.6081 119.946 74.8742C119.946 75.0863 120.03 75.2656 120.2 75.4122C120.37 75.5588 120.661 75.6763 121.074 75.765L122.682 76.089C123.546 76.2664 124.19 76.5518 124.614 76.9451C125.038 77.3385 125.25 77.8552 125.25 78.4954C125.25 79.0778 125.079 79.5887 124.735 80.0284C124.396 80.468 123.929 80.8112 123.335 81.058C122.745 81.3009 122.065 81.4225 121.293 81.4225C120.117 81.4225 119.18 81.1776 118.482 80.6878C117.788 80.1941 117.381 79.5231 117.261 78.6747L119.685 78.5475C119.759 78.9061 119.936 79.1799 120.217 79.3689C120.499 79.554 120.86 79.6465 121.299 79.6465C121.731 79.6465 122.078 79.5636 122.34 79.3978C122.606 79.2281 122.741 79.0103 122.745 78.7441C122.741 78.5205 122.647 78.3373 122.462 78.1946C122.277 78.0481 121.991 77.9362 121.606 77.8591L120.067 77.5525C119.199 77.3789 118.553 77.0781 118.129 76.6501C117.709 76.222 117.499 75.6763 117.499 75.0131C117.499 74.4423 117.653 73.9506 117.961 73.5379C118.274 73.1253 118.712 72.8072 119.275 72.5835C119.841 72.3598 120.505 72.248 121.264 72.248C122.387 72.248 123.27 72.4852 123.914 72.9595C124.562 73.4338 124.94 74.0798 125.048 74.8973Z" fill="white"/>
<path d="M232.928 436V36" stroke="#393939"/>
<path d="M45.145 118.353C45.145 116.354 46.7657 114.733 48.7649 114.733H233.38V154.552H48.7649C46.7657 154.552 45.145 152.931 45.145 150.932V118.353Z" fill="#2160FD" fill-opacity="0.2"/>
<path d="M61.671 139.167H59.9844L63.774 128.637H65.6096L69.3992 139.167H67.7127L64.7355 130.549H64.6532L61.671 139.167ZM61.9538 135.043H67.4247V136.38H61.9538V135.043ZM75.7997 135.892V131.27H77.3422V139.167H75.8305V137.8H75.7483C75.5665 138.222 75.2751 138.573 74.8742 138.853C74.4765 139.131 73.9811 139.271 73.3881 139.271C72.8808 139.271 72.4317 139.159 72.0409 138.936C71.6535 138.709 71.3485 138.376 71.1256 137.933C70.9063 137.491 70.7966 136.945 70.7966 136.293V131.27H72.334V136.108C72.334 136.646 72.4831 137.074 72.7814 137.394C73.0796 137.712 73.4669 137.871 73.9434 137.871C74.2313 137.871 74.5176 137.8 74.8021 137.656C75.0901 137.511 75.3283 137.294 75.5169 137.003C75.7088 136.711 75.8031 136.341 75.7997 135.892ZM82.3646 139.321C81.727 139.321 81.158 139.159 80.6575 138.833C80.1604 138.504 79.7696 138.036 79.4851 137.43C79.204 136.819 79.0635 136.088 79.0635 135.233C79.0635 134.38 79.2057 133.65 79.4903 133.043C79.7782 132.436 80.1724 131.972 80.6729 131.65C81.1734 131.328 81.7407 131.166 82.3749 131.166C82.8651 131.166 83.2593 131.249 83.5575 131.414C83.8592 131.575 84.0923 131.763 84.2569 131.979C84.4248 132.195 84.5551 132.385 84.6476 132.55H84.7401V128.637H86.2776V139.167H84.7761V137.938H84.6476C84.5551 138.107 84.4214 138.299 84.2466 138.514C84.0751 138.73 83.8386 138.919 83.537 139.08C83.2353 139.241 82.8445 139.321 82.3646 139.321ZM82.7039 138.011C83.1462 138.011 83.5199 137.894 83.8249 137.661C84.1334 137.424 84.3665 137.097 84.5242 136.679C84.6853 136.261 84.7658 135.774 84.7658 135.218C84.7658 134.67 84.687 134.19 84.5294 133.778C84.3716 133.367 84.1403 133.047 83.8351 132.817C83.5301 132.587 83.1531 132.472 82.7039 132.472C82.2412 132.472 81.8555 132.593 81.547 132.833C81.2385 133.072 81.0054 133.4 80.8477 133.814C80.6935 134.23 80.6163 134.698 80.6163 135.218C80.6163 135.747 80.6951 136.221 80.8529 136.642C81.0105 137.064 81.2437 137.398 81.5522 137.645C81.8641 137.889 82.2481 138.011 82.7039 138.011ZM88.4719 139.167V131.27H90.0094V139.167H88.4719ZM89.2484 130.051C88.9809 130.051 88.7513 129.962 88.5593 129.784C88.3708 129.602 88.2765 129.385 88.2765 129.136C88.2765 128.881 88.3708 128.666 88.5593 128.488C88.7513 128.306 88.9809 128.215 89.2484 128.215C89.5157 128.215 89.7437 128.306 89.9323 128.488C90.1242 128.666 90.2201 128.881 90.2201 129.136C90.2201 129.385 90.1242 129.602 89.9323 129.784C89.7437 129.962 89.5157 130.051 89.2484 130.051ZM95.4045 139.327C94.6641 139.327 94.0179 139.157 93.466 138.818C92.9141 138.479 92.4856 138.004 92.1805 137.394C91.8754 136.784 91.7229 136.071 91.7229 135.254C91.7229 134.435 91.8754 133.719 92.1805 133.105C92.4856 132.491 92.9141 132.015 93.466 131.676C94.0179 131.337 94.6641 131.166 95.4045 131.166C96.1449 131.166 96.7911 131.337 97.343 131.676C97.8949 132.015 98.3234 132.491 98.6285 133.105C98.9336 133.719 99.0861 134.435 99.0861 135.254C99.0861 136.071 98.9336 136.784 98.6285 137.394C98.3234 138.004 97.8949 138.479 97.343 138.818C96.7911 139.157 96.1449 139.327 95.4045 139.327ZM95.4096 138.036C95.8895 138.036 96.2872 137.909 96.6026 137.656C96.918 137.402 97.1511 137.064 97.3018 136.642C97.4561 136.221 97.5332 135.757 97.5332 135.249C97.5332 134.746 97.4561 134.282 97.3018 133.861C97.1511 133.436 96.918 133.095 96.6026 132.838C96.2872 132.581 95.8895 132.452 95.4096 132.452C94.9263 132.452 94.5252 132.581 94.2065 132.838C93.8911 133.095 93.6562 133.436 93.502 133.861C93.3512 134.282 93.2758 134.746 93.2758 135.249C93.2758 135.757 93.3512 136.221 93.502 136.642C93.6562 137.064 93.8911 137.402 94.2065 137.656C94.5252 137.909 94.9263 138.036 95.4096 138.036Z" fill="white"/>
<path d="M207.136 137.357C208.635 137.357 209.851 136.142 209.851 134.643V130.118C209.851 128.618 208.635 127.403 207.136 127.403C205.636 127.403 204.421 128.618 204.421 130.118V134.643C204.421 136.142 205.636 137.357 207.136 137.357ZM207.136 136.452C206.136 136.452 205.326 135.643 205.326 134.643V130.118C205.326 129.118 206.136 128.308 207.136 128.308C208.136 128.308 208.946 129.118 208.946 130.118V134.643C208.946 135.643 208.136 136.452 207.136 136.452ZM202.611 134.19C202.86 134.19 203.063 134.393 203.063 134.643C203.063 136.891 204.887 138.715 207.136 138.715C209.384 138.715 211.208 136.891 211.208 134.643C211.208 134.393 211.411 134.19 211.66 134.19C211.91 134.19 212.113 134.393 212.113 134.643C212.113 137.239 210.125 139.371 207.588 139.6V141.43C207.588 141.68 207.385 141.882 207.136 141.882C206.886 141.882 206.683 141.68 206.683 141.43V139.6C204.146 139.371 202.158 137.239 202.158 134.643C202.158 134.393 202.361 134.19 202.611 134.19Z" fill="white"/>
<path d="M212.32 233.795C212.686 234.16 213.03 234.576 213.33 235.011C213.543 235.319 213.465 235.742 213.156 235.956C212.848 236.168 212.425 236.09 212.212 235.782C211.958 235.414 211.666 235.061 211.36 234.755C208.545 231.938 203.979 231.938 201.163 234.755C200.872 235.045 200.584 235.399 200.319 235.779C200.106 236.088 199.682 236.164 199.374 235.95C199.067 235.737 198.99 235.314 199.203 235.005C199.512 234.562 199.851 234.147 200.203 233.795C203.549 230.449 208.974 230.449 212.32 233.795ZM210.384 235.503C210.812 235.931 211.182 236.449 211.463 236.999C211.634 237.333 211.502 237.742 211.168 237.912C210.834 238.083 210.425 237.951 210.255 237.617C210.036 237.19 209.749 236.787 209.424 236.463C207.678 234.717 204.846 234.717 203.098 236.463C202.759 236.803 202.484 237.185 202.271 237.604C202.102 237.938 201.694 238.072 201.359 237.903C201.025 237.734 200.891 237.326 201.06 236.991C201.337 236.443 201.698 235.945 202.139 235.503C204.416 233.226 208.107 233.226 210.384 235.503ZM208.905 237.666C209.233 237.995 209.504 238.397 209.691 238.826C209.842 239.17 209.686 239.57 209.342 239.72C208.999 239.871 208.599 239.715 208.448 239.371C208.326 239.093 208.151 238.832 207.945 238.625C207.015 237.696 205.508 237.696 204.578 238.625C204.374 238.831 204.206 239.081 204.083 239.362C203.933 239.705 203.533 239.862 203.19 239.711C202.846 239.561 202.689 239.161 202.84 238.818C203.029 238.386 203.29 237.995 203.619 237.666C205.079 236.206 207.445 236.206 208.905 237.666ZM207.064 239.513C207.504 239.952 207.504 240.663 207.064 241.103C206.625 241.542 205.914 241.542 205.475 241.103C205.035 240.663 205.035 239.952 205.475 239.513C205.914 239.074 206.625 239.074 207.064 239.513Z" fill="#83D017"/>
<path d="M646.955 226.95H265.959C263.96 226.95 262.339 228.571 262.339 230.57V261.339C262.339 263.339 263.96 264.959 265.959 264.959H646.955C648.954 264.959 650.575 263.339 650.575 261.339V230.57C650.575 228.571 648.954 226.95 646.955 226.95Z" fill="#2C2C2C"/>
<path d="M601.706 140.072H265.959C263.96 140.072 262.339 141.693 262.339 143.692V174.462C262.339 176.461 263.96 178.081 265.959 178.081H601.706C603.705 178.081 605.326 176.461 605.326 174.462V143.692C605.326 141.693 603.705 140.072 601.706 140.072Z" fill="#2C2C2C"/>
<path d="M324.783 275.819H265.959C263.96 275.819 262.339 277.44 262.339 279.439V301.158C262.339 303.158 263.96 304.778 265.959 304.778H324.783C326.782 304.778 328.403 303.158 328.403 301.158V279.439C328.403 277.44 326.782 275.819 324.783 275.819Z" fill="#2C2C2C"/>
<path d="M281.067 284.904C281.234 284.975 281.343 285.139 281.343 285.321V295.276C281.343 295.458 281.234 295.623 281.066 295.693C280.897 295.764 280.704 295.727 280.573 295.599L277.926 292.997H276.366C275.616 292.997 275.009 292.389 275.009 291.64V288.935C275.009 288.185 275.616 287.577 276.366 287.577H277.926L280.575 284.997C280.706 284.871 280.899 284.833 281.067 284.904ZM280.438 286.394L278.426 288.354C278.342 288.436 278.229 288.482 278.11 288.482H276.366C276.116 288.482 275.914 288.685 275.914 288.935V291.64C275.914 291.89 276.116 292.092 276.366 292.092H278.11C278.229 292.092 278.343 292.138 278.428 292.222L280.438 294.197V286.394ZM282.349 287.755C282.505 287.559 282.789 287.527 282.984 287.682H282.985L282.986 287.683L282.988 287.685L282.993 287.689L283.007 287.7C283.017 287.709 283.031 287.721 283.048 287.737C283.081 287.767 283.125 287.81 283.176 287.865C283.279 287.976 283.412 288.138 283.543 288.354C283.807 288.788 284.062 289.433 284.062 290.298C284.062 291.161 283.807 291.807 283.543 292.242C283.412 292.458 283.279 292.621 283.177 292.731C283.126 292.787 283.081 292.83 283.049 292.861C283.031 292.877 283.012 292.893 282.993 292.909L282.986 292.915H282.985C282.985 292.915 282.582 293.135 282.349 292.844C282.194 292.65 282.225 292.367 282.418 292.211L282.419 292.209L282.418 292.21L282.42 292.209H282.419C282.421 292.207 282.427 292.203 282.435 292.195C282.452 292.179 282.478 292.154 282.512 292.118C282.58 292.044 282.674 291.929 282.769 291.772C282.959 291.46 283.157 290.974 283.157 290.298C283.157 289.621 282.959 289.136 282.77 288.824C282.674 288.667 282.58 288.553 282.513 288.48C282.479 288.444 282.452 288.419 282.436 288.404C282.428 288.396 282.422 288.391 282.42 288.389L282.421 288.39C282.225 288.234 282.193 287.95 282.349 287.755ZM283.889 285.872C283.694 285.717 283.409 285.749 283.253 285.945C283.097 286.14 283.13 286.424 283.326 286.58L283.335 286.589C283.345 286.597 283.361 286.611 283.383 286.63C283.424 286.668 283.488 286.727 283.564 286.806C283.718 286.966 283.926 287.207 284.135 287.525C284.551 288.159 284.966 289.093 284.966 290.302C284.966 291.511 284.552 292.442 284.135 293.075C283.926 293.392 283.718 293.632 283.564 293.791C283.488 293.871 283.425 293.929 283.383 293.967C283.362 293.986 283.346 294 283.336 294.008L283.326 294.016L283.325 294.017C283.13 294.173 283.097 294.456 283.252 294.652C283.408 294.848 283.693 294.88 283.888 294.725L283.918 294.7C283.935 294.687 283.958 294.667 283.987 294.642C284.044 294.59 284.123 294.517 284.215 294.42C284.402 294.228 284.647 293.945 284.891 293.573C285.38 292.83 285.871 291.728 285.871 290.302C285.871 288.877 285.38 287.773 284.891 287.028C284.647 286.656 284.402 286.372 284.216 286.179C284.123 286.082 284.044 286.008 283.988 285.957C283.959 285.931 283.936 285.911 283.919 285.898L283.899 285.88L283.893 285.875L283.89 285.873L283.889 285.872ZM282.42 288.389L282.419 288.388L282.42 288.389Z" fill="white"/>
<rect x="274" y="152" width="137" height="14" rx="6" fill="#474747"/>
<rect x="274" y="239" width="137" height="14" rx="6" fill="#474747"/>
<rect x="291" y="285" width="30" height="9" rx="4.5" fill="#474747"/>
<rect x="262" y="122" width="94" height="9" rx="4.5" fill="#474747"/>
<rect x="52" y="180" width="90" height="9" rx="4.5" fill="#474747"/>
<rect x="199" y="178" width="15" height="14" rx="6" fill="#474747"/>
<rect x="52" y="231" width="90" height="9" rx="4.5" fill="#474747"/>
<rect x="199" y="229" width="15" height="14" rx="6" fill="#474747"/>
<rect x="262" y="211" width="110" height="9" rx="4.5" fill="#474747"/>
</g>
</g>
<defs>
<clipPath id="clip0_238_5202">
<rect width="400" height="300" fill="white"/>
</clipPath>
<clipPath id="clip1_238_5202">
<rect width="645.249" height="400" fill="white" transform="translate(37 36)"/>
</clipPath>
</defs>
</svg>
