<svg width="400" height="300" viewBox="0 0 400 300" fill="none" xmlns="http://www.w3.org/2000/svg">
<rect width="400" height="300" fill="#E0E9FF"/>
<path d="M0 122H281C285.418 122 289 125.582 289 130V300H0V122Z" fill="#262626"/>
<path d="M111 126C111 123.791 112.791 122 115 122H281C285.418 122 289 125.582 289 130V174C289 176.209 287.209 178 285 178H115C112.791 178 111 176.209 111 174V126Z" fill="#262626"/>
<path d="M136.985 135C128.705 135 122 141.72 122 150C122 158.28 128.705 165 136.985 165C145.28 165 152 158.28 152 150C152 141.72 145.28 135 136.985 135ZM137 162C130.37 162 125 156.63 125 150C125 143.37 130.37 138 137 138C143.63 138 149 143.37 149 150C149 156.63 143.63 162 137 162ZM136.67 142.5H136.58C135.98 142.5 135.5 142.98 135.5 143.58V150.66C135.5 151.185 135.77 151.68 136.235 151.95L142.46 155.685C142.97 155.985 143.63 155.835 143.93 155.325C144.005 155.204 144.055 155.068 144.077 154.927C144.099 154.786 144.092 154.642 144.058 154.503C144.023 154.364 143.96 154.234 143.874 154.12C143.787 154.006 143.679 153.911 143.555 153.84L137.75 150.39V143.58C137.75 142.98 137.27 142.5 136.67 142.5Z" fill="#DDDDDD"/>
<path d="M161.304 145.273H162.872V151.409C162.869 151.972 162.75 152.456 162.514 152.862C162.278 153.266 161.949 153.577 161.526 153.795C161.105 154.011 160.615 154.119 160.055 154.119C159.544 154.119 159.084 154.028 158.675 153.847C158.268 153.662 157.946 153.389 157.707 153.028C157.469 152.668 157.349 152.219 157.349 151.682H158.922C158.925 151.918 158.976 152.121 159.075 152.291C159.178 152.462 159.318 152.592 159.497 152.683C159.676 152.774 159.882 152.82 160.115 152.82C160.368 152.82 160.582 152.767 160.759 152.662C160.935 152.554 161.068 152.395 161.159 152.185C161.253 151.974 161.301 151.716 161.304 151.409V145.273ZM167.374 154.128C166.735 154.128 166.181 153.987 165.712 153.706C165.244 153.425 164.88 153.031 164.621 152.526C164.366 152.02 164.238 151.429 164.238 150.753C164.238 150.077 164.366 149.484 164.621 148.976C164.88 148.467 165.244 148.072 165.712 147.791C166.181 147.51 166.735 147.369 167.374 147.369C168.013 147.369 168.567 147.51 169.036 147.791C169.505 148.072 169.867 148.467 170.123 148.976C170.381 149.484 170.511 150.077 170.511 150.753C170.511 151.429 170.381 152.02 170.123 152.526C169.867 153.031 169.505 153.425 169.036 153.706C168.567 153.987 168.013 154.128 167.374 154.128ZM167.383 152.892C167.729 152.892 168.019 152.797 168.252 152.607C168.485 152.413 168.658 152.155 168.772 151.831C168.888 151.507 168.947 151.146 168.947 150.749C168.947 150.348 168.888 149.986 168.772 149.662C168.658 149.335 168.485 149.075 168.252 148.882C168.019 148.689 167.729 148.592 167.383 148.592C167.028 148.592 166.732 148.689 166.496 148.882C166.263 149.075 166.089 149.335 165.972 149.662C165.859 149.986 165.802 150.348 165.802 150.749C165.802 151.146 165.859 151.507 165.972 151.831C166.089 152.155 166.263 152.413 166.496 152.607C166.732 152.797 167.028 152.892 167.383 152.892ZM173.363 150.165V154H171.82V145.273H173.328V148.567H173.405C173.559 148.197 173.796 147.906 174.117 147.693C174.441 147.477 174.853 147.369 175.353 147.369C175.807 147.369 176.203 147.464 176.542 147.655C176.88 147.845 177.141 148.124 177.326 148.49C177.513 148.857 177.607 149.304 177.607 149.832V154H176.064V150.071C176.064 149.631 175.951 149.288 175.723 149.044C175.499 148.797 175.184 148.673 174.777 148.673C174.505 148.673 174.26 148.733 174.044 148.852C173.831 148.969 173.664 149.138 173.542 149.359C173.422 149.581 173.363 149.849 173.363 150.165ZM180.722 150.165V154H179.179V147.455H180.654V148.567H180.73C180.881 148.2 181.121 147.909 181.451 147.693C181.783 147.477 182.194 147.369 182.682 147.369C183.134 147.369 183.527 147.466 183.863 147.659C184.201 147.852 184.462 148.132 184.647 148.499C184.834 148.865 184.926 149.31 184.924 149.832V154H183.381V150.071C183.381 149.634 183.267 149.291 183.04 149.044C182.816 148.797 182.505 148.673 182.107 148.673C181.837 148.673 181.597 148.733 181.387 148.852C181.179 148.969 181.016 149.138 180.897 149.359C180.78 149.581 180.722 149.849 180.722 150.165ZM192.494 154H189.537V145.273H192.554C193.42 145.273 194.164 145.447 194.787 145.797C195.412 146.143 195.892 146.642 196.227 147.293C196.562 147.943 196.73 148.722 196.73 149.628C196.73 150.537 196.561 151.318 196.223 151.972C195.887 152.625 195.403 153.126 194.77 153.476C194.139 153.825 193.38 154 192.494 154ZM191.118 152.632H192.417C193.025 152.632 193.532 152.521 193.939 152.3C194.345 152.075 194.65 151.741 194.855 151.298C195.059 150.852 195.162 150.295 195.162 149.628C195.162 148.96 195.059 148.406 194.855 147.966C194.65 147.523 194.348 147.192 193.947 146.973C193.549 146.751 193.055 146.641 192.464 146.641H191.118V152.632ZM201.019 154.128C200.38 154.128 199.826 153.987 199.357 153.706C198.888 153.425 198.525 153.031 198.266 152.526C198.01 152.02 197.882 151.429 197.882 150.753C197.882 150.077 198.01 149.484 198.266 148.976C198.525 148.467 198.888 148.072 199.357 147.791C199.826 147.51 200.38 147.369 201.019 147.369C201.658 147.369 202.212 147.51 202.681 147.791C203.15 148.072 203.512 148.467 203.767 148.976C204.026 149.484 204.155 150.077 204.155 150.753C204.155 151.429 204.026 152.02 203.767 152.526C203.512 153.031 203.15 153.425 202.681 153.706C202.212 153.987 201.658 154.128 201.019 154.128ZM201.027 152.892C201.374 152.892 201.664 152.797 201.897 152.607C202.13 152.413 202.303 152.155 202.417 151.831C202.533 151.507 202.591 151.146 202.591 150.749C202.591 150.348 202.533 149.986 202.417 149.662C202.303 149.335 202.13 149.075 201.897 148.882C201.664 148.689 201.374 148.592 201.027 148.592C200.672 148.592 200.377 148.689 200.141 148.882C199.908 149.075 199.733 149.335 199.617 149.662C199.503 149.986 199.446 150.348 199.446 150.749C199.446 151.146 199.503 151.507 199.617 151.831C199.733 152.155 199.908 152.413 200.141 152.607C200.377 152.797 200.672 152.892 201.027 152.892ZM208.362 154.128C207.706 154.128 207.139 153.991 206.662 153.719C206.188 153.443 205.822 153.054 205.567 152.551C205.311 152.045 205.183 151.45 205.183 150.766C205.183 150.092 205.311 149.501 205.567 148.993C205.825 148.482 206.186 148.084 206.649 147.8C207.112 147.513 207.656 147.369 208.281 147.369C208.685 147.369 209.065 147.435 209.423 147.565C209.784 147.693 210.102 147.892 210.378 148.162C210.656 148.432 210.875 148.776 211.034 149.193C211.193 149.608 211.273 150.102 211.273 150.676V151.149H205.908V150.109H209.794C209.791 149.814 209.727 149.551 209.602 149.321C209.477 149.088 209.303 148.905 209.078 148.771C208.857 148.638 208.598 148.571 208.303 148.571C207.987 148.571 207.71 148.648 207.472 148.801C207.233 148.952 207.047 149.151 206.913 149.398C206.783 149.642 206.716 149.911 206.713 150.203V151.111C206.713 151.491 206.783 151.818 206.922 152.091C207.061 152.361 207.256 152.568 207.506 152.713C207.756 152.855 208.048 152.926 208.384 152.926C208.608 152.926 208.811 152.895 208.993 152.832C209.175 152.767 209.332 152.672 209.466 152.547C209.599 152.422 209.7 152.267 209.768 152.082L211.209 152.244C211.118 152.625 210.945 152.957 210.689 153.241C210.436 153.523 210.112 153.741 209.717 153.898C209.322 154.051 208.871 154.128 208.362 154.128Z" fill="#262626"/>
<path d="M163 149C163 145.686 165.686 143 169 143H267C271.418 143 275 146.582 275 151C275 154.314 272.314 157 269 157H169C165.686 157 163 154.314 163 151V149Z" fill="#474747"/>
</svg>
