<svg width="400" height="300" viewBox="0 0 400 300" fill="none" xmlns="http://www.w3.org/2000/svg">
<rect width="400" height="300" fill="#E0E9FF"/>
<path d="M0 122H281C285.418 122 289 125.582 289 130V300H0V122Z" fill="#262626"/>
<path d="M111 126C111 123.791 112.791 122 115 122H281C285.418 122 289 125.582 289 130V174C289 176.209 287.209 178 285 178H115C112.791 178 111 176.209 111 174V126Z" fill="#262626"/>
<path d="M135 146C137.209 146 139 144.209 139 142C139 139.791 137.209 138 135 138C132.791 138 131 139.791 131 142C131 144.209 132.791 146 135 146ZM135 144C133.895 144 133 143.105 133 142C133 140.895 133.895 140 135 140C136.105 140 137 140.895 137 142C137 143.105 136.105 144 135 144ZM126 146C127.657 146 129 144.657 129 143C129 141.343 127.657 140 126 140C124.343 140 123 141.343 123 143C123 144.657 124.343 146 126 146ZM126 144C125.448 144 125 143.552 125 143C125 142.448 125.448 142 126 142C126.552 142 127 142.448 127 143C127 143.552 126.552 144 126 144ZM147 143C147 144.657 145.657 146 144 146C142.343 146 141 144.657 141 143C141 141.343 142.343 140 144 140C145.657 140 147 141.343 147 143ZM145 143C145 142.448 144.552 142 144 142C143.448 142 143 142.448 143 143C143 143.552 143.448 144 144 144C144.552 144 145 143.552 145 143ZM129.972 148.251C130.252 148.091 130.577 148 130.923 148H139.077C139.423 148 139.748 148.091 140.028 148.251C140.071 148.276 140.112 148.301 140.152 148.328C140.664 148.674 141 149.259 141 149.923V156C141 156.899 140.802 157.753 140.447 158.518C139.496 160.574 137.414 162 135 162C132.586 162 130.504 160.574 129.553 158.518C129.525 158.458 129.498 158.397 129.472 158.335C129.168 157.618 129 156.828 129 156V149.923C129 149.207 129.391 148.583 129.972 148.251ZM131 156C131 158.209 132.791 160 135 160C137.209 160 139 158.209 139 156V150H131V156ZM127.5 149.923C127.5 149.21 127.718 148.548 128.091 148H123C121.895 148 121 148.895 121 150V155C121 157.761 123.239 160 126 160C126.84 160 127.632 159.793 128.327 159.427C128.019 158.828 127.789 158.183 127.651 157.505C127.177 157.818 126.61 158 126 158C124.343 158 123 156.657 123 155V150H127.5V149.923ZM144 160C143.16 160 142.368 159.793 141.673 159.427C141.981 158.828 142.211 158.183 142.349 157.505C142.823 157.818 143.39 158 144 158C145.657 158 147 156.657 147 155V150H142.5V149.923C142.5 149.21 142.282 148.548 141.909 148H147C148.105 148 149 148.895 149 150V155C149 157.761 146.761 160 144 160Z" fill="#DDDDDD"/>
<path d="M157.304 145.273H158.872V151.409C158.869 151.972 158.75 152.456 158.514 152.862C158.278 153.266 157.949 153.577 157.526 153.795C157.105 154.011 156.615 154.119 156.055 154.119C155.544 154.119 155.084 154.028 154.675 153.847C154.268 153.662 153.946 153.389 153.707 153.028C153.469 152.668 153.349 152.219 153.349 151.682H154.922C154.925 151.918 154.976 152.121 155.075 152.291C155.178 152.462 155.318 152.592 155.497 152.683C155.676 152.774 155.882 152.82 156.115 152.82C156.368 152.82 156.582 152.767 156.759 152.662C156.935 152.554 157.068 152.395 157.159 152.185C157.253 151.974 157.301 151.716 157.304 151.409V145.273ZM163.374 154.128C162.735 154.128 162.181 153.987 161.712 153.706C161.244 153.425 160.88 153.031 160.621 152.526C160.366 152.02 160.238 151.429 160.238 150.753C160.238 150.077 160.366 149.484 160.621 148.976C160.88 148.467 161.244 148.072 161.712 147.791C162.181 147.51 162.735 147.369 163.374 147.369C164.013 147.369 164.567 147.51 165.036 147.791C165.505 148.072 165.867 148.467 166.123 148.976C166.381 149.484 166.511 150.077 166.511 150.753C166.511 151.429 166.381 152.02 166.123 152.526C165.867 153.031 165.505 153.425 165.036 153.706C164.567 153.987 164.013 154.128 163.374 154.128ZM163.383 152.892C163.729 152.892 164.019 152.797 164.252 152.607C164.485 152.413 164.658 152.155 164.772 151.831C164.888 151.507 164.947 151.146 164.947 150.749C164.947 150.348 164.888 149.986 164.772 149.662C164.658 149.335 164.485 149.075 164.252 148.882C164.019 148.689 163.729 148.592 163.383 148.592C163.028 148.592 162.732 148.689 162.496 148.882C162.263 149.075 162.089 149.335 161.972 149.662C161.859 149.986 161.802 150.348 161.802 150.749C161.802 151.146 161.859 151.507 161.972 151.831C162.089 152.155 162.263 152.413 162.496 152.607C162.732 152.797 163.028 152.892 163.383 152.892ZM169.363 150.165V154H167.82V145.273H169.328V148.567H169.405C169.559 148.197 169.796 147.906 170.117 147.693C170.441 147.477 170.853 147.369 171.353 147.369C171.807 147.369 172.203 147.464 172.542 147.655C172.88 147.845 173.141 148.124 173.326 148.49C173.513 148.857 173.607 149.304 173.607 149.832V154H172.064V150.071C172.064 149.631 171.951 149.288 171.723 149.044C171.499 148.797 171.184 148.673 170.777 148.673C170.505 148.673 170.26 148.733 170.044 148.852C169.831 148.969 169.664 149.138 169.542 149.359C169.422 149.581 169.363 149.849 169.363 150.165ZM176.722 150.165V154H175.179V147.455H176.654V148.567H176.73C176.881 148.2 177.121 147.909 177.451 147.693C177.783 147.477 178.194 147.369 178.682 147.369C179.134 147.369 179.527 147.466 179.863 147.659C180.201 147.852 180.462 148.132 180.647 148.499C180.834 148.865 180.926 149.31 180.924 149.832V154H179.381V150.071C179.381 149.634 179.267 149.291 179.04 149.044C178.816 148.797 178.505 148.673 178.107 148.673C177.837 148.673 177.597 148.733 177.387 148.852C177.179 148.969 177.016 149.138 176.897 149.359C176.78 149.581 176.722 149.849 176.722 150.165ZM188.494 154H185.537V145.273H188.554C189.42 145.273 190.164 145.447 190.787 145.797C191.412 146.143 191.892 146.642 192.227 147.293C192.562 147.943 192.73 148.722 192.73 149.628C192.73 150.537 192.561 151.318 192.223 151.972C191.887 152.625 191.403 153.126 190.77 153.476C190.139 153.825 189.38 154 188.494 154ZM187.118 152.632H188.417C189.025 152.632 189.532 152.521 189.939 152.3C190.345 152.075 190.65 151.741 190.855 151.298C191.059 150.852 191.162 150.295 191.162 149.628C191.162 148.96 191.059 148.406 190.855 147.966C190.65 147.523 190.348 147.192 189.947 146.973C189.549 146.751 189.055 146.641 188.464 146.641H187.118V152.632ZM197.019 154.128C196.38 154.128 195.826 153.987 195.357 153.706C194.888 153.425 194.525 153.031 194.266 152.526C194.01 152.02 193.882 151.429 193.882 150.753C193.882 150.077 194.01 149.484 194.266 148.976C194.525 148.467 194.888 148.072 195.357 147.791C195.826 147.51 196.38 147.369 197.019 147.369C197.658 147.369 198.212 147.51 198.681 147.791C199.15 148.072 199.512 148.467 199.767 148.976C200.026 149.484 200.155 150.077 200.155 150.753C200.155 151.429 200.026 152.02 199.767 152.526C199.512 153.031 199.15 153.425 198.681 153.706C198.212 153.987 197.658 154.128 197.019 154.128ZM197.027 152.892C197.374 152.892 197.664 152.797 197.897 152.607C198.13 152.413 198.303 152.155 198.417 151.831C198.533 151.507 198.591 151.146 198.591 150.749C198.591 150.348 198.533 149.986 198.417 149.662C198.303 149.335 198.13 149.075 197.897 148.882C197.664 148.689 197.374 148.592 197.027 148.592C196.672 148.592 196.377 148.689 196.141 148.882C195.908 149.075 195.733 149.335 195.617 149.662C195.503 149.986 195.446 150.348 195.446 150.749C195.446 151.146 195.503 151.507 195.617 151.831C195.733 152.155 195.908 152.413 196.141 152.607C196.377 152.797 196.672 152.892 197.027 152.892ZM204.362 154.128C203.706 154.128 203.139 153.991 202.662 153.719C202.188 153.443 201.822 153.054 201.567 152.551C201.311 152.045 201.183 151.45 201.183 150.766C201.183 150.092 201.311 149.501 201.567 148.993C201.825 148.482 202.186 148.084 202.649 147.8C203.112 147.513 203.656 147.369 204.281 147.369C204.685 147.369 205.065 147.435 205.423 147.565C205.784 147.693 206.102 147.892 206.378 148.162C206.656 148.432 206.875 148.776 207.034 149.193C207.193 149.608 207.273 150.102 207.273 150.676V151.149H201.908V150.109H205.794C205.791 149.814 205.727 149.551 205.602 149.321C205.477 149.088 205.303 148.905 205.078 148.771C204.857 148.638 204.598 148.571 204.303 148.571C203.987 148.571 203.71 148.648 203.472 148.801C203.233 148.952 203.047 149.151 202.913 149.398C202.783 149.642 202.716 149.911 202.713 150.203V151.111C202.713 151.491 202.783 151.818 202.922 152.091C203.061 152.361 203.256 152.568 203.506 152.713C203.756 152.855 204.048 152.926 204.384 152.926C204.608 152.926 204.811 152.895 204.993 152.832C205.175 152.767 205.332 152.672 205.466 152.547C205.599 152.422 205.7 152.267 205.768 152.082L207.209 152.244C207.118 152.625 206.945 152.957 206.689 153.241C206.436 153.523 206.112 153.741 205.717 153.898C205.322 154.051 204.871 154.128 204.362 154.128Z" fill="#262626"/>
<path d="M163 149C163 145.686 165.686 143 169 143H267C271.418 143 275 146.582 275 151C275 154.314 272.314 157 269 157H169C165.686 157 163 154.314 163 151V149Z" fill="#474747"/>
</svg>
