<svg width="400" height="300" viewBox="0 0 400 300" fill="none" xmlns="http://www.w3.org/2000/svg">
<rect width="400" height="300" fill="#E0E9FF"/>
<path d="M69.4261 195.429H68.1932C68.1203 195.074 67.9927 194.762 67.8104 194.494C67.6314 194.225 67.4126 194 67.1541 193.818C66.8989 193.632 66.6155 193.493 66.304 193.4C65.9924 193.307 65.6676 193.261 65.3295 193.261C64.7131 193.261 64.1546 193.417 63.6541 193.728C63.157 194.04 62.7609 194.499 62.4659 195.105C62.1742 195.712 62.0284 196.456 62.0284 197.338C62.0284 198.219 62.1742 198.963 62.4659 199.57C62.7609 200.176 63.157 200.636 63.6541 200.947C64.1546 201.259 64.7131 201.414 65.3295 201.414C65.6676 201.414 65.9924 201.368 66.304 201.275C66.6155 201.182 66.8989 201.045 67.1541 200.863C67.4126 200.677 67.6314 200.45 67.8104 200.181C67.9927 199.91 68.1203 199.598 68.1932 199.247H69.4261C69.3333 199.767 69.1643 200.233 68.919 200.644C68.6738 201.055 68.3688 201.404 68.0043 201.693C67.6397 201.978 67.2304 202.195 66.7763 202.344C66.3255 202.493 65.8433 202.568 65.3295 202.568C64.4612 202.568 63.6889 202.356 63.0128 201.931C62.3366 201.507 61.8047 200.904 61.4169 200.122C61.0291 199.34 60.8352 198.412 60.8352 197.338C60.8352 196.264 61.0291 195.336 61.4169 194.554C61.8047 193.771 62.3366 193.168 63.0128 192.744C63.6889 192.32 64.4612 192.108 65.3295 192.108C65.8433 192.108 66.3255 192.182 66.7763 192.331C67.2304 192.48 67.6397 192.699 68.0043 192.988C68.3688 193.273 68.6738 193.621 68.919 194.032C69.1643 194.439 69.3333 194.905 69.4261 195.429ZM73.5066 202.608C73.0227 202.608 72.5835 202.516 72.1891 202.334C71.7947 202.149 71.4815 201.882 71.2495 201.534C71.0175 201.182 70.9015 200.758 70.9015 200.261C70.9015 199.823 70.9876 199.469 71.16 199.197C71.3323 198.922 71.5627 198.707 71.851 198.551C72.1394 198.395 72.4576 198.279 72.8056 198.203C73.1569 198.123 73.5099 198.06 73.8645 198.014C74.3285 197.954 74.7047 197.909 74.9931 197.88C75.2847 197.846 75.4969 197.792 75.6294 197.716C75.7653 197.639 75.8333 197.507 75.8333 197.318V197.278C75.8333 196.787 75.699 196.406 75.4306 196.135C75.1654 195.863 74.7627 195.727 74.2225 195.727C73.6623 195.727 73.2232 195.85 72.905 196.095C72.5868 196.34 72.3631 196.602 72.2338 196.88L71.1202 196.483C71.3191 196.019 71.5842 195.657 71.9157 195.399C72.2504 195.137 72.615 194.955 73.0094 194.852C73.4071 194.746 73.7982 194.693 74.1827 194.693C74.428 194.693 74.7097 194.723 75.0279 194.782C75.3494 194.839 75.6593 194.956 75.9576 195.135C76.2592 195.314 76.5094 195.584 76.7083 195.946C76.9071 196.307 77.0066 196.791 77.0066 197.397V202.429H75.8333V201.394H75.7736C75.6941 201.56 75.5615 201.738 75.3759 201.926C75.1903 202.115 74.9434 202.276 74.6351 202.409C74.3269 202.541 73.9507 202.608 73.5066 202.608ZM73.6855 201.554C74.1496 201.554 74.5407 201.462 74.8588 201.28C75.1803 201.098 75.4223 200.863 75.5847 200.574C75.7504 200.286 75.8333 199.983 75.8333 199.664V198.591C75.7836 198.65 75.6742 198.705 75.5051 198.755C75.3394 198.801 75.1472 198.842 74.9284 198.879C74.713 198.912 74.5025 198.942 74.2971 198.968C74.0949 198.992 73.9308 199.011 73.8049 199.028C73.4999 199.068 73.2149 199.132 72.9498 199.222C72.6879 199.308 72.4758 199.439 72.3134 199.615C72.1543 199.787 72.0748 200.022 72.0748 200.321C72.0748 200.728 72.2256 201.037 72.5272 201.245C72.8321 201.451 73.2182 201.554 73.6855 201.554ZM79.1481 202.429V194.792H80.2816V195.985H80.381C80.5401 195.578 80.797 195.261 81.1516 195.036C81.5063 194.807 81.9322 194.693 82.4293 194.693C82.9331 194.693 83.3524 194.807 83.6871 195.036C84.0252 195.261 84.2887 195.578 84.4776 195.985H84.5572C84.7527 195.591 85.046 195.278 85.4371 195.046C85.8282 194.81 86.2972 194.693 86.8441 194.693C87.5269 194.693 88.0853 194.907 88.5195 195.334C88.9537 195.758 89.1708 196.42 89.1708 197.318V202.429H87.9975V197.318C87.9975 196.754 87.8434 196.352 87.5352 196.11C87.2269 195.868 86.864 195.747 86.4464 195.747C85.9094 195.747 85.4935 195.909 85.1985 196.234C84.9035 196.555 84.756 196.963 84.756 197.457V202.429H83.5629V197.198C83.5629 196.764 83.422 196.415 83.1403 196.149C82.8585 195.881 82.4956 195.747 82.0515 195.747C81.7466 195.747 81.4615 195.828 81.1964 195.99C80.9345 196.153 80.7224 196.378 80.56 196.667C80.4009 196.952 80.3214 197.281 80.3214 197.656V202.429H79.1481ZM94.5178 202.588C93.782 202.588 93.1473 202.425 92.6136 202.1C92.0833 201.772 91.674 201.315 91.3857 200.728C91.1006 200.138 90.9581 199.452 90.9581 198.67C90.9581 197.888 91.1006 197.198 91.3857 196.602C91.674 196.002 92.075 195.535 92.5888 195.2C93.1058 194.862 93.709 194.693 94.3984 194.693C94.7962 194.693 95.1889 194.759 95.5767 194.892C95.9645 195.024 96.3175 195.24 96.6357 195.538C96.9538 195.833 97.2074 196.224 97.3963 196.711C97.5852 197.198 97.6797 197.798 97.6797 198.511V199.008H91.7933V197.994H96.4865C96.4865 197.563 96.4003 197.179 96.228 196.841C96.0589 196.502 95.817 196.236 95.5021 196.04C95.1906 195.845 94.8227 195.747 94.3984 195.747C93.9311 195.747 93.5268 195.863 93.1854 196.095C92.8473 196.323 92.5871 196.622 92.4048 196.99C92.2225 197.358 92.1314 197.752 92.1314 198.173V198.849C92.1314 199.426 92.2308 199.915 92.4297 200.316C92.6319 200.713 92.9119 201.017 93.2699 201.225C93.6278 201.431 94.0438 201.534 94.5178 201.534C94.826 201.534 95.1044 201.491 95.353 201.404C95.6049 201.315 95.822 201.182 96.0043 201.007C96.1866 200.828 96.3274 200.606 96.4268 200.341L97.5604 200.659C97.4411 201.043 97.2405 201.381 96.9588 201.673C96.6771 201.961 96.3291 202.187 95.9148 202.349C95.5005 202.508 95.0348 202.588 94.5178 202.588ZM99.4645 202.429V194.792H100.598V195.946H100.678C100.817 195.568 101.069 195.261 101.433 195.026C101.798 194.791 102.209 194.673 102.666 194.673C102.752 194.673 102.86 194.675 102.989 194.678C103.119 194.681 103.216 194.686 103.283 194.693V195.886C103.243 195.876 103.152 195.861 103.009 195.841C102.87 195.818 102.723 195.806 102.567 195.806C102.196 195.806 101.864 195.884 101.572 196.04C101.284 196.193 101.055 196.405 100.886 196.676C100.721 196.945 100.638 197.252 100.638 197.596V202.429H99.4645ZM106.921 202.608C106.437 202.608 105.998 202.516 105.603 202.334C105.209 202.149 104.896 201.882 104.664 201.534C104.432 201.182 104.316 200.758 104.316 200.261C104.316 199.823 104.402 199.469 104.574 199.197C104.746 198.922 104.977 198.707 105.265 198.551C105.553 198.395 105.872 198.279 106.22 198.203C106.571 198.123 106.924 198.06 107.279 198.014C107.743 197.954 108.119 197.909 108.407 197.88C108.699 197.846 108.911 197.792 109.044 197.716C109.179 197.639 109.247 197.507 109.247 197.318V197.278C109.247 196.787 109.113 196.406 108.845 196.135C108.579 195.863 108.177 195.727 107.637 195.727C107.076 195.727 106.637 195.85 106.319 196.095C106.001 196.34 105.777 196.602 105.648 196.88L104.534 196.483C104.733 196.019 104.998 195.657 105.33 195.399C105.664 195.137 106.029 194.955 106.423 194.852C106.821 194.746 107.212 194.693 107.597 194.693C107.842 194.693 108.124 194.723 108.442 194.782C108.763 194.839 109.073 194.956 109.372 195.135C109.673 195.314 109.923 195.584 110.122 195.946C110.321 196.307 110.421 196.791 110.421 197.397V202.429H109.247V201.394H109.188C109.108 201.56 108.976 201.738 108.79 201.926C108.604 202.115 108.357 202.276 108.049 202.409C107.741 202.541 107.365 202.608 106.921 202.608ZM107.1 201.554C107.564 201.554 107.955 201.462 108.273 201.28C108.594 201.098 108.836 200.863 108.999 200.574C109.164 200.286 109.247 199.983 109.247 199.664V198.591C109.198 198.65 109.088 198.705 108.919 198.755C108.753 198.801 108.561 198.842 108.343 198.879C108.127 198.912 107.917 198.942 107.711 198.968C107.509 198.992 107.345 199.011 107.219 199.028C106.914 199.068 106.629 199.132 106.364 199.222C106.102 199.308 105.89 199.439 105.727 199.615C105.568 199.787 105.489 200.022 105.489 200.321C105.489 200.728 105.64 201.037 105.941 201.245C106.246 201.451 106.632 201.554 107.1 201.554Z" fill="#0B0B0B"/>
<rect x="60" y="215.429" width="280" height="42" rx="4" fill="#2C2C2C"/>
<path d="M320.22 234.898C320.513 234.605 320.987 234.605 321.28 234.898L324 237.618L326.72 234.898C327.013 234.605 327.487 234.605 327.78 234.898C328.073 235.191 328.073 235.666 327.78 235.959L324.53 239.209C324.237 239.502 323.763 239.502 323.47 239.209L320.22 235.959C319.927 235.666 319.927 235.191 320.22 234.898Z" fill="white" fill-opacity="0.88"/>
<rect x="70.3115" y="231.429" width="207.819" height="9" rx="4.5" fill="#474747"/>
<path d="M83 50C83 45.5817 86.5817 42 91 42H315C319.418 42 323 45.5817 323 50V169C323 173.418 319.418 177 315 177H91C86.5817 177 83 173.418 83 169V50Z" fill="#262626"/>
<circle cx="203" cy="98.5715" r="25.7143" fill="#B8B8B8"/>
<path d="M151.571 160.571C151.571 142.898 165.898 128.571 183.571 128.571H222.428C240.102 128.571 254.428 142.898 254.428 160.571V165.429C254.428 172.056 249.056 177.429 242.428 177.429H163.571C156.944 177.429 151.571 172.056 151.571 165.429V160.571Z" fill="#B8B8B8"/>
</svg>
